%TF.GenerationSoftware,KiCad,Pcbnew,7.0.5-0*%
%TF.CreationDate,2023-06-28T16:40:39-04:00*%
%TF.ProjectId,regret,72656772-6574-42e6-9b69-6361645f7063,1*%
%TF.SameCoordinates,Original*%
%TF.FileFunction,Profile,NP*%
%FSLAX46Y46*%
G04 Gerber Fmt 4.6, Leading zero omitted, Abs format (unit mm)*
G04 Created by KiCad (PCBNEW 7.0.5-0) date 2023-06-28 16:40:39*
%MOMM*%
%LPD*%
G01*
G04 APERTURE LIST*
%TA.AperFunction,Profile*%
%ADD10C,0.151694*%
%TD*%
G04 APERTURE END LIST*
D10*
X253485078Y-165441909D02*
X253524704Y-165418968D01*
X277711251Y-76137210D02*
X277634166Y-76027603D01*
X157829222Y-76828316D02*
X157725112Y-76897358D01*
X179521873Y-81508400D02*
X179540683Y-81425410D01*
X227084680Y-114689670D02*
X226912047Y-114737756D01*
X104983561Y-129468875D02*
X105091578Y-129564993D01*
X199070948Y-176176693D02*
X199220405Y-176201076D01*
X269869998Y-154398909D02*
X269826466Y-154255299D01*
X207123300Y-110972330D02*
X207180575Y-110798667D01*
X256722965Y-81674200D02*
X256723006Y-81674267D01*
X228751877Y-113392854D02*
X228651644Y-113545739D01*
X134424411Y-78956141D02*
X134302123Y-79009632D01*
X126486439Y-127032058D02*
X126608129Y-126929442D01*
X195385278Y-89676112D02*
X195362435Y-89623903D01*
X227579295Y-114485895D02*
X227418734Y-114563514D01*
X307829768Y-126275553D02*
X307987118Y-126285815D01*
X179501451Y-80610412D02*
X179476184Y-80533393D01*
X218261288Y-172257711D02*
X218343356Y-172263358D01*
X278162849Y-76618482D02*
X278064361Y-76531462D01*
X171534213Y-138744130D02*
X171654711Y-138845119D01*
X329785559Y-130209374D02*
X329934232Y-130174093D01*
X256792735Y-81922552D02*
X256807196Y-82005693D01*
X127894799Y-126331004D02*
X128050085Y-126304314D01*
X195402081Y-90531990D02*
X195421533Y-90474037D01*
X208775094Y-114563515D02*
X208614534Y-114485893D01*
X278706719Y-76979324D02*
X278591740Y-76917389D01*
X264121687Y-139298023D02*
X264219379Y-139174003D01*
X300900722Y-78346762D02*
X300808480Y-78249631D01*
X312091902Y-132125927D02*
X312210339Y-132207732D01*
X172079113Y-139307784D02*
X172169641Y-139436968D01*
X138492534Y-72939680D02*
X138355616Y-72994767D01*
X155526293Y-77211490D02*
X140370285Y-72865634D01*
X195309398Y-89523024D02*
X195279295Y-89474544D01*
X268604925Y-157714178D02*
X268730017Y-157629030D01*
X240721335Y-90065691D02*
X240719799Y-90123644D01*
X136659784Y-74922678D02*
X136046656Y-77060854D01*
X277561947Y-75913780D02*
X277494794Y-75795842D01*
X278064361Y-76531462D02*
X277969762Y-76439724D01*
X228300169Y-113961419D02*
X228168352Y-114083750D01*
X105091578Y-129564993D02*
X105204366Y-129655999D01*
X161982563Y-73571887D02*
X161843984Y-73554146D01*
X195212151Y-89381991D02*
X195175198Y-89338105D01*
X273936516Y-73627864D02*
X273800861Y-73666118D01*
X124960400Y-131158570D02*
X125028771Y-131028276D01*
X195401967Y-90532125D02*
X195402022Y-90532054D01*
X208940105Y-114631513D02*
X208775094Y-114563515D01*
X331941889Y-128409315D02*
X331993582Y-128273927D01*
X178972890Y-79805800D02*
X178908296Y-79754065D01*
X195468465Y-90240315D02*
X195472703Y-90181883D01*
X180478914Y-83836639D02*
X180398111Y-83804898D01*
X138772509Y-72850342D02*
X138631587Y-72891527D01*
X195418619Y-91387963D02*
X195398294Y-91334743D01*
X256722867Y-81673940D02*
X256722884Y-81674003D01*
X179034554Y-79860391D02*
X178972890Y-79805800D01*
X125517676Y-128804057D02*
X125547035Y-128646108D01*
X132973251Y-79228349D02*
X132833637Y-79216131D01*
X111857042Y-78193991D02*
X111802710Y-78330418D01*
X303360179Y-79215774D02*
X303220570Y-79227997D01*
X311761662Y-131847818D02*
X311867346Y-131945814D01*
X128206567Y-126285814D02*
X128363905Y-126275550D01*
X195451084Y-90357365D02*
X195461275Y-90298840D01*
X179494657Y-82890287D02*
X179465765Y-82814633D01*
X104155050Y-128135801D02*
X104200246Y-128273928D01*
X195451144Y-89894520D02*
X195438595Y-89838673D01*
X132693506Y-79197268D02*
X115085712Y-76408214D01*
X179465765Y-82814633D02*
X179440494Y-82737618D01*
X135710377Y-77819355D02*
X135636066Y-77932984D01*
X263544689Y-140762848D02*
X263566149Y-140606145D01*
X195380515Y-91280567D02*
X195365337Y-91225530D01*
X256286350Y-83487544D02*
X256224685Y-83542123D01*
X240811538Y-90590621D02*
X240827829Y-90648826D01*
X240914463Y-89474542D02*
X240884374Y-89523023D01*
X210976483Y-98871866D02*
X210938104Y-98732741D01*
X263566149Y-140606145D02*
X263595925Y-140450376D01*
X179470956Y-81674004D02*
X179470973Y-81673942D01*
X256548548Y-83176580D02*
X256502471Y-83243399D01*
X179443055Y-81756799D02*
X179470677Y-81674464D01*
X256722932Y-81674135D02*
X256722965Y-81674200D01*
X195331222Y-90882584D02*
X195335447Y-90824192D01*
X269905563Y-155843761D02*
X269933478Y-155702360D01*
X269870960Y-155983543D02*
X269905563Y-155843761D01*
X113101532Y-76781987D02*
X112975526Y-76859963D01*
X125813100Y-127900726D02*
X125888894Y-127762468D01*
X256750778Y-81756798D02*
X256773951Y-81839539D01*
X170541303Y-138218102D02*
X170594096Y-138236947D01*
X256825284Y-82254574D02*
X256823093Y-82336898D01*
X256723049Y-81674328D02*
X256723103Y-81674397D01*
X209816924Y-114819354D02*
X209636097Y-114802823D01*
X211062148Y-99445306D02*
X211051133Y-99299889D01*
X134774763Y-78764321D02*
X134660904Y-78833373D01*
X240526150Y-91767837D02*
X240484880Y-91808154D01*
X257044985Y-79977590D02*
X256992485Y-80039928D01*
X198632272Y-176058723D02*
X198776592Y-176105461D01*
X240791826Y-90532295D02*
X240791838Y-90532322D01*
X256620517Y-81093444D02*
X256622413Y-81176163D01*
X297977072Y-73058907D02*
X297846444Y-72998271D01*
X313569262Y-132685944D02*
X313717863Y-132696337D01*
X329633685Y-130237390D02*
X329785559Y-130209374D01*
X179471014Y-81673613D02*
X179471015Y-81673550D01*
X217524091Y-172308502D02*
X217605303Y-172293830D01*
X179498668Y-81591115D02*
X179521873Y-81508400D01*
X218425283Y-172271256D02*
X218507018Y-172281417D01*
X172629779Y-140613456D02*
X172650899Y-140769734D01*
X332038778Y-128135799D02*
X332077324Y-127995147D01*
X300290773Y-77455860D02*
X300237221Y-77327546D01*
X195441451Y-91440133D02*
X195418619Y-91387963D01*
X136704351Y-74780693D02*
X136659784Y-74922678D01*
X269716533Y-153971847D02*
X269649964Y-153832514D01*
X138631587Y-72891527D02*
X138492534Y-72939680D01*
X195472703Y-90181883D02*
X195474032Y-90123642D01*
X157163866Y-77167325D02*
X157044789Y-77205604D01*
X236973101Y-176201075D02*
X237122570Y-176176697D01*
X179691271Y-83243398D02*
X179645206Y-83176582D01*
X256779000Y-80383569D02*
X256746547Y-80457735D01*
X297712954Y-72943897D02*
X297576836Y-72895917D01*
X124629285Y-131636729D02*
X124720271Y-131523955D01*
X123059534Y-132611743D02*
X123200187Y-132573191D01*
X301308367Y-78690148D02*
X301201009Y-78611296D01*
X135096667Y-78527833D02*
X134992822Y-78611439D01*
X299236545Y-74227972D02*
X299158440Y-74102262D01*
X321697893Y-76373680D02*
X321550743Y-76371371D01*
X172169641Y-139436968D02*
X172253469Y-139571095D01*
X167018997Y-157236982D02*
X167121791Y-157342294D01*
X182547944Y-165353846D02*
X182588655Y-165374929D01*
X309585700Y-126929446D02*
X309707388Y-127032059D01*
X299374851Y-74493006D02*
X299308761Y-74358262D01*
X179370733Y-82336901D02*
X179368544Y-82254576D01*
X158027800Y-76675952D02*
X157930180Y-76754482D01*
X240792081Y-90532671D02*
X240792118Y-90532702D01*
X274349845Y-73554144D02*
X274211259Y-73571888D01*
X274488893Y-73543221D02*
X274349845Y-73554144D01*
X269667273Y-156521459D02*
X269727819Y-156390673D01*
X159042067Y-75031944D02*
X158978119Y-75156988D01*
X195365337Y-91225530D02*
X195352795Y-91169731D01*
X179419882Y-81839537D02*
X179443055Y-81756799D01*
X264796798Y-138640506D02*
X264928404Y-138552750D01*
X303500307Y-79196908D02*
X303360179Y-79215774D01*
X159446299Y-74465165D02*
X159354754Y-74570100D01*
X210884383Y-100623178D02*
X210933508Y-100476785D01*
X322830851Y-76645793D02*
X322695957Y-76587704D01*
X240348613Y-91917256D02*
X240299190Y-91949358D01*
X195437854Y-90415796D02*
X195451084Y-90357365D01*
X263634033Y-140295880D02*
X263680491Y-140142977D01*
X257100604Y-79917698D02*
X257044985Y-79977590D01*
X195279295Y-89474544D02*
X195246867Y-89427504D01*
X139495877Y-72749954D02*
X139349584Y-72755861D01*
X218588518Y-172293831D02*
X218669730Y-172308503D01*
X195591624Y-91681852D02*
X195556935Y-91636373D01*
X126261274Y-127254791D02*
X126370758Y-127140601D01*
X218179123Y-172254326D02*
X218261288Y-172257711D01*
X195401931Y-90532167D02*
X195401967Y-90532125D01*
X172253469Y-139571095D02*
X172330366Y-139709939D01*
X257731051Y-79511241D02*
X257650216Y-79542984D01*
X179376929Y-82418676D02*
X179370733Y-82336901D01*
X127292146Y-126518702D02*
X127439374Y-126459734D01*
X255714570Y-83836640D02*
X241501188Y-89009757D01*
X128995281Y-126317837D02*
X129151980Y-126349484D01*
X195005875Y-89180741D02*
X194958387Y-89146426D01*
X240828495Y-91225534D02*
X240813316Y-91280567D01*
X157930180Y-76754482D02*
X157829222Y-76828316D01*
X112975526Y-76859963D02*
X112852986Y-76944447D01*
X225160642Y-99155686D02*
X225142629Y-99299890D01*
X323092289Y-76781987D02*
X322963048Y-76710575D01*
X240791796Y-90532213D02*
X240791803Y-90532240D01*
X136046656Y-77060854D02*
X136004534Y-77195840D01*
X180033555Y-83593845D02*
X179968979Y-83542122D01*
X265500597Y-138272576D02*
X265606447Y-138234122D01*
X330493746Y-129964574D02*
X330624050Y-129896176D01*
X256722841Y-81673809D02*
X256722853Y-81673874D01*
X105443629Y-129821805D02*
X105569786Y-129896176D01*
X240742746Y-90357368D02*
X240755978Y-90415797D01*
X313277268Y-132643489D02*
X313422324Y-132668275D01*
X299434583Y-74632079D02*
X299374851Y-74493006D01*
X197950881Y-175715966D02*
X198080833Y-175798874D01*
X256622691Y-81011125D02*
X256620517Y-81093444D01*
X323572037Y-77130521D02*
X323458994Y-77034822D01*
X166593485Y-156649459D02*
X166666517Y-156774245D01*
X256722830Y-81673614D02*
X256722831Y-81673679D01*
X229100975Y-112566759D02*
X229051646Y-112738596D01*
X196054289Y-92031516D02*
X195999220Y-92006579D01*
X226736253Y-114775551D02*
X226557725Y-114802826D01*
X240299190Y-91949358D02*
X240247838Y-91979165D01*
X241284660Y-89114310D02*
X241235230Y-89146424D01*
X137289648Y-73769648D02*
X137195785Y-73881939D01*
X114790518Y-76376316D02*
X114642969Y-76371368D01*
X312993651Y-132573192D02*
X313134305Y-132611743D01*
X279067134Y-77132817D02*
X278944612Y-77087137D01*
X301419066Y-78764143D02*
X301308367Y-78690148D01*
X240725688Y-90008125D02*
X240721335Y-90065691D01*
X269175005Y-157236807D02*
X269271994Y-157127111D01*
X195352795Y-91169731D02*
X195342934Y-91113258D01*
X324390971Y-78330270D02*
X324336671Y-78193834D01*
X225300543Y-98595787D02*
X225255617Y-98732738D01*
X302536449Y-79193348D02*
X302403646Y-79168050D01*
X321550743Y-76371371D02*
X321403227Y-76376311D01*
X182629030Y-165396639D02*
X182669057Y-165418968D01*
X332127457Y-126804879D02*
X324540284Y-78901995D01*
X172600386Y-140458094D02*
X172629779Y-140613456D01*
X179470906Y-81674135D02*
X179470931Y-81674072D01*
X179565401Y-81259159D02*
X179571432Y-81176166D01*
X172632911Y-141553383D02*
X172604701Y-141708250D01*
X166745666Y-156895643D02*
X166830854Y-157013400D01*
X240732558Y-90298838D02*
X240742746Y-90357368D01*
X200130748Y-176186638D02*
X200282030Y-176156929D01*
X194749182Y-89032117D02*
X194692284Y-89009759D01*
X210311082Y-97607512D02*
X210212184Y-97501020D01*
X199978857Y-176208457D02*
X200130748Y-176186638D01*
X256722907Y-81674071D02*
X256722932Y-81674135D01*
X256502471Y-83243399D02*
X256453153Y-83308037D01*
X139789045Y-72759610D02*
X139642452Y-72751196D01*
X311977498Y-132038569D02*
X312091902Y-132125927D01*
X127006538Y-126660440D02*
X127147755Y-126585620D01*
X256652999Y-80767982D02*
X256638993Y-80848261D01*
X195331445Y-90998684D02*
X195329902Y-90940778D01*
X171408426Y-138649473D02*
X171534213Y-138744130D01*
X302143467Y-79099992D02*
X302016444Y-79057456D01*
X195524529Y-91589370D02*
X195494450Y-91540929D01*
X324275865Y-78060455D02*
X324208692Y-77930352D01*
X229168462Y-112216523D02*
X229139937Y-112392576D01*
X178462776Y-79511240D02*
X162527149Y-73711238D01*
X195474032Y-90123642D02*
X195472496Y-90065692D01*
X310676148Y-128804056D02*
X310892411Y-130168254D01*
X279576465Y-77258363D02*
X279446636Y-77235752D01*
X194908934Y-89114312D02*
X194857551Y-89084488D01*
X237122570Y-176176697D02*
X237270624Y-176144806D01*
X159187373Y-74792978D02*
X159111874Y-74910541D01*
X237416970Y-176105461D02*
X237561316Y-176058722D01*
X240755978Y-90415797D02*
X240772299Y-90474036D01*
X309046057Y-126585621D02*
X309187289Y-126660438D01*
X122475980Y-132696334D02*
X122624578Y-132685940D01*
X134885462Y-78690303D02*
X134774763Y-78764321D01*
X170857099Y-138338808D02*
X171001690Y-138405817D01*
X104880470Y-129367864D02*
X104983561Y-129468875D01*
X195423407Y-89783591D02*
X195405621Y-89729375D01*
X269727819Y-156390673D02*
X269782003Y-156257254D01*
X255873691Y-83769483D02*
X255795403Y-83804899D01*
X195421533Y-90474037D02*
X195437854Y-90415796D01*
X134544064Y-78897352D02*
X134424411Y-78956141D01*
X217850464Y-172263358D02*
X217932532Y-172257714D01*
X298579125Y-73451497D02*
X298466302Y-73361487D01*
X302016444Y-79057456D02*
X301891701Y-79009392D01*
X240791838Y-90532322D02*
X240791852Y-90532352D01*
X135956611Y-77327550D02*
X135903055Y-77455868D01*
X324540284Y-78901995D02*
X324513419Y-78755618D01*
X158381140Y-76316768D02*
X158298751Y-76413129D01*
X137836975Y-73282182D02*
X137717658Y-73369109D01*
X240082670Y-92053871D02*
X227102600Y-96778260D01*
X312458466Y-132354061D02*
X312587714Y-132418270D01*
X124101939Y-132125927D02*
X124216341Y-132038566D01*
X104309970Y-128541747D02*
X104374177Y-128671006D01*
X127147755Y-126585620D02*
X127292146Y-126518702D01*
X256400652Y-83370362D02*
X256345029Y-83430246D01*
X257423254Y-79659708D02*
X257352994Y-79705322D01*
X240669301Y-91589371D02*
X240636893Y-91636376D01*
X311307797Y-131284716D02*
X311387912Y-131406566D01*
X162257311Y-73627864D02*
X162120425Y-73596457D01*
X280781493Y-77179034D02*
X280646704Y-77214188D01*
X269976246Y-155271008D02*
X269976569Y-155125680D01*
X301649765Y-78897143D02*
X301532924Y-78833182D01*
X158212273Y-76505177D02*
X158121894Y-76592816D01*
X297010733Y-72770479D02*
X296864968Y-72756390D01*
X276747528Y-74465165D02*
X276650977Y-74364817D01*
X256823093Y-82336898D02*
X256816893Y-82418677D01*
X158666039Y-75890079D02*
X158601886Y-76002745D01*
X229186485Y-112039088D02*
X229168462Y-112216523D01*
X195401723Y-90532633D02*
X195401728Y-90532599D01*
X166666517Y-156774245D02*
X166745666Y-156895643D01*
X253406872Y-165489625D02*
X253445798Y-165465464D01*
X132833637Y-79216131D02*
X132693506Y-79197268D01*
X253604948Y-165374931D02*
X253645540Y-165353845D01*
X179540683Y-81425410D02*
X179555173Y-81342284D01*
X166239315Y-155559619D02*
X166260446Y-155702387D01*
X114938186Y-76388576D02*
X114790518Y-76376316D01*
X179793068Y-83370363D02*
X179740580Y-83308034D01*
X125146729Y-130755881D02*
X125195879Y-130614098D01*
X300636821Y-78042608D02*
X300557766Y-77932940D01*
X311047112Y-130755882D02*
X311102888Y-130893994D01*
X278479667Y-76850238D02*
X278370697Y-76777972D01*
X218669730Y-172308503D02*
X218750614Y-172325432D01*
X179376431Y-82088839D02*
X179386634Y-82005694D01*
X113230756Y-76710578D02*
X113101532Y-76781987D01*
X226376897Y-114819355D02*
X226194201Y-114824917D01*
X179848670Y-83430246D02*
X179793068Y-83370363D01*
X241098938Y-89255597D02*
X241057655Y-89295944D01*
X310035666Y-127374348D02*
X310132220Y-127499001D01*
X207142183Y-112738600D02*
X207092849Y-112566761D01*
X159750286Y-74178616D02*
X159644236Y-74269235D01*
X240791924Y-90532474D02*
X240791947Y-90532504D01*
X240441506Y-91846559D02*
X240396066Y-91882959D01*
X159542852Y-74364814D02*
X159446299Y-74465165D01*
X138915031Y-72816151D02*
X138772509Y-72850342D01*
X137717658Y-73369109D02*
X137603102Y-73461536D01*
X256628445Y-81259157D02*
X256638674Y-81342284D01*
X195494450Y-91540929D02*
X195466741Y-91491151D01*
X279707628Y-77274952D02*
X279576465Y-77258363D01*
X277634166Y-76027603D02*
X277561947Y-75913780D01*
X256453153Y-83308037D02*
X256400652Y-83370362D01*
X106560156Y-130237389D02*
X121869262Y-132662028D01*
X240791756Y-90532053D02*
X240791760Y-90532087D01*
X158532896Y-76111479D02*
X158459252Y-76216183D01*
X171001690Y-138405817D02*
X171141928Y-138480086D01*
X195362435Y-89623903D02*
X195337127Y-89572841D01*
X307671897Y-126273574D02*
X307829768Y-126275553D01*
X308901654Y-126518704D02*
X309046057Y-126585621D01*
X240791993Y-90532571D02*
X240792023Y-90532602D01*
X277969762Y-76439724D02*
X277879248Y-76343372D01*
X179602450Y-83107728D02*
X179563066Y-83036968D01*
X140226273Y-72828212D02*
X140081220Y-72798090D01*
X137960888Y-73200952D02*
X137836975Y-73282182D01*
X300483455Y-77819322D02*
X300414066Y-77701860D01*
X166260446Y-155702387D02*
X166288354Y-155843791D01*
X277081962Y-74910544D02*
X277006463Y-74792977D01*
X331883861Y-128541748D02*
X331941889Y-128409315D01*
X235911455Y-176156931D02*
X236062732Y-176186637D01*
X166477617Y-153971850D02*
X166418783Y-154112860D01*
X123735374Y-132354061D02*
X123861240Y-132283830D01*
X298349451Y-73277094D02*
X298228810Y-73198448D01*
X171982120Y-139183774D02*
X172079113Y-139307784D01*
X301201009Y-78611296D02*
X301097166Y-78527706D01*
X104059987Y-127707127D02*
X104084764Y-127852183D01*
X256823407Y-82171844D02*
X256825284Y-82254574D01*
X280646704Y-77214188D02*
X280511682Y-77242524D01*
X156552001Y-77303125D02*
X156425615Y-77313134D01*
X179440494Y-82737618D02*
X179418913Y-82659379D01*
X105972504Y-130082577D02*
X106114298Y-130131750D01*
X195352792Y-90707218D02*
X195366001Y-90648827D01*
X226685051Y-96966972D02*
X226555237Y-97042283D01*
X208614534Y-114485893D02*
X208458862Y-114398882D01*
X125888894Y-127762468D02*
X125971790Y-127628467D01*
X226557725Y-114802826D02*
X226376897Y-114819355D01*
X274767384Y-73541776D02*
X274628157Y-73539099D01*
X115085712Y-76408214D02*
X114938186Y-76388576D01*
X134050361Y-79100264D02*
X133921235Y-79137183D01*
X313422324Y-132668275D02*
X313569262Y-132685944D01*
X240851213Y-90765705D02*
X240858388Y-90824194D01*
X112058492Y-77803887D02*
X111985073Y-77930497D01*
X332164808Y-127261546D02*
X332160158Y-127110267D01*
X274211259Y-73571888D02*
X274073400Y-73596454D01*
X240862611Y-90882583D02*
X240863932Y-90940780D01*
X263946003Y-139561536D02*
X264030484Y-139427278D01*
X105569786Y-129896176D02*
X105700091Y-129964571D01*
X264323320Y-139055447D02*
X264433273Y-138942584D01*
X112411571Y-77337028D02*
X112314667Y-77447346D01*
X296122336Y-72796010D02*
X295972684Y-72826849D01*
X263735307Y-139992011D02*
X263798176Y-139844136D01*
X157508191Y-77020680D02*
X157395754Y-77074768D01*
X253445798Y-165465464D02*
X253485078Y-165441909D01*
X104200246Y-128273928D02*
X104251940Y-128409318D01*
X113362932Y-76645795D02*
X113230756Y-76710578D01*
X158868493Y-75417270D02*
X158827579Y-75529450D01*
X167589199Y-157714477D02*
X167719696Y-157793987D01*
X112223427Y-77562085D02*
X112137989Y-77681007D01*
X237703375Y-176004634D02*
X237842858Y-175943266D01*
X314019192Y-132694669D02*
X314171487Y-132682297D01*
X301097166Y-78527706D02*
X300997012Y-78439490D01*
X256638674Y-81342284D02*
X256653160Y-81425409D01*
X229176908Y-111503283D02*
X229190770Y-111681984D01*
X311564556Y-131636734D02*
X311660660Y-131744740D01*
X256723160Y-81674462D02*
X256750778Y-81756798D01*
X125584587Y-128490746D02*
X125630153Y-128338249D01*
X133112169Y-79234032D02*
X132973251Y-79228349D01*
X171654711Y-138845119D02*
X171769683Y-138952213D01*
X207003055Y-111681986D02*
X207016920Y-111503279D01*
X179368544Y-82254576D02*
X179370420Y-82171843D01*
X278591740Y-76917389D02*
X278479667Y-76850238D01*
X228542245Y-113692191D02*
X228424944Y-113830826D01*
X295972684Y-72826849D02*
X295823198Y-72865629D01*
X179571153Y-81011128D02*
X179564975Y-80929357D01*
X166259424Y-154688639D02*
X166238170Y-154834249D01*
X312720144Y-132476297D02*
X312855526Y-132527991D01*
X240727088Y-91491152D02*
X240699383Y-91540929D01*
X253330157Y-165539758D02*
X253368321Y-165514393D01*
X269829746Y-156121462D02*
X269870960Y-155983543D01*
X167344414Y-157538707D02*
X167464076Y-157629303D01*
X211051133Y-99299889D02*
X211033108Y-99155684D01*
X127589110Y-126408762D02*
X127741029Y-126365838D01*
X256723103Y-81674397D02*
X256723132Y-81674430D01*
X209091215Y-96778262D02*
X196111155Y-92053872D01*
X256774898Y-82659378D02*
X256753311Y-82737619D01*
X331673314Y-128919141D02*
X331749417Y-128796874D01*
X195797761Y-91882959D02*
X195752325Y-91846558D01*
X256807196Y-82005693D02*
X256817402Y-82088838D01*
X210938104Y-98732741D02*
X210893167Y-98595788D01*
X298104602Y-73125675D02*
X297977072Y-73058907D01*
X210893167Y-98595788D02*
X210841787Y-98461253D01*
X240791947Y-90532504D02*
X240791968Y-90532537D01*
X229013244Y-110798668D02*
X229070519Y-110972330D01*
X280376624Y-77264140D02*
X280241722Y-77279136D01*
X303081653Y-79233681D02*
X302943607Y-79232951D01*
X195438595Y-89838673D02*
X195423407Y-89783591D01*
X324479486Y-78611386D02*
X324438622Y-78469528D01*
X104033673Y-127110268D02*
X104029020Y-127261547D01*
X124326495Y-131945810D02*
X124432179Y-131847815D01*
X209638484Y-97042283D02*
X209508690Y-96966971D01*
X227253721Y-114631511D02*
X227084680Y-114689670D01*
X225309434Y-100623176D02*
X229013244Y-110798668D01*
X241018522Y-89338106D02*
X240981586Y-89381991D01*
X269826466Y-154255299D02*
X269775341Y-154112860D01*
X209999620Y-114824912D02*
X209816924Y-114819354D01*
X104520519Y-128919142D02*
X104602330Y-129037588D01*
X256746547Y-80457735D02*
X256717655Y-80533392D01*
X240791750Y-90532006D02*
X240791750Y-90532028D01*
X210492124Y-97833310D02*
X210404431Y-97718357D01*
X264928404Y-138552750D02*
X265064824Y-138471846D01*
X321990063Y-76399812D02*
X321844419Y-76383181D01*
X179471009Y-81673680D02*
X179471014Y-81673613D01*
X275976123Y-73869494D02*
X275849320Y-73806491D01*
X207016920Y-111503279D02*
X207041536Y-111325118D01*
X297846444Y-72998271D02*
X297712954Y-72943897D01*
X178840834Y-79705325D02*
X178770574Y-79659707D01*
X322558619Y-76536366D02*
X322419104Y-76491848D01*
X301769418Y-78955916D02*
X301649765Y-78897143D01*
X278370697Y-76777972D02*
X278265024Y-76700685D01*
X225159951Y-100034234D02*
X225185682Y-100182071D01*
X162527149Y-73711238D02*
X162392972Y-73666120D01*
X240772299Y-90474036D02*
X240791748Y-90531993D01*
X278944612Y-77087137D02*
X278824408Y-77035938D01*
X179093231Y-79917698D02*
X179034554Y-79860391D01*
X323679837Y-77231317D02*
X323572037Y-77130521D01*
X123606122Y-132418268D02*
X123735374Y-132354061D01*
X171769683Y-138952213D02*
X171878898Y-139065178D01*
X276218135Y-74013009D02*
X276099120Y-73938397D01*
X179476184Y-80533393D02*
X179447295Y-80457733D01*
X126868814Y-126743113D02*
X127006538Y-126660440D01*
X136877829Y-74373453D02*
X136813539Y-74505873D01*
X330872068Y-129741674D02*
X330989470Y-129655998D01*
X160606131Y-73699910D02*
X160474287Y-73749845D01*
X138355616Y-72994767D02*
X138221094Y-73056757D01*
X158601886Y-76002745D02*
X158532896Y-76111479D01*
X264548997Y-138835655D02*
X264670249Y-138734885D01*
X240862386Y-90998686D02*
X240858030Y-91056212D01*
X256814949Y-80311035D02*
X256779000Y-80383569D01*
X172462411Y-140000834D02*
X172516716Y-140151452D01*
X104084764Y-127852183D02*
X104116503Y-127995146D01*
X161843984Y-73554146D02*
X161704932Y-73543220D01*
X179471015Y-81673550D02*
X179471018Y-81673417D01*
X263784402Y-142308276D02*
X263723483Y-142160482D01*
X104251940Y-128409318D02*
X104309970Y-128541747D01*
X240791905Y-90532441D02*
X240791924Y-90532474D01*
X240732816Y-89951037D02*
X240725688Y-90008125D01*
X225789238Y-97718355D02*
X225701546Y-97833306D01*
X195401721Y-90532670D02*
X195401723Y-90532633D01*
X277793011Y-76242497D02*
X277711251Y-76137210D01*
X332133839Y-127707128D02*
X332151493Y-127560189D01*
X155912979Y-77292802D02*
X155783979Y-77272147D01*
X135385352Y-78249709D02*
X135293107Y-78346856D01*
X199674404Y-176228629D02*
X199826646Y-176222434D01*
X207076975Y-111147972D02*
X207123300Y-110972330D01*
X157395754Y-77074768D02*
X157280915Y-77123686D01*
X211008128Y-100182071D02*
X211033854Y-100034232D01*
X236671065Y-176227099D02*
X236822501Y-176217897D01*
X104782464Y-129262164D02*
X104880470Y-129367864D01*
X300189293Y-77195842D02*
X300147171Y-77060854D01*
X133657378Y-79193658D02*
X133522995Y-79212989D01*
X273800861Y-73666118D02*
X273666686Y-73711237D01*
X137603102Y-73461536D02*
X137493472Y-73559235D01*
X170381020Y-138167092D02*
X170434803Y-138183175D01*
X121869262Y-132662028D02*
X122022358Y-132682298D01*
X125195879Y-130614098D02*
X125238189Y-130468787D01*
X268338701Y-157867213D02*
X268474460Y-157793654D01*
X137024976Y-74119646D02*
X136948364Y-74244639D01*
X167464076Y-157629303D02*
X167589199Y-157714477D01*
X162392972Y-73666120D02*
X162257311Y-73627864D01*
X172650899Y-140769734D02*
X172663760Y-140926605D01*
X114203619Y-76399810D02*
X114059123Y-76423507D01*
X256092628Y-83642582D02*
X256022365Y-83688190D01*
X179470931Y-81674072D02*
X179470956Y-81674004D01*
X160344513Y-73806489D02*
X160217707Y-73869495D01*
X114642969Y-76371368D02*
X114495801Y-76373682D01*
X199826646Y-176222434D02*
X199978857Y-176208457D01*
X312332599Y-132283829D02*
X312458466Y-132354061D01*
X166324067Y-154398911D02*
X166288030Y-154543442D01*
X178697575Y-79617354D02*
X178621900Y-79578403D01*
X323782255Y-77336973D02*
X323679837Y-77231317D01*
X297438319Y-72854451D02*
X297297644Y-72819640D01*
X226819628Y-96897702D02*
X226685051Y-96966972D01*
X160875013Y-73620205D02*
X160739792Y-73656695D01*
X298687689Y-73546991D02*
X298579125Y-73451497D01*
X179645206Y-83176582D02*
X179602450Y-83107728D01*
X269906009Y-154543438D02*
X269869998Y-154398909D01*
X161149124Y-73567466D02*
X161011539Y-73590462D01*
X323879152Y-77447276D02*
X323782255Y-77336973D01*
X135196819Y-78439605D02*
X135096667Y-78527833D01*
X263868489Y-139700567D02*
X263946003Y-139561536D01*
X198080833Y-175798874D02*
X198214237Y-175874660D01*
X179571432Y-81176166D02*
X179573330Y-81093441D01*
X228651644Y-113545739D02*
X228542245Y-113692191D01*
X324135292Y-77803757D02*
X324055811Y-77680895D01*
X256722884Y-81674003D02*
X256722907Y-81674071D01*
X195335447Y-90824192D02*
X195342623Y-90765704D01*
X324055811Y-77680895D02*
X323970384Y-77561992D01*
X179148850Y-79977586D02*
X179093231Y-79917698D01*
X195051340Y-89217167D02*
X195005875Y-89180741D01*
X256666674Y-82964445D02*
X256630714Y-83036968D01*
X179250667Y-80104580D02*
X179201349Y-80039928D01*
X240247838Y-91979165D02*
X240194608Y-92006579D01*
X195472496Y-90065692D02*
X195468139Y-90008123D01*
X240565275Y-91725704D02*
X240526150Y-91767837D01*
X240602201Y-91681852D02*
X240565275Y-91725704D01*
X226430297Y-97123395D02*
X226310337Y-97210067D01*
X166364167Y-156121506D02*
X166411911Y-156257307D01*
X257285537Y-79754066D02*
X257220940Y-79805799D01*
X112314667Y-77447346D02*
X112223427Y-77562085D01*
X179740580Y-83308034D02*
X179691271Y-83243398D01*
X263853486Y-142453348D02*
X263784402Y-142308276D01*
X159268389Y-74679434D02*
X159187373Y-74792978D01*
X207201823Y-112907608D02*
X207142183Y-112738600D01*
X217605303Y-172293830D02*
X217686801Y-172281417D01*
X330079542Y-130131752D02*
X330221336Y-130082573D01*
X161704932Y-73543220D02*
X161565665Y-73539099D01*
X179470704Y-81674429D02*
X179470734Y-81674395D01*
X209374138Y-96897704D02*
X209234941Y-96834721D01*
X240752381Y-91440132D02*
X240727088Y-91491152D01*
X105321766Y-129741674D02*
X105443629Y-129821805D01*
X124720271Y-131523955D02*
X124805932Y-131406567D01*
X135557007Y-78042661D02*
X135473380Y-78148277D01*
X157725112Y-76897358D02*
X157618040Y-76961510D01*
X300997012Y-78439490D02*
X300900722Y-78346762D01*
X126158163Y-127374349D02*
X126261274Y-127254791D01*
X128521776Y-126273576D02*
X128679849Y-126279930D01*
X225255617Y-98732738D02*
X225217246Y-98871869D01*
X263798176Y-139844136D02*
X263868489Y-139700567D01*
X122624578Y-132685940D02*
X122771515Y-132668277D01*
X256022365Y-83688190D02*
X255949365Y-83730534D01*
X195945988Y-91979164D02*
X195894638Y-91949356D01*
X308754407Y-126459733D02*
X308901654Y-126518704D01*
X331993582Y-128273927D02*
X332038778Y-128135799D01*
X133790179Y-79168351D02*
X133657378Y-79193658D01*
X198214237Y-175874660D02*
X198350808Y-175943263D01*
X195667675Y-91767838D02*
X195628555Y-91725702D01*
X269954618Y-155559600D02*
X269968900Y-155415733D01*
X172663760Y-140926605D02*
X172668379Y-141083736D01*
X167230292Y-157442956D02*
X167344414Y-157538707D01*
X240742677Y-89894517D02*
X240732816Y-89951037D01*
X269363115Y-157013263D02*
X269448286Y-156895524D01*
X331210274Y-129468873D02*
X331313365Y-129367861D01*
X332109066Y-127852186D02*
X332133839Y-127707128D01*
X195405621Y-89729375D02*
X195385278Y-89676112D01*
X277879248Y-76343372D02*
X277793011Y-76242497D01*
X171141928Y-138480086D02*
X171277584Y-138561381D01*
X240856659Y-89572840D02*
X240831359Y-89623901D01*
X311473569Y-131523954D02*
X311564556Y-131636734D01*
X225185552Y-99012931D02*
X225160642Y-99155686D01*
X241235230Y-89146424D02*
X241187767Y-89180744D01*
X241142324Y-89217168D02*
X241098938Y-89255597D01*
X322419104Y-76491848D02*
X322277667Y-76454207D01*
X180319855Y-83769483D02*
X180244205Y-83730533D01*
X269976569Y-155125680D02*
X269969791Y-154980011D01*
X240791852Y-90532352D02*
X240791869Y-90532381D01*
X276650977Y-74364817D02*
X276549594Y-74269237D01*
X195401744Y-90532539D02*
X195401750Y-90532506D01*
X330989470Y-129655998D02*
X331102257Y-129564994D01*
X276839074Y-74570099D02*
X276747528Y-74465165D01*
X295823198Y-72865629D02*
X280781493Y-77179034D01*
X208025475Y-114083752D02*
X207893661Y-113961421D01*
X276443543Y-74178619D02*
X276332998Y-74093144D01*
X140081220Y-72798090D02*
X139935388Y-72775233D01*
X299308761Y-74358262D02*
X299236545Y-74227972D01*
X298466302Y-73361487D02*
X298349451Y-73277094D01*
X111680120Y-78755675D02*
X111653191Y-78901995D01*
X299534043Y-74922678D02*
X299487727Y-74775343D01*
X166238170Y-154834249D02*
X166224191Y-154980016D01*
X330624050Y-129896176D02*
X330750211Y-129821804D01*
X178543611Y-79542986D02*
X178462776Y-79511240D01*
X166466097Y-156390736D02*
X166526649Y-156521539D01*
X167121791Y-157342294D02*
X167230292Y-157442956D01*
X277432902Y-75673885D02*
X277376465Y-75548009D01*
X321403227Y-76376311D02*
X321255606Y-76388573D01*
X139203833Y-72768883D02*
X139058895Y-72788990D01*
X331819649Y-128671005D02*
X331883861Y-128541748D01*
X226085821Y-97399120D02*
X225981488Y-97501021D01*
X210107859Y-97399123D02*
X209998212Y-97302057D01*
X277151773Y-75031943D02*
X277081962Y-74910544D01*
X125630153Y-128338249D02*
X125683550Y-128188893D01*
X308143610Y-126304316D02*
X308298919Y-126331006D01*
X170708396Y-138279291D02*
X170857099Y-138338808D01*
X166544221Y-153832512D02*
X166477617Y-153971850D01*
X310132220Y-127499001D02*
X310222035Y-127628468D01*
X156923878Y-77238415D02*
X156801318Y-77265674D01*
X122325931Y-132699297D02*
X122475980Y-132696334D01*
X105204366Y-129655999D02*
X105321766Y-129741674D01*
X277325350Y-75417270D02*
X277273636Y-75285495D01*
X166921990Y-157127261D02*
X167018997Y-157236982D01*
X161011539Y-73590462D02*
X160875013Y-73620205D01*
X240858030Y-91056212D02*
X240850898Y-91113259D01*
X134302123Y-79009632D02*
X134177384Y-79057712D01*
X125547035Y-128646108D02*
X125584587Y-128490746D01*
X195461009Y-89951036D02*
X195451144Y-89894520D01*
X180100994Y-83642581D02*
X180033555Y-83593845D01*
X311165070Y-131028276D02*
X311233444Y-131158568D01*
X240850898Y-91113259D02*
X240841038Y-91169730D01*
X240808517Y-89676112D02*
X240788188Y-89729375D01*
X240791781Y-90532165D02*
X240791796Y-90532213D01*
X225185682Y-100182071D02*
X225219099Y-100329666D01*
X195366001Y-90648827D02*
X195382295Y-90590620D01*
X179564975Y-80929357D02*
X179554850Y-80848263D01*
X269649964Y-153832514D02*
X263853486Y-142453348D01*
X225619628Y-97952130D02*
X225543593Y-98074575D01*
X330359459Y-130026777D02*
X330493746Y-129964574D01*
X114349263Y-76383180D02*
X114203619Y-76399810D01*
X104689698Y-129152005D02*
X104782464Y-129262164D01*
X158725164Y-75773578D02*
X158666039Y-75890079D01*
X122771515Y-132668277D02*
X122916574Y-132643489D01*
X207271712Y-113073310D02*
X207201823Y-112907608D01*
X240795539Y-91334745D02*
X240775214Y-91387964D01*
X195335805Y-91056212D02*
X195331445Y-90998684D01*
X195894638Y-91949356D02*
X195845212Y-91917257D01*
X137388931Y-73662010D02*
X137289648Y-73769648D01*
X264030484Y-139427278D02*
X264121687Y-139298023D01*
X125028771Y-131028276D02*
X125090955Y-130893994D01*
X156170344Y-77315230D02*
X156041830Y-77307127D01*
X178770574Y-79659707D02*
X178697575Y-79617354D01*
X308604648Y-126408761D02*
X308754407Y-126459733D01*
X195628555Y-91725702D02*
X195591624Y-91681852D01*
X268474460Y-157793654D02*
X268604925Y-157714178D01*
X324336671Y-78193834D02*
X324275865Y-78060455D01*
X269969791Y-154980011D02*
X269955824Y-154834242D01*
X310646787Y-128646107D02*
X310676148Y-128804056D01*
X225260313Y-100476785D02*
X225309434Y-100623176D01*
X179470834Y-81674267D02*
X179470871Y-81674200D01*
X195401803Y-90532378D02*
X195401835Y-90532322D01*
X309187289Y-126660438D02*
X309325014Y-126743113D01*
X255949365Y-83730534D02*
X255873691Y-83769483D01*
X263723483Y-142160482D02*
X263670729Y-142010306D01*
X133250213Y-79233290D02*
X133112169Y-79234032D01*
X126735648Y-126833038D02*
X126868814Y-126743113D01*
X210212184Y-97501020D02*
X210107859Y-97399123D01*
X280241722Y-77279136D02*
X280107174Y-77287620D01*
X111917878Y-78060611D02*
X111857042Y-78193991D01*
X298985482Y-73865111D02*
X298891100Y-73753928D01*
X257352994Y-79705322D02*
X257285537Y-79754066D01*
X179387067Y-82499771D02*
X179376929Y-82418676D01*
X307355908Y-126294669D02*
X307513835Y-126279931D01*
X313867911Y-132699297D02*
X314019192Y-132694669D01*
X332160158Y-127110267D02*
X332147763Y-126957974D01*
X135844047Y-77580682D02*
X135779761Y-77701883D01*
X105700091Y-129964571D02*
X105834379Y-130026778D01*
X225131623Y-99445307D02*
X225127740Y-99591689D01*
X240791748Y-90531993D02*
X240791750Y-90532006D01*
X240721127Y-90181884D02*
X240725364Y-90240316D01*
X139058895Y-72788990D02*
X138915031Y-72816151D01*
X195402022Y-90532054D02*
X195402081Y-90531990D01*
X236366837Y-176222431D02*
X236519077Y-176228630D01*
X136948364Y-74244639D02*
X136877829Y-74373453D01*
X135636066Y-77932984D02*
X135557007Y-78042661D01*
X310304933Y-127762466D02*
X310380725Y-127900725D01*
X279191775Y-77172881D02*
X279067134Y-77132817D01*
X240699383Y-91540929D02*
X240669301Y-91589371D01*
X195329902Y-90940778D02*
X195331222Y-90882584D01*
X228922121Y-113073308D02*
X228842055Y-113235216D01*
X170488219Y-138200177D02*
X170541303Y-138218102D01*
X240863932Y-90940780D02*
X240862386Y-90998686D01*
X124886047Y-131284716D02*
X124960400Y-131158570D01*
X172516716Y-140151452D02*
X172562705Y-140303983D01*
X300557766Y-77932940D02*
X300483455Y-77819322D01*
X256897099Y-80171405D02*
X256854339Y-80240268D01*
X322134564Y-76423506D02*
X321990063Y-76399812D01*
X240770405Y-89783593D02*
X240755221Y-89838673D01*
X263561661Y-141548777D02*
X263541745Y-141392379D01*
X171277584Y-138561381D02*
X171408426Y-138649473D01*
X331504131Y-129152003D02*
X331591500Y-129037591D01*
X196111155Y-92053872D02*
X196054289Y-92031516D01*
X256160088Y-83593846D02*
X256092628Y-83642582D01*
X179527113Y-82964445D02*
X179494657Y-82890287D01*
X166322957Y-155983582D02*
X166364167Y-156121506D01*
X269782003Y-156257254D02*
X269829746Y-156121462D01*
X207041536Y-111325118D02*
X207076975Y-111147972D01*
X311387912Y-131406566D02*
X311473569Y-131523954D01*
X195752325Y-91846558D02*
X195708948Y-91808156D01*
X182669057Y-165418968D02*
X182708724Y-165441911D01*
X133522995Y-79212989D02*
X133387218Y-79226240D01*
X240831359Y-89623901D02*
X240808517Y-89676112D01*
X225127740Y-99591689D02*
X225131095Y-99738801D01*
X241501188Y-89009757D02*
X241444328Y-89032118D01*
X207053891Y-112392573D02*
X207025367Y-112216525D01*
X229116845Y-111147973D02*
X229152288Y-111325117D01*
X157044789Y-77205604D02*
X156923878Y-77238415D01*
X227102600Y-96778260D02*
X226958849Y-96834718D01*
X133921235Y-79137183D02*
X133790179Y-79168351D01*
X209998212Y-97302057D02*
X209883360Y-97210063D01*
X225142629Y-99299890D02*
X225131623Y-99445307D01*
X195556935Y-91636373D02*
X195524529Y-91589370D01*
X331313365Y-129367861D02*
X331411369Y-129262164D01*
X209636097Y-114802823D02*
X209457573Y-114775549D01*
X279318340Y-77207225D02*
X279191775Y-77172881D01*
X156801318Y-77265674D02*
X156677297Y-77287273D01*
X256773951Y-81839539D02*
X256792735Y-81922552D01*
X225882592Y-97607513D02*
X225789238Y-97718355D01*
X307513835Y-126279931D02*
X307671897Y-126273574D01*
X332151493Y-127560189D02*
X332161866Y-127411593D01*
X160217707Y-73869495D02*
X160094713Y-73938396D01*
X225141793Y-99886394D02*
X225159951Y-100034234D01*
X310609236Y-128490747D02*
X310646787Y-128646107D01*
X256671973Y-81508396D02*
X256695173Y-81591115D01*
X241444328Y-89032118D02*
X241389255Y-89057059D01*
X322963048Y-76710575D02*
X322830851Y-76645793D01*
X111985073Y-77930497D02*
X111917878Y-78060611D01*
X210404431Y-97718357D02*
X210311082Y-97607512D01*
X296569974Y-72749836D02*
X296421216Y-72757629D01*
X106114298Y-130131750D02*
X106259607Y-130174092D01*
X273666686Y-73711237D02*
X257731051Y-79511241D01*
X128050085Y-126304314D02*
X128206567Y-126285814D01*
X179470987Y-81673874D02*
X179471000Y-81673809D01*
X256806753Y-82499772D02*
X256792732Y-82580053D01*
X104042336Y-127560190D02*
X104059987Y-127707127D01*
X123861240Y-132283830D02*
X123983499Y-132207733D01*
X263531538Y-140920156D02*
X263544689Y-140762848D01*
X104602330Y-129037588D02*
X104689698Y-129152005D01*
X238112929Y-175798872D02*
X238242935Y-175715966D01*
X112734842Y-77034822D02*
X112621799Y-77130538D01*
X269072229Y-157342099D02*
X269175005Y-157236807D01*
X208308508Y-114302708D02*
X208163900Y-114197589D01*
X331591500Y-129037591D02*
X331673314Y-128919141D01*
X217768538Y-172271256D02*
X217850464Y-172263358D01*
X240791770Y-90532125D02*
X240791781Y-90532165D01*
X134660904Y-78833373D02*
X134544064Y-78897352D01*
X126608129Y-126929442D02*
X126735648Y-126833038D01*
X256728036Y-82814629D02*
X256699134Y-82890286D01*
X209763412Y-97123396D02*
X209638484Y-97042283D01*
X314171487Y-132682297D02*
X314324589Y-132662028D01*
X179370420Y-82171843D02*
X179376431Y-82088839D01*
X158779073Y-75653337D02*
X158725164Y-75773578D01*
X156298335Y-77317199D02*
X156170344Y-77315230D01*
X170646612Y-138256536D02*
X170708396Y-138279291D01*
X275587698Y-73699910D02*
X275454036Y-73656694D01*
X207542190Y-113545740D02*
X207441956Y-113392856D01*
X172664765Y-141240793D02*
X172652936Y-141397458D01*
X229051646Y-112738596D02*
X228992004Y-112907609D01*
X207025367Y-112216525D02*
X207007343Y-112039087D01*
X128363905Y-126275550D02*
X128521776Y-126273576D01*
X125683550Y-128188893D02*
X125744590Y-128042959D01*
X313134305Y-132611743D02*
X313277268Y-132643489D01*
X179401083Y-82580053D02*
X179387067Y-82499771D01*
X240827829Y-90648826D02*
X240841040Y-90707218D01*
X276925443Y-74679433D02*
X276839074Y-74570099D01*
X256722831Y-81673679D02*
X256722838Y-81673745D01*
X195382295Y-90590620D02*
X195401719Y-90532700D01*
X225219099Y-100329666D02*
X225260313Y-100476785D01*
X178908296Y-79754065D02*
X178840834Y-79705325D01*
X299487727Y-74775343D02*
X299434583Y-74632079D01*
X240484880Y-91808154D02*
X240441506Y-91846559D01*
X179907330Y-83487543D02*
X179848670Y-83430246D01*
X237842858Y-175943266D02*
X237979473Y-175874658D01*
X329934232Y-130174093D02*
X330079542Y-130131752D01*
X256224685Y-83542123D02*
X256160088Y-83593846D01*
X210650089Y-98074573D02*
X210574049Y-97952127D01*
X265606447Y-138234122D02*
X265655781Y-138216592D01*
X309823069Y-127140600D02*
X309932554Y-127254790D01*
X240841038Y-91169730D02*
X240828495Y-91225534D01*
X158121894Y-76592816D02*
X158027800Y-76675952D01*
X240396066Y-91882959D02*
X240348613Y-91917256D01*
X263589806Y-141704119D02*
X263561661Y-141548777D01*
X209508690Y-96966971D02*
X209374138Y-96897704D01*
X256638993Y-80848261D02*
X256628870Y-80929356D01*
X182786960Y-165489626D02*
X182825511Y-165514395D01*
X113774615Y-76491848D02*
X113635121Y-76536368D01*
X172523785Y-142013478D02*
X172471110Y-142163180D01*
X324438622Y-78469528D02*
X324390971Y-78330270D01*
X321255606Y-76388573D02*
X321108140Y-76408211D01*
X140370285Y-72865634D02*
X140226273Y-72828212D01*
X277215719Y-75156988D02*
X277151773Y-75031943D01*
X194958387Y-89146426D02*
X194908934Y-89114312D01*
X134992822Y-78611439D02*
X134885462Y-78690303D01*
X256717655Y-80533392D02*
X256692391Y-80610412D01*
X104029020Y-127261547D02*
X104031961Y-127411591D01*
X207441956Y-113392856D02*
X207351771Y-113235217D01*
X126370758Y-127140601D02*
X126486439Y-127032058D01*
X278824408Y-77035938D02*
X278706719Y-76979324D01*
X155783979Y-77272147D02*
X155655022Y-77245075D01*
X138089236Y-73125624D02*
X137960888Y-73200952D01*
X208163900Y-114197589D02*
X208025475Y-114083752D01*
X240791869Y-90532381D02*
X240791883Y-90532412D01*
X123473694Y-132476294D02*
X123606122Y-132418268D01*
X240719799Y-90123644D02*
X240721127Y-90181884D01*
X210784069Y-98329378D02*
X210720129Y-98200404D01*
X218014697Y-172254328D02*
X218096909Y-172253201D01*
X263626170Y-141858071D02*
X263589806Y-141704119D01*
X179471000Y-81673809D02*
X179471006Y-81673743D01*
X236214624Y-176208454D02*
X236366837Y-176222431D01*
X104374177Y-128671006D02*
X104444416Y-128796874D01*
X280511682Y-77242524D02*
X280376624Y-77264140D01*
X269955824Y-154834242D02*
X269934594Y-154688637D01*
X113497804Y-76587705D02*
X113362932Y-76645795D01*
X124805932Y-131406567D02*
X124886047Y-131284716D01*
X240139538Y-92031518D02*
X240082670Y-92053871D01*
X172568321Y-141861724D02*
X172523785Y-142013478D01*
X200282030Y-176156929D02*
X217443209Y-172325434D01*
X123983499Y-132207733D02*
X124101939Y-132125927D01*
X198490249Y-176004636D02*
X198632272Y-176058723D01*
X265705385Y-138199952D02*
X265755256Y-138184173D01*
X310955655Y-130468794D02*
X310997961Y-130614096D01*
X257220940Y-79805799D02*
X257159276Y-79860391D01*
X229070519Y-110972330D02*
X229116845Y-111147973D01*
X166224191Y-154980016D02*
X166217397Y-155125693D01*
X199370994Y-176217896D02*
X199522421Y-176227099D01*
X179339497Y-80240270D02*
X179296739Y-80171404D01*
X309932554Y-127254790D02*
X310035666Y-127374348D01*
X225543593Y-98074575D02*
X225473551Y-98200405D01*
X125273444Y-130320126D02*
X125301426Y-130168251D01*
X240636893Y-91636376D02*
X240602201Y-91681852D01*
X256723006Y-81674267D02*
X256723049Y-81674328D01*
X195999220Y-92006579D02*
X195945988Y-91979164D01*
X312855526Y-132527991D02*
X312993651Y-132573192D01*
X276549594Y-74269237D02*
X276443543Y-74178619D01*
X158298751Y-76413129D02*
X158212273Y-76505177D01*
X308298919Y-126331006D02*
X308452707Y-126365837D01*
X263526670Y-141077734D02*
X263531538Y-140920156D01*
X300349779Y-77580669D02*
X300290773Y-77455860D01*
X195401899Y-90532216D02*
X195401931Y-90532167D01*
X114059123Y-76423507D02*
X113916034Y-76454206D01*
X210933508Y-100476785D02*
X210974718Y-100329670D01*
X296421216Y-72757629D02*
X296271925Y-72772977D01*
X268730017Y-157629030D02*
X268849654Y-157538462D01*
X195468139Y-90008123D02*
X195461009Y-89951036D01*
X277273636Y-75285495D02*
X277215719Y-75156988D01*
X307041800Y-126349486D02*
X307198451Y-126317840D01*
X322695957Y-76587704D02*
X322558619Y-76536366D01*
X300720451Y-78148206D02*
X300636821Y-78042608D01*
X179470734Y-81674395D02*
X179470761Y-81674366D01*
X240858388Y-90824194D02*
X240862611Y-90882583D01*
X256670819Y-80688654D02*
X256652999Y-80767982D01*
X211008191Y-99012929D02*
X210976483Y-98871866D01*
X195175198Y-89338105D02*
X195136046Y-89295943D01*
X194804288Y-89057062D02*
X194749182Y-89032117D01*
X256695173Y-81591115D02*
X256722825Y-81673416D01*
X256591318Y-83107727D02*
X256548548Y-83176580D01*
X240841040Y-90707218D02*
X240851213Y-90765705D01*
X256753311Y-82737619D02*
X256728036Y-82814629D01*
X302272589Y-79136898D02*
X302143467Y-79099992D01*
X241057655Y-89295944D02*
X241018522Y-89338106D01*
X268849654Y-157538462D02*
X268963753Y-157442733D01*
X240725364Y-90240316D02*
X240732558Y-90298838D01*
X137493472Y-73559235D02*
X137388931Y-73662010D01*
X179201349Y-80039928D02*
X179148850Y-79977586D01*
X127741029Y-126365838D02*
X127894799Y-126331004D01*
X172562705Y-140303983D02*
X172600386Y-140458094D01*
X228842055Y-113235216D02*
X228751877Y-113392854D01*
X307198451Y-126317840D02*
X307355908Y-126294669D01*
X311233444Y-131158568D02*
X311307797Y-131284716D01*
X279446636Y-77235752D02*
X279318340Y-77207225D01*
X256692391Y-80610412D02*
X256670819Y-80688654D01*
X256943171Y-80104578D02*
X256897099Y-80171405D01*
X257650216Y-79542984D02*
X257571928Y-79578404D01*
X300147171Y-77060854D02*
X299534043Y-74922678D01*
X332147763Y-126957974D02*
X332127457Y-126804879D01*
X179968979Y-83542122D02*
X179907330Y-83487543D01*
X225351915Y-98461253D02*
X225300543Y-98595787D01*
X228168352Y-114083750D02*
X228029925Y-114197585D01*
X256722825Y-81673548D02*
X256722830Y-81673614D01*
X194692284Y-89009759D02*
X180478914Y-83836639D01*
X123338311Y-132527992D02*
X123473694Y-132476294D01*
X310449234Y-128042960D02*
X310510275Y-128188893D01*
X207351771Y-113235217D02*
X207271712Y-113073310D01*
X199522421Y-176227099D02*
X199674404Y-176228629D01*
X111653191Y-78901995D02*
X104066374Y-126804879D01*
X253368321Y-165514393D02*
X253406872Y-165489625D01*
X195401728Y-90532599D02*
X195401732Y-90532572D01*
X300414066Y-77701860D02*
X300349779Y-77580669D01*
X127439374Y-126459734D02*
X127589110Y-126408762D01*
X323970384Y-77561992D02*
X323879152Y-77447276D01*
X269271994Y-157127111D02*
X269363115Y-157013263D01*
X240946881Y-89427504D02*
X240914463Y-89474542D01*
X180398111Y-83804898D02*
X180319855Y-83769483D01*
X156041830Y-77307127D02*
X155912979Y-77292802D01*
X309458180Y-126833035D02*
X309585700Y-126929446D01*
X178621900Y-79578403D02*
X178543611Y-79542986D01*
X180171233Y-83688190D02*
X180100994Y-83642581D01*
X321844419Y-76383181D02*
X321697893Y-76373680D01*
X210974718Y-100329670D02*
X211008128Y-100182071D01*
X139935388Y-72775233D02*
X139789045Y-72759610D01*
X269933478Y-155702360D02*
X269954618Y-155559600D01*
X182825511Y-165514395D02*
X182863673Y-165539758D01*
X159644236Y-74269235D02*
X159542852Y-74364814D01*
X135473380Y-78148277D02*
X135385352Y-78249709D01*
X256817402Y-82088838D02*
X256823407Y-82171844D01*
X274073400Y-73596454D02*
X273936516Y-73627864D01*
X179554850Y-80848263D02*
X179540843Y-80767983D01*
X225409623Y-98329379D02*
X225351915Y-98461253D01*
X134177384Y-79057712D02*
X134050361Y-79100264D01*
X198922915Y-176144805D02*
X199070948Y-176176693D01*
X302670826Y-79212670D02*
X302536449Y-79193348D01*
X158978119Y-75156988D02*
X158920204Y-75285492D01*
X136813539Y-74505873D02*
X136755660Y-74641687D01*
X229152288Y-111325117D02*
X229176908Y-111503283D01*
X179470761Y-81674366D02*
X179470786Y-81674333D01*
X269600447Y-156649369D02*
X269667273Y-156521459D01*
X331102257Y-129564994D02*
X331210274Y-129468873D01*
X124216341Y-132038566D02*
X124326495Y-131945810D01*
X311660660Y-131744740D02*
X311761662Y-131847818D01*
X172604701Y-141708250D02*
X172568321Y-141861724D01*
X166367625Y-154255298D02*
X166324067Y-154398911D01*
X226310337Y-97210067D02*
X226195473Y-97302057D01*
X310222035Y-127628468D02*
X310304933Y-127762466D01*
X240775214Y-91387964D02*
X240752381Y-91440132D01*
X263670729Y-142010306D02*
X263626170Y-141858071D01*
X126061607Y-127499002D02*
X126158163Y-127374349D01*
X135779761Y-77701883D02*
X135710377Y-77819355D01*
X275318814Y-73620207D02*
X275182286Y-73590463D01*
X275182286Y-73590463D02*
X275044699Y-73567464D01*
X211033108Y-99155684D02*
X211008191Y-99012929D01*
X111755019Y-78469659D02*
X111714109Y-78611491D01*
X159111874Y-74910541D02*
X159042067Y-75031944D01*
X314324589Y-132662028D02*
X329633685Y-130237390D01*
X264433273Y-138942584D02*
X264548997Y-138835655D01*
X172471110Y-142163180D02*
X172410311Y-142310499D01*
X253564666Y-165396639D02*
X253604948Y-165374931D01*
X301891701Y-79009392D02*
X301769418Y-78955916D01*
X128679849Y-126279930D02*
X128837793Y-126294667D01*
X256816893Y-82418677D02*
X256806753Y-82499772D01*
X195401719Y-90532700D02*
X195401721Y-90532670D01*
X240791760Y-90532087D02*
X240791770Y-90532125D01*
X167855483Y-157867578D02*
X182547944Y-165353846D01*
X166411911Y-156257307D02*
X166466097Y-156390736D01*
X179418913Y-82659379D02*
X179401083Y-82580053D01*
X274906314Y-73551234D02*
X274767384Y-73541776D01*
X330750211Y-129821804D02*
X330872068Y-129741674D01*
X310997961Y-130614096D02*
X311047112Y-130755882D01*
X309707388Y-127032059D02*
X309823069Y-127140600D01*
X172400090Y-139853259D02*
X172462411Y-140000834D01*
X275454036Y-73656694D02*
X275318814Y-73620207D01*
X208458862Y-114398882D02*
X208308508Y-114302708D01*
X179555173Y-81342284D02*
X179565401Y-81259159D01*
X323340852Y-76944445D02*
X323218310Y-76859965D01*
X210720129Y-98200404D02*
X210650089Y-98074573D01*
X195342934Y-91113258D02*
X195335805Y-91056212D01*
X264670249Y-138734885D02*
X264796798Y-138640506D01*
X321108140Y-76408211D02*
X303500307Y-79196908D01*
X332077324Y-127995147D02*
X332109066Y-127852186D01*
X111802710Y-78330418D02*
X111755019Y-78469659D01*
X265064824Y-138471846D02*
X265205821Y-138398029D01*
X269775341Y-154112860D02*
X269716533Y-153971847D01*
X104066374Y-126804879D02*
X104046070Y-126957974D01*
X135903055Y-77455868D02*
X135844047Y-77580682D01*
X112852986Y-76944447D02*
X112734842Y-77034822D01*
X209234941Y-96834721D02*
X209091215Y-96778262D01*
X179573330Y-81093441D02*
X179571153Y-81011128D01*
X256622413Y-81176163D02*
X256628445Y-81259157D01*
X256699134Y-82890286D02*
X256666674Y-82964445D01*
X179401097Y-81922551D02*
X179419882Y-81839537D01*
X237561316Y-176058722D02*
X237703375Y-176004634D01*
X257159276Y-79860391D02*
X257100604Y-79917698D01*
X240792050Y-90532634D02*
X240792081Y-90532671D01*
X323458994Y-77034822D02*
X323340852Y-76944445D01*
X253524704Y-165418968D02*
X253564666Y-165396639D01*
X195401865Y-90532267D02*
X195401899Y-90532216D01*
X195094747Y-89255598D02*
X195051340Y-89217167D01*
X123200187Y-132573191D02*
X123338311Y-132527992D01*
X312210339Y-132207732D02*
X312332599Y-132283829D01*
X240791883Y-90532412D02*
X240791905Y-90532441D01*
X195136046Y-89295943D02*
X195094747Y-89255598D01*
X263595925Y-140450376D02*
X263634033Y-140295880D01*
X158827579Y-75529450D02*
X158779073Y-75653337D01*
X160094713Y-73938396D02*
X159975696Y-74013008D01*
X256653160Y-81425409D02*
X256671973Y-81508396D01*
X137195785Y-73881939D02*
X137107503Y-73998674D01*
X275849320Y-73806491D02*
X275719546Y-73749847D01*
X255795403Y-83804899D02*
X255714570Y-83836640D01*
X182748028Y-165465467D02*
X182786960Y-165489626D01*
X166225040Y-155415748D02*
X166239315Y-155559619D01*
X280107174Y-77287620D02*
X279973181Y-77289684D01*
X159860829Y-74093144D02*
X159750286Y-74178616D01*
X256345029Y-83430246D02*
X256286350Y-83487544D01*
X324513419Y-78755618D02*
X324479486Y-78611386D01*
X166288354Y-155843791D02*
X166322957Y-155983582D01*
X296717970Y-72749464D02*
X296569974Y-72749836D01*
X226194201Y-114824917D02*
X209999620Y-114824912D01*
X310510275Y-128188893D02*
X310563670Y-128338248D01*
X161565665Y-73539099D02*
X161426439Y-73541774D01*
X275719546Y-73749847D02*
X275587698Y-73699910D01*
X228992004Y-112907609D02*
X228922121Y-113073308D01*
X172410311Y-142310499D02*
X172341402Y-142455105D01*
X226958849Y-96834718D02*
X226819628Y-96897702D01*
X226555237Y-97042283D02*
X226430297Y-97123395D01*
X129151980Y-126349484D02*
X129307559Y-126389658D01*
X217932532Y-172257714D02*
X218014697Y-172254328D01*
X179471006Y-81673743D02*
X179471009Y-81673680D01*
X167719696Y-157793987D02*
X167855483Y-157867578D01*
X195342623Y-90765704D02*
X195352792Y-90707218D01*
X166830854Y-157013400D02*
X166921990Y-157127261D01*
X135293107Y-78346856D02*
X135196819Y-78439605D01*
X207651586Y-113692189D02*
X207542190Y-113545740D01*
X195337127Y-89572841D02*
X195309398Y-89523024D01*
X302943607Y-79232951D02*
X302806605Y-79225906D01*
X296271925Y-72772977D02*
X296122336Y-72796010D01*
X157280915Y-77123686D02*
X157163866Y-77167325D01*
X162120425Y-73596457D02*
X161982563Y-73571887D01*
X211052008Y-99886395D02*
X211062696Y-99738802D01*
X299074673Y-73981263D02*
X298985482Y-73865111D01*
X279973181Y-77289684D02*
X279839933Y-77285428D01*
X136755660Y-74641687D02*
X136704351Y-74780693D01*
X211033854Y-100034232D02*
X211052008Y-99886395D01*
X311867346Y-131945814D02*
X311977498Y-132038569D01*
X105834379Y-130026778D02*
X105972504Y-130082577D01*
X240788188Y-89729375D02*
X240770405Y-89783593D01*
X274628157Y-73539099D02*
X274488893Y-73543221D01*
X240792118Y-90532702D02*
X240811538Y-90590621D01*
X256992485Y-80039928D02*
X256943171Y-80104578D01*
X277006463Y-74792977D02*
X276925443Y-74679433D01*
X113635121Y-76536368D02*
X113497804Y-76587705D01*
X256722838Y-81673745D02*
X256722841Y-81673809D01*
X158459252Y-76216183D02*
X158381140Y-76316768D01*
X256722853Y-81673874D02*
X256722867Y-81673940D01*
X182588655Y-165374929D02*
X182629030Y-165396639D01*
X171878898Y-139065178D02*
X171982120Y-139183774D01*
X112513993Y-77231342D02*
X112411571Y-77337028D01*
X256723132Y-81674430D02*
X256723160Y-81674462D01*
X195845212Y-91917257D02*
X195797761Y-91882959D01*
X198350808Y-175943263D02*
X198490249Y-176004636D01*
X237270624Y-176144806D02*
X237416970Y-176105461D01*
X161287509Y-73551233D02*
X161149124Y-73567466D01*
X227418734Y-114563514D02*
X227253721Y-114631511D01*
X207893661Y-113961421D02*
X207768887Y-113830828D01*
X332161866Y-127411593D02*
X332164808Y-127261546D01*
X308452707Y-126365837D02*
X308604648Y-126408761D01*
X312587714Y-132418270D02*
X312720144Y-132476297D01*
X311102888Y-130893994D02*
X311165070Y-131028276D01*
X279839933Y-77285428D02*
X279707628Y-77274952D01*
X277325685Y-75418321D02*
X277325350Y-75417270D01*
X240791750Y-90532028D02*
X240791756Y-90532053D01*
X122174651Y-132694671D02*
X122325931Y-132699297D01*
X179386634Y-82005694D02*
X179401097Y-81922551D01*
X179470786Y-81674333D02*
X179470834Y-81674267D01*
X217443209Y-172325434D02*
X217524091Y-172308502D01*
X310892411Y-130168254D02*
X310920396Y-130320126D01*
X136004534Y-77195840D02*
X135956611Y-77327550D01*
X207092849Y-112566761D02*
X207053891Y-112392573D01*
X241187767Y-89180744D02*
X241142324Y-89217168D01*
X112621799Y-77130538D02*
X112513993Y-77231342D01*
X256792732Y-82580053D02*
X256774898Y-82659378D01*
X278265024Y-76700685D02*
X278162849Y-76618482D01*
X125744590Y-128042959D02*
X125813100Y-127900726D01*
X240981586Y-89381991D02*
X240946881Y-89427504D01*
X179414841Y-80383569D02*
X179378888Y-80311035D01*
X225473551Y-98200405D02*
X225409623Y-98329379D01*
X324208692Y-77930352D02*
X324135292Y-77803757D01*
X182708724Y-165441911D02*
X182748028Y-165465467D01*
X269527426Y-156774139D02*
X269600447Y-156649369D01*
X263530079Y-141235250D02*
X263526670Y-141077734D01*
X237979473Y-175874658D02*
X238112929Y-175798872D01*
X225217246Y-98871869D02*
X225185552Y-99012931D01*
X309325014Y-126743113D02*
X309458180Y-126833035D01*
X310920396Y-130320126D02*
X310955655Y-130468794D01*
X257571928Y-79578404D02*
X257496257Y-79617355D01*
X257496257Y-79617355D02*
X257423254Y-79659708D01*
X161426439Y-73541774D02*
X161287509Y-73551233D01*
X240194608Y-92006579D02*
X240139538Y-92031518D01*
X195461275Y-90298840D02*
X195468465Y-90240315D01*
X298891100Y-73753928D02*
X298791757Y-73647846D01*
X298228810Y-73198448D02*
X298104602Y-73125675D01*
X229190770Y-111681984D02*
X229193942Y-111860750D01*
X194857551Y-89084488D02*
X194804288Y-89057062D01*
X166526649Y-156521539D02*
X166593485Y-156649459D01*
X211066042Y-99591689D02*
X211062148Y-99445306D01*
X322277667Y-76454207D02*
X322134564Y-76423506D01*
X310563670Y-128338248D02*
X310609236Y-128490747D01*
X310380725Y-127900725D02*
X310449234Y-128042960D01*
X122916574Y-132643489D02*
X123059534Y-132611743D01*
X209109147Y-114689671D02*
X208940105Y-114631513D01*
X302806605Y-79225906D02*
X302670826Y-79212670D01*
X236519077Y-176228630D02*
X236671065Y-176227099D01*
X209457573Y-114775549D02*
X209281776Y-114737758D01*
X166418783Y-154112860D02*
X166367625Y-154255298D01*
X133387218Y-79226240D02*
X133250213Y-79233290D01*
X172341402Y-142455105D02*
X166544221Y-153832512D01*
X195401732Y-90532572D02*
X195401744Y-90532539D01*
X331411369Y-129262164D02*
X331504131Y-129152003D01*
X218096909Y-172253201D02*
X218179123Y-172254326D01*
X256722825Y-81673416D02*
X256722825Y-81673548D01*
X240884374Y-89523023D02*
X240856659Y-89572840D01*
X159354754Y-74570100D02*
X159268389Y-74679434D01*
X303220570Y-79227997D02*
X303081653Y-79233681D01*
X229139937Y-112392576D02*
X229100975Y-112566759D01*
X253645540Y-165353845D02*
X268338701Y-157867213D01*
X166288030Y-154543442D02*
X166259424Y-154688639D01*
X166217397Y-155125693D02*
X166217707Y-155271018D01*
X114495801Y-76373682D02*
X114349263Y-76383180D01*
X301532924Y-78833182D02*
X301419066Y-78764143D01*
X179540843Y-80767983D02*
X179523023Y-80688655D01*
X264219379Y-139174003D02*
X264323320Y-139055447D01*
X302403646Y-79168050D02*
X302272589Y-79136898D01*
X170594096Y-138236947D02*
X170646612Y-138256536D01*
X125971790Y-127628467D02*
X126061607Y-127499002D01*
X157618040Y-76961510D02*
X157508191Y-77020680D01*
X207007343Y-112039087D02*
X206999884Y-111860750D01*
X241389255Y-89057059D02*
X241336016Y-89084488D01*
X113916034Y-76454206D02*
X113774615Y-76491848D01*
X104031961Y-127411591D02*
X104042336Y-127560190D01*
X300808480Y-78249631D02*
X300720451Y-78148206D01*
X210574049Y-97952127D02*
X210492124Y-97833310D01*
X265805389Y-138169213D02*
X306886279Y-126389658D01*
X156677297Y-77287273D02*
X156552001Y-77303125D01*
X104046070Y-126957974D02*
X104033673Y-127110268D01*
X297576836Y-72895917D02*
X297438319Y-72854451D01*
X263541745Y-141392379D02*
X263530079Y-141235250D01*
X139349584Y-72755861D02*
X139203833Y-72768883D01*
X195246867Y-89427504D02*
X195212151Y-89381991D01*
X276332998Y-74093144D02*
X276218135Y-74013009D01*
X268963753Y-157442733D02*
X269072229Y-157342099D01*
X269448286Y-156895524D02*
X269527426Y-156774139D01*
X240792023Y-90532602D02*
X240792050Y-90532634D01*
X179447295Y-80457733D02*
X179414841Y-80383569D01*
X104444416Y-128796874D02*
X104520519Y-128919142D01*
X225981488Y-97501021D02*
X225882592Y-97607513D01*
X226912047Y-114737756D02*
X226736253Y-114775551D01*
X228029925Y-114197585D02*
X227885320Y-114302709D01*
X209883360Y-97210063D02*
X209763412Y-97123396D01*
X128837793Y-126294667D02*
X128995281Y-126317837D01*
X269934594Y-154688637D02*
X269906009Y-154543438D01*
X225701546Y-97833306D02*
X225619628Y-97952130D01*
X195708948Y-91808156D02*
X195667675Y-91767838D01*
X241336016Y-89084488D02*
X241284660Y-89114310D01*
X195398294Y-91334743D02*
X195380515Y-91280567D01*
X240813316Y-91280567D02*
X240795539Y-91334745D01*
X218343356Y-172263358D02*
X218425283Y-172271256D01*
X297297644Y-72819640D02*
X297155036Y-72791605D01*
X111714109Y-78611491D02*
X111680120Y-78755675D01*
X313717863Y-132696337D02*
X313867911Y-132699297D01*
X217686801Y-172281417D02*
X217768538Y-172271256D01*
X112137989Y-77681007D02*
X112058492Y-77803887D01*
X156425615Y-77313134D02*
X156298335Y-77317199D01*
X263680491Y-140142977D02*
X263735307Y-139992011D01*
X269968900Y-155415733D02*
X269976246Y-155271008D01*
X139642452Y-72751196D02*
X139495877Y-72749954D01*
X172652936Y-141397458D02*
X172632911Y-141553383D01*
X225131095Y-99738801D02*
X225141793Y-99886394D01*
X265755256Y-138184173D02*
X265805389Y-138169213D01*
X195401835Y-90532322D02*
X195401865Y-90532267D01*
X330221336Y-130082573D02*
X330359459Y-130026777D01*
X218750614Y-172325432D02*
X235911455Y-176156931D01*
X298791757Y-73647846D02*
X298687689Y-73546991D01*
X206999884Y-111860750D02*
X207003055Y-111681986D01*
X256854339Y-80240268D02*
X256814949Y-80311035D01*
X104116503Y-127995146D02*
X104155050Y-128135801D01*
X179470973Y-81673942D02*
X179470987Y-81673874D01*
X124533181Y-131744734D02*
X124629285Y-131636729D01*
X172330366Y-139709939D02*
X172400090Y-139853259D01*
X226195473Y-97302057D02*
X226085821Y-97399120D01*
X256630714Y-83036968D02*
X256591318Y-83107727D01*
X276099120Y-73938397D02*
X275976123Y-73869494D01*
X195401750Y-90532506D02*
X195401774Y-90532443D01*
X240791803Y-90532240D02*
X240791814Y-90532268D01*
X155655022Y-77245075D02*
X155526293Y-77211490D01*
X307987118Y-126285815D02*
X308143610Y-126304316D01*
X256628870Y-80929356D02*
X256622691Y-81011125D01*
X125090955Y-130893994D02*
X125146729Y-130755881D01*
X180244205Y-83730533D02*
X180171233Y-83688190D01*
X296864968Y-72756390D02*
X296717970Y-72749464D01*
X229193942Y-111860750D02*
X229186485Y-112039088D01*
X137107503Y-73998674D02*
X137024976Y-74119646D01*
X297155036Y-72791605D02*
X297010733Y-72770479D01*
X195401774Y-90532443D02*
X195401803Y-90532378D01*
X129307559Y-126389658D02*
X170381020Y-138167092D01*
X227734962Y-114398885D02*
X227579295Y-114485895D01*
X236822501Y-176217897D02*
X236973101Y-176201075D01*
X158920204Y-75285492D02*
X158868493Y-75417270D01*
X199220405Y-176201076D02*
X199370994Y-176217896D01*
X265655781Y-138216592D02*
X265705385Y-138199952D01*
X160739792Y-73656695D02*
X160606131Y-73699910D01*
X211062696Y-99738802D02*
X211066042Y-99591689D01*
X210841787Y-98461253D02*
X210784069Y-98329378D01*
X179563066Y-83036968D02*
X179527113Y-82964445D01*
X227885320Y-114302709D02*
X227734962Y-114398885D01*
X331749417Y-128796874D02*
X331819649Y-128671005D01*
X209281776Y-114737758D02*
X209109147Y-114689671D01*
X179523023Y-80688655D02*
X179501451Y-80610412D01*
X238242935Y-175715966D02*
X253330157Y-165539758D01*
X179378888Y-80311035D02*
X179339497Y-80240270D01*
X159975696Y-74013008D02*
X159860829Y-74093144D01*
X106408279Y-130209376D02*
X106560156Y-130237389D01*
X265351156Y-138331528D02*
X265500597Y-138272576D01*
X179470871Y-81674200D02*
X179470906Y-81674135D01*
X228424944Y-113830826D02*
X228300169Y-113961419D01*
X179470677Y-81674464D02*
X179470704Y-81674429D01*
X265205821Y-138398029D02*
X265351156Y-138331528D01*
X240755221Y-89838673D02*
X240742677Y-89894517D01*
X240791814Y-90532268D02*
X240791826Y-90532295D01*
X195466741Y-91491151D02*
X195441451Y-91440133D01*
X218507018Y-172281417D02*
X218588518Y-172293831D01*
X166217707Y-155271018D02*
X166225040Y-155415748D01*
X179296739Y-80171404D02*
X179250667Y-80104580D01*
X179471018Y-81673417D02*
X179498668Y-81591115D01*
X125301426Y-130168251D02*
X125517676Y-128804057D01*
X122022358Y-132682298D02*
X122174651Y-132694671D01*
X170434803Y-138183175D02*
X170488219Y-138200177D01*
X277494794Y-75795842D02*
X277432902Y-75673885D01*
X275044699Y-73567464D02*
X274906314Y-73551234D01*
X124432179Y-131847815D02*
X124533181Y-131744734D01*
X182863673Y-165539758D02*
X197950881Y-175715966D01*
X236062732Y-176186637D02*
X236214624Y-176208454D01*
X198776592Y-176105461D02*
X198922915Y-176144805D01*
X160474287Y-73749845D02*
X160344513Y-73806489D01*
X172668379Y-141083736D02*
X172664765Y-141240793D01*
X106259607Y-130174092D02*
X106408279Y-130209376D01*
X277376465Y-75548009D02*
X277325685Y-75418321D01*
X207180575Y-110798667D02*
X210884383Y-100623178D01*
X138221094Y-73056757D02*
X138089236Y-73125624D01*
X306886279Y-126389658D02*
X307041800Y-126349486D01*
X323218310Y-76859965D02*
X323092289Y-76781987D01*
X299158440Y-74102262D02*
X299074673Y-73981263D01*
X125238189Y-130468787D02*
X125273444Y-130320126D01*
X300237221Y-77327546D02*
X300189293Y-77195842D01*
X240791968Y-90532537D02*
X240791993Y-90532571D01*
X207768887Y-113830828D02*
X207651586Y-113692189D01*
M02*
