%TF.GenerationSoftware,KiCad,Pcbnew,7.0.5-0*%
%TF.CreationDate,2023-06-28T16:40:39-04:00*%
%TF.ProjectId,regret,72656772-6574-42e6-9b69-6361645f7063,1*%
%TF.SameCoordinates,Original*%
%TF.FileFunction,Soldermask,Bot*%
%TF.FilePolarity,Negative*%
%FSLAX46Y46*%
G04 Gerber Fmt 4.6, Leading zero omitted, Abs format (unit mm)*
G04 Created by KiCad (PCBNEW 7.0.5-0) date 2023-06-28 16:40:39*
%MOMM*%
%LPD*%
G01*
G04 APERTURE LIST*
G04 Aperture macros list*
%AMRoundRect*
0 Rectangle with rounded corners*
0 $1 Rounding radius*
0 $2 $3 $4 $5 $6 $7 $8 $9 X,Y pos of 4 corners*
0 Add a 4 corners polygon primitive as box body*
4,1,4,$2,$3,$4,$5,$6,$7,$8,$9,$2,$3,0*
0 Add four circle primitives for the rounded corners*
1,1,$1+$1,$2,$3*
1,1,$1+$1,$4,$5*
1,1,$1+$1,$6,$7*
1,1,$1+$1,$8,$9*
0 Add four rect primitives between the rounded corners*
20,1,$1+$1,$2,$3,$4,$5,0*
20,1,$1+$1,$4,$5,$6,$7,0*
20,1,$1+$1,$6,$7,$8,$9,0*
20,1,$1+$1,$8,$9,$2,$3,0*%
%AMRotRect*
0 Rectangle, with rotation*
0 The origin of the aperture is its center*
0 $1 length*
0 $2 width*
0 $3 Rotation angle, in degrees counterclockwise*
0 Add horizontal line*
21,1,$1,$2,0,0,$3*%
G04 Aperture macros list end*
%ADD10R,0.900000X0.900000*%
%ADD11C,1.000000*%
%ADD12R,0.900000X1.250000*%
%ADD13C,2.200000*%
%ADD14C,1.701800*%
%ADD15C,3.000000*%
%ADD16C,3.429000*%
%ADD17RotRect,2.600000X2.600000X333.000000*%
%ADD18RotRect,2.600000X2.600000X340.000000*%
%ADD19RotRect,2.600000X2.600000X20.000000*%
%ADD20RotRect,2.600000X2.600000X16.000000*%
%ADD21RotRect,2.600000X2.600000X9.000000*%
%ADD22C,4.400000*%
%ADD23O,2.750000X1.800000*%
%ADD24R,2.750000X1.800000*%
%ADD25C,2.000000*%
%ADD26RotRect,2.600000X2.600000X344.000000*%
%ADD27RotRect,2.600000X2.600000X351.000000*%
%ADD28R,1.700000X1.200000*%
%ADD29O,1.700000X1.200000*%
%ADD30RotRect,0.900000X1.200000X70.000000*%
%ADD31RotRect,2.600000X2.600000X27.000000*%
%ADD32RotRect,2.600000X2.600000X34.000000*%
%ADD33RotRect,2.600000X2.600000X326.000000*%
%ADD34RotRect,1.800000X1.400000X9.000000*%
%ADD35RotRect,1.800000X1.400000X351.000000*%
%ADD36RotRect,1.800000X1.400000X340.000000*%
%ADD37RotRect,1.800000X1.400000X20.000000*%
%ADD38C,0.750000*%
%ADD39RotRect,1.550000X1.000000X110.000000*%
%ADD40RoundRect,0.150000X-0.150000X0.825000X-0.150000X-0.825000X0.150000X-0.825000X0.150000X0.825000X0*%
%ADD41R,1.800000X1.400000*%
G04 APERTURE END LIST*
D10*
X214386171Y-115641899D03*
X214386171Y-117841899D03*
D11*
X216586171Y-116741899D03*
X219586171Y-116741899D03*
D10*
X221786171Y-115641899D03*
X221786171Y-117841899D03*
D12*
X215836171Y-118816899D03*
X218836171Y-118816899D03*
X220336171Y-118816899D03*
D13*
X307349064Y-106756118D03*
D14*
X174502728Y-149764059D03*
D15*
X182104507Y-146959518D03*
D16*
X179403264Y-152261007D03*
D15*
X185560761Y-151189685D03*
D14*
X184303800Y-154757955D03*
D17*
X179186461Y-145472699D03*
X188478807Y-152676504D03*
D14*
X187309538Y-117860785D03*
D15*
X194512867Y-114150725D03*
D16*
X192477847Y-119741896D03*
D15*
X198458886Y-117928149D03*
D14*
X197646156Y-121623007D03*
D18*
X191435374Y-113030609D03*
X201536379Y-119048265D03*
D14*
X254628348Y-113234871D03*
D15*
X257761637Y-105762589D03*
D16*
X259796657Y-111353760D03*
D15*
X263212545Y-106119812D03*
D14*
X264964966Y-109472649D03*
D19*
X254684144Y-106882705D03*
X266290038Y-104999696D03*
D14*
X171207371Y-109472652D03*
D15*
X178410700Y-105762592D03*
D16*
X176375680Y-111353763D03*
D15*
X182356719Y-109540016D03*
D14*
X181543989Y-113234874D03*
D18*
X175333207Y-104642476D03*
X185434212Y-110660132D03*
D14*
X285901390Y-86378503D03*
D15*
X289548287Y-79142991D03*
D16*
X291188329Y-84862498D03*
D15*
X294960997Y-79879580D03*
D14*
X296475268Y-83346493D03*
D20*
X286400155Y-80045703D03*
X298109129Y-78976868D03*
D13*
X248902095Y-106273550D03*
D14*
X312273570Y-105403324D03*
D15*
X316775071Y-98666188D03*
D16*
X317705856Y-104542934D03*
D15*
X322057668Y-100056930D03*
D14*
X323138142Y-103682544D03*
D21*
X313540392Y-99178511D03*
X325292348Y-99544608D03*
D14*
X161261556Y-84170055D03*
D15*
X168464885Y-80459995D03*
D16*
X166429865Y-86051166D03*
D15*
X172410904Y-84237419D03*
D14*
X171598174Y-87932277D03*
D18*
X165387392Y-79339879D03*
X175488397Y-85357535D03*
D14*
X276202838Y-119881824D03*
D15*
X279336127Y-112409542D03*
D16*
X281371147Y-118000713D03*
D15*
X284787035Y-112766765D03*
D14*
X286539456Y-116119602D03*
D19*
X276258634Y-113529658D03*
X287864528Y-111646649D03*
D22*
X234448704Y-128694025D03*
D23*
X209991176Y-119621899D03*
X209991176Y-122161899D03*
X209991176Y-124701899D03*
X209991176Y-127241899D03*
X209991176Y-129781899D03*
X209991176Y-132321899D03*
X209991176Y-134861899D03*
X226181176Y-134861899D03*
X226181176Y-132321899D03*
X226181176Y-129781899D03*
X226181176Y-127241899D03*
X226181176Y-124701899D03*
D24*
X226181176Y-122161899D03*
D23*
X226181176Y-119621899D03*
D25*
X216816176Y-121209899D03*
X213641176Y-126924899D03*
D14*
X130325401Y-116029401D03*
D15*
X137252382Y-111825899D03*
D16*
X135612340Y-117545406D03*
D15*
X141452289Y-115318861D03*
D14*
X140899279Y-119061411D03*
D26*
X134104250Y-110923187D03*
X144600421Y-116221574D03*
D13*
X303239988Y-90249286D03*
D14*
X115693575Y-86891839D03*
D15*
X122056646Y-81875483D03*
D16*
X121125861Y-87752229D03*
D15*
X126650932Y-84830570D03*
D14*
X126558147Y-88612619D03*
D27*
X118821967Y-81363161D03*
X129885611Y-85342893D03*
D13*
X187769129Y-156840697D03*
D14*
X290587226Y-102719959D03*
D15*
X294234123Y-95484447D03*
D16*
X295874165Y-101203954D03*
D15*
X299646833Y-96221036D03*
D14*
X301161104Y-99687949D03*
D20*
X291085991Y-96387159D03*
X302794965Y-95318324D03*
D14*
X113034189Y-103682540D03*
D15*
X119397260Y-98666184D03*
D16*
X118466475Y-104542930D03*
D15*
X123991546Y-101621271D03*
D14*
X123898761Y-105403320D03*
D27*
X116162581Y-98153862D03*
X127226225Y-102133594D03*
D14*
X309614188Y-88612619D03*
D15*
X314115689Y-81875483D03*
D16*
X315046474Y-87752229D03*
D15*
X319398286Y-83266225D03*
D14*
X320478760Y-86891839D03*
D21*
X310881010Y-82387806D03*
X322632966Y-82753903D03*
D28*
X208836176Y-142191892D03*
D29*
X208836176Y-140191892D03*
D22*
X195909285Y-144668793D03*
D14*
X264574151Y-87932277D03*
D15*
X267707440Y-80459995D03*
D16*
X269742460Y-86051166D03*
D15*
X273158348Y-80817218D03*
D14*
X274910769Y-84170055D03*
D19*
X264629947Y-81580111D03*
X276235841Y-79697102D03*
D14*
X314932962Y-122194029D03*
D15*
X319434463Y-115456893D03*
D16*
X320365248Y-121333639D03*
D15*
X324717060Y-116847635D03*
D14*
X325797534Y-120473249D03*
D21*
X316199784Y-115969216D03*
X327951740Y-116335313D03*
D14*
X165393031Y-125447428D03*
D15*
X172596360Y-121737368D03*
D16*
X170561340Y-127328539D03*
D15*
X176542379Y-125514792D03*
D14*
X175729649Y-129209650D03*
D18*
X169518867Y-120617252D03*
X179619872Y-126634908D03*
D22*
X240263049Y-144668793D03*
D30*
X176682634Y-91080907D03*
X177811300Y-87979921D03*
D14*
X110374805Y-120473248D03*
D15*
X116737876Y-115456892D03*
D16*
X115807091Y-121333638D03*
D15*
X121332162Y-118411979D03*
D14*
X121239377Y-122194028D03*
D27*
X113503197Y-114944570D03*
X124566841Y-118924302D03*
D13*
X248403211Y-156840699D03*
D14*
X251868546Y-154757954D03*
D15*
X254067839Y-146959517D03*
D16*
X256769082Y-152261006D03*
D15*
X259521650Y-146649779D03*
D14*
X261669618Y-149764058D03*
D31*
X251149792Y-148446336D03*
X262439697Y-145162960D03*
D14*
X193123882Y-101886009D03*
D15*
X200327211Y-98175949D03*
D16*
X198292191Y-103767120D03*
D15*
X204273230Y-101953373D03*
D14*
X203460500Y-105648231D03*
D18*
X197249718Y-97055833D03*
X207350723Y-103073489D03*
D14*
X177021712Y-93497874D03*
D15*
X184225041Y-89787814D03*
D16*
X182190021Y-95378985D03*
D15*
X188171060Y-93565238D03*
D14*
X187358330Y-97260096D03*
D18*
X181147548Y-88667698D03*
X191248553Y-94685354D03*
D14*
X260442694Y-129209654D03*
D15*
X263575983Y-121737372D03*
D16*
X265611003Y-127328543D03*
D15*
X269026891Y-122094595D03*
D14*
X270779312Y-125447432D03*
D19*
X260498490Y-122857488D03*
X272104384Y-120974479D03*
D14*
X181495195Y-133835556D03*
D15*
X188698524Y-130125496D03*
D16*
X186663504Y-135716667D03*
D15*
X192644543Y-133902920D03*
D14*
X191831813Y-137597778D03*
D18*
X185621031Y-129005380D03*
X195722036Y-135023036D03*
D14*
X295273058Y-119061404D03*
D15*
X298919955Y-111825892D03*
D16*
X300559997Y-117545399D03*
D15*
X304332665Y-112562481D03*
D14*
X305846936Y-116029394D03*
D20*
X295771823Y-112728604D03*
X307480797Y-111659769D03*
D22*
X201723629Y-128694025D03*
D14*
X155447222Y-100144824D03*
D15*
X162650551Y-96434764D03*
D16*
X160615531Y-102025935D03*
D15*
X166596570Y-100212188D03*
D14*
X165783840Y-103907046D03*
D18*
X159573058Y-95314648D03*
X169674063Y-101332304D03*
D14*
X232711842Y-105648230D03*
D15*
X235845131Y-98175948D03*
D16*
X237880151Y-103767119D03*
D15*
X241296039Y-98533171D03*
D14*
X243048460Y-101886008D03*
D19*
X232767638Y-99296064D03*
X244373532Y-97413055D03*
D14*
X149632879Y-116119601D03*
D15*
X156836208Y-112409541D03*
D16*
X154801188Y-118000712D03*
D15*
X160782227Y-116186965D03*
D14*
X159969497Y-119881823D03*
D18*
X153758715Y-111289425D03*
X163859720Y-117307081D03*
D14*
X235782157Y-165012936D03*
D15*
X237014666Y-157004601D03*
D16*
X240341864Y-161937375D03*
D15*
X242390078Y-156032520D03*
D14*
X244901571Y-158861814D03*
D32*
X234299568Y-158835958D03*
X245105177Y-154201163D03*
D14*
X244340524Y-137597783D03*
D15*
X247473813Y-130125501D03*
D16*
X249508833Y-135716672D03*
D15*
X252924721Y-130482724D03*
D14*
X254677142Y-133835561D03*
D19*
X244396320Y-131245617D03*
X256002214Y-129362608D03*
D14*
X238526176Y-121623010D03*
D15*
X241659465Y-114150728D03*
D16*
X243694485Y-119741899D03*
D15*
X247110373Y-114507951D03*
D14*
X248862794Y-117860788D03*
D19*
X238581972Y-115270844D03*
X250187866Y-113387835D03*
D14*
X139697067Y-83346503D03*
D15*
X146624048Y-79143001D03*
D16*
X144984006Y-84862508D03*
D15*
X150823955Y-82635963D03*
D14*
X150270945Y-86378513D03*
D26*
X143475916Y-78240289D03*
X153972087Y-83538676D03*
D14*
X248814008Y-97260094D03*
D15*
X251947297Y-89787812D03*
D16*
X253982317Y-95378983D03*
D15*
X257398205Y-90145035D03*
D14*
X259150626Y-93497872D03*
D19*
X248869804Y-90907928D03*
X260475698Y-89024919D03*
D13*
X187270243Y-106273543D03*
D14*
X135011233Y-99687954D03*
D15*
X141938214Y-95484452D03*
D16*
X140298172Y-101203959D03*
D15*
X146138121Y-98977414D03*
D14*
X145585111Y-102719964D03*
D26*
X138790082Y-94581740D03*
X149286253Y-99880127D03*
D14*
X191270773Y-158861819D03*
D15*
X199157678Y-157004606D03*
D16*
X195830480Y-161937380D03*
D15*
X202072641Y-161624454D03*
D14*
X200390187Y-165012941D03*
D33*
X196442580Y-155173250D03*
X204787739Y-163455810D03*
D13*
X132932353Y-90249289D03*
X128823276Y-106756117D03*
D14*
X270388496Y-103907053D03*
D15*
X273521785Y-96434771D03*
D16*
X275556805Y-102025942D03*
D15*
X278972693Y-96791994D03*
D14*
X280725114Y-100144831D03*
D19*
X270444292Y-97554887D03*
X282050186Y-95671878D03*
D34*
X317715520Y-108439389D03*
X318231754Y-111698760D03*
X313490850Y-112449645D03*
X312974616Y-109190274D03*
D35*
X126429172Y-91983949D03*
X125912938Y-95243320D03*
X121172034Y-94492435D03*
X121688268Y-91233064D03*
D36*
X174117222Y-92414121D03*
X172988555Y-95515106D03*
X168478030Y-93873409D03*
X169606697Y-90772424D03*
D37*
X266565646Y-90772428D03*
X267694313Y-93873413D03*
X263183788Y-95515110D03*
X262055121Y-92414125D03*
D38*
X226909628Y-102978735D03*
X229493782Y-102038179D03*
D39*
X228300769Y-105265867D03*
X226505163Y-100332481D03*
X229898247Y-104684433D03*
X228102641Y-99751047D03*
D35*
X123197720Y-109190280D03*
X122681486Y-112449651D03*
X117940582Y-111698766D03*
X118456816Y-108439395D03*
D40*
X222531169Y-147216896D03*
X221261169Y-147216896D03*
X219991169Y-147216896D03*
X218721169Y-147216896D03*
X217451169Y-147216896D03*
X216181169Y-147216896D03*
X214911169Y-147216896D03*
X213641169Y-147216896D03*
X213641169Y-142266896D03*
X214911169Y-142266896D03*
X216181169Y-142266896D03*
X217451169Y-142266896D03*
X218721169Y-142266896D03*
X219991169Y-142266896D03*
X221261169Y-142266896D03*
X222531169Y-142266896D03*
D37*
X248895438Y-141633281D03*
X250024105Y-144734266D03*
X245513580Y-146375963D03*
X244384913Y-143274978D03*
X278878373Y-124601359D03*
X280007040Y-127702344D03*
X275496515Y-129344041D03*
X274367848Y-126243056D03*
D36*
X191787422Y-143274973D03*
X190658755Y-146375958D03*
X186148230Y-144734261D03*
X187276897Y-141633276D03*
D41*
X220486171Y-157287378D03*
X220486171Y-160587378D03*
X215686171Y-160587378D03*
X215686171Y-157287378D03*
D36*
X161804497Y-126243063D03*
X160675830Y-129344048D03*
X156165305Y-127702351D03*
X157293972Y-124601366D03*
D34*
X314484080Y-91233062D03*
X315000314Y-94492433D03*
X310259410Y-95243318D03*
X309743176Y-91983947D03*
M02*
