%TF.GenerationSoftware,KiCad,Pcbnew,7.0.5-0*%
%TF.CreationDate,2023-06-28T16:40:39-04:00*%
%TF.ProjectId,regret,72656772-6574-42e6-9b69-6361645f7063,1*%
%TF.SameCoordinates,Original*%
%TF.FileFunction,Legend,Top*%
%TF.FilePolarity,Positive*%
%FSLAX46Y46*%
G04 Gerber Fmt 4.6, Leading zero omitted, Abs format (unit mm)*
G04 Created by KiCad (PCBNEW 7.0.5-0) date 2023-06-28 16:40:39*
%MOMM*%
%LPD*%
G01*
G04 APERTURE LIST*
G04 Aperture macros list*
%AMRotRect*
0 Rectangle, with rotation*
0 The origin of the aperture is its center*
0 $1 length*
0 $2 width*
0 $3 Rotation angle, in degrees counterclockwise*
0 Add horizontal line*
21,1,$1,$2,0,0,$3*%
G04 Aperture macros list end*
%ADD10C,0.150000*%
%ADD11C,0.200000*%
%ADD12C,0.100000*%
%ADD13C,0.120000*%
%ADD14O,2.750000X1.800000*%
%ADD15R,2.750000X1.800000*%
%ADD16C,2.000000*%
%ADD17C,1.000000*%
%ADD18C,2.200000*%
%ADD19RotRect,0.900000X1.200000X16.000000*%
%ADD20C,1.701800*%
%ADD21C,3.000000*%
%ADD22C,3.429000*%
%ADD23RotRect,0.900000X1.200000X20.000000*%
%ADD24C,4.400000*%
%ADD25RotRect,0.900000X1.200000X9.000000*%
%ADD26RotRect,0.900000X1.200000X27.000000*%
%ADD27RotRect,0.900000X1.200000X340.000000*%
%ADD28RotRect,0.900000X1.200000X34.000000*%
%ADD29RotRect,0.900000X1.200000X326.000000*%
%ADD30RotRect,0.900000X1.200000X351.000000*%
%ADD31R,1.700000X1.200000*%
%ADD32O,1.700000X1.200000*%
%ADD33RotRect,0.900000X1.200000X344.000000*%
%ADD34RotRect,0.900000X1.200000X333.000000*%
%ADD35C,0.750000*%
G04 APERTURE END LIST*
D10*
X217200180Y-122931428D02*
X217866847Y-122931428D01*
X217676371Y-122931428D02*
X217771609Y-122979047D01*
X217771609Y-122979047D02*
X217819228Y-123026666D01*
X217819228Y-123026666D02*
X217866847Y-123121904D01*
X217866847Y-123121904D02*
X217866847Y-123217142D01*
X217247800Y-123931428D02*
X217200180Y-123836190D01*
X217200180Y-123836190D02*
X217200180Y-123645714D01*
X217200180Y-123645714D02*
X217247800Y-123550476D01*
X217247800Y-123550476D02*
X217343038Y-123502857D01*
X217343038Y-123502857D02*
X217723990Y-123502857D01*
X217723990Y-123502857D02*
X217819228Y-123550476D01*
X217819228Y-123550476D02*
X217866847Y-123645714D01*
X217866847Y-123645714D02*
X217866847Y-123836190D01*
X217866847Y-123836190D02*
X217819228Y-123931428D01*
X217819228Y-123931428D02*
X217723990Y-123979047D01*
X217723990Y-123979047D02*
X217628752Y-123979047D01*
X217628752Y-123979047D02*
X217533514Y-123502857D01*
X217866847Y-124836190D02*
X217057323Y-124836190D01*
X217057323Y-124836190D02*
X216962085Y-124788571D01*
X216962085Y-124788571D02*
X216914466Y-124740952D01*
X216914466Y-124740952D02*
X216866847Y-124645714D01*
X216866847Y-124645714D02*
X216866847Y-124502857D01*
X216866847Y-124502857D02*
X216914466Y-124407619D01*
X217247800Y-124836190D02*
X217200180Y-124740952D01*
X217200180Y-124740952D02*
X217200180Y-124550476D01*
X217200180Y-124550476D02*
X217247800Y-124455238D01*
X217247800Y-124455238D02*
X217295419Y-124407619D01*
X217295419Y-124407619D02*
X217390657Y-124360000D01*
X217390657Y-124360000D02*
X217676371Y-124360000D01*
X217676371Y-124360000D02*
X217771609Y-124407619D01*
X217771609Y-124407619D02*
X217819228Y-124455238D01*
X217819228Y-124455238D02*
X217866847Y-124550476D01*
X217866847Y-124550476D02*
X217866847Y-124740952D01*
X217866847Y-124740952D02*
X217819228Y-124836190D01*
X217200180Y-125312381D02*
X217866847Y-125312381D01*
X217676371Y-125312381D02*
X217771609Y-125360000D01*
X217771609Y-125360000D02*
X217819228Y-125407619D01*
X217819228Y-125407619D02*
X217866847Y-125502857D01*
X217866847Y-125502857D02*
X217866847Y-125598095D01*
X217247800Y-126312381D02*
X217200180Y-126217143D01*
X217200180Y-126217143D02*
X217200180Y-126026667D01*
X217200180Y-126026667D02*
X217247800Y-125931429D01*
X217247800Y-125931429D02*
X217343038Y-125883810D01*
X217343038Y-125883810D02*
X217723990Y-125883810D01*
X217723990Y-125883810D02*
X217819228Y-125931429D01*
X217819228Y-125931429D02*
X217866847Y-126026667D01*
X217866847Y-126026667D02*
X217866847Y-126217143D01*
X217866847Y-126217143D02*
X217819228Y-126312381D01*
X217819228Y-126312381D02*
X217723990Y-126360000D01*
X217723990Y-126360000D02*
X217628752Y-126360000D01*
X217628752Y-126360000D02*
X217533514Y-125883810D01*
X217866847Y-126645715D02*
X217866847Y-127026667D01*
X218200180Y-126788572D02*
X217343038Y-126788572D01*
X217343038Y-126788572D02*
X217247800Y-126836191D01*
X217247800Y-126836191D02*
X217200180Y-126931429D01*
X217200180Y-126931429D02*
X217200180Y-127026667D01*
X217866847Y-128026668D02*
X217200180Y-128264763D01*
X217200180Y-128264763D02*
X217866847Y-128502858D01*
X217200180Y-129407620D02*
X217200180Y-128836192D01*
X217200180Y-129121906D02*
X218200180Y-129121906D01*
X218200180Y-129121906D02*
X218057323Y-129026668D01*
X218057323Y-129026668D02*
X217962085Y-128931430D01*
X217962085Y-128931430D02*
X217914466Y-128836192D01*
X217295419Y-129836192D02*
X217247800Y-129883811D01*
X217247800Y-129883811D02*
X217200180Y-129836192D01*
X217200180Y-129836192D02*
X217247800Y-129788573D01*
X217247800Y-129788573D02*
X217295419Y-129836192D01*
X217295419Y-129836192D02*
X217200180Y-129836192D01*
X218200180Y-130502858D02*
X218200180Y-130598096D01*
X218200180Y-130598096D02*
X218152561Y-130693334D01*
X218152561Y-130693334D02*
X218104942Y-130740953D01*
X218104942Y-130740953D02*
X218009704Y-130788572D01*
X218009704Y-130788572D02*
X217819228Y-130836191D01*
X217819228Y-130836191D02*
X217581133Y-130836191D01*
X217581133Y-130836191D02*
X217390657Y-130788572D01*
X217390657Y-130788572D02*
X217295419Y-130740953D01*
X217295419Y-130740953D02*
X217247800Y-130693334D01*
X217247800Y-130693334D02*
X217200180Y-130598096D01*
X217200180Y-130598096D02*
X217200180Y-130502858D01*
X217200180Y-130502858D02*
X217247800Y-130407620D01*
X217247800Y-130407620D02*
X217295419Y-130360001D01*
X217295419Y-130360001D02*
X217390657Y-130312382D01*
X217390657Y-130312382D02*
X217581133Y-130264763D01*
X217581133Y-130264763D02*
X217819228Y-130264763D01*
X217819228Y-130264763D02*
X218009704Y-130312382D01*
X218009704Y-130312382D02*
X218104942Y-130360001D01*
X218104942Y-130360001D02*
X218152561Y-130407620D01*
X218152561Y-130407620D02*
X218200180Y-130502858D01*
X215590180Y-123002856D02*
X216590180Y-123002856D01*
X216209228Y-123002856D02*
X216256847Y-123098094D01*
X216256847Y-123098094D02*
X216256847Y-123288570D01*
X216256847Y-123288570D02*
X216209228Y-123383808D01*
X216209228Y-123383808D02*
X216161609Y-123431427D01*
X216161609Y-123431427D02*
X216066371Y-123479046D01*
X216066371Y-123479046D02*
X215780657Y-123479046D01*
X215780657Y-123479046D02*
X215685419Y-123431427D01*
X215685419Y-123431427D02*
X215637800Y-123383808D01*
X215637800Y-123383808D02*
X215590180Y-123288570D01*
X215590180Y-123288570D02*
X215590180Y-123098094D01*
X215590180Y-123098094D02*
X215637800Y-123002856D01*
X216256847Y-123812380D02*
X215590180Y-124050475D01*
X216256847Y-124288570D02*
X215590180Y-124050475D01*
X215590180Y-124050475D02*
X215352085Y-123955237D01*
X215352085Y-123955237D02*
X215304466Y-123907618D01*
X215304466Y-123907618D02*
X215256847Y-123812380D01*
X215590180Y-125431428D02*
X216256847Y-125431428D01*
X216066371Y-125431428D02*
X216161609Y-125479047D01*
X216161609Y-125479047D02*
X216209228Y-125526666D01*
X216209228Y-125526666D02*
X216256847Y-125621904D01*
X216256847Y-125621904D02*
X216256847Y-125717142D01*
X215637800Y-126002857D02*
X215590180Y-126098095D01*
X215590180Y-126098095D02*
X215590180Y-126288571D01*
X215590180Y-126288571D02*
X215637800Y-126383809D01*
X215637800Y-126383809D02*
X215733038Y-126431428D01*
X215733038Y-126431428D02*
X215780657Y-126431428D01*
X215780657Y-126431428D02*
X215875895Y-126383809D01*
X215875895Y-126383809D02*
X215923514Y-126288571D01*
X215923514Y-126288571D02*
X215923514Y-126145714D01*
X215923514Y-126145714D02*
X215971133Y-126050476D01*
X215971133Y-126050476D02*
X216066371Y-126002857D01*
X216066371Y-126002857D02*
X216113990Y-126002857D01*
X216113990Y-126002857D02*
X216209228Y-126050476D01*
X216209228Y-126050476D02*
X216256847Y-126145714D01*
X216256847Y-126145714D02*
X216256847Y-126288571D01*
X216256847Y-126288571D02*
X216209228Y-126383809D01*
X215637800Y-127288571D02*
X215590180Y-127193333D01*
X215590180Y-127193333D02*
X215590180Y-127002857D01*
X215590180Y-127002857D02*
X215637800Y-126907619D01*
X215637800Y-126907619D02*
X215685419Y-126860000D01*
X215685419Y-126860000D02*
X215780657Y-126812381D01*
X215780657Y-126812381D02*
X216066371Y-126812381D01*
X216066371Y-126812381D02*
X216161609Y-126860000D01*
X216161609Y-126860000D02*
X216209228Y-126907619D01*
X216209228Y-126907619D02*
X216256847Y-127002857D01*
X216256847Y-127002857D02*
X216256847Y-127193333D01*
X216256847Y-127193333D02*
X216209228Y-127288571D01*
X215590180Y-127717143D02*
X216590180Y-127717143D01*
X215590180Y-128145714D02*
X216113990Y-128145714D01*
X216113990Y-128145714D02*
X216209228Y-128098095D01*
X216209228Y-128098095D02*
X216256847Y-128002857D01*
X216256847Y-128002857D02*
X216256847Y-127860000D01*
X216256847Y-127860000D02*
X216209228Y-127764762D01*
X216209228Y-127764762D02*
X216161609Y-127717143D01*
X215637800Y-129002857D02*
X215590180Y-128907619D01*
X215590180Y-128907619D02*
X215590180Y-128717143D01*
X215590180Y-128717143D02*
X215637800Y-128621905D01*
X215637800Y-128621905D02*
X215733038Y-128574286D01*
X215733038Y-128574286D02*
X216113990Y-128574286D01*
X216113990Y-128574286D02*
X216209228Y-128621905D01*
X216209228Y-128621905D02*
X216256847Y-128717143D01*
X216256847Y-128717143D02*
X216256847Y-128907619D01*
X216256847Y-128907619D02*
X216209228Y-129002857D01*
X216209228Y-129002857D02*
X216113990Y-129050476D01*
X216113990Y-129050476D02*
X216018752Y-129050476D01*
X216018752Y-129050476D02*
X215923514Y-128574286D01*
X216256847Y-129479048D02*
X215590180Y-129479048D01*
X216161609Y-129479048D02*
X216209228Y-129526667D01*
X216209228Y-129526667D02*
X216256847Y-129621905D01*
X216256847Y-129621905D02*
X216256847Y-129764762D01*
X216256847Y-129764762D02*
X216209228Y-129860000D01*
X216209228Y-129860000D02*
X216113990Y-129907619D01*
X216113990Y-129907619D02*
X215590180Y-129907619D01*
X215590180Y-130383810D02*
X216590180Y-130383810D01*
X215971133Y-130479048D02*
X215590180Y-130764762D01*
X216256847Y-130764762D02*
X215875895Y-130383810D01*
D11*
X222414224Y-115308433D02*
X222604700Y-115308433D01*
X222604700Y-115308433D02*
X222699938Y-115356052D01*
X222699938Y-115356052D02*
X222795176Y-115451290D01*
X222795176Y-115451290D02*
X222842795Y-115641766D01*
X222842795Y-115641766D02*
X222842795Y-115975099D01*
X222842795Y-115975099D02*
X222795176Y-116165575D01*
X222795176Y-116165575D02*
X222699938Y-116260814D01*
X222699938Y-116260814D02*
X222604700Y-116308433D01*
X222604700Y-116308433D02*
X222414224Y-116308433D01*
X222414224Y-116308433D02*
X222318986Y-116260814D01*
X222318986Y-116260814D02*
X222223748Y-116165575D01*
X222223748Y-116165575D02*
X222176129Y-115975099D01*
X222176129Y-115975099D02*
X222176129Y-115641766D01*
X222176129Y-115641766D02*
X222223748Y-115451290D01*
X222223748Y-115451290D02*
X222318986Y-115356052D01*
X222318986Y-115356052D02*
X222414224Y-115308433D01*
X223604700Y-115784623D02*
X223271367Y-115784623D01*
X223271367Y-116308433D02*
X223271367Y-115308433D01*
X223271367Y-115308433D02*
X223747557Y-115308433D01*
X224461843Y-115784623D02*
X224128510Y-115784623D01*
X224128510Y-116308433D02*
X224128510Y-115308433D01*
X224128510Y-115308433D02*
X224604700Y-115308433D01*
X212614226Y-115308436D02*
X212804702Y-115308436D01*
X212804702Y-115308436D02*
X212899940Y-115356055D01*
X212899940Y-115356055D02*
X212995178Y-115451293D01*
X212995178Y-115451293D02*
X213042797Y-115641769D01*
X213042797Y-115641769D02*
X213042797Y-115975102D01*
X213042797Y-115975102D02*
X212995178Y-116165578D01*
X212995178Y-116165578D02*
X212899940Y-116260817D01*
X212899940Y-116260817D02*
X212804702Y-116308436D01*
X212804702Y-116308436D02*
X212614226Y-116308436D01*
X212614226Y-116308436D02*
X212518988Y-116260817D01*
X212518988Y-116260817D02*
X212423750Y-116165578D01*
X212423750Y-116165578D02*
X212376131Y-115975102D01*
X212376131Y-115975102D02*
X212376131Y-115641769D01*
X212376131Y-115641769D02*
X212423750Y-115451293D01*
X212423750Y-115451293D02*
X212518988Y-115356055D01*
X212518988Y-115356055D02*
X212614226Y-115308436D01*
X213471369Y-116308436D02*
X213471369Y-115308436D01*
X213471369Y-115308436D02*
X214042797Y-116308436D01*
X214042797Y-116308436D02*
X214042797Y-115308436D01*
D10*
X222049976Y-122992963D02*
X222011880Y-123107249D01*
X222011880Y-123107249D02*
X222011880Y-123297725D01*
X222011880Y-123297725D02*
X222049976Y-123373916D01*
X222049976Y-123373916D02*
X222088071Y-123412011D01*
X222088071Y-123412011D02*
X222164261Y-123450106D01*
X222164261Y-123450106D02*
X222240452Y-123450106D01*
X222240452Y-123450106D02*
X222316642Y-123412011D01*
X222316642Y-123412011D02*
X222354737Y-123373916D01*
X222354737Y-123373916D02*
X222392833Y-123297725D01*
X222392833Y-123297725D02*
X222430928Y-123145344D01*
X222430928Y-123145344D02*
X222469023Y-123069154D01*
X222469023Y-123069154D02*
X222507118Y-123031059D01*
X222507118Y-123031059D02*
X222583309Y-122992963D01*
X222583309Y-122992963D02*
X222659499Y-122992963D01*
X222659499Y-122992963D02*
X222735690Y-123031059D01*
X222735690Y-123031059D02*
X222773785Y-123069154D01*
X222773785Y-123069154D02*
X222811880Y-123145344D01*
X222811880Y-123145344D02*
X222811880Y-123335821D01*
X222811880Y-123335821D02*
X222773785Y-123450106D01*
X222430928Y-123792964D02*
X222430928Y-124059630D01*
X222011880Y-124173916D02*
X222011880Y-123792964D01*
X222011880Y-123792964D02*
X222811880Y-123792964D01*
X222811880Y-123792964D02*
X222811880Y-124173916D01*
X222430928Y-124516774D02*
X222430928Y-124783440D01*
X222011880Y-124897726D02*
X222011880Y-124516774D01*
X222011880Y-124516774D02*
X222811880Y-124516774D01*
X222811880Y-124516774D02*
X222811880Y-124897726D01*
X222430928Y-125240584D02*
X222430928Y-125507250D01*
X222011880Y-125621536D02*
X222011880Y-125240584D01*
X222011880Y-125240584D02*
X222811880Y-125240584D01*
X222811880Y-125240584D02*
X222811880Y-125621536D01*
X222011880Y-125964394D02*
X222811880Y-125964394D01*
X222811880Y-125964394D02*
X222811880Y-126154870D01*
X222811880Y-126154870D02*
X222773785Y-126269156D01*
X222773785Y-126269156D02*
X222697595Y-126345346D01*
X222697595Y-126345346D02*
X222621404Y-126383441D01*
X222621404Y-126383441D02*
X222469023Y-126421537D01*
X222469023Y-126421537D02*
X222354737Y-126421537D01*
X222354737Y-126421537D02*
X222202356Y-126383441D01*
X222202356Y-126383441D02*
X222126166Y-126345346D01*
X222126166Y-126345346D02*
X222049976Y-126269156D01*
X222049976Y-126269156D02*
X222011880Y-126154870D01*
X222011880Y-126154870D02*
X222011880Y-125964394D01*
X222811880Y-127297727D02*
X222011880Y-127831061D01*
X222811880Y-127831061D02*
X222011880Y-127297727D01*
X222011880Y-128135823D02*
X222811880Y-128135823D01*
X222240452Y-128478679D02*
X222240452Y-128859632D01*
X222011880Y-128402489D02*
X222811880Y-128669156D01*
X222811880Y-128669156D02*
X222011880Y-128935822D01*
X222811880Y-129354870D02*
X222811880Y-129507251D01*
X222811880Y-129507251D02*
X222773785Y-129583441D01*
X222773785Y-129583441D02*
X222697595Y-129659632D01*
X222697595Y-129659632D02*
X222545214Y-129697727D01*
X222545214Y-129697727D02*
X222278547Y-129697727D01*
X222278547Y-129697727D02*
X222126166Y-129659632D01*
X222126166Y-129659632D02*
X222049976Y-129583441D01*
X222049976Y-129583441D02*
X222011880Y-129507251D01*
X222011880Y-129507251D02*
X222011880Y-129354870D01*
X222011880Y-129354870D02*
X222049976Y-129278679D01*
X222049976Y-129278679D02*
X222126166Y-129202489D01*
X222126166Y-129202489D02*
X222278547Y-129164393D01*
X222278547Y-129164393D02*
X222545214Y-129164393D01*
X222545214Y-129164393D02*
X222697595Y-129202489D01*
X222697595Y-129202489D02*
X222773785Y-129278679D01*
X222773785Y-129278679D02*
X222811880Y-129354870D01*
X222430928Y-130916774D02*
X222392833Y-131031060D01*
X222392833Y-131031060D02*
X222354737Y-131069155D01*
X222354737Y-131069155D02*
X222278547Y-131107251D01*
X222278547Y-131107251D02*
X222164261Y-131107251D01*
X222164261Y-131107251D02*
X222088071Y-131069155D01*
X222088071Y-131069155D02*
X222049976Y-131031060D01*
X222049976Y-131031060D02*
X222011880Y-130954870D01*
X222011880Y-130954870D02*
X222011880Y-130650108D01*
X222011880Y-130650108D02*
X222811880Y-130650108D01*
X222811880Y-130650108D02*
X222811880Y-130916774D01*
X222811880Y-130916774D02*
X222773785Y-130992965D01*
X222773785Y-130992965D02*
X222735690Y-131031060D01*
X222735690Y-131031060D02*
X222659499Y-131069155D01*
X222659499Y-131069155D02*
X222583309Y-131069155D01*
X222583309Y-131069155D02*
X222507118Y-131031060D01*
X222507118Y-131031060D02*
X222469023Y-130992965D01*
X222469023Y-130992965D02*
X222430928Y-130916774D01*
X222430928Y-130916774D02*
X222430928Y-130650108D01*
X222011880Y-131831060D02*
X222011880Y-131450108D01*
X222011880Y-131450108D02*
X222811880Y-131450108D01*
X222430928Y-132097727D02*
X222430928Y-132364393D01*
X222011880Y-132478679D02*
X222011880Y-132097727D01*
X222011880Y-132097727D02*
X222811880Y-132097727D01*
X222811880Y-132097727D02*
X222811880Y-132478679D01*
X220761976Y-122992963D02*
X220723880Y-123107249D01*
X220723880Y-123107249D02*
X220723880Y-123297725D01*
X220723880Y-123297725D02*
X220761976Y-123373916D01*
X220761976Y-123373916D02*
X220800071Y-123412011D01*
X220800071Y-123412011D02*
X220876261Y-123450106D01*
X220876261Y-123450106D02*
X220952452Y-123450106D01*
X220952452Y-123450106D02*
X221028642Y-123412011D01*
X221028642Y-123412011D02*
X221066737Y-123373916D01*
X221066737Y-123373916D02*
X221104833Y-123297725D01*
X221104833Y-123297725D02*
X221142928Y-123145344D01*
X221142928Y-123145344D02*
X221181023Y-123069154D01*
X221181023Y-123069154D02*
X221219118Y-123031059D01*
X221219118Y-123031059D02*
X221295309Y-122992963D01*
X221295309Y-122992963D02*
X221371499Y-122992963D01*
X221371499Y-122992963D02*
X221447690Y-123031059D01*
X221447690Y-123031059D02*
X221485785Y-123069154D01*
X221485785Y-123069154D02*
X221523880Y-123145344D01*
X221523880Y-123145344D02*
X221523880Y-123335821D01*
X221523880Y-123335821D02*
X221485785Y-123450106D01*
X221142928Y-123792964D02*
X221142928Y-124059630D01*
X220723880Y-124173916D02*
X220723880Y-123792964D01*
X220723880Y-123792964D02*
X221523880Y-123792964D01*
X221523880Y-123792964D02*
X221523880Y-124173916D01*
X221142928Y-124516774D02*
X221142928Y-124783440D01*
X220723880Y-124897726D02*
X220723880Y-124516774D01*
X220723880Y-124516774D02*
X221523880Y-124516774D01*
X221523880Y-124516774D02*
X221523880Y-124897726D01*
X221142928Y-125240584D02*
X221142928Y-125507250D01*
X220723880Y-125621536D02*
X220723880Y-125240584D01*
X220723880Y-125240584D02*
X221523880Y-125240584D01*
X221523880Y-125240584D02*
X221523880Y-125621536D01*
X220723880Y-125964394D02*
X221523880Y-125964394D01*
X221523880Y-125964394D02*
X221523880Y-126154870D01*
X221523880Y-126154870D02*
X221485785Y-126269156D01*
X221485785Y-126269156D02*
X221409595Y-126345346D01*
X221409595Y-126345346D02*
X221333404Y-126383441D01*
X221333404Y-126383441D02*
X221181023Y-126421537D01*
X221181023Y-126421537D02*
X221066737Y-126421537D01*
X221066737Y-126421537D02*
X220914356Y-126383441D01*
X220914356Y-126383441D02*
X220838166Y-126345346D01*
X220838166Y-126345346D02*
X220761976Y-126269156D01*
X220761976Y-126269156D02*
X220723880Y-126154870D01*
X220723880Y-126154870D02*
X220723880Y-125964394D01*
X221523880Y-127297727D02*
X220723880Y-127831061D01*
X221523880Y-127831061D02*
X220723880Y-127297727D01*
X220723880Y-128135823D02*
X221523880Y-128135823D01*
X220952452Y-128478679D02*
X220952452Y-128859632D01*
X220723880Y-128402489D02*
X221523880Y-128669156D01*
X221523880Y-128669156D02*
X220723880Y-128935822D01*
X221523880Y-129354870D02*
X221523880Y-129507251D01*
X221523880Y-129507251D02*
X221485785Y-129583441D01*
X221485785Y-129583441D02*
X221409595Y-129659632D01*
X221409595Y-129659632D02*
X221257214Y-129697727D01*
X221257214Y-129697727D02*
X220990547Y-129697727D01*
X220990547Y-129697727D02*
X220838166Y-129659632D01*
X220838166Y-129659632D02*
X220761976Y-129583441D01*
X220761976Y-129583441D02*
X220723880Y-129507251D01*
X220723880Y-129507251D02*
X220723880Y-129354870D01*
X220723880Y-129354870D02*
X220761976Y-129278679D01*
X220761976Y-129278679D02*
X220838166Y-129202489D01*
X220838166Y-129202489D02*
X220990547Y-129164393D01*
X220990547Y-129164393D02*
X221257214Y-129164393D01*
X221257214Y-129164393D02*
X221409595Y-129202489D01*
X221409595Y-129202489D02*
X221485785Y-129278679D01*
X221485785Y-129278679D02*
X221523880Y-129354870D01*
X220723880Y-131107251D02*
X221104833Y-130840584D01*
X220723880Y-130650108D02*
X221523880Y-130650108D01*
X221523880Y-130650108D02*
X221523880Y-130954870D01*
X221523880Y-130954870D02*
X221485785Y-131031060D01*
X221485785Y-131031060D02*
X221447690Y-131069155D01*
X221447690Y-131069155D02*
X221371499Y-131107251D01*
X221371499Y-131107251D02*
X221257214Y-131107251D01*
X221257214Y-131107251D02*
X221181023Y-131069155D01*
X221181023Y-131069155D02*
X221142928Y-131031060D01*
X221142928Y-131031060D02*
X221104833Y-130954870D01*
X221104833Y-130954870D02*
X221104833Y-130650108D01*
X220723880Y-131450108D02*
X221523880Y-131450108D01*
X221523880Y-131450108D02*
X221523880Y-131754870D01*
X221523880Y-131754870D02*
X221485785Y-131831060D01*
X221485785Y-131831060D02*
X221447690Y-131869155D01*
X221447690Y-131869155D02*
X221371499Y-131907251D01*
X221371499Y-131907251D02*
X221257214Y-131907251D01*
X221257214Y-131907251D02*
X221181023Y-131869155D01*
X221181023Y-131869155D02*
X221142928Y-131831060D01*
X221142928Y-131831060D02*
X221104833Y-131754870D01*
X221104833Y-131754870D02*
X221104833Y-131450108D01*
X221447690Y-132212012D02*
X221485785Y-132250108D01*
X221485785Y-132250108D02*
X221523880Y-132326298D01*
X221523880Y-132326298D02*
X221523880Y-132516774D01*
X221523880Y-132516774D02*
X221485785Y-132592965D01*
X221485785Y-132592965D02*
X221447690Y-132631060D01*
X221447690Y-132631060D02*
X221371499Y-132669155D01*
X221371499Y-132669155D02*
X221295309Y-132669155D01*
X221295309Y-132669155D02*
X221181023Y-132631060D01*
X221181023Y-132631060D02*
X220723880Y-132173917D01*
X220723880Y-132173917D02*
X220723880Y-132669155D01*
X221523880Y-133164394D02*
X221523880Y-133240584D01*
X221523880Y-133240584D02*
X221485785Y-133316775D01*
X221485785Y-133316775D02*
X221447690Y-133354870D01*
X221447690Y-133354870D02*
X221371499Y-133392965D01*
X221371499Y-133392965D02*
X221219118Y-133431060D01*
X221219118Y-133431060D02*
X221028642Y-133431060D01*
X221028642Y-133431060D02*
X220876261Y-133392965D01*
X220876261Y-133392965D02*
X220800071Y-133354870D01*
X220800071Y-133354870D02*
X220761976Y-133316775D01*
X220761976Y-133316775D02*
X220723880Y-133240584D01*
X220723880Y-133240584D02*
X220723880Y-133164394D01*
X220723880Y-133164394D02*
X220761976Y-133088203D01*
X220761976Y-133088203D02*
X220800071Y-133050108D01*
X220800071Y-133050108D02*
X220876261Y-133012013D01*
X220876261Y-133012013D02*
X221028642Y-132973917D01*
X221028642Y-132973917D02*
X221219118Y-132973917D01*
X221219118Y-132973917D02*
X221371499Y-133012013D01*
X221371499Y-133012013D02*
X221447690Y-133050108D01*
X221447690Y-133050108D02*
X221485785Y-133088203D01*
X221485785Y-133088203D02*
X221523880Y-133164394D01*
X221257214Y-134116775D02*
X220723880Y-134116775D01*
X221561976Y-133926299D02*
X220990547Y-133735822D01*
X220990547Y-133735822D02*
X220990547Y-134231061D01*
X221523880Y-134688204D02*
X221523880Y-134764394D01*
X221523880Y-134764394D02*
X221485785Y-134840585D01*
X221485785Y-134840585D02*
X221447690Y-134878680D01*
X221447690Y-134878680D02*
X221371499Y-134916775D01*
X221371499Y-134916775D02*
X221219118Y-134954870D01*
X221219118Y-134954870D02*
X221028642Y-134954870D01*
X221028642Y-134954870D02*
X220876261Y-134916775D01*
X220876261Y-134916775D02*
X220800071Y-134878680D01*
X220800071Y-134878680D02*
X220761976Y-134840585D01*
X220761976Y-134840585D02*
X220723880Y-134764394D01*
X220723880Y-134764394D02*
X220723880Y-134688204D01*
X220723880Y-134688204D02*
X220761976Y-134612013D01*
X220761976Y-134612013D02*
X220800071Y-134573918D01*
X220800071Y-134573918D02*
X220876261Y-134535823D01*
X220876261Y-134535823D02*
X221028642Y-134497727D01*
X221028642Y-134497727D02*
X221219118Y-134497727D01*
X221219118Y-134497727D02*
X221371499Y-134535823D01*
X221371499Y-134535823D02*
X221447690Y-134573918D01*
X221447690Y-134573918D02*
X221485785Y-134612013D01*
X221485785Y-134612013D02*
X221523880Y-134688204D01*
X219854928Y-123297725D02*
X219854928Y-123031059D01*
X219435880Y-123031059D02*
X220235880Y-123031059D01*
X220235880Y-123031059D02*
X220235880Y-123412011D01*
X219664452Y-123678677D02*
X219664452Y-124059630D01*
X219435880Y-123602487D02*
X220235880Y-123869154D01*
X220235880Y-123869154D02*
X219435880Y-124135820D01*
X219512071Y-124859630D02*
X219473976Y-124821534D01*
X219473976Y-124821534D02*
X219435880Y-124707249D01*
X219435880Y-124707249D02*
X219435880Y-124631058D01*
X219435880Y-124631058D02*
X219473976Y-124516772D01*
X219473976Y-124516772D02*
X219550166Y-124440582D01*
X219550166Y-124440582D02*
X219626356Y-124402487D01*
X219626356Y-124402487D02*
X219778737Y-124364391D01*
X219778737Y-124364391D02*
X219893023Y-124364391D01*
X219893023Y-124364391D02*
X220045404Y-124402487D01*
X220045404Y-124402487D02*
X220121595Y-124440582D01*
X220121595Y-124440582D02*
X220197785Y-124516772D01*
X220197785Y-124516772D02*
X220235880Y-124631058D01*
X220235880Y-124631058D02*
X220235880Y-124707249D01*
X220235880Y-124707249D02*
X220197785Y-124821534D01*
X220197785Y-124821534D02*
X220159690Y-124859630D01*
X219854928Y-125202487D02*
X219854928Y-125469153D01*
X219435880Y-125583439D02*
X219435880Y-125202487D01*
X219435880Y-125202487D02*
X220235880Y-125202487D01*
X220235880Y-125202487D02*
X220235880Y-125583439D01*
X220235880Y-126535821D02*
X219588261Y-126535821D01*
X219588261Y-126535821D02*
X219512071Y-126573916D01*
X219512071Y-126573916D02*
X219473976Y-126612011D01*
X219473976Y-126612011D02*
X219435880Y-126688202D01*
X219435880Y-126688202D02*
X219435880Y-126840583D01*
X219435880Y-126840583D02*
X219473976Y-126916773D01*
X219473976Y-126916773D02*
X219512071Y-126954868D01*
X219512071Y-126954868D02*
X219588261Y-126992964D01*
X219588261Y-126992964D02*
X220235880Y-126992964D01*
X219435880Y-127373916D02*
X220235880Y-127373916D01*
X220235880Y-127373916D02*
X220235880Y-127678678D01*
X220235880Y-127678678D02*
X220197785Y-127754868D01*
X220197785Y-127754868D02*
X220159690Y-127792963D01*
X220159690Y-127792963D02*
X220083499Y-127831059D01*
X220083499Y-127831059D02*
X219969214Y-127831059D01*
X219969214Y-127831059D02*
X219893023Y-127792963D01*
X219893023Y-127792963D02*
X219854928Y-127754868D01*
X219854928Y-127754868D02*
X219816833Y-127678678D01*
X219816833Y-127678678D02*
X219816833Y-127373916D01*
D12*
X291762875Y-89587159D02*
X292147379Y-89476904D01*
X292147379Y-89476904D02*
X291995779Y-88948210D01*
X292147379Y-89476904D02*
X292298980Y-90005598D01*
X292147379Y-89476904D02*
X292613881Y-88927017D01*
X292613881Y-88927017D02*
X292834391Y-89696026D01*
X292724136Y-89311522D02*
X293204767Y-89173703D01*
X292834391Y-89696026D02*
X292147379Y-89476904D01*
X296448712Y-105928609D02*
X296833216Y-105818354D01*
X296833216Y-105818354D02*
X296681616Y-105289660D01*
X296833216Y-105818354D02*
X296984817Y-106347048D01*
X296833216Y-105818354D02*
X297299718Y-105268467D01*
X297299718Y-105268467D02*
X297520228Y-106037476D01*
X297409973Y-105652972D02*
X297890604Y-105515153D01*
X297520228Y-106037476D02*
X296833216Y-105818354D01*
X260699386Y-116026837D02*
X261075263Y-115890029D01*
X261075263Y-115890029D02*
X260887152Y-115373198D01*
X261075263Y-115890029D02*
X261263374Y-116406860D01*
X261075263Y-115890029D02*
X261502270Y-115308940D01*
X261502270Y-115308940D02*
X261775886Y-116060694D01*
X261639078Y-115684817D02*
X262108924Y-115513807D01*
X261775886Y-116060694D02*
X261075263Y-115890029D01*
X266513728Y-132001613D02*
X266889605Y-131864805D01*
X266889605Y-131864805D02*
X266701494Y-131347974D01*
X266889605Y-131864805D02*
X267077716Y-132381636D01*
X266889605Y-131864805D02*
X267316612Y-131283716D01*
X267316612Y-131283716D02*
X267590228Y-132035470D01*
X267453420Y-131659593D02*
X267923266Y-131488583D01*
X267590228Y-132035470D02*
X266889605Y-131864805D01*
D13*
X209196176Y-116741899D02*
X226976176Y-116741899D01*
X209196176Y-118641899D02*
X209196176Y-116741899D01*
X209196176Y-120616899D02*
X209196176Y-121146899D01*
X209196176Y-123156899D02*
X209196176Y-123686899D01*
X209196176Y-125696899D02*
X209196176Y-126226899D01*
X209196176Y-128236899D02*
X209196176Y-128766899D01*
X209196176Y-130776899D02*
X209196176Y-131306899D01*
X209196176Y-133316899D02*
X209196176Y-133846899D01*
X209196176Y-137741899D02*
X209196176Y-135841899D01*
D10*
X224436176Y-120891899D02*
X224436176Y-123431899D01*
X224436176Y-120891899D02*
X226976176Y-120891899D01*
X224436176Y-123431899D02*
X226976176Y-123431899D01*
D13*
X226976176Y-116751899D02*
X226976176Y-118591899D01*
X226976176Y-120631899D02*
X226976176Y-121161899D01*
X226976176Y-123166899D02*
X226976176Y-123696899D01*
X226976176Y-125706899D02*
X226976176Y-126236899D01*
X226976176Y-128236899D02*
X226976176Y-128766899D01*
X226976176Y-130786899D02*
X226976176Y-131316899D01*
X226976176Y-133326899D02*
X226976176Y-133856899D01*
X226976176Y-135851899D02*
X226976176Y-137741899D01*
X226976176Y-137741899D02*
X209196176Y-137741899D01*
D12*
X315040949Y-92511691D02*
X315436024Y-92449117D01*
X315436024Y-92449117D02*
X315349985Y-91905888D01*
X315436024Y-92449117D02*
X315522063Y-92992346D01*
X315436024Y-92449117D02*
X315966063Y-91960181D01*
X315966063Y-91960181D02*
X316091211Y-92750332D01*
X316028637Y-92355256D02*
X316522481Y-92277039D01*
X316091211Y-92750332D02*
X315436024Y-92449117D01*
X258234580Y-156789225D02*
X258590983Y-156607629D01*
X258590983Y-156607629D02*
X258341288Y-156117575D01*
X258590983Y-156607629D02*
X258840677Y-157097682D01*
X258590983Y-156607629D02*
X258943990Y-155978832D01*
X258943990Y-155978832D02*
X259307183Y-156691637D01*
X259125587Y-156335234D02*
X259571090Y-156108239D01*
X259307183Y-156691637D02*
X258590983Y-156607629D01*
X179877765Y-99539034D02*
X180253642Y-99675842D01*
X180253642Y-99675842D02*
X180441753Y-99159011D01*
X180253642Y-99675842D02*
X180065531Y-100192673D01*
X180253642Y-99675842D02*
X180954265Y-99505177D01*
X180954265Y-99505177D02*
X180680649Y-100256931D01*
X180817457Y-99881054D02*
X181287303Y-100052064D01*
X180680649Y-100256931D02*
X180253642Y-99675842D01*
X242348284Y-166253240D02*
X242679899Y-166029563D01*
X242679899Y-166029563D02*
X242372343Y-165573592D01*
X242679899Y-166029563D02*
X242987455Y-166485533D01*
X242679899Y-166029563D02*
X242953644Y-165362432D01*
X242953644Y-165362432D02*
X243400999Y-166025662D01*
X243177321Y-165694047D02*
X243591840Y-165414450D01*
X243400999Y-166025662D02*
X242679899Y-166029563D01*
X317700338Y-109302390D02*
X318095413Y-109239816D01*
X318095413Y-109239816D02*
X318009374Y-108696587D01*
X318095413Y-109239816D02*
X318181452Y-109783045D01*
X318095413Y-109239816D02*
X318625452Y-108750880D01*
X318625452Y-108750880D02*
X318750600Y-109541031D01*
X318688026Y-109145955D02*
X319181870Y-109067738D01*
X318750600Y-109541031D02*
X318095413Y-109239816D01*
X250411555Y-140389741D02*
X250787432Y-140252933D01*
X250787432Y-140252933D02*
X250599321Y-139736102D01*
X250787432Y-140252933D02*
X250975543Y-140769764D01*
X250787432Y-140252933D02*
X251214439Y-139671844D01*
X251214439Y-139671844D02*
X251488055Y-140423598D01*
X251351247Y-140047721D02*
X251821093Y-139876711D01*
X251488055Y-140423598D02*
X250787432Y-140252933D01*
X195979933Y-107927164D02*
X196355810Y-108063972D01*
X196355810Y-108063972D02*
X196543921Y-107547141D01*
X196355810Y-108063972D02*
X196167699Y-108580803D01*
X196355810Y-108063972D02*
X197056433Y-107893307D01*
X197056433Y-107893307D02*
X196782817Y-108645061D01*
X196919625Y-108269184D02*
X197389471Y-108440194D01*
X196782817Y-108645061D02*
X196355810Y-108063972D01*
X192580490Y-165414460D02*
X192912105Y-165638137D01*
X192912105Y-165638137D02*
X193219661Y-165182167D01*
X192912105Y-165638137D02*
X192604549Y-166094108D01*
X192912105Y-165638137D02*
X193633205Y-165642038D01*
X193633205Y-165642038D02*
X193185850Y-166305268D01*
X193409527Y-165973653D02*
X193824046Y-166253250D01*
X193185850Y-166305268D02*
X192912105Y-165638137D01*
X114331079Y-125858444D02*
X114726154Y-125921018D01*
X114726154Y-125921018D02*
X114812193Y-125377789D01*
X114726154Y-125921018D02*
X114640115Y-126464247D01*
X114726154Y-125921018D02*
X115381341Y-125619803D01*
X115381341Y-125619803D02*
X115256193Y-126409954D01*
X115318767Y-126014879D02*
X115812611Y-126093096D01*
X115256193Y-126409954D02*
X114726154Y-125921018D01*
X158303269Y-106185982D02*
X158679146Y-106322790D01*
X158679146Y-106322790D02*
X158867257Y-105805959D01*
X158679146Y-106322790D02*
X158491035Y-106839621D01*
X158679146Y-106322790D02*
X159379769Y-106152125D01*
X159379769Y-106152125D02*
X159106153Y-106903879D01*
X159242961Y-106528002D02*
X159712807Y-106699012D01*
X159106153Y-106903879D02*
X158679146Y-106322790D01*
D10*
X207486176Y-144141892D02*
X215086176Y-144141892D01*
X215086176Y-144141892D02*
X215086176Y-138241892D01*
X207486176Y-143441892D02*
X207486176Y-144141892D01*
X209086176Y-143441892D02*
X207486176Y-143441892D01*
X207236176Y-142441892D02*
X207236176Y-141941892D01*
X206986176Y-142191892D02*
X207486176Y-142191892D01*
X207486176Y-138941892D02*
X209086176Y-138941892D01*
X209086176Y-138941892D02*
X209086176Y-143441892D01*
X207486176Y-138241892D02*
X207486176Y-138941892D01*
X215086176Y-138241892D02*
X207486176Y-138241892D01*
D12*
X119649861Y-92277039D02*
X120044936Y-92339613D01*
X120044936Y-92339613D02*
X120130975Y-91796384D01*
X120044936Y-92339613D02*
X119958897Y-92882842D01*
X120044936Y-92339613D02*
X120700123Y-92038398D01*
X120700123Y-92038398D02*
X120574975Y-92828549D01*
X120637549Y-92433474D02*
X121131393Y-92511691D01*
X120574975Y-92828549D02*
X120044936Y-92339613D01*
X152488926Y-122160762D02*
X152864803Y-122297570D01*
X152864803Y-122297570D02*
X153052914Y-121780739D01*
X152864803Y-122297570D02*
X152676692Y-122814401D01*
X152864803Y-122297570D02*
X153565426Y-122126905D01*
X153565426Y-122126905D02*
X153291810Y-122878659D01*
X153428618Y-122502782D02*
X153898464Y-122673792D01*
X153291810Y-122878659D02*
X152864803Y-122297570D01*
X301134545Y-122270061D02*
X301519049Y-122159806D01*
X301519049Y-122159806D02*
X301367449Y-121631112D01*
X301519049Y-122159806D02*
X301670650Y-122688500D01*
X301519049Y-122159806D02*
X301985551Y-121609919D01*
X301985551Y-121609919D02*
X302206061Y-122378928D01*
X302095806Y-121994424D02*
X302576437Y-121856605D01*
X302206061Y-122378928D02*
X301519049Y-122159806D01*
X320359726Y-126093092D02*
X320754801Y-126030518D01*
X320754801Y-126030518D02*
X320668762Y-125487289D01*
X320754801Y-126030518D02*
X320840840Y-126573747D01*
X320754801Y-126030518D02*
X321284840Y-125541582D01*
X321284840Y-125541582D02*
X321409988Y-126331733D01*
X321347414Y-125936657D02*
X321841258Y-125858440D01*
X321409988Y-126331733D02*
X320754801Y-126030518D01*
X270645191Y-90724238D02*
X271021068Y-90587430D01*
X271021068Y-90587430D02*
X270832957Y-90070599D01*
X271021068Y-90587430D02*
X271209179Y-91104261D01*
X271021068Y-90587430D02*
X271448075Y-90006341D01*
X271448075Y-90006341D02*
X271721691Y-90758095D01*
X271584883Y-90382218D02*
X272054729Y-90211208D01*
X271721691Y-90758095D02*
X271021068Y-90587430D01*
X238782872Y-108440194D02*
X239158749Y-108303386D01*
X239158749Y-108303386D02*
X238970638Y-107786555D01*
X239158749Y-108303386D02*
X239346860Y-108820217D01*
X239158749Y-108303386D02*
X239585756Y-107722297D01*
X239585756Y-107722297D02*
X239859372Y-108474051D01*
X239722564Y-108098174D02*
X240192410Y-107927164D01*
X239859372Y-108474051D02*
X239158749Y-108303386D01*
X138281740Y-105515149D02*
X138666244Y-105625404D01*
X138666244Y-105625404D02*
X138817845Y-105096710D01*
X138666244Y-105625404D02*
X138514644Y-106154098D01*
X138666244Y-105625404D02*
X139353256Y-105406282D01*
X139353256Y-105406282D02*
X139132746Y-106175291D01*
X139243001Y-105790786D02*
X139723632Y-105928605D01*
X139132746Y-106175291D02*
X138666244Y-105625404D01*
X133595905Y-121856605D02*
X133980409Y-121966860D01*
X133980409Y-121966860D02*
X134132010Y-121438166D01*
X133980409Y-121966860D02*
X133828809Y-122495554D01*
X133980409Y-121966860D02*
X134667421Y-121747738D01*
X134667421Y-121747738D02*
X134446911Y-122516747D01*
X134557166Y-122132242D02*
X135037797Y-122270061D01*
X134446911Y-122516747D02*
X133980409Y-121966860D01*
X254885044Y-100052059D02*
X255260921Y-99915251D01*
X255260921Y-99915251D02*
X255072810Y-99398420D01*
X255260921Y-99915251D02*
X255449032Y-100432082D01*
X255260921Y-99915251D02*
X255687928Y-99334162D01*
X255687928Y-99334162D02*
X255961544Y-100085916D01*
X255824736Y-99710039D02*
X256294582Y-99539029D01*
X255961544Y-100085916D02*
X255260921Y-99915251D01*
X174063420Y-115513807D02*
X174439297Y-115650615D01*
X174439297Y-115650615D02*
X174627408Y-115133784D01*
X174439297Y-115650615D02*
X174251186Y-116167446D01*
X174439297Y-115650615D02*
X175139920Y-115479950D01*
X175139920Y-115479950D02*
X174866304Y-116231704D01*
X175003112Y-115855827D02*
X175472958Y-116026837D01*
X174866304Y-116231704D02*
X174439297Y-115650615D01*
X190165584Y-123901937D02*
X190541461Y-124038745D01*
X190541461Y-124038745D02*
X190729572Y-123521914D01*
X190541461Y-124038745D02*
X190353350Y-124555576D01*
X190541461Y-124038745D02*
X191242084Y-123868080D01*
X191242084Y-123868080D02*
X190968468Y-124619834D01*
X191105276Y-124243957D02*
X191575122Y-124414967D01*
X190968468Y-124619834D02*
X190541461Y-124038745D01*
X244597212Y-124414973D02*
X244973089Y-124278165D01*
X244973089Y-124278165D02*
X244784978Y-123761334D01*
X244973089Y-124278165D02*
X245161200Y-124794996D01*
X244973089Y-124278165D02*
X245400096Y-123697076D01*
X245400096Y-123697076D02*
X245673712Y-124448830D01*
X245536904Y-124072953D02*
X246006750Y-123901943D01*
X245673712Y-124448830D02*
X244973089Y-124278165D01*
X184351240Y-139876707D02*
X184727117Y-140013515D01*
X184727117Y-140013515D02*
X184915228Y-139496684D01*
X184727117Y-140013515D02*
X184539006Y-140530346D01*
X184727117Y-140013515D02*
X185427740Y-139842850D01*
X185427740Y-139842850D02*
X185154124Y-140594604D01*
X185290932Y-140218727D02*
X185760778Y-140389737D01*
X185154124Y-140594604D02*
X184727117Y-140013515D01*
X116990469Y-109067740D02*
X117385544Y-109130314D01*
X117385544Y-109130314D02*
X117471583Y-108587085D01*
X117385544Y-109130314D02*
X117299505Y-109673543D01*
X117385544Y-109130314D02*
X118040731Y-108829099D01*
X118040731Y-108829099D02*
X117915583Y-109619250D01*
X117978157Y-109224175D02*
X118472001Y-109302392D01*
X117915583Y-109619250D02*
X117385544Y-109130314D01*
X176601245Y-156108240D02*
X176957648Y-156289836D01*
X176957648Y-156289836D02*
X177207342Y-155799783D01*
X176957648Y-156289836D02*
X176707953Y-156779890D01*
X176957648Y-156289836D02*
X177673848Y-156205828D01*
X177673848Y-156205828D02*
X177310655Y-156918633D01*
X177492252Y-156562231D02*
X177937755Y-156789226D01*
X177310655Y-156918633D02*
X176957648Y-156289836D01*
X276459530Y-106699010D02*
X276835407Y-106562202D01*
X276835407Y-106562202D02*
X276647296Y-106045371D01*
X276835407Y-106562202D02*
X277023518Y-107079033D01*
X276835407Y-106562202D02*
X277262414Y-105981113D01*
X277262414Y-105981113D02*
X277536030Y-106732867D01*
X277399222Y-106356990D02*
X277869068Y-106185980D01*
X277536030Y-106732867D02*
X276835407Y-106562202D01*
X142967571Y-89173709D02*
X143352075Y-89283964D01*
X143352075Y-89283964D02*
X143503676Y-88755270D01*
X143352075Y-89283964D02*
X143200475Y-89812658D01*
X143352075Y-89283964D02*
X144039087Y-89064842D01*
X144039087Y-89064842D02*
X143818577Y-89833851D01*
X143928832Y-89449346D02*
X144409463Y-89587165D01*
X143818577Y-89833851D02*
X143352075Y-89283964D01*
X282273875Y-122673783D02*
X282649752Y-122536975D01*
X282649752Y-122536975D02*
X282461641Y-122020144D01*
X282649752Y-122536975D02*
X282837863Y-123053806D01*
X282649752Y-122536975D02*
X283076759Y-121955886D01*
X283076759Y-121955886D02*
X283350375Y-122707640D01*
X283213567Y-122331763D02*
X283683413Y-122160753D01*
X283350375Y-122707640D02*
X282649752Y-122536975D01*
X164117611Y-90211203D02*
X164493488Y-90348011D01*
X164493488Y-90348011D02*
X164681599Y-89831180D01*
X164493488Y-90348011D02*
X164305377Y-90864842D01*
X164493488Y-90348011D02*
X165194111Y-90177346D01*
X165194111Y-90177346D02*
X164920495Y-90929100D01*
X165057303Y-90553223D02*
X165527149Y-90724233D01*
X164920495Y-90929100D02*
X164493488Y-90348011D01*
X168249072Y-131488579D02*
X168624949Y-131625387D01*
X168624949Y-131625387D02*
X168813060Y-131108556D01*
X168624949Y-131625387D02*
X168436838Y-132142218D01*
X168624949Y-131625387D02*
X169325572Y-131454722D01*
X169325572Y-131454722D02*
X169051956Y-132206476D01*
X169188764Y-131830599D02*
X169658610Y-132001609D01*
X169051956Y-132206476D02*
X168624949Y-131625387D01*
D14*
X209991176Y-119621899D03*
X209991176Y-122161899D03*
X209991176Y-124701899D03*
X209991176Y-127241899D03*
X209991176Y-129781899D03*
X209991176Y-132321899D03*
X209991176Y-134861899D03*
X226181176Y-134861899D03*
X226181176Y-132321899D03*
X226181176Y-129781899D03*
X226181176Y-127241899D03*
X226181176Y-124701899D03*
D15*
X226181176Y-122161899D03*
D14*
X226181176Y-119621899D03*
D16*
X216816176Y-121209899D03*
X213641176Y-126924899D03*
%LPC*%
D17*
X216586171Y-116741899D03*
X219586171Y-116741899D03*
D18*
X307349064Y-106756118D03*
D19*
X290897739Y-89835233D03*
X294069903Y-88925629D03*
D20*
X174502728Y-149764059D03*
D21*
X182104507Y-146959518D03*
D22*
X179403264Y-152261007D03*
D21*
X185560761Y-151189685D03*
D20*
X184303800Y-154757955D03*
D19*
X295583576Y-106176683D03*
X298755740Y-105267079D03*
D20*
X187309538Y-117860785D03*
D21*
X194512867Y-114150725D03*
D22*
X192477847Y-119741896D03*
D21*
X198458886Y-117928149D03*
D20*
X197646156Y-121623007D03*
X254628348Y-113234871D03*
D21*
X257761637Y-105762589D03*
D22*
X259796657Y-111353760D03*
D21*
X263212545Y-106119812D03*
D20*
X264964966Y-109472649D03*
D23*
X259853662Y-116334655D03*
X262954648Y-115205989D03*
D20*
X171207371Y-109472652D03*
D21*
X178410700Y-105762592D03*
D22*
X176375680Y-111353763D03*
D21*
X182356719Y-109540016D03*
D20*
X181543989Y-113234874D03*
X285901390Y-86378503D03*
D21*
X289548287Y-79142991D03*
D22*
X291188329Y-84862498D03*
D21*
X294960997Y-79879580D03*
D20*
X296475268Y-83346493D03*
D23*
X265668004Y-132309431D03*
X268768990Y-131180765D03*
D18*
X248902095Y-106273550D03*
D20*
X312273570Y-105403324D03*
D21*
X316775071Y-98666188D03*
D22*
X317705856Y-104542934D03*
D21*
X322057668Y-100056930D03*
D20*
X323138142Y-103682544D03*
X161261556Y-84170055D03*
D21*
X168464885Y-80459995D03*
D22*
X166429865Y-86051166D03*
D21*
X172410904Y-84237419D03*
D20*
X171598174Y-87932277D03*
X276202838Y-119881824D03*
D21*
X279336127Y-112409542D03*
D22*
X281371147Y-118000713D03*
D21*
X284787035Y-112766765D03*
D20*
X286539456Y-116119602D03*
D24*
X234448704Y-128694025D03*
D14*
X209991176Y-119621899D03*
X209991176Y-122161899D03*
X209991176Y-124701899D03*
X209991176Y-127241899D03*
X209991176Y-129781899D03*
X209991176Y-132321899D03*
X209991176Y-134861899D03*
X226181176Y-134861899D03*
X226181176Y-132321899D03*
X226181176Y-129781899D03*
X226181176Y-127241899D03*
X226181176Y-124701899D03*
D15*
X226181176Y-122161899D03*
D14*
X226181176Y-119621899D03*
D16*
X216816176Y-121209899D03*
X213641176Y-126924899D03*
D20*
X130325401Y-116029401D03*
D21*
X137252382Y-111825899D03*
D22*
X135612340Y-117545406D03*
D21*
X141452289Y-115318861D03*
D20*
X140899279Y-119061411D03*
D25*
X314152029Y-92652482D03*
X317411401Y-92136248D03*
D26*
X257432674Y-157197816D03*
X260372996Y-155699648D03*
D27*
X179032041Y-99231216D03*
X182133027Y-100359882D03*
D18*
X303239988Y-90249286D03*
D28*
X241602150Y-166756513D03*
X244337974Y-164911177D03*
D20*
X115693575Y-86891839D03*
D21*
X122056646Y-81875483D03*
D22*
X121125861Y-87752229D03*
D21*
X126650932Y-84830570D03*
D20*
X126558147Y-88612619D03*
D25*
X316811418Y-109443181D03*
X320070790Y-108926947D03*
D18*
X187769129Y-156840697D03*
D20*
X290587226Y-102719959D03*
D21*
X294234123Y-95484447D03*
D22*
X295874165Y-101203954D03*
D21*
X299646833Y-96221036D03*
D20*
X301161104Y-99687949D03*
D23*
X249565831Y-140697559D03*
X252666817Y-139568893D03*
D20*
X113034189Y-103682540D03*
D21*
X119397260Y-98666184D03*
D22*
X118466475Y-104542930D03*
D21*
X123991546Y-101621271D03*
D20*
X123898761Y-105403320D03*
D27*
X195134209Y-107619346D03*
X198235195Y-108748012D03*
D29*
X191834356Y-164911187D03*
X194570180Y-166756523D03*
D20*
X309614188Y-88612619D03*
D21*
X314115689Y-81875483D03*
D22*
X315046474Y-87752229D03*
D21*
X319398286Y-83266225D03*
D20*
X320478760Y-86891839D03*
D30*
X113442159Y-125717653D03*
X116701531Y-126233887D03*
D27*
X157457545Y-105878164D03*
X160558531Y-107006830D03*
D31*
X208836176Y-142191892D03*
D32*
X208836176Y-140191892D03*
D24*
X195909285Y-144668793D03*
D30*
X118760941Y-92136248D03*
X122020313Y-92652482D03*
D20*
X264574151Y-87932277D03*
D21*
X267707440Y-80459995D03*
D22*
X269742460Y-86051166D03*
D21*
X273158348Y-80817218D03*
D20*
X274910769Y-84170055D03*
X314932962Y-122194029D03*
D21*
X319434463Y-115456893D03*
D22*
X320365248Y-121333639D03*
D21*
X324717060Y-116847635D03*
D20*
X325797534Y-120473249D03*
D27*
X151643202Y-121852944D03*
X154744188Y-122981610D03*
D19*
X300269409Y-122518135D03*
X303441573Y-121608531D03*
D20*
X165393031Y-125447428D03*
D21*
X172596360Y-121737368D03*
D22*
X170561340Y-127328539D03*
D21*
X176542379Y-125514792D03*
D20*
X175729649Y-129209650D03*
D25*
X319470806Y-126233883D03*
X322730178Y-125717649D03*
D24*
X240263049Y-144668793D03*
D20*
X110374805Y-120473248D03*
D21*
X116737876Y-115456892D03*
D22*
X115807091Y-121333638D03*
D21*
X121332162Y-118411979D03*
D20*
X121239377Y-122194028D03*
D23*
X269799467Y-91032056D03*
X272900453Y-89903390D03*
X237937148Y-108748012D03*
X241038134Y-107619346D03*
D18*
X248403211Y-156840699D03*
D33*
X137416604Y-105267075D03*
X140588768Y-106176679D03*
X132730769Y-121608531D03*
X135902933Y-122518135D03*
D23*
X254039320Y-100359877D03*
X257140306Y-99231211D03*
D20*
X251868546Y-154757954D03*
D21*
X254067839Y-146959517D03*
D22*
X256769082Y-152261006D03*
D21*
X259521650Y-146649779D03*
D20*
X261669618Y-149764058D03*
D27*
X173217696Y-115205989D03*
X176318682Y-116334655D03*
D20*
X193123882Y-101886009D03*
D21*
X200327211Y-98175949D03*
D22*
X198292191Y-103767120D03*
D21*
X204273230Y-101953373D03*
D20*
X203460500Y-105648231D03*
X177021712Y-93497874D03*
D21*
X184225041Y-89787814D03*
D22*
X182190021Y-95378985D03*
D21*
X188171060Y-93565238D03*
D20*
X187358330Y-97260096D03*
X260442694Y-129209654D03*
D21*
X263575983Y-121737372D03*
D22*
X265611003Y-127328543D03*
D21*
X269026891Y-122094595D03*
D20*
X270779312Y-125447432D03*
D27*
X189319860Y-123594119D03*
X192420846Y-124722785D03*
D20*
X181495195Y-133835556D03*
D21*
X188698524Y-130125496D03*
D22*
X186663504Y-135716667D03*
D21*
X192644543Y-133902920D03*
D20*
X191831813Y-137597778D03*
D23*
X243751488Y-124722791D03*
X246852474Y-123594125D03*
D20*
X295273058Y-119061404D03*
D21*
X298919955Y-111825892D03*
D22*
X300559997Y-117545399D03*
D21*
X304332665Y-112562481D03*
D20*
X305846936Y-116029394D03*
D24*
X201723629Y-128694025D03*
D27*
X183505516Y-139568889D03*
X186606502Y-140697555D03*
D30*
X116101549Y-108926949D03*
X119360921Y-109443183D03*
D34*
X175799339Y-155699649D03*
X178739661Y-157197817D03*
D20*
X155447222Y-100144824D03*
D21*
X162650551Y-96434764D03*
D22*
X160615531Y-102025935D03*
D21*
X166596570Y-100212188D03*
D20*
X165783840Y-103907046D03*
X232711842Y-105648230D03*
D21*
X235845131Y-98175948D03*
D22*
X237880151Y-103767119D03*
D21*
X241296039Y-98533171D03*
D20*
X243048460Y-101886008D03*
X149632879Y-116119601D03*
D21*
X156836208Y-112409541D03*
D22*
X154801188Y-118000712D03*
D21*
X160782227Y-116186965D03*
D20*
X159969497Y-119881823D03*
X235782157Y-165012936D03*
D21*
X237014666Y-157004601D03*
D22*
X240341864Y-161937375D03*
D21*
X242390078Y-156032520D03*
D20*
X244901571Y-158861814D03*
X244340524Y-137597783D03*
D21*
X247473813Y-130125501D03*
D22*
X249508833Y-135716672D03*
D21*
X252924721Y-130482724D03*
D20*
X254677142Y-133835561D03*
X238526176Y-121623010D03*
D21*
X241659465Y-114150728D03*
D22*
X243694485Y-119741899D03*
D21*
X247110373Y-114507951D03*
D20*
X248862794Y-117860788D03*
X139697067Y-83346503D03*
D21*
X146624048Y-79143001D03*
D22*
X144984006Y-84862508D03*
D21*
X150823955Y-82635963D03*
D20*
X150270945Y-86378513D03*
X248814008Y-97260094D03*
D21*
X251947297Y-89787812D03*
D22*
X253982317Y-95378983D03*
D21*
X257398205Y-90145035D03*
D20*
X259150626Y-93497872D03*
D23*
X275613806Y-107006828D03*
X278714792Y-105878162D03*
D18*
X187270243Y-106273543D03*
D33*
X142102435Y-88925635D03*
X145274599Y-89835239D03*
D23*
X281428151Y-122981601D03*
X284529137Y-121852935D03*
D20*
X135011233Y-99687954D03*
D21*
X141938214Y-95484452D03*
D22*
X140298172Y-101203959D03*
D21*
X146138121Y-98977414D03*
D20*
X145585111Y-102719964D03*
D27*
X163271887Y-89903385D03*
X166372873Y-91032051D03*
D20*
X191270773Y-158861819D03*
D21*
X199157678Y-157004606D03*
D22*
X195830480Y-161937380D03*
D21*
X202072641Y-161624454D03*
D20*
X200390187Y-165012941D03*
D27*
X167403348Y-131180761D03*
X170504334Y-132309427D03*
D18*
X132932353Y-90249289D03*
X128823276Y-106756117D03*
D20*
X270388496Y-103907053D03*
D21*
X273521785Y-96434771D03*
D22*
X275556805Y-102025942D03*
D21*
X278972693Y-96791994D03*
D20*
X280725114Y-100144831D03*
D35*
X226909628Y-102978735D03*
X229493782Y-102038179D03*
%LPD*%
M02*
