M48
; DRILL file {KiCad 7.0.5-0} date 2023 June 28, Wednesday 16:41:01
; FORMAT={-:-/ absolute / metric / decimal}
; #@! TF.CreationDate,2023-06-28T16:41:01-04:00
; #@! TF.GenerationSoftware,Kicad,Pcbnew,7.0.5-0
; #@! TF.FileFunction,NonPlated,1,2,NPTH
FMAT,2
METRIC
; #@! TA.AperFunction,NonPlated,NPTH,ComponentDrill
T1C0.750
; #@! TA.AperFunction,NonPlated,NPTH,ComponentDrill
T2C0.900
; #@! TA.AperFunction,NonPlated,NPTH,ComponentDrill
T3C1.702
; #@! TA.AperFunction,NonPlated,NPTH,ComponentDrill
T4C2.200
; #@! TA.AperFunction,NonPlated,NPTH,ComponentDrill
T5C3.000
; #@! TA.AperFunction,NonPlated,NPTH,ComponentDrill
T6C3.429
%
G90
G05
T1
X226.91Y-102.979
X229.494Y-102.038
T2
X216.586Y-116.742
X219.586Y-116.742
T3
X110.375Y-120.473
X110.375Y-120.473
X113.034Y-103.683
X113.034Y-103.683
X115.694Y-86.892
X115.694Y-86.892
X121.239Y-122.194
X121.239Y-122.194
X123.899Y-105.403
X123.899Y-105.403
X126.558Y-88.613
X126.558Y-88.613
X130.325Y-116.029
X130.325Y-116.029
X135.011Y-99.688
X135.011Y-99.688
X139.697Y-83.347
X139.697Y-83.347
X140.899Y-119.061
X140.899Y-119.061
X145.585Y-102.72
X145.585Y-102.72
X149.633Y-116.12
X149.633Y-116.12
X150.271Y-86.379
X150.271Y-86.379
X155.447Y-100.145
X155.447Y-100.145
X159.969Y-119.882
X159.969Y-119.882
X161.262Y-84.17
X161.262Y-84.17
X165.393Y-125.447
X165.393Y-125.447
X165.784Y-103.907
X165.784Y-103.907
X171.207Y-109.473
X171.207Y-109.473
X171.598Y-87.932
X171.598Y-87.932
X174.503Y-149.764
X174.503Y-149.764
X175.73Y-129.21
X175.73Y-129.21
X177.022Y-93.498
X177.022Y-93.498
X181.495Y-133.836
X181.495Y-133.836
X181.544Y-113.235
X181.544Y-113.235
X184.304Y-154.758
X184.304Y-154.758
X187.31Y-117.861
X187.31Y-117.861
X187.358Y-97.26
X187.358Y-97.26
X191.271Y-158.862
X191.271Y-158.862
X191.832Y-137.598
X191.832Y-137.598
X193.124Y-101.886
X193.124Y-101.886
X197.646Y-121.623
X197.646Y-121.623
X200.39Y-165.013
X200.39Y-165.013
X203.46Y-105.648
X203.46Y-105.648
X232.712Y-105.648
X232.712Y-105.648
X235.782Y-165.013
X235.782Y-165.013
X238.526Y-121.623
X238.526Y-121.623
X243.048Y-101.886
X243.048Y-101.886
X244.341Y-137.598
X244.341Y-137.598
X244.902Y-158.862
X244.902Y-158.862
X248.814Y-97.26
X248.814Y-97.26
X248.863Y-117.861
X248.863Y-117.861
X251.869Y-154.758
X251.869Y-154.758
X254.628Y-113.235
X254.628Y-113.235
X254.677Y-133.836
X254.677Y-133.836
X259.151Y-93.498
X259.151Y-93.498
X260.443Y-129.21
X260.443Y-129.21
X261.67Y-149.764
X261.67Y-149.764
X264.574Y-87.932
X264.574Y-87.932
X264.965Y-109.473
X264.965Y-109.473
X270.388Y-103.907
X270.388Y-103.907
X270.779Y-125.447
X270.779Y-125.447
X274.911Y-84.17
X274.911Y-84.17
X276.203Y-119.882
X276.203Y-119.882
X280.725Y-100.145
X280.725Y-100.145
X285.901Y-86.379
X285.901Y-86.379
X286.539Y-116.12
X286.539Y-116.12
X290.587Y-102.72
X290.587Y-102.72
X295.273Y-119.061
X295.273Y-119.061
X296.475Y-83.346
X296.475Y-83.346
X301.161Y-99.688
X301.161Y-99.688
X305.847Y-116.029
X305.847Y-116.029
X309.614Y-88.613
X309.614Y-88.613
X312.274Y-105.403
X312.274Y-105.403
X314.933Y-122.194
X314.933Y-122.194
X320.479Y-86.892
X320.479Y-86.892
X323.138Y-103.683
X323.138Y-103.683
X325.798Y-120.473
X325.798Y-120.473
T4
X128.823Y-106.756
X132.932Y-90.249
X187.27Y-106.274
X187.769Y-156.841
X248.403Y-156.841
X248.902Y-106.274
X303.24Y-90.249
X307.349Y-106.756
T5
X116.738Y-115.457
X119.397Y-98.666
X121.332Y-118.412
X122.057Y-81.875
X123.992Y-101.621
X126.651Y-84.831
X137.252Y-111.826
X141.452Y-115.319
X141.938Y-95.484
X146.138Y-98.977
X146.624Y-79.143
X150.824Y-82.636
X156.836Y-112.41
X160.782Y-116.187
X162.651Y-96.435
X166.597Y-100.212
X168.465Y-80.46
X172.411Y-84.237
X172.596Y-121.737
X176.542Y-125.515
X178.411Y-105.763
X182.105Y-146.96
X182.357Y-109.54
X184.225Y-89.788
X185.561Y-151.19
X188.171Y-93.565
X188.699Y-130.125
X192.645Y-133.903
X194.513Y-114.151
X198.459Y-117.928
X199.158Y-157.005
X200.327Y-98.176
X202.073Y-161.624
X204.273Y-101.953
X235.845Y-98.176
X237.015Y-157.005
X241.296Y-98.533
X241.659Y-114.151
X242.39Y-156.033
X247.11Y-114.508
X247.474Y-130.126
X251.947Y-89.788
X252.925Y-130.483
X254.068Y-146.96
X257.398Y-90.145
X257.762Y-105.763
X259.522Y-146.65
X263.213Y-106.12
X263.576Y-121.737
X267.707Y-80.46
X269.027Y-122.095
X273.158Y-80.817
X273.522Y-96.435
X278.973Y-96.792
X279.336Y-112.41
X284.787Y-112.767
X289.548Y-79.143
X294.234Y-95.484
X294.961Y-79.88
X298.92Y-111.826
X299.647Y-96.221
X304.333Y-112.562
X314.116Y-81.875
X316.775Y-98.666
X319.398Y-83.266
X319.434Y-115.457
X322.058Y-100.057
X324.717Y-116.848
T6
X115.807Y-121.334
X115.807Y-121.334
X118.466Y-104.543
X118.466Y-104.543
X121.126Y-87.752
X121.126Y-87.752
X135.612Y-117.545
X135.612Y-117.545
X140.298Y-101.204
X140.298Y-101.204
X144.984Y-84.863
X144.984Y-84.863
X154.801Y-118.001
X154.801Y-118.001
X160.616Y-102.026
X160.616Y-102.026
X166.43Y-86.051
X166.43Y-86.051
X170.561Y-127.329
X170.561Y-127.329
X176.376Y-111.354
X176.376Y-111.354
X179.403Y-152.261
X179.403Y-152.261
X182.19Y-95.379
X182.19Y-95.379
X186.664Y-135.717
X186.664Y-135.717
X192.478Y-119.742
X192.478Y-119.742
X195.83Y-161.937
X195.83Y-161.937
X198.292Y-103.767
X198.292Y-103.767
X237.88Y-103.767
X237.88Y-103.767
X240.342Y-161.937
X240.342Y-161.937
X243.694Y-119.742
X243.694Y-119.742
X249.509Y-135.717
X249.509Y-135.717
X253.982Y-95.379
X253.982Y-95.379
X256.769Y-152.261
X256.769Y-152.261
X259.797Y-111.354
X259.797Y-111.354
X265.611Y-127.329
X265.611Y-127.329
X269.742Y-86.051
X269.742Y-86.051
X275.557Y-102.026
X275.557Y-102.026
X281.371Y-118.001
X281.371Y-118.001
X291.188Y-84.862
X291.188Y-84.862
X295.874Y-101.204
X295.874Y-101.204
X300.56Y-117.545
X300.56Y-117.545
X315.046Y-87.752
X315.046Y-87.752
X317.706Y-104.543
X317.706Y-104.543
X320.365Y-121.334
X320.365Y-121.334
T0
M30
