%TF.GenerationSoftware,KiCad,Pcbnew,7.0.5-0*%
%TF.CreationDate,2023-06-28T16:41:04-04:00*%
%TF.ProjectId,regret,72656772-6574-42e6-9b69-6361645f7063,1*%
%TF.SameCoordinates,Original*%
%TF.FileFunction,Drillmap*%
%TF.FilePolarity,Positive*%
%FSLAX45Y45*%
G04 Gerber Fmt 4.5, Leading zero omitted, Abs format (unit mm)*
G04 Created by KiCad (PCBNEW 7.0.5-0) date 2023-06-28 16:41:04*
%MOMM*%
%LPD*%
G01*
G04 APERTURE LIST*
%ADD10C,0.151694*%
%ADD11C,0.200000*%
%ADD12C,0.040000*%
%ADD13C,0.070000*%
%ADD14C,0.075000*%
%ADD15C,0.100000*%
%ADD16C,0.220000*%
G04 APERTURE END LIST*
D10*
X25348508Y-16544191D02*
X25352470Y-16541897D01*
X27771125Y-7613721D02*
X27763417Y-7602760D01*
X15782922Y-7682832D02*
X15772511Y-7689736D01*
X17952187Y-8150840D02*
X17954068Y-8142541D01*
X22708468Y-11468967D02*
X22691205Y-11473776D01*
X10498356Y-12946887D02*
X10509158Y-12956499D01*
X19907095Y-17617669D02*
X19922041Y-17620108D01*
X26987000Y-15439891D02*
X26982647Y-15425530D01*
X20712330Y-11097233D02*
X20718058Y-11079867D01*
X25672296Y-8167420D02*
X25672301Y-8167427D01*
X22875188Y-11339285D02*
X22865164Y-11354574D01*
X13442441Y-7895614D02*
X13430212Y-7900963D01*
X12648644Y-12703206D02*
X12660813Y-12692944D01*
X19538528Y-8967611D02*
X19536244Y-8962390D01*
X22757929Y-11448589D02*
X22741873Y-11456351D01*
X30782977Y-12627555D02*
X30798712Y-12628581D01*
X17950145Y-8061041D02*
X17947618Y-8053339D01*
X21826129Y-17225771D02*
X21834336Y-17226336D01*
X27816285Y-7661848D02*
X27806436Y-7653146D01*
X17153421Y-13874413D02*
X17165471Y-13884512D01*
X32978556Y-13020937D02*
X32993423Y-13017409D01*
X25679273Y-8192255D02*
X25680720Y-8200569D01*
X12789480Y-12633100D02*
X12805008Y-12630431D01*
X19540208Y-9053199D02*
X19542153Y-9047404D01*
X20877509Y-11456351D02*
X20861453Y-11448589D01*
X27870672Y-7697932D02*
X27859174Y-7691739D01*
X26412169Y-13929802D02*
X26421938Y-13917400D01*
X30090072Y-7834676D02*
X30080848Y-7824963D01*
X31209190Y-13212593D02*
X31221034Y-13220773D01*
X17207911Y-13930778D02*
X17216964Y-13943697D01*
X13849253Y-7293968D02*
X13835562Y-7299477D01*
X15552629Y-7721149D02*
X14037028Y-7286563D01*
X19530940Y-8952302D02*
X19527930Y-8947454D01*
X26860492Y-15771418D02*
X26873002Y-15762903D01*
X24072133Y-9006569D02*
X24071980Y-9012364D01*
X13665978Y-7492268D02*
X13604666Y-7706085D01*
X27756195Y-7591378D02*
X27749479Y-7579584D01*
X27806436Y-7653146D02*
X27796976Y-7643972D01*
X22830017Y-11396142D02*
X22816835Y-11408375D01*
X10509158Y-12956499D02*
X10520437Y-12965600D01*
X16198256Y-7357189D02*
X16184398Y-7355415D01*
X19521215Y-8938199D02*
X19517520Y-8933811D01*
X27393652Y-7362786D02*
X27380086Y-7366612D01*
X12496040Y-13115857D02*
X12502877Y-13102828D01*
X19540197Y-9053213D02*
X19540202Y-9053205D01*
X20894011Y-11463151D02*
X20877509Y-11456351D01*
X33194189Y-12840931D02*
X33199358Y-12827393D01*
X17897289Y-7980580D02*
X17890830Y-7975406D01*
X19546847Y-9024032D02*
X19547270Y-9018188D01*
X18047891Y-8383664D02*
X18039811Y-8380490D01*
X13877251Y-7285034D02*
X13863159Y-7289153D01*
X19541862Y-9138796D02*
X19539829Y-9133474D01*
X25672287Y-8167394D02*
X25672288Y-8167400D01*
X17903455Y-7986039D02*
X17897289Y-7980580D01*
X12551768Y-12880406D02*
X12554703Y-12864611D01*
X13297325Y-7922835D02*
X13283364Y-7921613D01*
X11185704Y-7819399D02*
X11180271Y-7833042D01*
X30336018Y-7921577D02*
X30322057Y-7922800D01*
X31176166Y-13184782D02*
X31186735Y-13194581D01*
X12820657Y-12628581D02*
X12836390Y-12627555D01*
X19545108Y-9035737D02*
X19546128Y-9029884D01*
X17949466Y-8289029D02*
X17946577Y-8281463D01*
X10415505Y-12813580D02*
X10420025Y-12827393D01*
X19545114Y-8989452D02*
X19543860Y-8983867D01*
X13269351Y-7919727D02*
X11508571Y-7640821D01*
X17946577Y-8281463D02*
X17944049Y-8273762D01*
X13571038Y-7781935D02*
X13563607Y-7793298D01*
X26354469Y-14076285D02*
X26356615Y-14060614D01*
X19538052Y-9128057D02*
X19536534Y-9122553D01*
X25628635Y-8348754D02*
X25622468Y-8354212D01*
X24081154Y-9059062D02*
X24082783Y-9064883D01*
X24091446Y-8947454D02*
X24088437Y-8952302D01*
X21097648Y-9887187D02*
X21093810Y-9873274D01*
X26356615Y-14060614D02*
X26359592Y-14045038D01*
X17947096Y-8167400D02*
X17947097Y-8167394D01*
X25654855Y-8317658D02*
X25650247Y-8324340D01*
X17944306Y-8175680D02*
X17947068Y-8167446D01*
X25672293Y-8167413D02*
X25672296Y-8167420D01*
X19533122Y-9088258D02*
X19533545Y-9082419D01*
X26990556Y-15584376D02*
X26993348Y-15570236D01*
X26987096Y-15598354D02*
X26990556Y-15584376D01*
X11310153Y-7678199D02*
X11297553Y-7685996D01*
X12581310Y-12790073D02*
X12588889Y-12776247D01*
X25675078Y-8175680D02*
X25677395Y-8183954D01*
X17054130Y-13821810D02*
X17059410Y-13823695D01*
X25682528Y-8225457D02*
X25682309Y-8233690D01*
X25672305Y-8167433D02*
X25672310Y-8167440D01*
X20981692Y-11481935D02*
X20963610Y-11480282D01*
X21106215Y-9944531D02*
X21105113Y-9929989D01*
X13477476Y-7876432D02*
X13466090Y-7883337D01*
X24052615Y-9176784D02*
X24048488Y-9180815D01*
X25704498Y-7997759D02*
X25699248Y-8003993D01*
X19863227Y-17605872D02*
X19877659Y-17610546D01*
X24079183Y-9053230D02*
X24079184Y-9053232D01*
X25662052Y-8109344D02*
X25662241Y-8117616D01*
X29797707Y-7305891D02*
X29784644Y-7299827D01*
X31356926Y-13268594D02*
X31371786Y-13269634D01*
X32963368Y-13023739D02*
X32978556Y-13020937D01*
X17947101Y-8167361D02*
X17947102Y-8167355D01*
X21752409Y-17230850D02*
X21760530Y-17229383D01*
X17949867Y-8159111D02*
X17952187Y-8150840D01*
X21842528Y-17227126D02*
X21850702Y-17228142D01*
X17262978Y-14061346D02*
X17265090Y-14076973D01*
X33203878Y-12813580D02*
X33207732Y-12799515D01*
X30029077Y-7745586D02*
X30023722Y-7732755D01*
X19544145Y-9144013D02*
X19541862Y-9138796D01*
X13670435Y-7478069D02*
X13665978Y-7492268D01*
X26971653Y-15397185D02*
X26964996Y-15383251D01*
X13863159Y-7289153D02*
X13849253Y-7293968D01*
X19547270Y-9018188D02*
X19547403Y-9012364D01*
X15716387Y-7716732D02*
X15704479Y-7720560D01*
X23697310Y-17620108D02*
X23712257Y-17617670D01*
X17969127Y-8324340D02*
X17964521Y-8317658D01*
X25677900Y-8038357D02*
X25674655Y-8045773D01*
X29771295Y-7294390D02*
X29757684Y-7289592D01*
X12462928Y-13163673D02*
X12472027Y-13152395D01*
X12305953Y-13261174D02*
X12320019Y-13257319D01*
X30130837Y-7869015D02*
X30120101Y-7861130D01*
X13509667Y-7852783D02*
X13499282Y-7861144D01*
X29923654Y-7422797D02*
X29915844Y-7410226D01*
X32169789Y-7637368D02*
X32155074Y-7637137D01*
X17216964Y-13943697D02*
X17225347Y-13957109D01*
X16701900Y-15723698D02*
X16712179Y-15734229D01*
X18254794Y-16535385D02*
X18258866Y-16537493D01*
X30958570Y-12692945D02*
X30970739Y-12703206D01*
X29937485Y-7449301D02*
X29930876Y-7435826D01*
X17937073Y-8233690D02*
X17936854Y-8225458D01*
X15802780Y-7667595D02*
X15793018Y-7675448D01*
X24079208Y-9053267D02*
X24079212Y-9053270D01*
X27434984Y-7355414D02*
X27421126Y-7357189D01*
X27448889Y-7354322D02*
X27434984Y-7355414D01*
X26966727Y-15652146D02*
X26972782Y-15639067D01*
X15904207Y-7503194D02*
X15897812Y-7515699D01*
X19536534Y-9122553D02*
X19535280Y-9116973D01*
X17941988Y-8183954D02*
X17944306Y-8175680D01*
X26479680Y-13864051D02*
X26492840Y-13855275D01*
X30350031Y-7919691D02*
X30336018Y-7921577D01*
X15944630Y-7446516D02*
X15935475Y-7457010D01*
X21088438Y-10062318D02*
X21093351Y-10047679D01*
X32283085Y-7664579D02*
X32269596Y-7658770D01*
X24034861Y-9191726D02*
X24029919Y-9194936D01*
X19543785Y-9041580D02*
X19545108Y-9035737D01*
X26363403Y-14029588D02*
X26368049Y-14014298D01*
X25710060Y-7991770D02*
X25704498Y-7997759D01*
X19527930Y-8947454D02*
X19524687Y-8942750D01*
X13949588Y-7274995D02*
X13934958Y-7275586D01*
X21858852Y-17229383D02*
X21866973Y-17230850D01*
X19559162Y-9168185D02*
X19555694Y-9163637D01*
X12626127Y-12725479D02*
X12637076Y-12714060D01*
X21817912Y-17225433D02*
X21826129Y-17225771D01*
X19540193Y-9053217D02*
X19540197Y-9053213D01*
X17225347Y-13957109D02*
X17233037Y-13970994D01*
X25773105Y-7951124D02*
X25765022Y-7954298D01*
X17937693Y-8241868D02*
X17937073Y-8233690D01*
X12729215Y-12651870D02*
X12743937Y-12645973D01*
X25571457Y-8383664D02*
X24150119Y-8900976D01*
X12899528Y-12631784D02*
X12915198Y-12634948D01*
X19500588Y-8918074D02*
X19495839Y-8914643D01*
X24082849Y-9122553D02*
X24081332Y-9128057D01*
X15793018Y-7675448D02*
X15782922Y-7682832D01*
X11297553Y-7685996D02*
X11285299Y-7694445D01*
X22516064Y-9915569D02*
X22514263Y-9929989D01*
X32309229Y-7678199D02*
X32296305Y-7671057D01*
X24079180Y-9053221D02*
X24079180Y-9053224D01*
X13604666Y-7706085D02*
X13600453Y-7719584D01*
X18003356Y-8359384D02*
X17996898Y-8354212D01*
X26550060Y-13827258D02*
X26560645Y-13823412D01*
X33049375Y-12996457D02*
X33062405Y-12989618D01*
X25672284Y-8167381D02*
X25672285Y-8167387D01*
X10544363Y-12982180D02*
X10556979Y-12989618D01*
X24074275Y-9035737D02*
X24075598Y-9041580D01*
X31327727Y-13264349D02*
X31342232Y-13266827D01*
X29943458Y-7463208D02*
X29937485Y-7449301D01*
X19795088Y-17571597D02*
X19808083Y-17579887D01*
X25662269Y-8101112D02*
X25662052Y-8109344D01*
X32357204Y-7713052D02*
X32345899Y-7703482D01*
X16659348Y-15664946D02*
X16666652Y-15677424D01*
X25672283Y-8167361D02*
X25672283Y-8167368D01*
X22910097Y-11256676D02*
X22905165Y-11273860D01*
X19605429Y-9203152D02*
X19599922Y-9200658D01*
X22673625Y-11477555D02*
X22655772Y-11480283D01*
X24029919Y-9194936D02*
X24024784Y-9197917D01*
X24128466Y-8911431D02*
X24123523Y-8914642D01*
X13728965Y-7376965D02*
X13719578Y-7388194D01*
X11479052Y-7637632D02*
X11464297Y-7637137D01*
X31299365Y-13257319D02*
X31313430Y-13261174D01*
X27906713Y-7713282D02*
X27894461Y-7708714D01*
X30141907Y-7876414D02*
X30130837Y-7869015D01*
X24072569Y-9000813D02*
X24072133Y-9006569D01*
X26917500Y-15723681D02*
X26927199Y-15712711D01*
X19535280Y-9116973D02*
X19534293Y-9111326D01*
X32439097Y-7833027D02*
X32433667Y-7819383D01*
X22530054Y-9859579D02*
X22525562Y-9873274D01*
X30253645Y-7919335D02*
X30240365Y-7916805D01*
X32155074Y-7637137D02*
X32140323Y-7637631D01*
X18262903Y-16539664D02*
X18266906Y-16541897D01*
X33212746Y-12680488D02*
X32454028Y-7890199D01*
X17260039Y-14045809D02*
X17262978Y-14061346D01*
X17947091Y-8167413D02*
X17947093Y-8167407D01*
X17956540Y-8125916D02*
X17957143Y-8117617D01*
X17263291Y-14155338D02*
X17260470Y-14170825D01*
X16674567Y-15689564D02*
X16683085Y-15701340D01*
X24073256Y-9029884D02*
X24074275Y-9035737D01*
X20013075Y-17618664D02*
X20028203Y-17615693D01*
X19474918Y-8903212D02*
X19469228Y-8900976D01*
X21031108Y-9760751D02*
X21021218Y-9750102D01*
X19997886Y-17620846D02*
X20013075Y-17618664D01*
X25672291Y-8167407D02*
X25672293Y-8167413D01*
X25650247Y-8324340D02*
X25645315Y-8330804D01*
X13978904Y-7275961D02*
X13964245Y-7275120D01*
X31197750Y-13203857D02*
X31209190Y-13212593D01*
X12700654Y-12666044D02*
X12714775Y-12658562D01*
X25665300Y-8076798D02*
X25663899Y-8084826D01*
X19533145Y-9099868D02*
X19532990Y-9094078D01*
X17140843Y-13864947D02*
X17153421Y-13874413D01*
X30214347Y-7909999D02*
X30201644Y-7905746D01*
X19552453Y-9158937D02*
X19549445Y-9154093D01*
X32427586Y-7806045D02*
X32420869Y-7793035D01*
X22916846Y-11221652D02*
X22913994Y-11239258D01*
X17846278Y-7951124D02*
X16252715Y-7371124D01*
X19547403Y-9012364D02*
X19547250Y-9006569D01*
X31067615Y-12880406D02*
X31089241Y-13016825D01*
X27957646Y-7725836D02*
X27944664Y-7723575D01*
X19490893Y-8911431D02*
X19485755Y-8908449D01*
X23712257Y-17617670D02*
X23727062Y-17614481D01*
X15918737Y-7479298D02*
X15911187Y-7491054D01*
X23741697Y-17610546D02*
X23756132Y-17605872D01*
X24075598Y-9041580D02*
X24077230Y-9047404D01*
X30904606Y-12658562D02*
X30918729Y-12666044D01*
X12247598Y-13269633D02*
X12262458Y-13268594D01*
X13488546Y-7869030D02*
X13477476Y-7876432D01*
X17085710Y-13833881D02*
X17100169Y-13840582D01*
X10488047Y-12936786D02*
X10498356Y-12946887D01*
X19542341Y-8978359D02*
X19540562Y-8972938D01*
X26972782Y-15639067D02*
X26978200Y-15625725D01*
X25587369Y-8376948D02*
X25579540Y-8380490D01*
X19542153Y-9047404D02*
X19543785Y-9041580D01*
X13454406Y-7889735D02*
X13442441Y-7895614D01*
X21785046Y-17226336D02*
X21793253Y-17225771D01*
X29857912Y-7345150D02*
X29846630Y-7336149D01*
X30201644Y-7905746D02*
X30189170Y-7900939D01*
X24079184Y-9053232D02*
X24079185Y-9053235D01*
X13595661Y-7732755D02*
X13590305Y-7745587D01*
X32454028Y-7890199D02*
X32451342Y-7875562D01*
X15838114Y-7631677D02*
X15829875Y-7641313D01*
X13783697Y-7328218D02*
X13771766Y-7336911D01*
X24008267Y-9205387D02*
X22710260Y-9677826D01*
X31245847Y-13235406D02*
X31258771Y-13241827D01*
X12410194Y-13212593D02*
X12421634Y-13203857D01*
X10430997Y-12854175D02*
X10437418Y-12867101D01*
X12714775Y-12658562D02*
X12729215Y-12651870D01*
X25640065Y-8337036D02*
X25634503Y-8343025D01*
X25742325Y-7965971D02*
X25735299Y-7970532D01*
X24066930Y-9158937D02*
X24063689Y-9163638D01*
X31130780Y-13128472D02*
X31138791Y-13140657D01*
X16225731Y-7362786D02*
X16212042Y-7359646D01*
X28078149Y-7717903D02*
X28064670Y-7721419D01*
X26997625Y-15527101D02*
X26997657Y-15512568D01*
X30164976Y-7889714D02*
X30153292Y-7883318D01*
X15821227Y-7650518D02*
X15812189Y-7659282D01*
X29701073Y-7277048D02*
X29686497Y-7275639D01*
X27674753Y-7446516D02*
X27665098Y-7436482D01*
X25682309Y-8233690D02*
X25681689Y-8241868D01*
X15866604Y-7589008D02*
X15860189Y-7600274D01*
X22918648Y-11203909D02*
X22916846Y-11221652D01*
X19540172Y-9053263D02*
X19540173Y-9053260D01*
X16666652Y-15677424D02*
X16674567Y-15689564D01*
X25340687Y-16548962D02*
X25344580Y-16546546D01*
X13283364Y-7921613D02*
X13269351Y-7919727D01*
X25360495Y-16537493D02*
X25364554Y-16535384D01*
X17954068Y-8142541D02*
X17955517Y-8134228D01*
X16623931Y-15555962D02*
X16626045Y-15570239D01*
X11493819Y-7638858D02*
X11479052Y-7637632D01*
X17979307Y-8337036D02*
X17974058Y-8330803D01*
X12514673Y-13075588D02*
X12519588Y-13061410D01*
X30063682Y-7804261D02*
X30055777Y-7793294D01*
X31104711Y-13075588D02*
X31110289Y-13089399D01*
X27847967Y-7685024D02*
X27837070Y-7677797D01*
X21866973Y-17230850D02*
X21875061Y-17232543D01*
X17937643Y-8208884D02*
X17938663Y-8200569D01*
X11323076Y-7671058D02*
X11310153Y-7678199D01*
X22637690Y-11481935D02*
X22619420Y-11482492D01*
X17984867Y-8343025D02*
X17979307Y-8337036D01*
X24109894Y-8925560D02*
X24105765Y-8929594D01*
X31003567Y-12737435D02*
X31013222Y-12749900D01*
X20714218Y-11273860D02*
X20709285Y-11256676D01*
X15975029Y-7417862D02*
X15964424Y-7426923D01*
X24079192Y-9053247D02*
X24079195Y-9053250D01*
X24044151Y-9184656D02*
X24039607Y-9188296D01*
X15954285Y-7436481D02*
X15944630Y-7446516D01*
X13891503Y-7281615D02*
X13877251Y-7285034D01*
X13771766Y-7336911D02*
X13760310Y-7346154D01*
X25662844Y-8125916D02*
X25663867Y-8134228D01*
X19549445Y-9154093D02*
X19546674Y-9149115D01*
X27970763Y-7727495D02*
X27957646Y-7725836D01*
X27763417Y-7602760D02*
X27756195Y-7591378D01*
X25645315Y-8330804D02*
X25640065Y-8337036D01*
X10656016Y-13023739D02*
X12186926Y-13266203D01*
X24079176Y-9053205D02*
X24079176Y-9053209D01*
X15853290Y-7611148D02*
X15845925Y-7621618D01*
X17100169Y-13840582D02*
X17114193Y-13848009D01*
X19536244Y-8962390D02*
X19533713Y-8957284D01*
X30767190Y-12627357D02*
X30782977Y-12627555D01*
X30890165Y-12651870D02*
X30904606Y-12658562D01*
X24079199Y-9053257D02*
X24079202Y-9053260D01*
X27796976Y-7643972D02*
X27787925Y-7634337D01*
X17960245Y-8310773D02*
X17956307Y-8303697D01*
X14022627Y-7282821D02*
X14008122Y-7279809D01*
X13796089Y-7320095D02*
X13783697Y-7328218D01*
X30048345Y-7781932D02*
X30041407Y-7770186D01*
X16626045Y-15570239D02*
X16628835Y-15584379D01*
X27708196Y-7491054D02*
X27700646Y-7479298D01*
X33188386Y-12854175D02*
X33194189Y-12840931D01*
X23591145Y-17615693D02*
X23606273Y-17618664D01*
X16647762Y-15397185D02*
X16641878Y-15411286D01*
X12373537Y-13235406D02*
X12386124Y-13228383D01*
X29834945Y-7327709D02*
X29822881Y-7319845D01*
X17198212Y-13918377D02*
X17207911Y-13930778D01*
X30120101Y-7861130D02*
X30109717Y-7852771D01*
X10405999Y-12770713D02*
X10408476Y-12785218D01*
X25682341Y-8217184D02*
X25682528Y-8225457D01*
X28064670Y-7721419D02*
X28051168Y-7724252D01*
X15655200Y-7730312D02*
X15642561Y-7731313D01*
X17944049Y-8273762D02*
X17941891Y-8265938D01*
X10597250Y-13008258D02*
X10611430Y-13013175D01*
X19535279Y-9070722D02*
X19536600Y-9064883D01*
X22668505Y-9696697D02*
X22655524Y-9704228D01*
X20861453Y-11448589D02*
X20845886Y-11439888D01*
X12588889Y-12776247D02*
X12597179Y-12762847D01*
X22655772Y-11480283D02*
X22637690Y-11481935D01*
X27476738Y-7354178D02*
X27462816Y-7353910D01*
X11508571Y-7640821D02*
X11493819Y-7638858D01*
X13405036Y-7910026D02*
X13392123Y-7913718D01*
X31342232Y-13266827D02*
X31356926Y-13268594D01*
X24085121Y-9076571D02*
X24085839Y-9082419D01*
X11205849Y-7780389D02*
X11198507Y-7793050D01*
X33216481Y-12726155D02*
X33216016Y-12711027D01*
X27421126Y-7357189D02*
X27407340Y-7359645D01*
X24086261Y-9088258D02*
X24086393Y-9094078D01*
X26394600Y-13956154D02*
X26403048Y-13942728D01*
X10556979Y-12989618D02*
X10570009Y-12996457D01*
X26432332Y-13905545D02*
X26443327Y-13894258D01*
X11241157Y-7733703D02*
X11231467Y-7744735D01*
X29612234Y-7279601D02*
X29597268Y-7282685D01*
X26373531Y-13999201D02*
X26379818Y-13984414D01*
X15750819Y-7702068D02*
X15739575Y-7707477D01*
X25344580Y-16546546D02*
X25348508Y-16544191D01*
X10420025Y-12827393D02*
X10425194Y-12840932D01*
X11336293Y-7664579D02*
X11323076Y-7671058D01*
X15886849Y-7541727D02*
X15882758Y-7552945D01*
X16758920Y-15771448D02*
X16771970Y-15779399D01*
X11222343Y-7756208D02*
X11213799Y-7768101D01*
X23770337Y-17600463D02*
X23784286Y-17594327D01*
X31401919Y-13269467D02*
X31417149Y-13268230D01*
X30109717Y-7852771D02*
X30099701Y-7843949D01*
X25663867Y-8134228D02*
X25665316Y-8142541D01*
X22917691Y-11150328D02*
X22919077Y-11168198D01*
X31156456Y-13163673D02*
X31166066Y-13174474D01*
X25672316Y-8167446D02*
X25675078Y-8175680D01*
X12558459Y-12849075D02*
X12563015Y-12833825D01*
X13311217Y-7923403D02*
X13297325Y-7922835D01*
X17165471Y-13884512D02*
X17176968Y-13895221D01*
X20700306Y-11168199D02*
X20701692Y-11150328D01*
X17936854Y-8225458D02*
X17937042Y-8217184D01*
X27859174Y-7691739D02*
X27847967Y-7685024D01*
X22854224Y-11369219D02*
X22842494Y-11383083D01*
X29597268Y-7282685D02*
X29582320Y-7286563D01*
X17957115Y-8101113D02*
X17956498Y-8092936D01*
X16625942Y-15468864D02*
X16623817Y-15483425D01*
X31272014Y-13247630D02*
X31285553Y-13252799D01*
X24072709Y-9149115D02*
X24069938Y-9154093D01*
X25333016Y-16553976D02*
X25336832Y-16551439D01*
X26982975Y-15612146D02*
X26987096Y-15598354D01*
X16734441Y-15753871D02*
X16746408Y-15762930D01*
X21105113Y-9929989D02*
X21103311Y-9915568D01*
X12758911Y-12640876D02*
X12774103Y-12636584D01*
X25672310Y-8167440D02*
X25672313Y-8167443D01*
X20909122Y-9677826D02*
X19611116Y-9205387D01*
X25677490Y-8265938D02*
X25675331Y-8273762D01*
X33167331Y-12891914D02*
X33174942Y-12879687D01*
X19579776Y-9188296D02*
X19575233Y-9184656D01*
X25680720Y-8200569D02*
X25681740Y-8208884D01*
X21093810Y-9873274D02*
X21089317Y-9859579D01*
X29810460Y-7312567D02*
X29797707Y-7305891D01*
X21089317Y-9859579D02*
X21084179Y-9846125D01*
X24079195Y-9053250D02*
X24079197Y-9053254D01*
X22901324Y-11079867D02*
X22907052Y-11097233D01*
X28037662Y-7726414D02*
X28024172Y-7727914D01*
X30308165Y-7923368D02*
X30294361Y-7923295D01*
X19543860Y-8983867D02*
X19542341Y-8978359D01*
X32447949Y-7861139D02*
X32443862Y-7846953D01*
X10403367Y-12711027D02*
X10402902Y-12726155D01*
X12432649Y-13194581D02*
X12443218Y-13184781D01*
X20963848Y-9704228D02*
X20950869Y-9696697D01*
X22725372Y-11463151D02*
X22708468Y-11468967D01*
X22530943Y-10062318D02*
X22901324Y-11079867D01*
X24101852Y-8933811D02*
X24098159Y-8938199D01*
X26982647Y-15425530D02*
X26977534Y-15411286D01*
X20999962Y-11482491D02*
X20981692Y-11481935D01*
X10452052Y-12891914D02*
X10460233Y-12903759D01*
X25674655Y-8045773D02*
X25671765Y-8053339D01*
X24079175Y-9053201D02*
X24079175Y-9053203D01*
X21049212Y-9783331D02*
X21040443Y-9771836D01*
X26492840Y-13855275D02*
X26506482Y-13847185D01*
X32199006Y-7639981D02*
X32184442Y-7638318D01*
X17947101Y-8167368D02*
X17947101Y-8167361D01*
X27597612Y-7386949D02*
X27584932Y-7380649D01*
X20701692Y-11150328D02*
X20704154Y-11132512D01*
X29784644Y-7299827D02*
X29771295Y-7294390D01*
X17884083Y-7970532D02*
X17877057Y-7965971D01*
X32255862Y-7653637D02*
X32241910Y-7649185D01*
X30176942Y-7895592D02*
X30164976Y-7889714D01*
X27837070Y-7677797D02*
X27826502Y-7670068D01*
X22515995Y-10003423D02*
X22518568Y-10018207D01*
X16252715Y-7371124D02*
X16239297Y-7366612D01*
X24077230Y-9047404D02*
X24079175Y-9053199D01*
X27894461Y-7708714D02*
X27882441Y-7703594D01*
X17909323Y-7991770D02*
X17903455Y-7986039D01*
X32367984Y-7723132D02*
X32357204Y-7713052D01*
X12360612Y-13241827D02*
X12373537Y-13235406D01*
X17176968Y-13895221D02*
X17187890Y-13906518D01*
X27621813Y-7401301D02*
X27609912Y-7393840D01*
X17947618Y-8053339D02*
X17944730Y-8045773D01*
X12686881Y-12674311D02*
X12700654Y-12666044D01*
X13687783Y-7437345D02*
X13681354Y-7450587D01*
X33087207Y-12974167D02*
X33098947Y-12965600D01*
X16060613Y-7369991D02*
X16047429Y-7374984D01*
X13835562Y-7299477D02*
X13822109Y-7305676D01*
X15860189Y-7600274D02*
X15853290Y-7611148D01*
X26454900Y-13883565D02*
X26467025Y-13873488D01*
X24086239Y-9099869D02*
X24085803Y-9105621D01*
X25681495Y-8031103D02*
X25677900Y-8038357D01*
X17246241Y-14000083D02*
X17251672Y-14015145D01*
X10408476Y-12785218D02*
X10411650Y-12799515D01*
X16184398Y-7355415D02*
X16170493Y-7354322D01*
X17947102Y-8167355D02*
X17947102Y-8167342D01*
X26378440Y-14230828D02*
X26372348Y-14216048D01*
X10425194Y-12840932D02*
X10430997Y-12854175D01*
X24079190Y-9053244D02*
X24079192Y-9053247D01*
X24073282Y-8995104D02*
X24072569Y-9000813D01*
X22578924Y-9771836D02*
X22570155Y-9783331D01*
X19540172Y-9053267D02*
X19540172Y-9053263D01*
X27779301Y-7624250D02*
X27771125Y-7613721D01*
X33213384Y-12770713D02*
X33215149Y-12756019D01*
X15591298Y-7729280D02*
X15578398Y-7727215D01*
X13538535Y-7824971D02*
X13529311Y-7834686D01*
X19967440Y-17622863D02*
X19982665Y-17622243D01*
X20707698Y-11114797D02*
X20712330Y-11097233D01*
X15739575Y-7707477D02*
X15728091Y-7712369D01*
X21100813Y-10018207D02*
X21103385Y-10003423D01*
X23667106Y-17622710D02*
X23682250Y-17621790D01*
X10478246Y-12926216D02*
X10488047Y-12936786D01*
X30018929Y-7719584D02*
X30014717Y-7706085D01*
X13365738Y-7919366D02*
X13352299Y-7921299D01*
X27380086Y-7366612D02*
X27366669Y-7371124D01*
X13760310Y-7346154D02*
X13749347Y-7355923D01*
X17038102Y-13816709D02*
X17043480Y-13818317D01*
X12186926Y-13266203D02*
X12202236Y-13268230D01*
X12519588Y-13061410D02*
X12523819Y-13046879D01*
X26833870Y-15786721D02*
X26847446Y-15779365D01*
X13702498Y-7411965D02*
X13694836Y-7424464D01*
X16746408Y-15762930D02*
X16758920Y-15771448D01*
X16239297Y-7366612D02*
X16225731Y-7362786D01*
X17265090Y-14076973D02*
X17266376Y-14092660D01*
X11420362Y-7639981D02*
X11405912Y-7642351D01*
X25609263Y-8364258D02*
X25602236Y-8368819D01*
X17947093Y-8167407D02*
X17947096Y-8167400D01*
X16034451Y-7380649D02*
X16021771Y-7386949D01*
X11464297Y-7637137D02*
X11449580Y-7637368D01*
X19982665Y-17622243D02*
X19997886Y-17620846D01*
X31233260Y-13228383D02*
X31245847Y-13235406D01*
X16632407Y-15439891D02*
X16628803Y-15454344D01*
X17869758Y-7961735D02*
X17862190Y-7957840D01*
X32378225Y-7733697D02*
X32367984Y-7723132D01*
X29743832Y-7285445D02*
X29729764Y-7281964D01*
X22681963Y-9689770D02*
X22668505Y-9696697D01*
X16087501Y-7362020D02*
X16073979Y-7365669D01*
X29868769Y-7354699D02*
X29857912Y-7345150D01*
X17964521Y-8317658D02*
X17960245Y-8310773D01*
X26990601Y-15454344D02*
X26987000Y-15439891D01*
X16114912Y-7356747D02*
X16101154Y-7359046D01*
X32387915Y-7744728D02*
X32378225Y-7733697D01*
X13519682Y-7843960D02*
X13509667Y-7852783D01*
X26386849Y-13970057D02*
X26394600Y-13956154D01*
X19808083Y-17579887D02*
X19821424Y-17587466D01*
X17957143Y-8117617D02*
X17957333Y-8109344D01*
X22865164Y-11354574D02*
X22854224Y-11369219D01*
X32413529Y-7780376D02*
X32405581Y-7768089D01*
X25672288Y-8167400D02*
X25672291Y-8167407D01*
X19533545Y-9082419D02*
X19534262Y-9076570D01*
X32405581Y-7768089D02*
X32397038Y-7756199D01*
X17914885Y-7997759D02*
X17909323Y-7991770D01*
X19505134Y-8921717D02*
X19500588Y-8918074D01*
X25666667Y-8296444D02*
X25663071Y-8303697D01*
X17925067Y-8010458D02*
X17920135Y-8003993D01*
X24024784Y-9197917D02*
X24019461Y-9200658D01*
X19547250Y-9006569D02*
X19546814Y-9000812D01*
X24056527Y-9172570D02*
X24052615Y-9176784D01*
X24060220Y-9168185D02*
X24056527Y-9172570D01*
X22643030Y-9712340D02*
X22631034Y-9721007D01*
X16636417Y-15612151D02*
X16641191Y-15625731D01*
X25728554Y-7975407D02*
X25722094Y-7980580D01*
X11231467Y-7744735D02*
X11222343Y-7756208D01*
X17974058Y-8330803D02*
X17969127Y-8324340D01*
X26385349Y-14245335D02*
X26378440Y-14230828D01*
X15926839Y-7467943D02*
X15918737Y-7479298D01*
X20720182Y-11290761D02*
X20714218Y-11273860D01*
X21760530Y-17229383D02*
X21768680Y-17228142D01*
X33007954Y-13013175D02*
X33022134Y-13008257D01*
X16170493Y-7354322D02*
X16156566Y-7353910D01*
X17947070Y-8167443D02*
X17947073Y-8167439D01*
X20937414Y-9689770D02*
X20923494Y-9683472D01*
X24075238Y-9144013D02*
X24072709Y-9149115D01*
X10532177Y-12974167D02*
X10544363Y-12982180D01*
X12472027Y-13152395D02*
X12480593Y-13140657D01*
X13555701Y-7804266D02*
X13547338Y-7814828D01*
X15772511Y-7689736D02*
X15761804Y-7696151D01*
X30099701Y-7843949D02*
X30090072Y-7834676D01*
X12615816Y-12737435D02*
X12626127Y-12725479D01*
X12852178Y-12627358D02*
X12867985Y-12627993D01*
X22525562Y-9873274D02*
X22521725Y-9887187D01*
X26379818Y-13984414D02*
X26386849Y-13970057D01*
X12262458Y-13268594D02*
X12277151Y-13266828D01*
X25602236Y-8368819D02*
X25594936Y-8373053D01*
X19594599Y-9197916D02*
X19589464Y-9194936D01*
X30875441Y-12645973D02*
X30890165Y-12651870D01*
X33199358Y-12827393D02*
X33203878Y-12813580D01*
X13379018Y-7916835D02*
X13365738Y-7919366D01*
X19821424Y-17587466D02*
X19835081Y-17594326D01*
X19566768Y-9176784D02*
X19562856Y-9172570D01*
X26995462Y-15555960D02*
X26996890Y-15541573D01*
X17266376Y-14092660D02*
X17266838Y-14108374D01*
X16723029Y-15744296D02*
X16734441Y-15753871D01*
X24074268Y-8989452D02*
X24073282Y-8995104D01*
X26936311Y-15701326D02*
X26944829Y-15689552D01*
X33121027Y-12946887D02*
X33131336Y-12936786D01*
X33210907Y-12785219D02*
X33213384Y-12770713D01*
X19540562Y-8972938D02*
X19538528Y-8967611D01*
X27787925Y-7634337D02*
X27779301Y-7624250D01*
X17114193Y-13848009D02*
X17127758Y-13856138D01*
X24085666Y-8957284D02*
X24083136Y-8962390D01*
X31147357Y-13152395D02*
X31156456Y-13163673D01*
X22518555Y-9901293D02*
X22516064Y-9915569D01*
X24123523Y-8914642D02*
X24118777Y-8918074D01*
X24114232Y-8921717D02*
X24109894Y-8925560D01*
X32241910Y-7649185D02*
X32227767Y-7645421D01*
X18031986Y-8376948D02*
X18024421Y-8373053D01*
X26997657Y-15512568D02*
X26996979Y-15498001D01*
X24079185Y-9053235D02*
X24079187Y-9053238D01*
X27665098Y-7436482D02*
X27654959Y-7426924D01*
X19540174Y-9053254D02*
X19540175Y-9053251D01*
X33098947Y-12965600D02*
X33110226Y-12956499D01*
X27683907Y-7457010D02*
X27674753Y-7446516D01*
X29582320Y-7286563D02*
X28078149Y-7717903D01*
X20802548Y-11408375D02*
X20789366Y-11396142D01*
X27644354Y-7417862D02*
X27633300Y-7409314D01*
X14008122Y-7279809D02*
X13993539Y-7277523D01*
X29930876Y-7435826D02*
X29923654Y-7422797D01*
X29846630Y-7336149D02*
X29834945Y-7327709D01*
X11168012Y-7875567D02*
X11165319Y-7890199D01*
X29953404Y-7492268D02*
X29948773Y-7477534D01*
X16623817Y-15483425D02*
X16622419Y-15498002D01*
X33062405Y-12989618D02*
X33075021Y-12982180D01*
X17854361Y-7954299D02*
X17846278Y-7951124D01*
X16646610Y-15639074D02*
X16652665Y-15652154D01*
X16712179Y-15734229D02*
X16723029Y-15744296D01*
X27743290Y-7567388D02*
X27737646Y-7554801D01*
X32140323Y-7637631D02*
X32125561Y-7638857D01*
X13920383Y-7276888D02*
X13905889Y-7278899D01*
X33181965Y-12867100D02*
X33188386Y-12854175D01*
X22608582Y-9739912D02*
X22598149Y-9750102D01*
X21010786Y-9739912D02*
X20999821Y-9730206D01*
X27715177Y-7503194D02*
X27708196Y-7491054D01*
X12563015Y-12833825D02*
X12568355Y-12818889D01*
X30814361Y-12630432D02*
X30829892Y-12633101D01*
X17070840Y-13827929D02*
X17085710Y-13833881D01*
X16654422Y-15383251D02*
X16647762Y-15397185D01*
X31013222Y-12749900D02*
X31022203Y-12762847D01*
X15692388Y-7723841D02*
X15680132Y-7726567D01*
X12232593Y-13269930D02*
X12247598Y-13269633D01*
X10520437Y-12965600D02*
X10532177Y-12974167D01*
X27732535Y-7541727D02*
X27727364Y-7528549D01*
X16692199Y-15712726D02*
X16701900Y-15723698D01*
X16101154Y-7359046D02*
X16087501Y-7362020D01*
X24085803Y-9105621D02*
X24085090Y-9111326D01*
X13430212Y-7900963D02*
X13417738Y-7905771D01*
X12554703Y-12864611D02*
X12558459Y-12849075D01*
X19546101Y-8995104D02*
X19545114Y-8989452D01*
X18010099Y-8364258D02*
X18003356Y-8359384D01*
X31116507Y-13102828D02*
X31123344Y-13115857D01*
X24085090Y-9111326D02*
X24084104Y-9116973D01*
X24080852Y-8967611D02*
X24078819Y-8972938D01*
X24079178Y-9053217D02*
X24079180Y-9053221D01*
X22518568Y-10018207D02*
X22521910Y-10032967D01*
X19536600Y-9064883D02*
X19538230Y-9059062D01*
X17956498Y-8092936D02*
X17955485Y-8084826D01*
X26964996Y-15383251D02*
X26385349Y-14245335D01*
X22561963Y-9795213D02*
X22554359Y-9807458D01*
X33035946Y-13002678D02*
X33049375Y-12996457D01*
X11434926Y-7638318D02*
X11420362Y-7639981D01*
X10468970Y-12915200D02*
X10478246Y-12926216D01*
X15872516Y-7577358D02*
X15866604Y-7589008D01*
X12277151Y-13266828D02*
X12291657Y-13264349D01*
X20727171Y-11307331D02*
X20720182Y-11290761D01*
X24079554Y-9133475D02*
X24077521Y-9138796D01*
X19533581Y-9105621D02*
X19533145Y-9099868D01*
X19589464Y-9194936D02*
X19584521Y-9191726D01*
X13738893Y-7366201D02*
X13728965Y-7376965D01*
X26403048Y-13942728D02*
X26412169Y-13929802D01*
X12502877Y-13102828D02*
X12509095Y-13089399D01*
X15617034Y-7731523D02*
X15604183Y-7730713D01*
X17877057Y-7965971D02*
X17869758Y-7961735D01*
X30860465Y-12640876D02*
X30875441Y-12645973D01*
X19562856Y-9172570D02*
X19559162Y-9168185D01*
X26847446Y-15779365D02*
X26860492Y-15771418D01*
X32433667Y-7819383D02*
X32427586Y-7806045D01*
X26996979Y-15498001D02*
X26995582Y-15483424D01*
X31064679Y-12864611D02*
X31067615Y-12880406D01*
X22526031Y-10047679D02*
X22530943Y-10062318D01*
X17947083Y-8167427D02*
X17947087Y-8167420D01*
X19540180Y-9053238D02*
X19540184Y-9053232D01*
X30918729Y-12666044D02*
X30932501Y-12674311D01*
X25594936Y-8373053D02*
X25587369Y-8376948D01*
X26372348Y-14216048D02*
X26367073Y-14201031D01*
X13325021Y-7923329D02*
X13311217Y-7923403D01*
X12673565Y-12683304D02*
X12686881Y-12674311D01*
X21021218Y-9750102D02*
X21010786Y-9739912D01*
X28024172Y-7727914D02*
X28010717Y-7728762D01*
X11191788Y-7806061D02*
X11185704Y-7819399D01*
X29898548Y-7386511D02*
X29889110Y-7375393D01*
X25735299Y-7970532D02*
X25728554Y-7975407D01*
X17938707Y-8249977D02*
X17937693Y-8241868D01*
X30735591Y-12629467D02*
X30751383Y-12627993D01*
X31386791Y-13269930D02*
X31401919Y-13269467D01*
X33216016Y-12711027D02*
X33214776Y-12695797D01*
X13584405Y-7758068D02*
X13577976Y-7770188D01*
X10570009Y-12996457D02*
X10583438Y-13002678D01*
X22513162Y-9944531D02*
X22512774Y-9959169D01*
X24079175Y-9053199D02*
X24079175Y-9053201D01*
X24072113Y-9018188D02*
X24072536Y-9024032D01*
X13905889Y-7278899D02*
X13891503Y-7281615D01*
X19540202Y-9053205D02*
X19540208Y-9053199D01*
X23636684Y-17622243D02*
X23651908Y-17622863D01*
X13694836Y-7424464D02*
X13687783Y-7437345D01*
X13563607Y-7793298D02*
X13555701Y-7804266D01*
X31030493Y-12776247D02*
X31038072Y-12790072D01*
X27919177Y-7717288D02*
X27906713Y-7713282D01*
X24069938Y-9154093D02*
X24066930Y-9158937D01*
X19532990Y-9094078D02*
X19533122Y-9088258D01*
X22892212Y-11307331D02*
X22884205Y-11323522D01*
X17048822Y-13820018D02*
X17054130Y-13821810D01*
X24086393Y-9094078D02*
X24086239Y-9099869D01*
X12488605Y-13128472D02*
X12496040Y-13115857D01*
X17251672Y-14015145D02*
X17256271Y-14030398D01*
X30055777Y-7793294D02*
X30048345Y-7781932D01*
X25689710Y-8017140D02*
X25685434Y-8024027D01*
X32213456Y-7642351D02*
X32199006Y-7639981D01*
X24077040Y-8978359D02*
X24075522Y-8983867D01*
X26356166Y-14154878D02*
X26354174Y-14139238D01*
X17127758Y-13856138D02*
X17140843Y-13864947D01*
X33150413Y-12915200D02*
X33159150Y-12903759D01*
X19611116Y-9205387D02*
X19605429Y-9203152D01*
X25616009Y-8359385D02*
X25609263Y-8364258D01*
X17952711Y-8296444D02*
X17949466Y-8289029D01*
X16632296Y-15598358D02*
X16636417Y-15612151D01*
X26978200Y-15625725D02*
X26982975Y-15612146D01*
X20704154Y-11132512D02*
X20707698Y-11114797D01*
X31138791Y-13140657D02*
X31147357Y-13152395D01*
X19575233Y-9184656D02*
X19570895Y-9180816D01*
X18266906Y-16541897D02*
X18270872Y-16544191D01*
X13352299Y-7921299D02*
X13338722Y-7922624D01*
X24083136Y-8962390D02*
X24080852Y-8967611D01*
X22512774Y-9959169D02*
X22513109Y-9973880D01*
X24150119Y-8900976D02*
X24144433Y-8903212D01*
X20705389Y-11239257D02*
X20702537Y-11221652D01*
X22911684Y-11114797D02*
X22915229Y-11132512D01*
X15704479Y-7720560D02*
X15692388Y-7723841D01*
X22710260Y-9677826D02*
X22695885Y-9683472D01*
X13392123Y-7913718D02*
X13379018Y-7916835D01*
X20999821Y-9730206D02*
X20988336Y-9721006D01*
X22514263Y-9929989D02*
X22513162Y-9944531D01*
X19555694Y-9163637D02*
X19552453Y-9158937D01*
X33131336Y-12936786D02*
X33141137Y-12926216D01*
X20963610Y-11480282D02*
X20945757Y-11477555D01*
X27931834Y-7720722D02*
X27919177Y-7717288D01*
X15680132Y-7726567D02*
X15667730Y-7728727D01*
X25677395Y-8183954D02*
X25679273Y-8192255D01*
X22588259Y-9760751D02*
X22578924Y-9771836D01*
X30751383Y-12627993D02*
X30767190Y-12627357D01*
X33215149Y-12756019D02*
X33216187Y-12741159D01*
X16021771Y-7386949D02*
X16009471Y-7393840D01*
X22514179Y-9988639D02*
X22515995Y-10003423D01*
X31060924Y-12849075D02*
X31064679Y-12864611D01*
X25667197Y-8150840D02*
X25669517Y-8159111D01*
X24144433Y-8903212D02*
X24138925Y-8905706D01*
X32296305Y-7671057D02*
X32283085Y-7664579D01*
X11198507Y-7793050D02*
X11191788Y-7806061D01*
X21040443Y-9771836D02*
X21031108Y-9760751D01*
X29656997Y-7274984D02*
X29642122Y-7275763D01*
X10611430Y-13013175D02*
X10625961Y-13017409D01*
X27366669Y-7371124D02*
X25773105Y-7951124D01*
X12805008Y-12630431D02*
X12820657Y-12628581D01*
X17947099Y-8167387D02*
X17947100Y-8167381D01*
X25680675Y-8249977D02*
X25679273Y-8258005D01*
X10404234Y-12756019D02*
X10405999Y-12770713D01*
X12386124Y-13228383D02*
X12398350Y-13220773D01*
X26353154Y-14092016D02*
X26354469Y-14076285D01*
X10460233Y-12903759D02*
X10468970Y-12915200D01*
X23811293Y-17579887D02*
X23824293Y-17571597D01*
X11273484Y-7703482D02*
X11262180Y-7713054D01*
X26907223Y-15734210D02*
X26917500Y-15723681D01*
X20830851Y-11430271D02*
X20816390Y-11419759D01*
X33159150Y-12903759D02*
X33167331Y-12891914D01*
X21776854Y-17227126D02*
X21785046Y-17226336D01*
X24079177Y-9053213D02*
X24079178Y-9053217D01*
X13466090Y-7883337D02*
X13454406Y-7889735D01*
X12660813Y-12692944D02*
X12673565Y-12683304D01*
X25672804Y-8281463D02*
X25669913Y-8289029D01*
X20976341Y-9712340D02*
X20963848Y-9704228D01*
X31417149Y-13268230D02*
X31432459Y-13266203D01*
X17937042Y-8217184D02*
X17937643Y-8208884D01*
X15877907Y-7565334D02*
X15872516Y-7577358D01*
X15629833Y-7731720D02*
X15617034Y-7731523D01*
X17064661Y-13825654D02*
X17070840Y-13827929D01*
X27558770Y-7369991D02*
X27545404Y-7365669D01*
X20754219Y-11354574D02*
X20744196Y-11339286D01*
X17266477Y-14124079D02*
X17265294Y-14139746D01*
X22905165Y-11273860D02*
X22899200Y-11290761D01*
X20702537Y-11221652D02*
X20700734Y-11203909D01*
X12836390Y-12627555D02*
X12852178Y-12627358D01*
X12568355Y-12818889D02*
X12574459Y-12804296D01*
X31313430Y-13261174D02*
X31327727Y-13264349D01*
X17940108Y-8258005D02*
X17938707Y-8249977D01*
X24082783Y-9064883D02*
X24084104Y-9070722D01*
X27692544Y-7467943D02*
X27683907Y-7457010D01*
X25672283Y-8167368D02*
X25672284Y-8167374D01*
X19538230Y-9059062D02*
X19540172Y-9053270D01*
X22521910Y-10032967D02*
X22526031Y-10047679D01*
X17890830Y-7975406D02*
X17884083Y-7970532D01*
X29948773Y-7477534D02*
X29943458Y-7463208D01*
X24048488Y-9180815D02*
X24044151Y-9184656D01*
X17990733Y-8348754D02*
X17984867Y-8343025D01*
X23784286Y-17594327D02*
X23797947Y-17587466D01*
X32993423Y-13017409D02*
X33007954Y-13013175D01*
X25622468Y-8354212D02*
X25616009Y-8359385D01*
X21065009Y-9807457D02*
X21057405Y-9795213D01*
X26560645Y-13823412D02*
X26565578Y-13821659D01*
X30982307Y-12714060D02*
X30993255Y-12725479D01*
X24084104Y-9116973D02*
X24082849Y-9122553D01*
X15812189Y-7659282D02*
X15802780Y-7667595D01*
X24039607Y-9188296D02*
X24034861Y-9191726D01*
X26358981Y-14170412D02*
X26356166Y-14154878D01*
X20950869Y-9696697D02*
X20937414Y-9689770D01*
X25663899Y-8084826D02*
X25662887Y-8092936D01*
X18278696Y-16548963D02*
X18282551Y-16551439D01*
X11377461Y-7649185D02*
X11363512Y-7653637D01*
X17252379Y-14201348D02*
X17247111Y-14216318D01*
X32443862Y-7846953D02*
X32439097Y-7833027D01*
X32125561Y-7638857D02*
X32110814Y-7640821D01*
X14037028Y-7286563D02*
X14022627Y-7282821D01*
X27721572Y-7515699D02*
X27715177Y-7503194D01*
X19495839Y-8914643D02*
X19490893Y-8911431D01*
X13499282Y-7861144D02*
X13488546Y-7869030D01*
X25671765Y-8053339D02*
X25669239Y-8061041D01*
X10402902Y-12726155D02*
X10403196Y-12741159D01*
X20744196Y-11339286D02*
X20735177Y-11323522D01*
X12637076Y-12714060D02*
X12648644Y-12703206D01*
X27882441Y-7703594D02*
X27870672Y-7697932D01*
X15578398Y-7727215D02*
X15565502Y-7724507D01*
X13808924Y-7312562D02*
X13796089Y-7320095D01*
X20816390Y-11419759D02*
X20802548Y-11408375D01*
X24079187Y-9053238D02*
X24079188Y-9053241D01*
X12347369Y-13247629D02*
X12360612Y-13241827D01*
X24071980Y-9012364D02*
X24072113Y-9018188D01*
X21078407Y-9832938D02*
X21072013Y-9820040D01*
X21801470Y-17225433D02*
X21809691Y-17225320D01*
X26362617Y-14185807D02*
X26358981Y-14170412D01*
X17947100Y-8167381D02*
X17947101Y-8167374D01*
X23621462Y-17620845D02*
X23636684Y-17622243D01*
X10437418Y-12867101D02*
X10444442Y-12879687D01*
X28051168Y-7724252D02*
X28037662Y-7726414D01*
X26995582Y-15483424D02*
X26993459Y-15468864D01*
X11349780Y-7658770D02*
X11336293Y-7664579D01*
X12480593Y-13140657D02*
X12488605Y-13128472D01*
X24013954Y-9203152D02*
X24008267Y-9205387D01*
X17256832Y-14186172D02*
X17252379Y-14201348D01*
X20028203Y-17615693D02*
X21744321Y-17232543D01*
X12398350Y-13220773D02*
X12410194Y-13212593D01*
X19849025Y-17600464D02*
X19863227Y-17605872D01*
X26570538Y-13819995D02*
X26575526Y-13818417D01*
X31095565Y-13046879D02*
X31099796Y-13061410D01*
X25722094Y-7980580D02*
X25715928Y-7986039D01*
X22907052Y-11097233D02*
X22911684Y-11114797D01*
X16622419Y-15498002D02*
X16621740Y-15512569D01*
X19937099Y-17621790D02*
X19952242Y-17622710D01*
X17933950Y-8024027D02*
X17929674Y-8017140D01*
X30993255Y-12725479D02*
X31003567Y-12737435D01*
X22554359Y-9807458D02*
X22547355Y-9820041D01*
X12527344Y-13032013D02*
X12530143Y-13016825D01*
X24063689Y-9163638D02*
X24060220Y-9168185D01*
X25672301Y-8167427D02*
X25672305Y-8167433D01*
X19599922Y-9200658D02*
X19594599Y-9197916D01*
X31285553Y-13252799D02*
X31299365Y-13257319D01*
X27654959Y-7426924D02*
X27644354Y-7417862D01*
X15829875Y-7641313D02*
X15821227Y-7650518D01*
X30829892Y-12633101D02*
X30845271Y-12636584D01*
X26352667Y-14107773D02*
X26353154Y-14092016D01*
X30034978Y-7758067D02*
X30029077Y-7745586D01*
X19540190Y-9053222D02*
X19540193Y-9053217D01*
X11405912Y-7642351D02*
X11391603Y-7645421D01*
X21093351Y-10047679D02*
X21097472Y-10032967D01*
X29642122Y-7275763D02*
X29627192Y-7277298D01*
X26873002Y-15762903D02*
X26884965Y-15753846D01*
X19546814Y-9000812D02*
X19546101Y-8995104D01*
X27727364Y-7528549D02*
X27721572Y-7515699D01*
X30704180Y-12634949D02*
X30719845Y-12631784D01*
X32269596Y-7658770D02*
X32255862Y-7653637D01*
X30072045Y-7814821D02*
X30063682Y-7804261D01*
X17947073Y-8167439D02*
X17947076Y-8167437D01*
X24085839Y-9082419D02*
X24086261Y-9088258D01*
X25667082Y-8068865D02*
X25665300Y-8076798D01*
X21100819Y-9901293D02*
X21097648Y-9887187D01*
X19517520Y-8933811D02*
X19513605Y-8929594D01*
X19480429Y-8905706D02*
X19474918Y-8903212D01*
X25669517Y-8159111D02*
X25672282Y-8167342D01*
X25659132Y-8310773D02*
X25654855Y-8317658D01*
X24084104Y-9070722D02*
X24085121Y-9076571D01*
X25675331Y-8273762D02*
X25672804Y-8281463D01*
X30227259Y-7913690D02*
X30214347Y-7909999D01*
X24105765Y-8929594D02*
X24101852Y-8933811D01*
X26884965Y-15753846D02*
X26896375Y-15744273D01*
X24072536Y-9024032D02*
X24073256Y-9029884D01*
X13749347Y-7355923D02*
X13738893Y-7366201D01*
X17920135Y-8003993D02*
X17914885Y-7997759D01*
X12774103Y-12636584D02*
X12789480Y-12633100D01*
X17256271Y-14030398D02*
X17260039Y-14045809D01*
X22884205Y-11323522D02*
X22875188Y-11339285D01*
X30719845Y-12631784D02*
X30735591Y-12629467D01*
X31123344Y-13115857D02*
X31130780Y-13128472D01*
X27944664Y-7723575D02*
X27931834Y-7720722D01*
X25669239Y-8061041D02*
X25667082Y-8068865D01*
X25694317Y-8010458D02*
X25689710Y-8017140D01*
X25765022Y-7954298D02*
X25757193Y-7957840D01*
X30014717Y-7706085D02*
X29953404Y-7492268D01*
X33214776Y-12695797D02*
X33212746Y-12680488D01*
X17996898Y-8354212D02*
X17990733Y-8348754D01*
X22535191Y-9846125D02*
X22530054Y-9859579D01*
X22816835Y-11408375D02*
X22802992Y-11419758D01*
X25672282Y-8167355D02*
X25672283Y-8167361D01*
X19469228Y-8900976D02*
X18047891Y-8383664D01*
X12333831Y-13252799D02*
X12347369Y-13247629D01*
X31044923Y-12804296D02*
X31051027Y-12818889D01*
X20735177Y-11323522D02*
X20727171Y-11307331D01*
X19952242Y-17622710D02*
X19967440Y-17622863D01*
X11165319Y-7890199D02*
X10406637Y-12680488D01*
X25336832Y-16551439D02*
X25340687Y-16548962D01*
X19540173Y-9053260D02*
X19540173Y-9053257D01*
X30041407Y-7770186D02*
X30034978Y-7758067D01*
X12743937Y-12645973D02*
X12758911Y-12640876D01*
X32397038Y-7756199D02*
X32387915Y-7744728D01*
X26927199Y-15712711D02*
X26936311Y-15701326D01*
X24094688Y-8942750D02*
X24091446Y-8947454D01*
X18039811Y-8380490D02*
X18031986Y-8376948D01*
X15604183Y-7730713D02*
X15591298Y-7729280D01*
X30945818Y-12683303D02*
X30958570Y-12692945D01*
X17862190Y-7957840D02*
X17854361Y-7954299D01*
X18017123Y-8368819D02*
X18010099Y-8364258D01*
X32184442Y-7638318D02*
X32169789Y-7637368D01*
X21097472Y-10032967D02*
X21100813Y-10018207D01*
X13993539Y-7277523D02*
X13978904Y-7275961D01*
X26993348Y-15570236D02*
X26995462Y-15555960D01*
X18282551Y-16551439D02*
X18286367Y-16553976D01*
X15964424Y-7426923D02*
X15954285Y-7436481D01*
X13547338Y-7814828D02*
X13538535Y-7824971D01*
X25681740Y-8208884D02*
X25682341Y-8217184D01*
X27407340Y-7359645D02*
X27393652Y-7362786D01*
X17955485Y-8084826D02*
X17954084Y-8076798D01*
X22540962Y-9832938D02*
X22535191Y-9846125D01*
X13417738Y-7905771D02*
X13405036Y-7910026D01*
X19892292Y-17614481D02*
X19907095Y-17617669D01*
X30267083Y-7921267D02*
X30253645Y-7919335D01*
X15897812Y-7515699D02*
X15892020Y-7528549D01*
X13681354Y-7450587D02*
X13675566Y-7464169D01*
X22915229Y-11132512D02*
X22917691Y-11150328D01*
X17947076Y-8167437D02*
X17947079Y-8167433D01*
X26960045Y-15664937D02*
X26966727Y-15652146D01*
X33110226Y-12956499D02*
X33121027Y-12946887D01*
X12421634Y-13203857D02*
X12432649Y-13194581D01*
X31166066Y-13174474D02*
X31176166Y-13184782D01*
X17260470Y-14170825D02*
X17256832Y-14186172D01*
X16636762Y-15425530D02*
X16632407Y-15439891D01*
X22631034Y-9721007D02*
X22619547Y-9730206D01*
X31022203Y-12762847D02*
X31030493Y-12776247D01*
X24077521Y-9138796D02*
X24075238Y-9144013D01*
X26367073Y-14201031D02*
X26362617Y-14185807D01*
X12606161Y-12749900D02*
X12615816Y-12737435D01*
X13577976Y-7770188D02*
X13571038Y-7781935D01*
X27531881Y-7362021D02*
X27518229Y-7359046D01*
X27518229Y-7359046D02*
X27504470Y-7356746D01*
X21103311Y-9915568D02*
X21100819Y-9901293D01*
X11175502Y-7846966D02*
X11171411Y-7861149D01*
X15911187Y-7491054D02*
X15904207Y-7503194D01*
X31432459Y-13266203D02*
X32963368Y-13023739D01*
X26443327Y-13894258D02*
X26454900Y-13883565D01*
X17247111Y-14216318D02*
X17241031Y-14231050D01*
X25356467Y-16539664D02*
X25360495Y-16537493D01*
X30189170Y-7900939D02*
X30176942Y-7895592D01*
X12867985Y-12627993D02*
X12883779Y-12629467D01*
X25681689Y-8241868D02*
X25680675Y-8249977D01*
X19540172Y-9053270D02*
X19540172Y-9053267D01*
X24079176Y-9053209D02*
X24079177Y-9053213D01*
X16785548Y-15786758D02*
X18254794Y-16535385D01*
X16641191Y-15625731D02*
X16646610Y-15639074D01*
X17941891Y-8265938D02*
X17940108Y-8258005D01*
X27490631Y-7355123D02*
X27476738Y-7354178D01*
X33075021Y-12982180D02*
X33087207Y-12974167D01*
X31099796Y-13061410D02*
X31104711Y-13075588D01*
X30970739Y-12703206D02*
X30982307Y-12714060D01*
X17240009Y-13985326D02*
X17246241Y-14000083D01*
X27545404Y-7365669D02*
X27531881Y-7362021D01*
X20845886Y-11439888D02*
X20830851Y-11430271D01*
X17955517Y-8134228D02*
X17956540Y-8125916D01*
X32334085Y-7694444D02*
X32321831Y-7685996D01*
X21072013Y-9820040D02*
X21065009Y-9807457D01*
X19534293Y-9111326D02*
X19533581Y-9105621D01*
X26467025Y-13873488D02*
X26479680Y-13864051D01*
X32110814Y-7640821D02*
X30350031Y-7919691D01*
X33207732Y-12799515D02*
X33210907Y-12785219D01*
X11180271Y-7833042D02*
X11175502Y-7846966D01*
X26506482Y-13847185D02*
X26520582Y-13839803D01*
X26977534Y-15411286D02*
X26971653Y-15397185D01*
X10406637Y-12680488D02*
X10404607Y-12695797D01*
X13590305Y-7745587D02*
X13584405Y-7758068D01*
X11285299Y-7694445D02*
X11273484Y-7703482D01*
X20923494Y-9683472D02*
X20909122Y-9677826D01*
X17957333Y-8109344D02*
X17957115Y-8101113D01*
X25662241Y-8117616D02*
X25662844Y-8125916D01*
X25669913Y-8289029D02*
X25666667Y-8296444D01*
X17940110Y-8192255D02*
X17941988Y-8183954D01*
X23756132Y-17605872D02*
X23770337Y-17600463D01*
X25715928Y-7986039D02*
X25710060Y-7991770D01*
X24079205Y-9053263D02*
X24079208Y-9053267D01*
X32345899Y-7703482D02*
X32334085Y-7694444D01*
X25352470Y-16541897D02*
X25356467Y-16539664D01*
X19540187Y-9053227D02*
X19540190Y-9053222D01*
X19509475Y-8925560D02*
X19505134Y-8921717D01*
X12320019Y-13257319D02*
X12333831Y-13252799D01*
X31221034Y-13220773D02*
X31233260Y-13228383D01*
X24079188Y-9053241D02*
X24079190Y-9053244D01*
X19513605Y-8929594D02*
X19509475Y-8925560D01*
X26359592Y-14045038D02*
X26363403Y-14029588D01*
X15882758Y-7552945D02*
X15877907Y-7565334D01*
X16009471Y-7393840D02*
X15997570Y-7401301D01*
X25665316Y-8142541D02*
X25667197Y-8150840D01*
X13719578Y-7388194D02*
X13710750Y-7399867D01*
X27584932Y-7380649D02*
X27571955Y-7374985D01*
X25579540Y-8380490D02*
X25571457Y-8383664D01*
X18274803Y-16546547D02*
X18278696Y-16548963D01*
X16622504Y-15541575D02*
X16623931Y-15555962D01*
X28010717Y-7728762D02*
X27997318Y-7728968D01*
X15986083Y-7409314D02*
X15975029Y-7417862D01*
X25634503Y-8343025D02*
X25628635Y-8348754D01*
X32451342Y-7875562D02*
X32447949Y-7861139D01*
X16628835Y-15584379D02*
X16632296Y-15598358D01*
X29671797Y-7274946D02*
X29656997Y-7274984D01*
X22619420Y-11482492D02*
X20999962Y-11482491D01*
X31051027Y-12818889D02*
X31056367Y-12833825D01*
X16156566Y-7353910D02*
X16142644Y-7354177D01*
X27571955Y-7374985D02*
X27558770Y-7369991D01*
X22899200Y-11290761D02*
X22892212Y-11307331D01*
X17241031Y-14231050D02*
X17234140Y-14245510D01*
X22695885Y-9683472D02*
X22681963Y-9689770D01*
X22655524Y-9704228D02*
X22643030Y-9712340D01*
X12915198Y-12634948D02*
X12930756Y-12638966D01*
X21793253Y-17225771D02*
X21801470Y-17225433D01*
X17947101Y-8167374D02*
X17947101Y-8167368D01*
X16771970Y-15779399D02*
X16785548Y-15786758D01*
X19534262Y-9076570D02*
X19535279Y-9070722D01*
X16683085Y-15701340D02*
X16692199Y-15712726D01*
X13529311Y-7834686D02*
X13519682Y-7843960D01*
X20765159Y-11369219D02*
X20754219Y-11354574D01*
X19533713Y-8957284D02*
X19530940Y-8952302D01*
X30294361Y-7923295D02*
X30280660Y-7922591D01*
X29627192Y-7277298D02*
X29612234Y-7279601D01*
X15728091Y-7712369D02*
X15716387Y-7716732D01*
X16212042Y-7359646D02*
X16198256Y-7357189D01*
X21105201Y-9988640D02*
X21106270Y-9973880D01*
X29907467Y-7398126D02*
X29898548Y-7386511D01*
X27997318Y-7728968D02*
X27983993Y-7728543D01*
X13675566Y-7464169D02*
X13670435Y-7478069D01*
X21103385Y-10003423D02*
X21105201Y-9988640D01*
X31186735Y-13194581D02*
X31197750Y-13203857D01*
X10583438Y-13002678D02*
X10597250Y-13008258D01*
X24078819Y-8972938D02*
X24077040Y-8978359D01*
X27462816Y-7353910D02*
X27448889Y-7354322D01*
X24079212Y-9053270D02*
X24081154Y-9059062D01*
X25699248Y-8003993D02*
X25694317Y-8010458D01*
X27700646Y-7479298D02*
X27692544Y-7467943D01*
X11363512Y-7653637D02*
X11349780Y-7658770D01*
X25672284Y-8167374D02*
X25672284Y-8167381D01*
X15845925Y-7621618D02*
X15838114Y-7631677D01*
X25672285Y-8167387D02*
X25672287Y-8167394D01*
X18258866Y-16537493D02*
X18262903Y-16539664D01*
X17187890Y-13906518D02*
X17198212Y-13918377D01*
X11251399Y-7723134D02*
X11241157Y-7733703D01*
X25672313Y-8167443D02*
X25672316Y-8167446D01*
X19584521Y-9191726D02*
X19579776Y-9188296D01*
X19835081Y-17594326D02*
X19849025Y-17600464D01*
X23727062Y-17614481D02*
X23741697Y-17610546D01*
X16128751Y-7355123D02*
X16114912Y-7356747D01*
X22741873Y-11456351D02*
X22725372Y-11463151D01*
X20789366Y-11396142D02*
X20776889Y-11383083D01*
X33216187Y-12741159D02*
X33216481Y-12726155D01*
X30845271Y-12636584D02*
X30860465Y-12640876D01*
X31258771Y-13241827D02*
X31272014Y-13247630D01*
X31110289Y-13089399D02*
X31116507Y-13102828D01*
X27983993Y-7728543D02*
X27970763Y-7727495D01*
X27732568Y-7541832D02*
X27732535Y-7541727D01*
X24079175Y-9053203D02*
X24079176Y-9053205D01*
X12217465Y-13269467D02*
X12232593Y-13269930D01*
X17938663Y-8200569D02*
X17940110Y-8192255D01*
X17947079Y-8167433D02*
X17947083Y-8167427D01*
X21744321Y-17232543D02*
X21752409Y-17230850D01*
X31089241Y-13016825D02*
X31092040Y-13032013D01*
X13600453Y-7719584D02*
X13595661Y-7732755D01*
X20709285Y-11256676D02*
X20705389Y-11239257D01*
X24118777Y-8918074D02*
X24114232Y-8921717D01*
X11262180Y-7713054D02*
X11251399Y-7723134D01*
X25679273Y-8258005D02*
X25677490Y-8265938D01*
X27826502Y-7670068D02*
X27816285Y-7661848D01*
X12574459Y-12804296D02*
X12581310Y-12790073D01*
X24098159Y-8938199D02*
X24094688Y-8942750D01*
X17941484Y-8038357D02*
X17937889Y-8031103D01*
X22547355Y-9820041D02*
X22540962Y-9832938D01*
X32420869Y-7793035D02*
X32413529Y-7780376D01*
X18270872Y-16544191D02*
X18274803Y-16546547D01*
X26952743Y-15677414D02*
X26960045Y-15664937D01*
X26353008Y-14123525D02*
X26352667Y-14107773D01*
X23797947Y-17587466D02*
X23811293Y-17579887D01*
X22521725Y-9887187D02*
X22518555Y-9901293D01*
X30932501Y-12674311D02*
X30945818Y-12683303D01*
X31092040Y-13032013D02*
X31095565Y-13046879D01*
X25757193Y-7957840D02*
X25749626Y-7961735D01*
X25749626Y-7961735D02*
X25742325Y-7965971D01*
X16142644Y-7354177D02*
X16128751Y-7355123D01*
X24019461Y-9200658D02*
X24013954Y-9203152D01*
X19546128Y-9029884D02*
X19546847Y-9024032D01*
X29889110Y-7375393D02*
X29879176Y-7364785D01*
X29822881Y-7319845D02*
X29810460Y-7312567D01*
X22919077Y-11168198D02*
X22919394Y-11186075D01*
X19485755Y-8908449D02*
X19480429Y-8905706D01*
X16652665Y-15652154D02*
X16659348Y-15664946D01*
X21106604Y-9959169D02*
X21106215Y-9944531D01*
X32227767Y-7645421D02*
X32213456Y-7642351D01*
X31056367Y-12833825D02*
X31060924Y-12849075D01*
X31038072Y-12790072D02*
X31044923Y-12804296D01*
X12291657Y-13264349D02*
X12305953Y-13261174D01*
X20910915Y-11468967D02*
X20894011Y-11463151D01*
X30280660Y-7922591D02*
X30267083Y-7921267D01*
X23651908Y-17622863D02*
X23667106Y-17622710D01*
X20945757Y-11477555D02*
X20928178Y-11473776D01*
X16641878Y-15411286D02*
X16636762Y-15425530D01*
X13338722Y-7922624D02*
X13325021Y-7923329D01*
X17234140Y-14245510D02*
X16654422Y-15383251D01*
X19540173Y-9053257D02*
X19540174Y-9053254D01*
X33141137Y-12926216D02*
X33150413Y-12915200D01*
X21809691Y-17225320D02*
X21817912Y-17225433D01*
X25672282Y-8167342D02*
X25672282Y-8167355D01*
X24088437Y-8952302D02*
X24085666Y-8957284D01*
X15935475Y-7457010D02*
X15926839Y-7467943D01*
X30322057Y-7922800D02*
X30308165Y-7923368D01*
X22913994Y-11239258D02*
X22910097Y-11256676D01*
X25364554Y-16535384D02*
X26833870Y-15786721D01*
X16628803Y-15454344D02*
X16625942Y-15468864D01*
X16621740Y-15512569D02*
X16621771Y-15527102D01*
X11449580Y-7637368D02*
X11434926Y-7638318D01*
X30153292Y-7883318D02*
X30141907Y-7876414D01*
X17954084Y-8076798D02*
X17952302Y-8068865D01*
X26421938Y-13917400D02*
X26432332Y-13905545D01*
X30240365Y-7916805D02*
X30227259Y-7913690D01*
X17059410Y-13823695D02*
X17064661Y-13825654D01*
X12597179Y-12762847D02*
X12606161Y-12749900D01*
X15761804Y-7696151D02*
X15750819Y-7702068D01*
X20700734Y-11203909D02*
X20699988Y-11186075D01*
X24138925Y-8905706D02*
X24133602Y-8908449D01*
X11391603Y-7645421D02*
X11377461Y-7649185D01*
X10403196Y-12741159D02*
X10404234Y-12756019D01*
X30080848Y-7824963D02*
X30072045Y-7814821D01*
X21057405Y-9795213D02*
X21049212Y-9783331D01*
X26580539Y-13816921D02*
X30688628Y-12638966D01*
X15667730Y-7728727D02*
X15655200Y-7730312D01*
X10404607Y-12695797D02*
X10403367Y-12711027D01*
X29757684Y-7289592D02*
X29743832Y-7285445D01*
X26354174Y-14139238D02*
X26353008Y-14123525D01*
X13934958Y-7275586D02*
X13920383Y-7276888D01*
X19524687Y-8942750D02*
X19521215Y-8938199D01*
X27633300Y-7409314D02*
X27621813Y-7401301D01*
X26896375Y-15744273D02*
X26907223Y-15734210D01*
X26944829Y-15689552D02*
X26952743Y-15677414D01*
X24079202Y-9053260D02*
X24079205Y-9053263D01*
X17944730Y-8045773D02*
X17941484Y-8038357D01*
X10444442Y-12879687D02*
X10452052Y-12891914D01*
X22598149Y-9750102D02*
X22588259Y-9760751D01*
X22691205Y-11473776D02*
X22673625Y-11477555D01*
X22802992Y-11419758D02*
X22788532Y-11430271D01*
X20988336Y-9721006D02*
X20976341Y-9712340D01*
X12883779Y-12629467D02*
X12899528Y-12631784D01*
X26993459Y-15468864D02*
X26990601Y-15454344D01*
X22570155Y-9783331D02*
X22561963Y-9795213D01*
X19570895Y-9180816D02*
X19566768Y-9176784D01*
X24133602Y-8908449D02*
X24128466Y-8911431D01*
X19539829Y-9133474D02*
X19538052Y-9128057D01*
X24081332Y-9128057D02*
X24079554Y-9133475D01*
X21834336Y-17226336D02*
X21842528Y-17227126D01*
X29729764Y-7281964D02*
X29715504Y-7279160D01*
X11171411Y-7861149D02*
X11168012Y-7875567D01*
X31371786Y-13269634D02*
X31386791Y-13269930D01*
X21768680Y-17228142D02*
X21776854Y-17227126D01*
X11213799Y-7768101D02*
X11205849Y-7780389D01*
X15642561Y-7731313D02*
X15629833Y-7731720D01*
X26368049Y-14014298D02*
X26373531Y-13999201D01*
X26996890Y-15541573D02*
X26997625Y-15527101D01*
X13964245Y-7275120D02*
X13949588Y-7274995D01*
X17265294Y-14139746D02*
X17263291Y-14155338D01*
X22513109Y-9973880D02*
X22514179Y-9988639D01*
X26575526Y-13818417D02*
X26580539Y-13816921D01*
X19540184Y-9053232D02*
X19540187Y-9053227D01*
X33022134Y-13008257D02*
X33035946Y-13002678D01*
X21875061Y-17232543D02*
X23591145Y-17615693D01*
X29879176Y-7364785D02*
X29868769Y-7354699D01*
X20699988Y-11186075D02*
X20700306Y-11168199D01*
X25685434Y-8024027D02*
X25681495Y-8031103D01*
X10411650Y-12799515D02*
X10415505Y-12813580D01*
X17947097Y-8167394D02*
X17947099Y-8167387D01*
X12453318Y-13174473D02*
X12462928Y-13163673D01*
X17233037Y-13970994D02*
X17240009Y-13985326D01*
X22619547Y-9730206D02*
X22608582Y-9739912D01*
X25663071Y-8303697D02*
X25659132Y-8310773D01*
X27609912Y-7393840D02*
X27597612Y-7386949D01*
X19540175Y-9053251D02*
X19540177Y-9053244D01*
X24079180Y-9053224D02*
X24079181Y-9053227D01*
X15565502Y-7724507D02*
X15552629Y-7721149D01*
X30798712Y-12628581D02*
X30814361Y-12630432D01*
X25662887Y-8092936D02*
X25662269Y-8101112D01*
X12509095Y-13089399D02*
X12514673Y-13075588D01*
X18024421Y-8373053D02*
X18017123Y-8368819D01*
X29686497Y-7275639D02*
X29671797Y-7274946D01*
X22919394Y-11186075D02*
X22918648Y-11203909D01*
X13710750Y-7399867D02*
X13702498Y-7411965D01*
X29715504Y-7279160D02*
X29701073Y-7277048D01*
X19540177Y-9053244D02*
X19540180Y-9053238D01*
X12930756Y-12638966D02*
X17038102Y-13816709D01*
X22773496Y-11439888D02*
X22757929Y-11448589D01*
X23682250Y-17621790D02*
X23697310Y-17620108D01*
X15892020Y-7528549D02*
X15886849Y-7541727D01*
X19922041Y-17620108D02*
X19937099Y-17621790D01*
X26565578Y-13821659D02*
X26570538Y-13819995D01*
X16073979Y-7365669D02*
X16060613Y-7369991D01*
X21106270Y-9973880D02*
X21106604Y-9959169D01*
X21084179Y-9846125D02*
X21078407Y-9832938D01*
X17956307Y-8303697D02*
X17952711Y-8296444D01*
X22788532Y-11430271D02*
X22773496Y-11439888D01*
X33174942Y-12879687D02*
X33181965Y-12867100D01*
X20928178Y-11473776D02*
X20910915Y-11468967D01*
X17952302Y-8068865D02*
X17950145Y-8061041D01*
X23824293Y-17571597D02*
X25333016Y-16553976D01*
X17937889Y-8031103D02*
X17933950Y-8024027D01*
X15997570Y-7401301D02*
X15986083Y-7409314D01*
X10640828Y-13020938D02*
X10656016Y-13023739D01*
X26535116Y-13833153D02*
X26550060Y-13827258D01*
X17947087Y-8167420D02*
X17947091Y-8167413D01*
X22842494Y-11383083D02*
X22830017Y-11396142D01*
X17947068Y-8167446D02*
X17947070Y-8167443D01*
X26520582Y-13839803D02*
X26535116Y-13833153D01*
X24075522Y-8983867D02*
X24074268Y-8989452D01*
X24079181Y-9053227D02*
X24079183Y-9053230D01*
X19546674Y-9149115D02*
X19544145Y-9144013D01*
X21850702Y-17228142D02*
X21858852Y-17229383D01*
X16621771Y-15527102D02*
X16622504Y-15541575D01*
X17929674Y-8017140D02*
X17925067Y-8010458D01*
X17947102Y-8167342D02*
X17949867Y-8159111D01*
X12530143Y-13016825D02*
X12551768Y-12880406D01*
X12202236Y-13268230D02*
X12217465Y-13269467D01*
X17043480Y-13818317D02*
X17048822Y-13820018D01*
X27749479Y-7579584D02*
X27743290Y-7567388D01*
X27504470Y-7356746D02*
X27490631Y-7355123D01*
X12443218Y-13184781D02*
X12453318Y-13174473D01*
X18286367Y-16553976D02*
X19795088Y-17571597D01*
X23606273Y-17618664D02*
X23621462Y-17620845D01*
X19877659Y-17610546D02*
X19892292Y-17614481D01*
X16047429Y-7374984D02*
X16034451Y-7380649D01*
X17266838Y-14108374D02*
X17266477Y-14124079D01*
X10625961Y-13017409D02*
X10640828Y-13020938D01*
X27737646Y-7554801D02*
X27732568Y-7541832D01*
X20718058Y-11079867D02*
X21088438Y-10062318D01*
X13822109Y-7305676D02*
X13808924Y-7312562D01*
X30688628Y-12638966D02*
X30704180Y-12634949D01*
X32321831Y-7685996D02*
X32309229Y-7678199D01*
X29915844Y-7410226D02*
X29907467Y-7398126D01*
X12523819Y-13046879D02*
X12527344Y-13032013D01*
X30023722Y-7732755D02*
X30018929Y-7719584D01*
X24079197Y-9053254D02*
X24079199Y-9053257D01*
X20776889Y-11383083D02*
X20765159Y-11369219D01*
D11*
D12*
X11412451Y-11258948D02*
X11452451Y-11298948D01*
X11452451Y-11258948D02*
X11412451Y-11298948D01*
X11687791Y-9552075D02*
X11727791Y-9592075D01*
X11727791Y-9552075D02*
X11687791Y-9592075D01*
X11778119Y-8353812D02*
X11818119Y-8393812D01*
X11818119Y-8353812D02*
X11778119Y-8393812D01*
X12390873Y-12093943D02*
X12430873Y-12133943D01*
X12430873Y-12093943D02*
X12390873Y-12133943D01*
X12515627Y-10649865D02*
X12555627Y-10689865D01*
X12555627Y-10649865D02*
X12515627Y-10689865D01*
X12883967Y-8750987D02*
X12923967Y-8790987D01*
X12923967Y-8750987D02*
X12883967Y-8790987D01*
X13389439Y-11336976D02*
X13429439Y-11376976D01*
X13429439Y-11336976D02*
X13389439Y-11376976D01*
X13465039Y-10389831D02*
X13505039Y-10429831D01*
X13505039Y-10389831D02*
X13465039Y-10429831D01*
X13470292Y-10853307D02*
X13510292Y-10893307D01*
X13510292Y-10853307D02*
X13470292Y-10893307D01*
X13838660Y-9020945D02*
X13878660Y-9060945D01*
X13878660Y-9020945D02*
X13838660Y-9060945D01*
X13955632Y-9183608D02*
X13995632Y-9223608D01*
X13995632Y-9183608D02*
X13955632Y-9223608D01*
X14228937Y-8037995D02*
X14268937Y-8077995D01*
X14268937Y-8037995D02*
X14228937Y-8077995D01*
X14383745Y-11808321D02*
X14423745Y-11848321D01*
X14423745Y-11808321D02*
X14383745Y-11848321D01*
X14619019Y-10776930D02*
X14659019Y-10816930D01*
X14659019Y-10776930D02*
X14619019Y-10816930D01*
X14941721Y-12092574D02*
X14981721Y-12132574D01*
X14981721Y-12092574D02*
X14941721Y-12132574D01*
X15323253Y-8523720D02*
X15363253Y-8563720D01*
X15363253Y-8523720D02*
X15323253Y-8563720D01*
X15434643Y-10892520D02*
X15474643Y-10932520D01*
X15474643Y-10892520D02*
X15434643Y-10932520D01*
X15442730Y-8895704D02*
X15482730Y-8935704D01*
X15482730Y-8895704D02*
X15442730Y-8935704D01*
X15487278Y-10476717D02*
X15527278Y-10516717D01*
X15527278Y-10476717D02*
X15487278Y-10516717D01*
X16004039Y-9328117D02*
X16044039Y-9368117D01*
X16044039Y-9328117D02*
X16004039Y-9368117D01*
X16005922Y-8861707D02*
X16045922Y-8901707D01*
X16045922Y-8861707D02*
X16005922Y-8901707D01*
X16156919Y-9157044D02*
X16196919Y-9197044D01*
X16196919Y-9157044D02*
X16156919Y-9197044D01*
X16164139Y-10727406D02*
X16204139Y-10767406D01*
X16204139Y-10727406D02*
X16164139Y-10767406D01*
X16293204Y-11912689D02*
X16333204Y-11952689D01*
X16333204Y-11912689D02*
X16293204Y-11952689D01*
X16422895Y-8150135D02*
X16462895Y-8190135D01*
X16462895Y-8150135D02*
X16422895Y-8190135D01*
X16483992Y-13015735D02*
X16523992Y-13055735D01*
X16523992Y-13015735D02*
X16483992Y-13055735D01*
X17001253Y-11851145D02*
X17041253Y-11891145D01*
X17041253Y-11851145D02*
X17001253Y-11891145D01*
X17026803Y-8566813D02*
X17066803Y-8606813D01*
X17066803Y-8566813D02*
X17026803Y-8606813D01*
X17043643Y-11405009D02*
X17083643Y-11445009D01*
X17083643Y-11405009D02*
X17043643Y-11445009D01*
X17594885Y-10236823D02*
X17634885Y-10276823D01*
X17634885Y-10236823D02*
X17594885Y-10276823D01*
X17693845Y-9837880D02*
X17733845Y-9877880D01*
X17733845Y-9837880D02*
X17693845Y-9877880D01*
X17852127Y-12863194D02*
X17892127Y-12903194D01*
X17892127Y-12863194D02*
X17852127Y-12903194D01*
X17997623Y-9101073D02*
X18037623Y-9141073D01*
X18037623Y-9101073D02*
X17997623Y-9141073D01*
X18087377Y-13844081D02*
X18127377Y-13884081D01*
X18127377Y-13844081D02*
X18087377Y-13884081D01*
X18232637Y-11842098D02*
X18272637Y-11882098D01*
X18272637Y-11842098D02*
X18232637Y-11882098D01*
X18307636Y-15295685D02*
X18347636Y-15335685D01*
X18347636Y-15295685D02*
X18307636Y-15335685D01*
X18619165Y-12668815D02*
X18659165Y-12708815D01*
X18659165Y-12668815D02*
X18619165Y-12708815D01*
X18635414Y-10135543D02*
X18675414Y-10175543D01*
X18675414Y-10135543D02*
X18635414Y-10175543D01*
X18665391Y-12255999D02*
X18705391Y-12295999D01*
X18705391Y-12255999D02*
X18665391Y-12295999D01*
X19012421Y-9704548D02*
X19052421Y-9744548D01*
X19052421Y-9704548D02*
X19012421Y-9744548D01*
X19173415Y-11104218D02*
X19213415Y-11144218D01*
X19213415Y-11104218D02*
X19173415Y-11144218D01*
X19213687Y-10646287D02*
X19253687Y-10686287D01*
X19253687Y-10646287D02*
X19213687Y-10686287D01*
X19288294Y-10373172D02*
X19328294Y-10413172D01*
X19328294Y-10373172D02*
X19288294Y-10413172D01*
X19467465Y-13717174D02*
X19507465Y-13757174D01*
X19507465Y-13717174D02*
X19467465Y-13757174D01*
X19587327Y-9967006D02*
X19627327Y-10007006D01*
X19627327Y-9967006D02*
X19587327Y-10007006D01*
X19757559Y-15343812D02*
X19797559Y-15383812D01*
X19797559Y-15343812D02*
X19757559Y-15383812D01*
X19918784Y-12472299D02*
X19958784Y-12512299D01*
X19958784Y-12472299D02*
X19918784Y-12512299D01*
X20218857Y-16667065D02*
X20258857Y-16707065D01*
X20258857Y-16667065D02*
X20218857Y-16707065D01*
X20305488Y-13280670D02*
X20345488Y-13320670D01*
X20345488Y-13280670D02*
X20305488Y-13320670D01*
X20325437Y-14690523D02*
X20365437Y-14730523D01*
X20365437Y-14690523D02*
X20325437Y-14730523D01*
X20374138Y-11256003D02*
X20414138Y-11296003D01*
X20414138Y-11256003D02*
X20374138Y-11296003D01*
X20405437Y-14630523D02*
X20445437Y-14670523D01*
X20445437Y-14630523D02*
X20405437Y-14670523D01*
X20405437Y-11760524D02*
X20445437Y-11800524D01*
X20445437Y-11760524D02*
X20405437Y-11800524D01*
X20490437Y-14570524D02*
X20530437Y-14610524D01*
X20530437Y-14570524D02*
X20490437Y-14610524D01*
X20512765Y-10656556D02*
X20552765Y-10696556D01*
X20552765Y-10656556D02*
X20512765Y-10696556D01*
X21467560Y-13913812D02*
X21507560Y-13953812D01*
X21507560Y-13913812D02*
X21467560Y-13953812D01*
X21470540Y-15000224D02*
X21510540Y-15040224D01*
X21510540Y-15000224D02*
X21470540Y-15040224D01*
X21597087Y-15081671D02*
X21637087Y-15121671D01*
X21637087Y-15081671D02*
X21597087Y-15121671D01*
X21725408Y-15154122D02*
X21765408Y-15194122D01*
X21765408Y-15154122D02*
X21725408Y-15194122D01*
X21852087Y-15254122D02*
X21892087Y-15294122D01*
X21892087Y-15254122D02*
X21852087Y-15294122D01*
X21972087Y-15154345D02*
X22012087Y-15194345D01*
X22012087Y-15154345D02*
X21972087Y-15194345D01*
X22102087Y-15081895D02*
X22142087Y-15121895D01*
X22142087Y-15081895D02*
X22102087Y-15121895D01*
X22108984Y-14001236D02*
X22148984Y-14041236D01*
X22148984Y-14001236D02*
X22108984Y-14041236D01*
X22165408Y-12094121D02*
X22205408Y-12134121D01*
X22205408Y-12094121D02*
X22165408Y-12134121D01*
X22223167Y-13918016D02*
X22263167Y-13958016D01*
X22263167Y-13918016D02*
X22223167Y-13958016D01*
X22232087Y-15011896D02*
X22272087Y-15051896D01*
X22272087Y-15011896D02*
X22232087Y-15051896D01*
X23180440Y-9707186D02*
X23220440Y-9747186D01*
X23220440Y-9707186D02*
X23180440Y-9747186D01*
X23257723Y-15709518D02*
X23297723Y-15749518D01*
X23297723Y-15709518D02*
X23257723Y-15749518D01*
X23610699Y-11491633D02*
X23650699Y-11531633D01*
X23650699Y-11491633D02*
X23610699Y-11531633D01*
X23766572Y-11302953D02*
X23806572Y-11342953D01*
X23806572Y-11302953D02*
X23766572Y-11342953D01*
X24107400Y-12546371D02*
X24147400Y-12586371D01*
X24147400Y-12546371D02*
X24107400Y-12586371D01*
X24125560Y-13589408D02*
X24165560Y-13629408D01*
X24165560Y-13589408D02*
X24125560Y-13629408D01*
X24221626Y-13633913D02*
X24261626Y-13673913D01*
X24261626Y-13633913D02*
X24221626Y-13673913D01*
X24227315Y-10682980D02*
X24267315Y-10722980D01*
X24267315Y-10682980D02*
X24227315Y-10722980D01*
X24341597Y-12897443D02*
X24381597Y-12937443D01*
X24381597Y-12897443D02*
X24341597Y-12937443D01*
X24544684Y-16393841D02*
X24584684Y-16433841D01*
X24584684Y-16393841D02*
X24544684Y-16433841D01*
X24628341Y-13850369D02*
X24668341Y-13890369D01*
X24668341Y-13850369D02*
X24628341Y-13890369D01*
X24788091Y-8861325D02*
X24828091Y-8901325D01*
X24828091Y-8861325D02*
X24788091Y-8901325D01*
X24806558Y-12286788D02*
X24846558Y-12326788D01*
X24846558Y-12286788D02*
X24806558Y-12326788D01*
X25099018Y-10110304D02*
X25139018Y-10150304D01*
X25139018Y-10110304D02*
X25099018Y-10150304D01*
X25382342Y-10464779D02*
X25422342Y-10504779D01*
X25422342Y-10464779D02*
X25382342Y-10504779D01*
X25646926Y-13108453D02*
X25686926Y-13148453D01*
X25686926Y-13108453D02*
X25646926Y-13148453D01*
X25716762Y-11705208D02*
X25756762Y-11745208D01*
X25756762Y-11705208D02*
X25716762Y-11745208D01*
X25954795Y-9128395D02*
X25994795Y-9168395D01*
X25994795Y-9128395D02*
X25954795Y-9168395D01*
X25957800Y-12075074D02*
X25997800Y-12115074D01*
X25997800Y-12075074D02*
X25957800Y-12115074D01*
X26172823Y-15487315D02*
X26212823Y-15527315D01*
X26212823Y-15487315D02*
X26172823Y-15527315D01*
X26293066Y-13288590D02*
X26333066Y-13328590D01*
X26333066Y-13288590D02*
X26293066Y-13328590D01*
X26375222Y-7959083D02*
X26415222Y-7999083D01*
X26415222Y-7959083D02*
X26375222Y-7999083D01*
X26402119Y-11455476D02*
X26442119Y-11495476D01*
X26442119Y-11455476D02*
X26402119Y-11495476D01*
X26809293Y-9604875D02*
X26849293Y-9644875D01*
X26849293Y-9604875D02*
X26809293Y-9644875D01*
X26956656Y-9556561D02*
X26996656Y-9596561D01*
X26996656Y-9556561D02*
X26956656Y-9596561D01*
X27232984Y-10812811D02*
X27272984Y-10852811D01*
X27272984Y-10812811D02*
X27232984Y-10852811D01*
X27267827Y-12284375D02*
X27307827Y-12324375D01*
X27307827Y-12284375D02*
X27267827Y-12324375D01*
X27540646Y-11131823D02*
X27580646Y-11171823D01*
X27580646Y-11131823D02*
X27540646Y-11171823D01*
X27661512Y-8145380D02*
X27701512Y-8185380D01*
X27701512Y-8145380D02*
X27661512Y-8185380D01*
X27914312Y-12187699D02*
X27954312Y-12227699D01*
X27954312Y-12187699D02*
X27914312Y-12227699D01*
X27970870Y-10517356D02*
X28010870Y-10557356D01*
X28010870Y-10517356D02*
X27970870Y-10557356D01*
X28541818Y-7771767D02*
X28581818Y-7811767D01*
X28581818Y-7771767D02*
X28541818Y-7811767D01*
X28721188Y-9068629D02*
X28761188Y-9108629D01*
X28761188Y-9068629D02*
X28721188Y-9108629D01*
X28838289Y-11350953D02*
X28878289Y-11390953D01*
X28878289Y-11350953D02*
X28838289Y-11390953D01*
X29023738Y-9432069D02*
X29063738Y-9472069D01*
X29063738Y-9432069D02*
X29023738Y-9472069D01*
X29358158Y-10672497D02*
X29398158Y-10712497D01*
X29398158Y-10672497D02*
X29358158Y-10712497D01*
X29498385Y-11057771D02*
X29538385Y-11097771D01*
X29538385Y-11057771D02*
X29498385Y-11097771D01*
X29620299Y-11568156D02*
X29660299Y-11608156D01*
X29660299Y-11568156D02*
X29620299Y-11608156D01*
X29868304Y-8097740D02*
X29908304Y-8137740D01*
X29908304Y-8097740D02*
X29868304Y-8137740D01*
X29981155Y-10456104D02*
X30021155Y-10496104D01*
X30021155Y-10456104D02*
X29981155Y-10496104D01*
X30794677Y-11342589D02*
X30834677Y-11382589D01*
X30834677Y-11342589D02*
X30794677Y-11382589D01*
X31016957Y-7993597D02*
X31056957Y-8033597D01*
X31056957Y-7993597D02*
X31016957Y-8033597D01*
X31285304Y-9710350D02*
X31325304Y-9750350D01*
X31325304Y-9710350D02*
X31285304Y-9750350D01*
X31370446Y-11610843D02*
X31410446Y-11650843D01*
X31410446Y-11610843D02*
X31370446Y-11650843D01*
X32269598Y-8511395D02*
X32309598Y-8551395D01*
X32309598Y-8511395D02*
X32269598Y-8551395D01*
X32551609Y-10207212D02*
X32591609Y-10247212D01*
X32591609Y-10207212D02*
X32551609Y-10247212D01*
X32823773Y-11832121D02*
X32863773Y-11872121D01*
X32863773Y-11832121D02*
X32823773Y-11872121D01*
D13*
X21399118Y-12692490D02*
G75*
G03*
X21399118Y-12692490I-35000J0D01*
G01*
X21716618Y-12120990D02*
G75*
G03*
X21716618Y-12120990I-35000J0D01*
G01*
D14*
X20883618Y-13981689D02*
X20883618Y-14056689D01*
X20846118Y-14019189D02*
X20921118Y-14019189D01*
X20883618Y-14181689D02*
X20883618Y-14256689D01*
X20846118Y-14219189D02*
X20921118Y-14219189D01*
D15*
X21081973Y-11997546D02*
X21081973Y-11926834D01*
X21011262Y-11926834D01*
X21011262Y-11997546D01*
X21081973Y-11997546D01*
X21081973Y-12251546D02*
X21081973Y-12180834D01*
X21011262Y-12180834D01*
X21011262Y-12251546D01*
X21081973Y-12251546D01*
X21081973Y-12505546D02*
X21081973Y-12434834D01*
X21011262Y-12434834D01*
X21011262Y-12505546D01*
X21081973Y-12505546D01*
X21081973Y-12759546D02*
X21081973Y-12688834D01*
X21011262Y-12688834D01*
X21011262Y-12759546D01*
X21081973Y-12759546D01*
X21081973Y-13013546D02*
X21081973Y-12942834D01*
X21011262Y-12942834D01*
X21011262Y-13013546D01*
X21081973Y-13013546D01*
X21081973Y-13267546D02*
X21081973Y-13196834D01*
X21011262Y-13196834D01*
X21011262Y-13267546D01*
X21081973Y-13267546D01*
X21081973Y-13521546D02*
X21081973Y-13450834D01*
X21011262Y-13450834D01*
X21011262Y-13521546D01*
X21081973Y-13521546D01*
X22605973Y-11997546D02*
X22605973Y-11926834D01*
X22535262Y-11926834D01*
X22535262Y-11997546D01*
X22605973Y-11997546D01*
X22605973Y-12251546D02*
X22605973Y-12180834D01*
X22535262Y-12180834D01*
X22535262Y-12251546D01*
X22605973Y-12251546D01*
X22605973Y-12505546D02*
X22605973Y-12434834D01*
X22535262Y-12434834D01*
X22535262Y-12505546D01*
X22605973Y-12505546D01*
X22605973Y-12759546D02*
X22605973Y-12688834D01*
X22535262Y-12688834D01*
X22535262Y-12759546D01*
X22605973Y-12759546D01*
X22605973Y-13013546D02*
X22605973Y-12942834D01*
X22535262Y-12942834D01*
X22535262Y-13013546D01*
X22605973Y-13013546D01*
X22605973Y-13267546D02*
X22605973Y-13196834D01*
X22535262Y-13196834D01*
X22535262Y-13267546D01*
X22605973Y-13267546D01*
X22605973Y-13521546D02*
X22605973Y-13450834D01*
X22535262Y-13450834D01*
X22535262Y-13521546D01*
X22605973Y-13521546D01*
D16*
X19590929Y-14576879D02*
X19700929Y-14466879D01*
X19590929Y-14356879D01*
X19480929Y-14466879D01*
X19590929Y-14576879D01*
X20172363Y-12979402D02*
X20282363Y-12869402D01*
X20172363Y-12759402D01*
X20062363Y-12869402D01*
X20172363Y-12979402D01*
X23444870Y-12979402D02*
X23554870Y-12869402D01*
X23444870Y-12759402D01*
X23334870Y-12869402D01*
X23444870Y-12979402D01*
X24026305Y-14576879D02*
X24136305Y-14466879D01*
X24026305Y-14356879D01*
X23916305Y-14466879D01*
X24026305Y-14576879D01*
D11*
X10656094Y-17941932D02*
X10656094Y-17741932D01*
X10656094Y-17741932D02*
X10703713Y-17741932D01*
X10703713Y-17741932D02*
X10732285Y-17751455D01*
X10732285Y-17751455D02*
X10751332Y-17770503D01*
X10751332Y-17770503D02*
X10760856Y-17789551D01*
X10760856Y-17789551D02*
X10770380Y-17827646D01*
X10770380Y-17827646D02*
X10770380Y-17856217D01*
X10770380Y-17856217D02*
X10760856Y-17894312D01*
X10760856Y-17894312D02*
X10751332Y-17913360D01*
X10751332Y-17913360D02*
X10732285Y-17932408D01*
X10732285Y-17932408D02*
X10703713Y-17941932D01*
X10703713Y-17941932D02*
X10656094Y-17941932D01*
X10856094Y-17941932D02*
X10856094Y-17808598D01*
X10856094Y-17846693D02*
X10865618Y-17827646D01*
X10865618Y-17827646D02*
X10875142Y-17818122D01*
X10875142Y-17818122D02*
X10894189Y-17808598D01*
X10894189Y-17808598D02*
X10913237Y-17808598D01*
X10979904Y-17941932D02*
X10979904Y-17808598D01*
X10979904Y-17741932D02*
X10970380Y-17751455D01*
X10970380Y-17751455D02*
X10979904Y-17760979D01*
X10979904Y-17760979D02*
X10989427Y-17751455D01*
X10989427Y-17751455D02*
X10979904Y-17741932D01*
X10979904Y-17741932D02*
X10979904Y-17760979D01*
X11103713Y-17941932D02*
X11084666Y-17932408D01*
X11084666Y-17932408D02*
X11075142Y-17913360D01*
X11075142Y-17913360D02*
X11075142Y-17741932D01*
X11208475Y-17941932D02*
X11189427Y-17932408D01*
X11189427Y-17932408D02*
X11179904Y-17913360D01*
X11179904Y-17913360D02*
X11179904Y-17741932D01*
X11437046Y-17941932D02*
X11437046Y-17741932D01*
X11437046Y-17741932D02*
X11503713Y-17884789D01*
X11503713Y-17884789D02*
X11570380Y-17741932D01*
X11570380Y-17741932D02*
X11570380Y-17941932D01*
X11751332Y-17941932D02*
X11751332Y-17837170D01*
X11751332Y-17837170D02*
X11741808Y-17818122D01*
X11741808Y-17818122D02*
X11722761Y-17808598D01*
X11722761Y-17808598D02*
X11684665Y-17808598D01*
X11684665Y-17808598D02*
X11665618Y-17818122D01*
X11751332Y-17932408D02*
X11732285Y-17941932D01*
X11732285Y-17941932D02*
X11684665Y-17941932D01*
X11684665Y-17941932D02*
X11665618Y-17932408D01*
X11665618Y-17932408D02*
X11656094Y-17913360D01*
X11656094Y-17913360D02*
X11656094Y-17894312D01*
X11656094Y-17894312D02*
X11665618Y-17875265D01*
X11665618Y-17875265D02*
X11684665Y-17865741D01*
X11684665Y-17865741D02*
X11732285Y-17865741D01*
X11732285Y-17865741D02*
X11751332Y-17856217D01*
X11846570Y-17808598D02*
X11846570Y-18008598D01*
X11846570Y-17818122D02*
X11865618Y-17808598D01*
X11865618Y-17808598D02*
X11903713Y-17808598D01*
X11903713Y-17808598D02*
X11922761Y-17818122D01*
X11922761Y-17818122D02*
X11932285Y-17827646D01*
X11932285Y-17827646D02*
X11941808Y-17846693D01*
X11941808Y-17846693D02*
X11941808Y-17903836D01*
X11941808Y-17903836D02*
X11932285Y-17922884D01*
X11932285Y-17922884D02*
X11922761Y-17932408D01*
X11922761Y-17932408D02*
X11903713Y-17941932D01*
X11903713Y-17941932D02*
X11865618Y-17941932D01*
X11865618Y-17941932D02*
X11846570Y-17932408D01*
X12027523Y-17922884D02*
X12037046Y-17932408D01*
X12037046Y-17932408D02*
X12027523Y-17941932D01*
X12027523Y-17941932D02*
X12017999Y-17932408D01*
X12017999Y-17932408D02*
X12027523Y-17922884D01*
X12027523Y-17922884D02*
X12027523Y-17941932D01*
X12027523Y-17818122D02*
X12037046Y-17827646D01*
X12037046Y-17827646D02*
X12027523Y-17837170D01*
X12027523Y-17837170D02*
X12017999Y-17827646D01*
X12017999Y-17827646D02*
X12027523Y-17818122D01*
X12027523Y-17818122D02*
X12027523Y-17837170D01*
D12*
X10355317Y-18250448D02*
X10395317Y-18290448D01*
X10395317Y-18250448D02*
X10355317Y-18290448D01*
D11*
X10694189Y-18161932D02*
X10713237Y-18161932D01*
X10713237Y-18161932D02*
X10732285Y-18171455D01*
X10732285Y-18171455D02*
X10741808Y-18180979D01*
X10741808Y-18180979D02*
X10751332Y-18200027D01*
X10751332Y-18200027D02*
X10760856Y-18238122D01*
X10760856Y-18238122D02*
X10760856Y-18285741D01*
X10760856Y-18285741D02*
X10751332Y-18323836D01*
X10751332Y-18323836D02*
X10741808Y-18342884D01*
X10741808Y-18342884D02*
X10732285Y-18352408D01*
X10732285Y-18352408D02*
X10713237Y-18361932D01*
X10713237Y-18361932D02*
X10694189Y-18361932D01*
X10694189Y-18361932D02*
X10675142Y-18352408D01*
X10675142Y-18352408D02*
X10665618Y-18342884D01*
X10665618Y-18342884D02*
X10656094Y-18323836D01*
X10656094Y-18323836D02*
X10646570Y-18285741D01*
X10646570Y-18285741D02*
X10646570Y-18238122D01*
X10646570Y-18238122D02*
X10656094Y-18200027D01*
X10656094Y-18200027D02*
X10665618Y-18180979D01*
X10665618Y-18180979D02*
X10675142Y-18171455D01*
X10675142Y-18171455D02*
X10694189Y-18161932D01*
X10846570Y-18342884D02*
X10856094Y-18352408D01*
X10856094Y-18352408D02*
X10846570Y-18361932D01*
X10846570Y-18361932D02*
X10837047Y-18352408D01*
X10837047Y-18352408D02*
X10846570Y-18342884D01*
X10846570Y-18342884D02*
X10846570Y-18361932D01*
X11027523Y-18228598D02*
X11027523Y-18361932D01*
X10979904Y-18152408D02*
X10932285Y-18295265D01*
X10932285Y-18295265D02*
X11056094Y-18295265D01*
X11170380Y-18161932D02*
X11189427Y-18161932D01*
X11189427Y-18161932D02*
X11208475Y-18171455D01*
X11208475Y-18171455D02*
X11217999Y-18180979D01*
X11217999Y-18180979D02*
X11227523Y-18200027D01*
X11227523Y-18200027D02*
X11237046Y-18238122D01*
X11237046Y-18238122D02*
X11237046Y-18285741D01*
X11237046Y-18285741D02*
X11227523Y-18323836D01*
X11227523Y-18323836D02*
X11217999Y-18342884D01*
X11217999Y-18342884D02*
X11208475Y-18352408D01*
X11208475Y-18352408D02*
X11189427Y-18361932D01*
X11189427Y-18361932D02*
X11170380Y-18361932D01*
X11170380Y-18361932D02*
X11151332Y-18352408D01*
X11151332Y-18352408D02*
X11141808Y-18342884D01*
X11141808Y-18342884D02*
X11132285Y-18323836D01*
X11132285Y-18323836D02*
X11122761Y-18285741D01*
X11122761Y-18285741D02*
X11122761Y-18238122D01*
X11122761Y-18238122D02*
X11132285Y-18200027D01*
X11132285Y-18200027D02*
X11141808Y-18180979D01*
X11141808Y-18180979D02*
X11151332Y-18171455D01*
X11151332Y-18171455D02*
X11170380Y-18161932D01*
X11360856Y-18161932D02*
X11379904Y-18161932D01*
X11379904Y-18161932D02*
X11398951Y-18171455D01*
X11398951Y-18171455D02*
X11408475Y-18180979D01*
X11408475Y-18180979D02*
X11417999Y-18200027D01*
X11417999Y-18200027D02*
X11427523Y-18238122D01*
X11427523Y-18238122D02*
X11427523Y-18285741D01*
X11427523Y-18285741D02*
X11417999Y-18323836D01*
X11417999Y-18323836D02*
X11408475Y-18342884D01*
X11408475Y-18342884D02*
X11398951Y-18352408D01*
X11398951Y-18352408D02*
X11379904Y-18361932D01*
X11379904Y-18361932D02*
X11360856Y-18361932D01*
X11360856Y-18361932D02*
X11341808Y-18352408D01*
X11341808Y-18352408D02*
X11332285Y-18342884D01*
X11332285Y-18342884D02*
X11322761Y-18323836D01*
X11322761Y-18323836D02*
X11313237Y-18285741D01*
X11313237Y-18285741D02*
X11313237Y-18238122D01*
X11313237Y-18238122D02*
X11322761Y-18200027D01*
X11322761Y-18200027D02*
X11332285Y-18180979D01*
X11332285Y-18180979D02*
X11341808Y-18171455D01*
X11341808Y-18171455D02*
X11360856Y-18161932D01*
X11513237Y-18361932D02*
X11513237Y-18228598D01*
X11513237Y-18247646D02*
X11522761Y-18238122D01*
X11522761Y-18238122D02*
X11541808Y-18228598D01*
X11541808Y-18228598D02*
X11570380Y-18228598D01*
X11570380Y-18228598D02*
X11589427Y-18238122D01*
X11589427Y-18238122D02*
X11598951Y-18257170D01*
X11598951Y-18257170D02*
X11598951Y-18361932D01*
X11598951Y-18257170D02*
X11608475Y-18238122D01*
X11608475Y-18238122D02*
X11627523Y-18228598D01*
X11627523Y-18228598D02*
X11656094Y-18228598D01*
X11656094Y-18228598D02*
X11675142Y-18238122D01*
X11675142Y-18238122D02*
X11684666Y-18257170D01*
X11684666Y-18257170D02*
X11684666Y-18361932D01*
X11779904Y-18361932D02*
X11779904Y-18228598D01*
X11779904Y-18247646D02*
X11789427Y-18238122D01*
X11789427Y-18238122D02*
X11808475Y-18228598D01*
X11808475Y-18228598D02*
X11837047Y-18228598D01*
X11837047Y-18228598D02*
X11856094Y-18238122D01*
X11856094Y-18238122D02*
X11865618Y-18257170D01*
X11865618Y-18257170D02*
X11865618Y-18361932D01*
X11865618Y-18257170D02*
X11875142Y-18238122D01*
X11875142Y-18238122D02*
X11894189Y-18228598D01*
X11894189Y-18228598D02*
X11922761Y-18228598D01*
X11922761Y-18228598D02*
X11941808Y-18238122D01*
X11941808Y-18238122D02*
X11951332Y-18257170D01*
X11951332Y-18257170D02*
X11951332Y-18361932D01*
X12341808Y-18152408D02*
X12170380Y-18409551D01*
X12598951Y-18161932D02*
X12617999Y-18161932D01*
X12617999Y-18161932D02*
X12637047Y-18171455D01*
X12637047Y-18171455D02*
X12646570Y-18180979D01*
X12646570Y-18180979D02*
X12656094Y-18200027D01*
X12656094Y-18200027D02*
X12665618Y-18238122D01*
X12665618Y-18238122D02*
X12665618Y-18285741D01*
X12665618Y-18285741D02*
X12656094Y-18323836D01*
X12656094Y-18323836D02*
X12646570Y-18342884D01*
X12646570Y-18342884D02*
X12637047Y-18352408D01*
X12637047Y-18352408D02*
X12617999Y-18361932D01*
X12617999Y-18361932D02*
X12598951Y-18361932D01*
X12598951Y-18361932D02*
X12579904Y-18352408D01*
X12579904Y-18352408D02*
X12570380Y-18342884D01*
X12570380Y-18342884D02*
X12560856Y-18323836D01*
X12560856Y-18323836D02*
X12551332Y-18285741D01*
X12551332Y-18285741D02*
X12551332Y-18238122D01*
X12551332Y-18238122D02*
X12560856Y-18200027D01*
X12560856Y-18200027D02*
X12570380Y-18180979D01*
X12570380Y-18180979D02*
X12579904Y-18171455D01*
X12579904Y-18171455D02*
X12598951Y-18161932D01*
X12751332Y-18342884D02*
X12760856Y-18352408D01*
X12760856Y-18352408D02*
X12751332Y-18361932D01*
X12751332Y-18361932D02*
X12741809Y-18352408D01*
X12741809Y-18352408D02*
X12751332Y-18342884D01*
X12751332Y-18342884D02*
X12751332Y-18361932D01*
X12884666Y-18161932D02*
X12903713Y-18161932D01*
X12903713Y-18161932D02*
X12922761Y-18171455D01*
X12922761Y-18171455D02*
X12932285Y-18180979D01*
X12932285Y-18180979D02*
X12941809Y-18200027D01*
X12941809Y-18200027D02*
X12951332Y-18238122D01*
X12951332Y-18238122D02*
X12951332Y-18285741D01*
X12951332Y-18285741D02*
X12941809Y-18323836D01*
X12941809Y-18323836D02*
X12932285Y-18342884D01*
X12932285Y-18342884D02*
X12922761Y-18352408D01*
X12922761Y-18352408D02*
X12903713Y-18361932D01*
X12903713Y-18361932D02*
X12884666Y-18361932D01*
X12884666Y-18361932D02*
X12865618Y-18352408D01*
X12865618Y-18352408D02*
X12856094Y-18342884D01*
X12856094Y-18342884D02*
X12846570Y-18323836D01*
X12846570Y-18323836D02*
X12837047Y-18285741D01*
X12837047Y-18285741D02*
X12837047Y-18238122D01*
X12837047Y-18238122D02*
X12846570Y-18200027D01*
X12846570Y-18200027D02*
X12856094Y-18180979D01*
X12856094Y-18180979D02*
X12865618Y-18171455D01*
X12865618Y-18171455D02*
X12884666Y-18161932D01*
X13141809Y-18361932D02*
X13027523Y-18361932D01*
X13084666Y-18361932D02*
X13084666Y-18161932D01*
X13084666Y-18161932D02*
X13065618Y-18190503D01*
X13065618Y-18190503D02*
X13046570Y-18209551D01*
X13046570Y-18209551D02*
X13027523Y-18219074D01*
X13322761Y-18161932D02*
X13227523Y-18161932D01*
X13227523Y-18161932D02*
X13217999Y-18257170D01*
X13217999Y-18257170D02*
X13227523Y-18247646D01*
X13227523Y-18247646D02*
X13246570Y-18238122D01*
X13246570Y-18238122D02*
X13294190Y-18238122D01*
X13294190Y-18238122D02*
X13313237Y-18247646D01*
X13313237Y-18247646D02*
X13322761Y-18257170D01*
X13322761Y-18257170D02*
X13332285Y-18276217D01*
X13332285Y-18276217D02*
X13332285Y-18323836D01*
X13332285Y-18323836D02*
X13322761Y-18342884D01*
X13322761Y-18342884D02*
X13313237Y-18352408D01*
X13313237Y-18352408D02*
X13294190Y-18361932D01*
X13294190Y-18361932D02*
X13246570Y-18361932D01*
X13246570Y-18361932D02*
X13227523Y-18352408D01*
X13227523Y-18352408D02*
X13217999Y-18342884D01*
X13398951Y-18161932D02*
X13532285Y-18161932D01*
X13532285Y-18161932D02*
X13446570Y-18361932D01*
X13598951Y-18161932D02*
X13598951Y-18200027D01*
X13675142Y-18161932D02*
X13675142Y-18200027D01*
X13970380Y-18438122D02*
X13960856Y-18428598D01*
X13960856Y-18428598D02*
X13941809Y-18400027D01*
X13941809Y-18400027D02*
X13932285Y-18380979D01*
X13932285Y-18380979D02*
X13922761Y-18352408D01*
X13922761Y-18352408D02*
X13913237Y-18304789D01*
X13913237Y-18304789D02*
X13913237Y-18266693D01*
X13913237Y-18266693D02*
X13922761Y-18219074D01*
X13922761Y-18219074D02*
X13932285Y-18190503D01*
X13932285Y-18190503D02*
X13941809Y-18171455D01*
X13941809Y-18171455D02*
X13960856Y-18142884D01*
X13960856Y-18142884D02*
X13970380Y-18133360D01*
X14151332Y-18361932D02*
X14037047Y-18361932D01*
X14094190Y-18361932D02*
X14094190Y-18161932D01*
X14094190Y-18161932D02*
X14075142Y-18190503D01*
X14075142Y-18190503D02*
X14056094Y-18209551D01*
X14056094Y-18209551D02*
X14037047Y-18219074D01*
X14341809Y-18361932D02*
X14227523Y-18361932D01*
X14284666Y-18361932D02*
X14284666Y-18161932D01*
X14284666Y-18161932D02*
X14265618Y-18190503D01*
X14265618Y-18190503D02*
X14246571Y-18209551D01*
X14246571Y-18209551D02*
X14227523Y-18219074D01*
X14408475Y-18161932D02*
X14532285Y-18161932D01*
X14532285Y-18161932D02*
X14465618Y-18238122D01*
X14465618Y-18238122D02*
X14494190Y-18238122D01*
X14494190Y-18238122D02*
X14513237Y-18247646D01*
X14513237Y-18247646D02*
X14522761Y-18257170D01*
X14522761Y-18257170D02*
X14532285Y-18276217D01*
X14532285Y-18276217D02*
X14532285Y-18323836D01*
X14532285Y-18323836D02*
X14522761Y-18342884D01*
X14522761Y-18342884D02*
X14513237Y-18352408D01*
X14513237Y-18352408D02*
X14494190Y-18361932D01*
X14494190Y-18361932D02*
X14437047Y-18361932D01*
X14437047Y-18361932D02*
X14417999Y-18352408D01*
X14417999Y-18352408D02*
X14408475Y-18342884D01*
X14770380Y-18361932D02*
X14770380Y-18161932D01*
X14856094Y-18361932D02*
X14856094Y-18257170D01*
X14856094Y-18257170D02*
X14846571Y-18238122D01*
X14846571Y-18238122D02*
X14827523Y-18228598D01*
X14827523Y-18228598D02*
X14798952Y-18228598D01*
X14798952Y-18228598D02*
X14779904Y-18238122D01*
X14779904Y-18238122D02*
X14770380Y-18247646D01*
X14979904Y-18361932D02*
X14960856Y-18352408D01*
X14960856Y-18352408D02*
X14951333Y-18342884D01*
X14951333Y-18342884D02*
X14941809Y-18323836D01*
X14941809Y-18323836D02*
X14941809Y-18266693D01*
X14941809Y-18266693D02*
X14951333Y-18247646D01*
X14951333Y-18247646D02*
X14960856Y-18238122D01*
X14960856Y-18238122D02*
X14979904Y-18228598D01*
X14979904Y-18228598D02*
X15008475Y-18228598D01*
X15008475Y-18228598D02*
X15027523Y-18238122D01*
X15027523Y-18238122D02*
X15037047Y-18247646D01*
X15037047Y-18247646D02*
X15046571Y-18266693D01*
X15046571Y-18266693D02*
X15046571Y-18323836D01*
X15046571Y-18323836D02*
X15037047Y-18342884D01*
X15037047Y-18342884D02*
X15027523Y-18352408D01*
X15027523Y-18352408D02*
X15008475Y-18361932D01*
X15008475Y-18361932D02*
X14979904Y-18361932D01*
X15160856Y-18361932D02*
X15141809Y-18352408D01*
X15141809Y-18352408D02*
X15132285Y-18333360D01*
X15132285Y-18333360D02*
X15132285Y-18161932D01*
X15313237Y-18352408D02*
X15294190Y-18361932D01*
X15294190Y-18361932D02*
X15256094Y-18361932D01*
X15256094Y-18361932D02*
X15237047Y-18352408D01*
X15237047Y-18352408D02*
X15227523Y-18333360D01*
X15227523Y-18333360D02*
X15227523Y-18257170D01*
X15227523Y-18257170D02*
X15237047Y-18238122D01*
X15237047Y-18238122D02*
X15256094Y-18228598D01*
X15256094Y-18228598D02*
X15294190Y-18228598D01*
X15294190Y-18228598D02*
X15313237Y-18238122D01*
X15313237Y-18238122D02*
X15322761Y-18257170D01*
X15322761Y-18257170D02*
X15322761Y-18276217D01*
X15322761Y-18276217D02*
X15227523Y-18295265D01*
X15398952Y-18352408D02*
X15417999Y-18361932D01*
X15417999Y-18361932D02*
X15456094Y-18361932D01*
X15456094Y-18361932D02*
X15475142Y-18352408D01*
X15475142Y-18352408D02*
X15484666Y-18333360D01*
X15484666Y-18333360D02*
X15484666Y-18323836D01*
X15484666Y-18323836D02*
X15475142Y-18304789D01*
X15475142Y-18304789D02*
X15456094Y-18295265D01*
X15456094Y-18295265D02*
X15427523Y-18295265D01*
X15427523Y-18295265D02*
X15408475Y-18285741D01*
X15408475Y-18285741D02*
X15398952Y-18266693D01*
X15398952Y-18266693D02*
X15398952Y-18257170D01*
X15398952Y-18257170D02*
X15408475Y-18238122D01*
X15408475Y-18238122D02*
X15427523Y-18228598D01*
X15427523Y-18228598D02*
X15456094Y-18228598D01*
X15456094Y-18228598D02*
X15475142Y-18238122D01*
X15551333Y-18438122D02*
X15560856Y-18428598D01*
X15560856Y-18428598D02*
X15579904Y-18400027D01*
X15579904Y-18400027D02*
X15589428Y-18380979D01*
X15589428Y-18380979D02*
X15598952Y-18352408D01*
X15598952Y-18352408D02*
X15608475Y-18304789D01*
X15608475Y-18304789D02*
X15608475Y-18266693D01*
X15608475Y-18266693D02*
X15598952Y-18219074D01*
X15598952Y-18219074D02*
X15589428Y-18190503D01*
X15589428Y-18190503D02*
X15579904Y-18171455D01*
X15579904Y-18171455D02*
X15560856Y-18142884D01*
X15560856Y-18142884D02*
X15551333Y-18133360D01*
D13*
X10395317Y-18534448D02*
G75*
G03*
X10395317Y-18534448I-35000J0D01*
G01*
D11*
X10694189Y-18425932D02*
X10713237Y-18425932D01*
X10713237Y-18425932D02*
X10732285Y-18435455D01*
X10732285Y-18435455D02*
X10741808Y-18444979D01*
X10741808Y-18444979D02*
X10751332Y-18464027D01*
X10751332Y-18464027D02*
X10760856Y-18502122D01*
X10760856Y-18502122D02*
X10760856Y-18549741D01*
X10760856Y-18549741D02*
X10751332Y-18587836D01*
X10751332Y-18587836D02*
X10741808Y-18606884D01*
X10741808Y-18606884D02*
X10732285Y-18616408D01*
X10732285Y-18616408D02*
X10713237Y-18625932D01*
X10713237Y-18625932D02*
X10694189Y-18625932D01*
X10694189Y-18625932D02*
X10675142Y-18616408D01*
X10675142Y-18616408D02*
X10665618Y-18606884D01*
X10665618Y-18606884D02*
X10656094Y-18587836D01*
X10656094Y-18587836D02*
X10646570Y-18549741D01*
X10646570Y-18549741D02*
X10646570Y-18502122D01*
X10646570Y-18502122D02*
X10656094Y-18464027D01*
X10656094Y-18464027D02*
X10665618Y-18444979D01*
X10665618Y-18444979D02*
X10675142Y-18435455D01*
X10675142Y-18435455D02*
X10694189Y-18425932D01*
X10846570Y-18606884D02*
X10856094Y-18616408D01*
X10856094Y-18616408D02*
X10846570Y-18625932D01*
X10846570Y-18625932D02*
X10837047Y-18616408D01*
X10837047Y-18616408D02*
X10846570Y-18606884D01*
X10846570Y-18606884D02*
X10846570Y-18625932D01*
X10922761Y-18425932D02*
X11056094Y-18425932D01*
X11056094Y-18425932D02*
X10970380Y-18625932D01*
X11170380Y-18425932D02*
X11189427Y-18425932D01*
X11189427Y-18425932D02*
X11208475Y-18435455D01*
X11208475Y-18435455D02*
X11217999Y-18444979D01*
X11217999Y-18444979D02*
X11227523Y-18464027D01*
X11227523Y-18464027D02*
X11237046Y-18502122D01*
X11237046Y-18502122D02*
X11237046Y-18549741D01*
X11237046Y-18549741D02*
X11227523Y-18587836D01*
X11227523Y-18587836D02*
X11217999Y-18606884D01*
X11217999Y-18606884D02*
X11208475Y-18616408D01*
X11208475Y-18616408D02*
X11189427Y-18625932D01*
X11189427Y-18625932D02*
X11170380Y-18625932D01*
X11170380Y-18625932D02*
X11151332Y-18616408D01*
X11151332Y-18616408D02*
X11141808Y-18606884D01*
X11141808Y-18606884D02*
X11132285Y-18587836D01*
X11132285Y-18587836D02*
X11122761Y-18549741D01*
X11122761Y-18549741D02*
X11122761Y-18502122D01*
X11122761Y-18502122D02*
X11132285Y-18464027D01*
X11132285Y-18464027D02*
X11141808Y-18444979D01*
X11141808Y-18444979D02*
X11151332Y-18435455D01*
X11151332Y-18435455D02*
X11170380Y-18425932D01*
X11360856Y-18425932D02*
X11379904Y-18425932D01*
X11379904Y-18425932D02*
X11398951Y-18435455D01*
X11398951Y-18435455D02*
X11408475Y-18444979D01*
X11408475Y-18444979D02*
X11417999Y-18464027D01*
X11417999Y-18464027D02*
X11427523Y-18502122D01*
X11427523Y-18502122D02*
X11427523Y-18549741D01*
X11427523Y-18549741D02*
X11417999Y-18587836D01*
X11417999Y-18587836D02*
X11408475Y-18606884D01*
X11408475Y-18606884D02*
X11398951Y-18616408D01*
X11398951Y-18616408D02*
X11379904Y-18625932D01*
X11379904Y-18625932D02*
X11360856Y-18625932D01*
X11360856Y-18625932D02*
X11341808Y-18616408D01*
X11341808Y-18616408D02*
X11332285Y-18606884D01*
X11332285Y-18606884D02*
X11322761Y-18587836D01*
X11322761Y-18587836D02*
X11313237Y-18549741D01*
X11313237Y-18549741D02*
X11313237Y-18502122D01*
X11313237Y-18502122D02*
X11322761Y-18464027D01*
X11322761Y-18464027D02*
X11332285Y-18444979D01*
X11332285Y-18444979D02*
X11341808Y-18435455D01*
X11341808Y-18435455D02*
X11360856Y-18425932D01*
X11513237Y-18625932D02*
X11513237Y-18492598D01*
X11513237Y-18511646D02*
X11522761Y-18502122D01*
X11522761Y-18502122D02*
X11541808Y-18492598D01*
X11541808Y-18492598D02*
X11570380Y-18492598D01*
X11570380Y-18492598D02*
X11589427Y-18502122D01*
X11589427Y-18502122D02*
X11598951Y-18521170D01*
X11598951Y-18521170D02*
X11598951Y-18625932D01*
X11598951Y-18521170D02*
X11608475Y-18502122D01*
X11608475Y-18502122D02*
X11627523Y-18492598D01*
X11627523Y-18492598D02*
X11656094Y-18492598D01*
X11656094Y-18492598D02*
X11675142Y-18502122D01*
X11675142Y-18502122D02*
X11684666Y-18521170D01*
X11684666Y-18521170D02*
X11684666Y-18625932D01*
X11779904Y-18625932D02*
X11779904Y-18492598D01*
X11779904Y-18511646D02*
X11789427Y-18502122D01*
X11789427Y-18502122D02*
X11808475Y-18492598D01*
X11808475Y-18492598D02*
X11837047Y-18492598D01*
X11837047Y-18492598D02*
X11856094Y-18502122D01*
X11856094Y-18502122D02*
X11865618Y-18521170D01*
X11865618Y-18521170D02*
X11865618Y-18625932D01*
X11865618Y-18521170D02*
X11875142Y-18502122D01*
X11875142Y-18502122D02*
X11894189Y-18492598D01*
X11894189Y-18492598D02*
X11922761Y-18492598D01*
X11922761Y-18492598D02*
X11941808Y-18502122D01*
X11941808Y-18502122D02*
X11951332Y-18521170D01*
X11951332Y-18521170D02*
X11951332Y-18625932D01*
X12341808Y-18416408D02*
X12170380Y-18673551D01*
X12598951Y-18425932D02*
X12617999Y-18425932D01*
X12617999Y-18425932D02*
X12637047Y-18435455D01*
X12637047Y-18435455D02*
X12646570Y-18444979D01*
X12646570Y-18444979D02*
X12656094Y-18464027D01*
X12656094Y-18464027D02*
X12665618Y-18502122D01*
X12665618Y-18502122D02*
X12665618Y-18549741D01*
X12665618Y-18549741D02*
X12656094Y-18587836D01*
X12656094Y-18587836D02*
X12646570Y-18606884D01*
X12646570Y-18606884D02*
X12637047Y-18616408D01*
X12637047Y-18616408D02*
X12617999Y-18625932D01*
X12617999Y-18625932D02*
X12598951Y-18625932D01*
X12598951Y-18625932D02*
X12579904Y-18616408D01*
X12579904Y-18616408D02*
X12570380Y-18606884D01*
X12570380Y-18606884D02*
X12560856Y-18587836D01*
X12560856Y-18587836D02*
X12551332Y-18549741D01*
X12551332Y-18549741D02*
X12551332Y-18502122D01*
X12551332Y-18502122D02*
X12560856Y-18464027D01*
X12560856Y-18464027D02*
X12570380Y-18444979D01*
X12570380Y-18444979D02*
X12579904Y-18435455D01*
X12579904Y-18435455D02*
X12598951Y-18425932D01*
X12751332Y-18606884D02*
X12760856Y-18616408D01*
X12760856Y-18616408D02*
X12751332Y-18625932D01*
X12751332Y-18625932D02*
X12741809Y-18616408D01*
X12741809Y-18616408D02*
X12751332Y-18606884D01*
X12751332Y-18606884D02*
X12751332Y-18625932D01*
X12884666Y-18425932D02*
X12903713Y-18425932D01*
X12903713Y-18425932D02*
X12922761Y-18435455D01*
X12922761Y-18435455D02*
X12932285Y-18444979D01*
X12932285Y-18444979D02*
X12941809Y-18464027D01*
X12941809Y-18464027D02*
X12951332Y-18502122D01*
X12951332Y-18502122D02*
X12951332Y-18549741D01*
X12951332Y-18549741D02*
X12941809Y-18587836D01*
X12941809Y-18587836D02*
X12932285Y-18606884D01*
X12932285Y-18606884D02*
X12922761Y-18616408D01*
X12922761Y-18616408D02*
X12903713Y-18625932D01*
X12903713Y-18625932D02*
X12884666Y-18625932D01*
X12884666Y-18625932D02*
X12865618Y-18616408D01*
X12865618Y-18616408D02*
X12856094Y-18606884D01*
X12856094Y-18606884D02*
X12846570Y-18587836D01*
X12846570Y-18587836D02*
X12837047Y-18549741D01*
X12837047Y-18549741D02*
X12837047Y-18502122D01*
X12837047Y-18502122D02*
X12846570Y-18464027D01*
X12846570Y-18464027D02*
X12856094Y-18444979D01*
X12856094Y-18444979D02*
X12865618Y-18435455D01*
X12865618Y-18435455D02*
X12884666Y-18425932D01*
X13027523Y-18444979D02*
X13037047Y-18435455D01*
X13037047Y-18435455D02*
X13056094Y-18425932D01*
X13056094Y-18425932D02*
X13103713Y-18425932D01*
X13103713Y-18425932D02*
X13122761Y-18435455D01*
X13122761Y-18435455D02*
X13132285Y-18444979D01*
X13132285Y-18444979D02*
X13141809Y-18464027D01*
X13141809Y-18464027D02*
X13141809Y-18483074D01*
X13141809Y-18483074D02*
X13132285Y-18511646D01*
X13132285Y-18511646D02*
X13017999Y-18625932D01*
X13017999Y-18625932D02*
X13141809Y-18625932D01*
X13208475Y-18425932D02*
X13341809Y-18425932D01*
X13341809Y-18425932D02*
X13256094Y-18625932D01*
X13503713Y-18425932D02*
X13465618Y-18425932D01*
X13465618Y-18425932D02*
X13446570Y-18435455D01*
X13446570Y-18435455D02*
X13437047Y-18444979D01*
X13437047Y-18444979D02*
X13417999Y-18473551D01*
X13417999Y-18473551D02*
X13408475Y-18511646D01*
X13408475Y-18511646D02*
X13408475Y-18587836D01*
X13408475Y-18587836D02*
X13417999Y-18606884D01*
X13417999Y-18606884D02*
X13427523Y-18616408D01*
X13427523Y-18616408D02*
X13446570Y-18625932D01*
X13446570Y-18625932D02*
X13484666Y-18625932D01*
X13484666Y-18625932D02*
X13503713Y-18616408D01*
X13503713Y-18616408D02*
X13513237Y-18606884D01*
X13513237Y-18606884D02*
X13522761Y-18587836D01*
X13522761Y-18587836D02*
X13522761Y-18540217D01*
X13522761Y-18540217D02*
X13513237Y-18521170D01*
X13513237Y-18521170D02*
X13503713Y-18511646D01*
X13503713Y-18511646D02*
X13484666Y-18502122D01*
X13484666Y-18502122D02*
X13446570Y-18502122D01*
X13446570Y-18502122D02*
X13427523Y-18511646D01*
X13427523Y-18511646D02*
X13417999Y-18521170D01*
X13417999Y-18521170D02*
X13408475Y-18540217D01*
X13598951Y-18425932D02*
X13598951Y-18464027D01*
X13675142Y-18425932D02*
X13675142Y-18464027D01*
X13970380Y-18702122D02*
X13960856Y-18692598D01*
X13960856Y-18692598D02*
X13941809Y-18664027D01*
X13941809Y-18664027D02*
X13932285Y-18644979D01*
X13932285Y-18644979D02*
X13922761Y-18616408D01*
X13922761Y-18616408D02*
X13913237Y-18568789D01*
X13913237Y-18568789D02*
X13913237Y-18530693D01*
X13913237Y-18530693D02*
X13922761Y-18483074D01*
X13922761Y-18483074D02*
X13932285Y-18454503D01*
X13932285Y-18454503D02*
X13941809Y-18435455D01*
X13941809Y-18435455D02*
X13960856Y-18406884D01*
X13960856Y-18406884D02*
X13970380Y-18397360D01*
X14037047Y-18444979D02*
X14046571Y-18435455D01*
X14046571Y-18435455D02*
X14065618Y-18425932D01*
X14065618Y-18425932D02*
X14113237Y-18425932D01*
X14113237Y-18425932D02*
X14132285Y-18435455D01*
X14132285Y-18435455D02*
X14141809Y-18444979D01*
X14141809Y-18444979D02*
X14151332Y-18464027D01*
X14151332Y-18464027D02*
X14151332Y-18483074D01*
X14151332Y-18483074D02*
X14141809Y-18511646D01*
X14141809Y-18511646D02*
X14027523Y-18625932D01*
X14027523Y-18625932D02*
X14151332Y-18625932D01*
X14389428Y-18625932D02*
X14389428Y-18425932D01*
X14475142Y-18625932D02*
X14475142Y-18521170D01*
X14475142Y-18521170D02*
X14465618Y-18502122D01*
X14465618Y-18502122D02*
X14446571Y-18492598D01*
X14446571Y-18492598D02*
X14417999Y-18492598D01*
X14417999Y-18492598D02*
X14398952Y-18502122D01*
X14398952Y-18502122D02*
X14389428Y-18511646D01*
X14598952Y-18625932D02*
X14579904Y-18616408D01*
X14579904Y-18616408D02*
X14570380Y-18606884D01*
X14570380Y-18606884D02*
X14560856Y-18587836D01*
X14560856Y-18587836D02*
X14560856Y-18530693D01*
X14560856Y-18530693D02*
X14570380Y-18511646D01*
X14570380Y-18511646D02*
X14579904Y-18502122D01*
X14579904Y-18502122D02*
X14598952Y-18492598D01*
X14598952Y-18492598D02*
X14627523Y-18492598D01*
X14627523Y-18492598D02*
X14646571Y-18502122D01*
X14646571Y-18502122D02*
X14656094Y-18511646D01*
X14656094Y-18511646D02*
X14665618Y-18530693D01*
X14665618Y-18530693D02*
X14665618Y-18587836D01*
X14665618Y-18587836D02*
X14656094Y-18606884D01*
X14656094Y-18606884D02*
X14646571Y-18616408D01*
X14646571Y-18616408D02*
X14627523Y-18625932D01*
X14627523Y-18625932D02*
X14598952Y-18625932D01*
X14779904Y-18625932D02*
X14760856Y-18616408D01*
X14760856Y-18616408D02*
X14751333Y-18597360D01*
X14751333Y-18597360D02*
X14751333Y-18425932D01*
X14932285Y-18616408D02*
X14913237Y-18625932D01*
X14913237Y-18625932D02*
X14875142Y-18625932D01*
X14875142Y-18625932D02*
X14856094Y-18616408D01*
X14856094Y-18616408D02*
X14846571Y-18597360D01*
X14846571Y-18597360D02*
X14846571Y-18521170D01*
X14846571Y-18521170D02*
X14856094Y-18502122D01*
X14856094Y-18502122D02*
X14875142Y-18492598D01*
X14875142Y-18492598D02*
X14913237Y-18492598D01*
X14913237Y-18492598D02*
X14932285Y-18502122D01*
X14932285Y-18502122D02*
X14941809Y-18521170D01*
X14941809Y-18521170D02*
X14941809Y-18540217D01*
X14941809Y-18540217D02*
X14846571Y-18559265D01*
X15017999Y-18616408D02*
X15037047Y-18625932D01*
X15037047Y-18625932D02*
X15075142Y-18625932D01*
X15075142Y-18625932D02*
X15094190Y-18616408D01*
X15094190Y-18616408D02*
X15103714Y-18597360D01*
X15103714Y-18597360D02*
X15103714Y-18587836D01*
X15103714Y-18587836D02*
X15094190Y-18568789D01*
X15094190Y-18568789D02*
X15075142Y-18559265D01*
X15075142Y-18559265D02*
X15046571Y-18559265D01*
X15046571Y-18559265D02*
X15027523Y-18549741D01*
X15027523Y-18549741D02*
X15017999Y-18530693D01*
X15017999Y-18530693D02*
X15017999Y-18521170D01*
X15017999Y-18521170D02*
X15027523Y-18502122D01*
X15027523Y-18502122D02*
X15046571Y-18492598D01*
X15046571Y-18492598D02*
X15075142Y-18492598D01*
X15075142Y-18492598D02*
X15094190Y-18502122D01*
X15170380Y-18702122D02*
X15179904Y-18692598D01*
X15179904Y-18692598D02*
X15198952Y-18664027D01*
X15198952Y-18664027D02*
X15208475Y-18644979D01*
X15208475Y-18644979D02*
X15217999Y-18616408D01*
X15217999Y-18616408D02*
X15227523Y-18568789D01*
X15227523Y-18568789D02*
X15227523Y-18530693D01*
X15227523Y-18530693D02*
X15217999Y-18483074D01*
X15217999Y-18483074D02*
X15208475Y-18454503D01*
X15208475Y-18454503D02*
X15198952Y-18435455D01*
X15198952Y-18435455D02*
X15179904Y-18406884D01*
X15179904Y-18406884D02*
X15170380Y-18397360D01*
D14*
X10357817Y-18760948D02*
X10357817Y-18835948D01*
X10320317Y-18798448D02*
X10395317Y-18798448D01*
D11*
X10694189Y-18689932D02*
X10713237Y-18689932D01*
X10713237Y-18689932D02*
X10732285Y-18699455D01*
X10732285Y-18699455D02*
X10741808Y-18708979D01*
X10741808Y-18708979D02*
X10751332Y-18728027D01*
X10751332Y-18728027D02*
X10760856Y-18766122D01*
X10760856Y-18766122D02*
X10760856Y-18813741D01*
X10760856Y-18813741D02*
X10751332Y-18851836D01*
X10751332Y-18851836D02*
X10741808Y-18870884D01*
X10741808Y-18870884D02*
X10732285Y-18880408D01*
X10732285Y-18880408D02*
X10713237Y-18889932D01*
X10713237Y-18889932D02*
X10694189Y-18889932D01*
X10694189Y-18889932D02*
X10675142Y-18880408D01*
X10675142Y-18880408D02*
X10665618Y-18870884D01*
X10665618Y-18870884D02*
X10656094Y-18851836D01*
X10656094Y-18851836D02*
X10646570Y-18813741D01*
X10646570Y-18813741D02*
X10646570Y-18766122D01*
X10646570Y-18766122D02*
X10656094Y-18728027D01*
X10656094Y-18728027D02*
X10665618Y-18708979D01*
X10665618Y-18708979D02*
X10675142Y-18699455D01*
X10675142Y-18699455D02*
X10694189Y-18689932D01*
X10846570Y-18870884D02*
X10856094Y-18880408D01*
X10856094Y-18880408D02*
X10846570Y-18889932D01*
X10846570Y-18889932D02*
X10837047Y-18880408D01*
X10837047Y-18880408D02*
X10846570Y-18870884D01*
X10846570Y-18870884D02*
X10846570Y-18889932D01*
X10922761Y-18689932D02*
X11056094Y-18689932D01*
X11056094Y-18689932D02*
X10970380Y-18889932D01*
X11227523Y-18689932D02*
X11132285Y-18689932D01*
X11132285Y-18689932D02*
X11122761Y-18785170D01*
X11122761Y-18785170D02*
X11132285Y-18775646D01*
X11132285Y-18775646D02*
X11151332Y-18766122D01*
X11151332Y-18766122D02*
X11198951Y-18766122D01*
X11198951Y-18766122D02*
X11217999Y-18775646D01*
X11217999Y-18775646D02*
X11227523Y-18785170D01*
X11227523Y-18785170D02*
X11237046Y-18804217D01*
X11237046Y-18804217D02*
X11237046Y-18851836D01*
X11237046Y-18851836D02*
X11227523Y-18870884D01*
X11227523Y-18870884D02*
X11217999Y-18880408D01*
X11217999Y-18880408D02*
X11198951Y-18889932D01*
X11198951Y-18889932D02*
X11151332Y-18889932D01*
X11151332Y-18889932D02*
X11132285Y-18880408D01*
X11132285Y-18880408D02*
X11122761Y-18870884D01*
X11360856Y-18689932D02*
X11379904Y-18689932D01*
X11379904Y-18689932D02*
X11398951Y-18699455D01*
X11398951Y-18699455D02*
X11408475Y-18708979D01*
X11408475Y-18708979D02*
X11417999Y-18728027D01*
X11417999Y-18728027D02*
X11427523Y-18766122D01*
X11427523Y-18766122D02*
X11427523Y-18813741D01*
X11427523Y-18813741D02*
X11417999Y-18851836D01*
X11417999Y-18851836D02*
X11408475Y-18870884D01*
X11408475Y-18870884D02*
X11398951Y-18880408D01*
X11398951Y-18880408D02*
X11379904Y-18889932D01*
X11379904Y-18889932D02*
X11360856Y-18889932D01*
X11360856Y-18889932D02*
X11341808Y-18880408D01*
X11341808Y-18880408D02*
X11332285Y-18870884D01*
X11332285Y-18870884D02*
X11322761Y-18851836D01*
X11322761Y-18851836D02*
X11313237Y-18813741D01*
X11313237Y-18813741D02*
X11313237Y-18766122D01*
X11313237Y-18766122D02*
X11322761Y-18728027D01*
X11322761Y-18728027D02*
X11332285Y-18708979D01*
X11332285Y-18708979D02*
X11341808Y-18699455D01*
X11341808Y-18699455D02*
X11360856Y-18689932D01*
X11513237Y-18889932D02*
X11513237Y-18756598D01*
X11513237Y-18775646D02*
X11522761Y-18766122D01*
X11522761Y-18766122D02*
X11541808Y-18756598D01*
X11541808Y-18756598D02*
X11570380Y-18756598D01*
X11570380Y-18756598D02*
X11589427Y-18766122D01*
X11589427Y-18766122D02*
X11598951Y-18785170D01*
X11598951Y-18785170D02*
X11598951Y-18889932D01*
X11598951Y-18785170D02*
X11608475Y-18766122D01*
X11608475Y-18766122D02*
X11627523Y-18756598D01*
X11627523Y-18756598D02*
X11656094Y-18756598D01*
X11656094Y-18756598D02*
X11675142Y-18766122D01*
X11675142Y-18766122D02*
X11684666Y-18785170D01*
X11684666Y-18785170D02*
X11684666Y-18889932D01*
X11779904Y-18889932D02*
X11779904Y-18756598D01*
X11779904Y-18775646D02*
X11789427Y-18766122D01*
X11789427Y-18766122D02*
X11808475Y-18756598D01*
X11808475Y-18756598D02*
X11837047Y-18756598D01*
X11837047Y-18756598D02*
X11856094Y-18766122D01*
X11856094Y-18766122D02*
X11865618Y-18785170D01*
X11865618Y-18785170D02*
X11865618Y-18889932D01*
X11865618Y-18785170D02*
X11875142Y-18766122D01*
X11875142Y-18766122D02*
X11894189Y-18756598D01*
X11894189Y-18756598D02*
X11922761Y-18756598D01*
X11922761Y-18756598D02*
X11941808Y-18766122D01*
X11941808Y-18766122D02*
X11951332Y-18785170D01*
X11951332Y-18785170D02*
X11951332Y-18889932D01*
X12341808Y-18680408D02*
X12170380Y-18937551D01*
X12598951Y-18689932D02*
X12617999Y-18689932D01*
X12617999Y-18689932D02*
X12637047Y-18699455D01*
X12637047Y-18699455D02*
X12646570Y-18708979D01*
X12646570Y-18708979D02*
X12656094Y-18728027D01*
X12656094Y-18728027D02*
X12665618Y-18766122D01*
X12665618Y-18766122D02*
X12665618Y-18813741D01*
X12665618Y-18813741D02*
X12656094Y-18851836D01*
X12656094Y-18851836D02*
X12646570Y-18870884D01*
X12646570Y-18870884D02*
X12637047Y-18880408D01*
X12637047Y-18880408D02*
X12617999Y-18889932D01*
X12617999Y-18889932D02*
X12598951Y-18889932D01*
X12598951Y-18889932D02*
X12579904Y-18880408D01*
X12579904Y-18880408D02*
X12570380Y-18870884D01*
X12570380Y-18870884D02*
X12560856Y-18851836D01*
X12560856Y-18851836D02*
X12551332Y-18813741D01*
X12551332Y-18813741D02*
X12551332Y-18766122D01*
X12551332Y-18766122D02*
X12560856Y-18728027D01*
X12560856Y-18728027D02*
X12570380Y-18708979D01*
X12570380Y-18708979D02*
X12579904Y-18699455D01*
X12579904Y-18699455D02*
X12598951Y-18689932D01*
X12751332Y-18870884D02*
X12760856Y-18880408D01*
X12760856Y-18880408D02*
X12751332Y-18889932D01*
X12751332Y-18889932D02*
X12741809Y-18880408D01*
X12741809Y-18880408D02*
X12751332Y-18870884D01*
X12751332Y-18870884D02*
X12751332Y-18889932D01*
X12884666Y-18689932D02*
X12903713Y-18689932D01*
X12903713Y-18689932D02*
X12922761Y-18699455D01*
X12922761Y-18699455D02*
X12932285Y-18708979D01*
X12932285Y-18708979D02*
X12941809Y-18728027D01*
X12941809Y-18728027D02*
X12951332Y-18766122D01*
X12951332Y-18766122D02*
X12951332Y-18813741D01*
X12951332Y-18813741D02*
X12941809Y-18851836D01*
X12941809Y-18851836D02*
X12932285Y-18870884D01*
X12932285Y-18870884D02*
X12922761Y-18880408D01*
X12922761Y-18880408D02*
X12903713Y-18889932D01*
X12903713Y-18889932D02*
X12884666Y-18889932D01*
X12884666Y-18889932D02*
X12865618Y-18880408D01*
X12865618Y-18880408D02*
X12856094Y-18870884D01*
X12856094Y-18870884D02*
X12846570Y-18851836D01*
X12846570Y-18851836D02*
X12837047Y-18813741D01*
X12837047Y-18813741D02*
X12837047Y-18766122D01*
X12837047Y-18766122D02*
X12846570Y-18728027D01*
X12846570Y-18728027D02*
X12856094Y-18708979D01*
X12856094Y-18708979D02*
X12865618Y-18699455D01*
X12865618Y-18699455D02*
X12884666Y-18689932D01*
X13027523Y-18708979D02*
X13037047Y-18699455D01*
X13037047Y-18699455D02*
X13056094Y-18689932D01*
X13056094Y-18689932D02*
X13103713Y-18689932D01*
X13103713Y-18689932D02*
X13122761Y-18699455D01*
X13122761Y-18699455D02*
X13132285Y-18708979D01*
X13132285Y-18708979D02*
X13141809Y-18728027D01*
X13141809Y-18728027D02*
X13141809Y-18747074D01*
X13141809Y-18747074D02*
X13132285Y-18775646D01*
X13132285Y-18775646D02*
X13017999Y-18889932D01*
X13017999Y-18889932D02*
X13141809Y-18889932D01*
X13237047Y-18889932D02*
X13275142Y-18889932D01*
X13275142Y-18889932D02*
X13294190Y-18880408D01*
X13294190Y-18880408D02*
X13303713Y-18870884D01*
X13303713Y-18870884D02*
X13322761Y-18842312D01*
X13322761Y-18842312D02*
X13332285Y-18804217D01*
X13332285Y-18804217D02*
X13332285Y-18728027D01*
X13332285Y-18728027D02*
X13322761Y-18708979D01*
X13322761Y-18708979D02*
X13313237Y-18699455D01*
X13313237Y-18699455D02*
X13294190Y-18689932D01*
X13294190Y-18689932D02*
X13256094Y-18689932D01*
X13256094Y-18689932D02*
X13237047Y-18699455D01*
X13237047Y-18699455D02*
X13227523Y-18708979D01*
X13227523Y-18708979D02*
X13217999Y-18728027D01*
X13217999Y-18728027D02*
X13217999Y-18775646D01*
X13217999Y-18775646D02*
X13227523Y-18794693D01*
X13227523Y-18794693D02*
X13237047Y-18804217D01*
X13237047Y-18804217D02*
X13256094Y-18813741D01*
X13256094Y-18813741D02*
X13294190Y-18813741D01*
X13294190Y-18813741D02*
X13313237Y-18804217D01*
X13313237Y-18804217D02*
X13322761Y-18794693D01*
X13322761Y-18794693D02*
X13332285Y-18775646D01*
X13513237Y-18689932D02*
X13417999Y-18689932D01*
X13417999Y-18689932D02*
X13408475Y-18785170D01*
X13408475Y-18785170D02*
X13417999Y-18775646D01*
X13417999Y-18775646D02*
X13437047Y-18766122D01*
X13437047Y-18766122D02*
X13484666Y-18766122D01*
X13484666Y-18766122D02*
X13503713Y-18775646D01*
X13503713Y-18775646D02*
X13513237Y-18785170D01*
X13513237Y-18785170D02*
X13522761Y-18804217D01*
X13522761Y-18804217D02*
X13522761Y-18851836D01*
X13522761Y-18851836D02*
X13513237Y-18870884D01*
X13513237Y-18870884D02*
X13503713Y-18880408D01*
X13503713Y-18880408D02*
X13484666Y-18889932D01*
X13484666Y-18889932D02*
X13437047Y-18889932D01*
X13437047Y-18889932D02*
X13417999Y-18880408D01*
X13417999Y-18880408D02*
X13408475Y-18870884D01*
X13598951Y-18689932D02*
X13598951Y-18728027D01*
X13675142Y-18689932D02*
X13675142Y-18728027D01*
X13970380Y-18966122D02*
X13960856Y-18956598D01*
X13960856Y-18956598D02*
X13941809Y-18928027D01*
X13941809Y-18928027D02*
X13932285Y-18908979D01*
X13932285Y-18908979D02*
X13922761Y-18880408D01*
X13922761Y-18880408D02*
X13913237Y-18832789D01*
X13913237Y-18832789D02*
X13913237Y-18794693D01*
X13913237Y-18794693D02*
X13922761Y-18747074D01*
X13922761Y-18747074D02*
X13932285Y-18718503D01*
X13932285Y-18718503D02*
X13941809Y-18699455D01*
X13941809Y-18699455D02*
X13960856Y-18670884D01*
X13960856Y-18670884D02*
X13970380Y-18661360D01*
X14037047Y-18708979D02*
X14046571Y-18699455D01*
X14046571Y-18699455D02*
X14065618Y-18689932D01*
X14065618Y-18689932D02*
X14113237Y-18689932D01*
X14113237Y-18689932D02*
X14132285Y-18699455D01*
X14132285Y-18699455D02*
X14141809Y-18708979D01*
X14141809Y-18708979D02*
X14151332Y-18728027D01*
X14151332Y-18728027D02*
X14151332Y-18747074D01*
X14151332Y-18747074D02*
X14141809Y-18775646D01*
X14141809Y-18775646D02*
X14027523Y-18889932D01*
X14027523Y-18889932D02*
X14151332Y-18889932D01*
X14389428Y-18889932D02*
X14389428Y-18689932D01*
X14475142Y-18889932D02*
X14475142Y-18785170D01*
X14475142Y-18785170D02*
X14465618Y-18766122D01*
X14465618Y-18766122D02*
X14446571Y-18756598D01*
X14446571Y-18756598D02*
X14417999Y-18756598D01*
X14417999Y-18756598D02*
X14398952Y-18766122D01*
X14398952Y-18766122D02*
X14389428Y-18775646D01*
X14598952Y-18889932D02*
X14579904Y-18880408D01*
X14579904Y-18880408D02*
X14570380Y-18870884D01*
X14570380Y-18870884D02*
X14560856Y-18851836D01*
X14560856Y-18851836D02*
X14560856Y-18794693D01*
X14560856Y-18794693D02*
X14570380Y-18775646D01*
X14570380Y-18775646D02*
X14579904Y-18766122D01*
X14579904Y-18766122D02*
X14598952Y-18756598D01*
X14598952Y-18756598D02*
X14627523Y-18756598D01*
X14627523Y-18756598D02*
X14646571Y-18766122D01*
X14646571Y-18766122D02*
X14656094Y-18775646D01*
X14656094Y-18775646D02*
X14665618Y-18794693D01*
X14665618Y-18794693D02*
X14665618Y-18851836D01*
X14665618Y-18851836D02*
X14656094Y-18870884D01*
X14656094Y-18870884D02*
X14646571Y-18880408D01*
X14646571Y-18880408D02*
X14627523Y-18889932D01*
X14627523Y-18889932D02*
X14598952Y-18889932D01*
X14779904Y-18889932D02*
X14760856Y-18880408D01*
X14760856Y-18880408D02*
X14751333Y-18861360D01*
X14751333Y-18861360D02*
X14751333Y-18689932D01*
X14932285Y-18880408D02*
X14913237Y-18889932D01*
X14913237Y-18889932D02*
X14875142Y-18889932D01*
X14875142Y-18889932D02*
X14856094Y-18880408D01*
X14856094Y-18880408D02*
X14846571Y-18861360D01*
X14846571Y-18861360D02*
X14846571Y-18785170D01*
X14846571Y-18785170D02*
X14856094Y-18766122D01*
X14856094Y-18766122D02*
X14875142Y-18756598D01*
X14875142Y-18756598D02*
X14913237Y-18756598D01*
X14913237Y-18756598D02*
X14932285Y-18766122D01*
X14932285Y-18766122D02*
X14941809Y-18785170D01*
X14941809Y-18785170D02*
X14941809Y-18804217D01*
X14941809Y-18804217D02*
X14846571Y-18823265D01*
X15017999Y-18880408D02*
X15037047Y-18889932D01*
X15037047Y-18889932D02*
X15075142Y-18889932D01*
X15075142Y-18889932D02*
X15094190Y-18880408D01*
X15094190Y-18880408D02*
X15103714Y-18861360D01*
X15103714Y-18861360D02*
X15103714Y-18851836D01*
X15103714Y-18851836D02*
X15094190Y-18832789D01*
X15094190Y-18832789D02*
X15075142Y-18823265D01*
X15075142Y-18823265D02*
X15046571Y-18823265D01*
X15046571Y-18823265D02*
X15027523Y-18813741D01*
X15027523Y-18813741D02*
X15017999Y-18794693D01*
X15017999Y-18794693D02*
X15017999Y-18785170D01*
X15017999Y-18785170D02*
X15027523Y-18766122D01*
X15027523Y-18766122D02*
X15046571Y-18756598D01*
X15046571Y-18756598D02*
X15075142Y-18756598D01*
X15075142Y-18756598D02*
X15094190Y-18766122D01*
X15170380Y-18966122D02*
X15179904Y-18956598D01*
X15179904Y-18956598D02*
X15198952Y-18928027D01*
X15198952Y-18928027D02*
X15208475Y-18908979D01*
X15208475Y-18908979D02*
X15217999Y-18880408D01*
X15217999Y-18880408D02*
X15227523Y-18832789D01*
X15227523Y-18832789D02*
X15227523Y-18794693D01*
X15227523Y-18794693D02*
X15217999Y-18747074D01*
X15217999Y-18747074D02*
X15208475Y-18718503D01*
X15208475Y-18718503D02*
X15198952Y-18699455D01*
X15198952Y-18699455D02*
X15179904Y-18670884D01*
X15179904Y-18670884D02*
X15170380Y-18661360D01*
D15*
X10380673Y-19097803D02*
X10380673Y-19027092D01*
X10309962Y-19027092D01*
X10309962Y-19097803D01*
X10380673Y-19097803D01*
D11*
X10760856Y-19153932D02*
X10646570Y-19153932D01*
X10703713Y-19153932D02*
X10703713Y-18953932D01*
X10703713Y-18953932D02*
X10684666Y-18982503D01*
X10684666Y-18982503D02*
X10665618Y-19001551D01*
X10665618Y-19001551D02*
X10646570Y-19011074D01*
X10846570Y-19134884D02*
X10856094Y-19144408D01*
X10856094Y-19144408D02*
X10846570Y-19153932D01*
X10846570Y-19153932D02*
X10837047Y-19144408D01*
X10837047Y-19144408D02*
X10846570Y-19134884D01*
X10846570Y-19134884D02*
X10846570Y-19153932D01*
X10979904Y-18953932D02*
X10998951Y-18953932D01*
X10998951Y-18953932D02*
X11017999Y-18963455D01*
X11017999Y-18963455D02*
X11027523Y-18972979D01*
X11027523Y-18972979D02*
X11037047Y-18992027D01*
X11037047Y-18992027D02*
X11046570Y-19030122D01*
X11046570Y-19030122D02*
X11046570Y-19077741D01*
X11046570Y-19077741D02*
X11037047Y-19115836D01*
X11037047Y-19115836D02*
X11027523Y-19134884D01*
X11027523Y-19134884D02*
X11017999Y-19144408D01*
X11017999Y-19144408D02*
X10998951Y-19153932D01*
X10998951Y-19153932D02*
X10979904Y-19153932D01*
X10979904Y-19153932D02*
X10960856Y-19144408D01*
X10960856Y-19144408D02*
X10951332Y-19134884D01*
X10951332Y-19134884D02*
X10941808Y-19115836D01*
X10941808Y-19115836D02*
X10932285Y-19077741D01*
X10932285Y-19077741D02*
X10932285Y-19030122D01*
X10932285Y-19030122D02*
X10941808Y-18992027D01*
X10941808Y-18992027D02*
X10951332Y-18972979D01*
X10951332Y-18972979D02*
X10960856Y-18963455D01*
X10960856Y-18963455D02*
X10979904Y-18953932D01*
X11170380Y-18953932D02*
X11189427Y-18953932D01*
X11189427Y-18953932D02*
X11208475Y-18963455D01*
X11208475Y-18963455D02*
X11217999Y-18972979D01*
X11217999Y-18972979D02*
X11227523Y-18992027D01*
X11227523Y-18992027D02*
X11237046Y-19030122D01*
X11237046Y-19030122D02*
X11237046Y-19077741D01*
X11237046Y-19077741D02*
X11227523Y-19115836D01*
X11227523Y-19115836D02*
X11217999Y-19134884D01*
X11217999Y-19134884D02*
X11208475Y-19144408D01*
X11208475Y-19144408D02*
X11189427Y-19153932D01*
X11189427Y-19153932D02*
X11170380Y-19153932D01*
X11170380Y-19153932D02*
X11151332Y-19144408D01*
X11151332Y-19144408D02*
X11141808Y-19134884D01*
X11141808Y-19134884D02*
X11132285Y-19115836D01*
X11132285Y-19115836D02*
X11122761Y-19077741D01*
X11122761Y-19077741D02*
X11122761Y-19030122D01*
X11122761Y-19030122D02*
X11132285Y-18992027D01*
X11132285Y-18992027D02*
X11141808Y-18972979D01*
X11141808Y-18972979D02*
X11151332Y-18963455D01*
X11151332Y-18963455D02*
X11170380Y-18953932D01*
X11360856Y-18953932D02*
X11379904Y-18953932D01*
X11379904Y-18953932D02*
X11398951Y-18963455D01*
X11398951Y-18963455D02*
X11408475Y-18972979D01*
X11408475Y-18972979D02*
X11417999Y-18992027D01*
X11417999Y-18992027D02*
X11427523Y-19030122D01*
X11427523Y-19030122D02*
X11427523Y-19077741D01*
X11427523Y-19077741D02*
X11417999Y-19115836D01*
X11417999Y-19115836D02*
X11408475Y-19134884D01*
X11408475Y-19134884D02*
X11398951Y-19144408D01*
X11398951Y-19144408D02*
X11379904Y-19153932D01*
X11379904Y-19153932D02*
X11360856Y-19153932D01*
X11360856Y-19153932D02*
X11341808Y-19144408D01*
X11341808Y-19144408D02*
X11332285Y-19134884D01*
X11332285Y-19134884D02*
X11322761Y-19115836D01*
X11322761Y-19115836D02*
X11313237Y-19077741D01*
X11313237Y-19077741D02*
X11313237Y-19030122D01*
X11313237Y-19030122D02*
X11322761Y-18992027D01*
X11322761Y-18992027D02*
X11332285Y-18972979D01*
X11332285Y-18972979D02*
X11341808Y-18963455D01*
X11341808Y-18963455D02*
X11360856Y-18953932D01*
X11513237Y-19153932D02*
X11513237Y-19020598D01*
X11513237Y-19039646D02*
X11522761Y-19030122D01*
X11522761Y-19030122D02*
X11541808Y-19020598D01*
X11541808Y-19020598D02*
X11570380Y-19020598D01*
X11570380Y-19020598D02*
X11589427Y-19030122D01*
X11589427Y-19030122D02*
X11598951Y-19049170D01*
X11598951Y-19049170D02*
X11598951Y-19153932D01*
X11598951Y-19049170D02*
X11608475Y-19030122D01*
X11608475Y-19030122D02*
X11627523Y-19020598D01*
X11627523Y-19020598D02*
X11656094Y-19020598D01*
X11656094Y-19020598D02*
X11675142Y-19030122D01*
X11675142Y-19030122D02*
X11684666Y-19049170D01*
X11684666Y-19049170D02*
X11684666Y-19153932D01*
X11779904Y-19153932D02*
X11779904Y-19020598D01*
X11779904Y-19039646D02*
X11789427Y-19030122D01*
X11789427Y-19030122D02*
X11808475Y-19020598D01*
X11808475Y-19020598D02*
X11837047Y-19020598D01*
X11837047Y-19020598D02*
X11856094Y-19030122D01*
X11856094Y-19030122D02*
X11865618Y-19049170D01*
X11865618Y-19049170D02*
X11865618Y-19153932D01*
X11865618Y-19049170D02*
X11875142Y-19030122D01*
X11875142Y-19030122D02*
X11894189Y-19020598D01*
X11894189Y-19020598D02*
X11922761Y-19020598D01*
X11922761Y-19020598D02*
X11941808Y-19030122D01*
X11941808Y-19030122D02*
X11951332Y-19049170D01*
X11951332Y-19049170D02*
X11951332Y-19153932D01*
X12341808Y-18944408D02*
X12170380Y-19201551D01*
X12598951Y-18953932D02*
X12617999Y-18953932D01*
X12617999Y-18953932D02*
X12637047Y-18963455D01*
X12637047Y-18963455D02*
X12646570Y-18972979D01*
X12646570Y-18972979D02*
X12656094Y-18992027D01*
X12656094Y-18992027D02*
X12665618Y-19030122D01*
X12665618Y-19030122D02*
X12665618Y-19077741D01*
X12665618Y-19077741D02*
X12656094Y-19115836D01*
X12656094Y-19115836D02*
X12646570Y-19134884D01*
X12646570Y-19134884D02*
X12637047Y-19144408D01*
X12637047Y-19144408D02*
X12617999Y-19153932D01*
X12617999Y-19153932D02*
X12598951Y-19153932D01*
X12598951Y-19153932D02*
X12579904Y-19144408D01*
X12579904Y-19144408D02*
X12570380Y-19134884D01*
X12570380Y-19134884D02*
X12560856Y-19115836D01*
X12560856Y-19115836D02*
X12551332Y-19077741D01*
X12551332Y-19077741D02*
X12551332Y-19030122D01*
X12551332Y-19030122D02*
X12560856Y-18992027D01*
X12560856Y-18992027D02*
X12570380Y-18972979D01*
X12570380Y-18972979D02*
X12579904Y-18963455D01*
X12579904Y-18963455D02*
X12598951Y-18953932D01*
X12751332Y-19134884D02*
X12760856Y-19144408D01*
X12760856Y-19144408D02*
X12751332Y-19153932D01*
X12751332Y-19153932D02*
X12741809Y-19144408D01*
X12741809Y-19144408D02*
X12751332Y-19134884D01*
X12751332Y-19134884D02*
X12751332Y-19153932D01*
X12884666Y-18953932D02*
X12903713Y-18953932D01*
X12903713Y-18953932D02*
X12922761Y-18963455D01*
X12922761Y-18963455D02*
X12932285Y-18972979D01*
X12932285Y-18972979D02*
X12941809Y-18992027D01*
X12941809Y-18992027D02*
X12951332Y-19030122D01*
X12951332Y-19030122D02*
X12951332Y-19077741D01*
X12951332Y-19077741D02*
X12941809Y-19115836D01*
X12941809Y-19115836D02*
X12932285Y-19134884D01*
X12932285Y-19134884D02*
X12922761Y-19144408D01*
X12922761Y-19144408D02*
X12903713Y-19153932D01*
X12903713Y-19153932D02*
X12884666Y-19153932D01*
X12884666Y-19153932D02*
X12865618Y-19144408D01*
X12865618Y-19144408D02*
X12856094Y-19134884D01*
X12856094Y-19134884D02*
X12846570Y-19115836D01*
X12846570Y-19115836D02*
X12837047Y-19077741D01*
X12837047Y-19077741D02*
X12837047Y-19030122D01*
X12837047Y-19030122D02*
X12846570Y-18992027D01*
X12846570Y-18992027D02*
X12856094Y-18972979D01*
X12856094Y-18972979D02*
X12865618Y-18963455D01*
X12865618Y-18963455D02*
X12884666Y-18953932D01*
X13017999Y-18953932D02*
X13141809Y-18953932D01*
X13141809Y-18953932D02*
X13075142Y-19030122D01*
X13075142Y-19030122D02*
X13103713Y-19030122D01*
X13103713Y-19030122D02*
X13122761Y-19039646D01*
X13122761Y-19039646D02*
X13132285Y-19049170D01*
X13132285Y-19049170D02*
X13141809Y-19068217D01*
X13141809Y-19068217D02*
X13141809Y-19115836D01*
X13141809Y-19115836D02*
X13132285Y-19134884D01*
X13132285Y-19134884D02*
X13122761Y-19144408D01*
X13122761Y-19144408D02*
X13103713Y-19153932D01*
X13103713Y-19153932D02*
X13046570Y-19153932D01*
X13046570Y-19153932D02*
X13027523Y-19144408D01*
X13027523Y-19144408D02*
X13017999Y-19134884D01*
X13237047Y-19153932D02*
X13275142Y-19153932D01*
X13275142Y-19153932D02*
X13294190Y-19144408D01*
X13294190Y-19144408D02*
X13303713Y-19134884D01*
X13303713Y-19134884D02*
X13322761Y-19106312D01*
X13322761Y-19106312D02*
X13332285Y-19068217D01*
X13332285Y-19068217D02*
X13332285Y-18992027D01*
X13332285Y-18992027D02*
X13322761Y-18972979D01*
X13322761Y-18972979D02*
X13313237Y-18963455D01*
X13313237Y-18963455D02*
X13294190Y-18953932D01*
X13294190Y-18953932D02*
X13256094Y-18953932D01*
X13256094Y-18953932D02*
X13237047Y-18963455D01*
X13237047Y-18963455D02*
X13227523Y-18972979D01*
X13227523Y-18972979D02*
X13217999Y-18992027D01*
X13217999Y-18992027D02*
X13217999Y-19039646D01*
X13217999Y-19039646D02*
X13227523Y-19058693D01*
X13227523Y-19058693D02*
X13237047Y-19068217D01*
X13237047Y-19068217D02*
X13256094Y-19077741D01*
X13256094Y-19077741D02*
X13294190Y-19077741D01*
X13294190Y-19077741D02*
X13313237Y-19068217D01*
X13313237Y-19068217D02*
X13322761Y-19058693D01*
X13322761Y-19058693D02*
X13332285Y-19039646D01*
X13503713Y-19020598D02*
X13503713Y-19153932D01*
X13456094Y-18944408D02*
X13408475Y-19087265D01*
X13408475Y-19087265D02*
X13532285Y-19087265D01*
X13598951Y-18953932D02*
X13598951Y-18992027D01*
X13675142Y-18953932D02*
X13675142Y-18992027D01*
X13970380Y-19230122D02*
X13960856Y-19220598D01*
X13960856Y-19220598D02*
X13941809Y-19192027D01*
X13941809Y-19192027D02*
X13932285Y-19172979D01*
X13932285Y-19172979D02*
X13922761Y-19144408D01*
X13922761Y-19144408D02*
X13913237Y-19096789D01*
X13913237Y-19096789D02*
X13913237Y-19058693D01*
X13913237Y-19058693D02*
X13922761Y-19011074D01*
X13922761Y-19011074D02*
X13932285Y-18982503D01*
X13932285Y-18982503D02*
X13941809Y-18963455D01*
X13941809Y-18963455D02*
X13960856Y-18934884D01*
X13960856Y-18934884D02*
X13970380Y-18925360D01*
X14151332Y-19153932D02*
X14037047Y-19153932D01*
X14094190Y-19153932D02*
X14094190Y-18953932D01*
X14094190Y-18953932D02*
X14075142Y-18982503D01*
X14075142Y-18982503D02*
X14056094Y-19001551D01*
X14056094Y-19001551D02*
X14037047Y-19011074D01*
X14322761Y-19020598D02*
X14322761Y-19153932D01*
X14275142Y-18944408D02*
X14227523Y-19087265D01*
X14227523Y-19087265D02*
X14351332Y-19087265D01*
X14579904Y-19153932D02*
X14579904Y-18953932D01*
X14665618Y-19153932D02*
X14665618Y-19049170D01*
X14665618Y-19049170D02*
X14656094Y-19030122D01*
X14656094Y-19030122D02*
X14637047Y-19020598D01*
X14637047Y-19020598D02*
X14608475Y-19020598D01*
X14608475Y-19020598D02*
X14589428Y-19030122D01*
X14589428Y-19030122D02*
X14579904Y-19039646D01*
X14789428Y-19153932D02*
X14770380Y-19144408D01*
X14770380Y-19144408D02*
X14760856Y-19134884D01*
X14760856Y-19134884D02*
X14751333Y-19115836D01*
X14751333Y-19115836D02*
X14751333Y-19058693D01*
X14751333Y-19058693D02*
X14760856Y-19039646D01*
X14760856Y-19039646D02*
X14770380Y-19030122D01*
X14770380Y-19030122D02*
X14789428Y-19020598D01*
X14789428Y-19020598D02*
X14817999Y-19020598D01*
X14817999Y-19020598D02*
X14837047Y-19030122D01*
X14837047Y-19030122D02*
X14846571Y-19039646D01*
X14846571Y-19039646D02*
X14856094Y-19058693D01*
X14856094Y-19058693D02*
X14856094Y-19115836D01*
X14856094Y-19115836D02*
X14846571Y-19134884D01*
X14846571Y-19134884D02*
X14837047Y-19144408D01*
X14837047Y-19144408D02*
X14817999Y-19153932D01*
X14817999Y-19153932D02*
X14789428Y-19153932D01*
X14970380Y-19153932D02*
X14951333Y-19144408D01*
X14951333Y-19144408D02*
X14941809Y-19125360D01*
X14941809Y-19125360D02*
X14941809Y-18953932D01*
X15122761Y-19144408D02*
X15103714Y-19153932D01*
X15103714Y-19153932D02*
X15065618Y-19153932D01*
X15065618Y-19153932D02*
X15046571Y-19144408D01*
X15046571Y-19144408D02*
X15037047Y-19125360D01*
X15037047Y-19125360D02*
X15037047Y-19049170D01*
X15037047Y-19049170D02*
X15046571Y-19030122D01*
X15046571Y-19030122D02*
X15065618Y-19020598D01*
X15065618Y-19020598D02*
X15103714Y-19020598D01*
X15103714Y-19020598D02*
X15122761Y-19030122D01*
X15122761Y-19030122D02*
X15132285Y-19049170D01*
X15132285Y-19049170D02*
X15132285Y-19068217D01*
X15132285Y-19068217D02*
X15037047Y-19087265D01*
X15208475Y-19144408D02*
X15227523Y-19153932D01*
X15227523Y-19153932D02*
X15265618Y-19153932D01*
X15265618Y-19153932D02*
X15284666Y-19144408D01*
X15284666Y-19144408D02*
X15294190Y-19125360D01*
X15294190Y-19125360D02*
X15294190Y-19115836D01*
X15294190Y-19115836D02*
X15284666Y-19096789D01*
X15284666Y-19096789D02*
X15265618Y-19087265D01*
X15265618Y-19087265D02*
X15237047Y-19087265D01*
X15237047Y-19087265D02*
X15217999Y-19077741D01*
X15217999Y-19077741D02*
X15208475Y-19058693D01*
X15208475Y-19058693D02*
X15208475Y-19049170D01*
X15208475Y-19049170D02*
X15217999Y-19030122D01*
X15217999Y-19030122D02*
X15237047Y-19020598D01*
X15237047Y-19020598D02*
X15265618Y-19020598D01*
X15265618Y-19020598D02*
X15284666Y-19030122D01*
X15360856Y-19230122D02*
X15370380Y-19220598D01*
X15370380Y-19220598D02*
X15389428Y-19192027D01*
X15389428Y-19192027D02*
X15398952Y-19172979D01*
X15398952Y-19172979D02*
X15408475Y-19144408D01*
X15408475Y-19144408D02*
X15417999Y-19096789D01*
X15417999Y-19096789D02*
X15417999Y-19058693D01*
X15417999Y-19058693D02*
X15408475Y-19011074D01*
X15408475Y-19011074D02*
X15398952Y-18982503D01*
X15398952Y-18982503D02*
X15389428Y-18963455D01*
X15389428Y-18963455D02*
X15370380Y-18934884D01*
X15370380Y-18934884D02*
X15360856Y-18925360D01*
X10295317Y-19426448D02*
X10395317Y-19326448D01*
X10295317Y-19226448D01*
X10195317Y-19326448D01*
X10295317Y-19426448D01*
X10646570Y-19236979D02*
X10656094Y-19227455D01*
X10656094Y-19227455D02*
X10675142Y-19217932D01*
X10675142Y-19217932D02*
X10722761Y-19217932D01*
X10722761Y-19217932D02*
X10741808Y-19227455D01*
X10741808Y-19227455D02*
X10751332Y-19236979D01*
X10751332Y-19236979D02*
X10760856Y-19256027D01*
X10760856Y-19256027D02*
X10760856Y-19275074D01*
X10760856Y-19275074D02*
X10751332Y-19303646D01*
X10751332Y-19303646D02*
X10637047Y-19417932D01*
X10637047Y-19417932D02*
X10760856Y-19417932D01*
X10846570Y-19398884D02*
X10856094Y-19408408D01*
X10856094Y-19408408D02*
X10846570Y-19417932D01*
X10846570Y-19417932D02*
X10837047Y-19408408D01*
X10837047Y-19408408D02*
X10846570Y-19398884D01*
X10846570Y-19398884D02*
X10846570Y-19417932D01*
X10932285Y-19236979D02*
X10941808Y-19227455D01*
X10941808Y-19227455D02*
X10960856Y-19217932D01*
X10960856Y-19217932D02*
X11008475Y-19217932D01*
X11008475Y-19217932D02*
X11027523Y-19227455D01*
X11027523Y-19227455D02*
X11037047Y-19236979D01*
X11037047Y-19236979D02*
X11046570Y-19256027D01*
X11046570Y-19256027D02*
X11046570Y-19275074D01*
X11046570Y-19275074D02*
X11037047Y-19303646D01*
X11037047Y-19303646D02*
X10922761Y-19417932D01*
X10922761Y-19417932D02*
X11046570Y-19417932D01*
X11170380Y-19217932D02*
X11189427Y-19217932D01*
X11189427Y-19217932D02*
X11208475Y-19227455D01*
X11208475Y-19227455D02*
X11217999Y-19236979D01*
X11217999Y-19236979D02*
X11227523Y-19256027D01*
X11227523Y-19256027D02*
X11237046Y-19294122D01*
X11237046Y-19294122D02*
X11237046Y-19341741D01*
X11237046Y-19341741D02*
X11227523Y-19379836D01*
X11227523Y-19379836D02*
X11217999Y-19398884D01*
X11217999Y-19398884D02*
X11208475Y-19408408D01*
X11208475Y-19408408D02*
X11189427Y-19417932D01*
X11189427Y-19417932D02*
X11170380Y-19417932D01*
X11170380Y-19417932D02*
X11151332Y-19408408D01*
X11151332Y-19408408D02*
X11141808Y-19398884D01*
X11141808Y-19398884D02*
X11132285Y-19379836D01*
X11132285Y-19379836D02*
X11122761Y-19341741D01*
X11122761Y-19341741D02*
X11122761Y-19294122D01*
X11122761Y-19294122D02*
X11132285Y-19256027D01*
X11132285Y-19256027D02*
X11141808Y-19236979D01*
X11141808Y-19236979D02*
X11151332Y-19227455D01*
X11151332Y-19227455D02*
X11170380Y-19217932D01*
X11360856Y-19217932D02*
X11379904Y-19217932D01*
X11379904Y-19217932D02*
X11398951Y-19227455D01*
X11398951Y-19227455D02*
X11408475Y-19236979D01*
X11408475Y-19236979D02*
X11417999Y-19256027D01*
X11417999Y-19256027D02*
X11427523Y-19294122D01*
X11427523Y-19294122D02*
X11427523Y-19341741D01*
X11427523Y-19341741D02*
X11417999Y-19379836D01*
X11417999Y-19379836D02*
X11408475Y-19398884D01*
X11408475Y-19398884D02*
X11398951Y-19408408D01*
X11398951Y-19408408D02*
X11379904Y-19417932D01*
X11379904Y-19417932D02*
X11360856Y-19417932D01*
X11360856Y-19417932D02*
X11341808Y-19408408D01*
X11341808Y-19408408D02*
X11332285Y-19398884D01*
X11332285Y-19398884D02*
X11322761Y-19379836D01*
X11322761Y-19379836D02*
X11313237Y-19341741D01*
X11313237Y-19341741D02*
X11313237Y-19294122D01*
X11313237Y-19294122D02*
X11322761Y-19256027D01*
X11322761Y-19256027D02*
X11332285Y-19236979D01*
X11332285Y-19236979D02*
X11341808Y-19227455D01*
X11341808Y-19227455D02*
X11360856Y-19217932D01*
X11513237Y-19417932D02*
X11513237Y-19284598D01*
X11513237Y-19303646D02*
X11522761Y-19294122D01*
X11522761Y-19294122D02*
X11541808Y-19284598D01*
X11541808Y-19284598D02*
X11570380Y-19284598D01*
X11570380Y-19284598D02*
X11589427Y-19294122D01*
X11589427Y-19294122D02*
X11598951Y-19313170D01*
X11598951Y-19313170D02*
X11598951Y-19417932D01*
X11598951Y-19313170D02*
X11608475Y-19294122D01*
X11608475Y-19294122D02*
X11627523Y-19284598D01*
X11627523Y-19284598D02*
X11656094Y-19284598D01*
X11656094Y-19284598D02*
X11675142Y-19294122D01*
X11675142Y-19294122D02*
X11684666Y-19313170D01*
X11684666Y-19313170D02*
X11684666Y-19417932D01*
X11779904Y-19417932D02*
X11779904Y-19284598D01*
X11779904Y-19303646D02*
X11789427Y-19294122D01*
X11789427Y-19294122D02*
X11808475Y-19284598D01*
X11808475Y-19284598D02*
X11837047Y-19284598D01*
X11837047Y-19284598D02*
X11856094Y-19294122D01*
X11856094Y-19294122D02*
X11865618Y-19313170D01*
X11865618Y-19313170D02*
X11865618Y-19417932D01*
X11865618Y-19313170D02*
X11875142Y-19294122D01*
X11875142Y-19294122D02*
X11894189Y-19284598D01*
X11894189Y-19284598D02*
X11922761Y-19284598D01*
X11922761Y-19284598D02*
X11941808Y-19294122D01*
X11941808Y-19294122D02*
X11951332Y-19313170D01*
X11951332Y-19313170D02*
X11951332Y-19417932D01*
X12341808Y-19208408D02*
X12170380Y-19465551D01*
X12598951Y-19217932D02*
X12617999Y-19217932D01*
X12617999Y-19217932D02*
X12637047Y-19227455D01*
X12637047Y-19227455D02*
X12646570Y-19236979D01*
X12646570Y-19236979D02*
X12656094Y-19256027D01*
X12656094Y-19256027D02*
X12665618Y-19294122D01*
X12665618Y-19294122D02*
X12665618Y-19341741D01*
X12665618Y-19341741D02*
X12656094Y-19379836D01*
X12656094Y-19379836D02*
X12646570Y-19398884D01*
X12646570Y-19398884D02*
X12637047Y-19408408D01*
X12637047Y-19408408D02*
X12617999Y-19417932D01*
X12617999Y-19417932D02*
X12598951Y-19417932D01*
X12598951Y-19417932D02*
X12579904Y-19408408D01*
X12579904Y-19408408D02*
X12570380Y-19398884D01*
X12570380Y-19398884D02*
X12560856Y-19379836D01*
X12560856Y-19379836D02*
X12551332Y-19341741D01*
X12551332Y-19341741D02*
X12551332Y-19294122D01*
X12551332Y-19294122D02*
X12560856Y-19256027D01*
X12560856Y-19256027D02*
X12570380Y-19236979D01*
X12570380Y-19236979D02*
X12579904Y-19227455D01*
X12579904Y-19227455D02*
X12598951Y-19217932D01*
X12751332Y-19398884D02*
X12760856Y-19408408D01*
X12760856Y-19408408D02*
X12751332Y-19417932D01*
X12751332Y-19417932D02*
X12741809Y-19408408D01*
X12741809Y-19408408D02*
X12751332Y-19398884D01*
X12751332Y-19398884D02*
X12751332Y-19417932D01*
X12884666Y-19217932D02*
X12903713Y-19217932D01*
X12903713Y-19217932D02*
X12922761Y-19227455D01*
X12922761Y-19227455D02*
X12932285Y-19236979D01*
X12932285Y-19236979D02*
X12941809Y-19256027D01*
X12941809Y-19256027D02*
X12951332Y-19294122D01*
X12951332Y-19294122D02*
X12951332Y-19341741D01*
X12951332Y-19341741D02*
X12941809Y-19379836D01*
X12941809Y-19379836D02*
X12932285Y-19398884D01*
X12932285Y-19398884D02*
X12922761Y-19408408D01*
X12922761Y-19408408D02*
X12903713Y-19417932D01*
X12903713Y-19417932D02*
X12884666Y-19417932D01*
X12884666Y-19417932D02*
X12865618Y-19408408D01*
X12865618Y-19408408D02*
X12856094Y-19398884D01*
X12856094Y-19398884D02*
X12846570Y-19379836D01*
X12846570Y-19379836D02*
X12837047Y-19341741D01*
X12837047Y-19341741D02*
X12837047Y-19294122D01*
X12837047Y-19294122D02*
X12846570Y-19256027D01*
X12846570Y-19256027D02*
X12856094Y-19236979D01*
X12856094Y-19236979D02*
X12865618Y-19227455D01*
X12865618Y-19227455D02*
X12884666Y-19217932D01*
X13065618Y-19303646D02*
X13046570Y-19294122D01*
X13046570Y-19294122D02*
X13037047Y-19284598D01*
X13037047Y-19284598D02*
X13027523Y-19265551D01*
X13027523Y-19265551D02*
X13027523Y-19256027D01*
X13027523Y-19256027D02*
X13037047Y-19236979D01*
X13037047Y-19236979D02*
X13046570Y-19227455D01*
X13046570Y-19227455D02*
X13065618Y-19217932D01*
X13065618Y-19217932D02*
X13103713Y-19217932D01*
X13103713Y-19217932D02*
X13122761Y-19227455D01*
X13122761Y-19227455D02*
X13132285Y-19236979D01*
X13132285Y-19236979D02*
X13141809Y-19256027D01*
X13141809Y-19256027D02*
X13141809Y-19265551D01*
X13141809Y-19265551D02*
X13132285Y-19284598D01*
X13132285Y-19284598D02*
X13122761Y-19294122D01*
X13122761Y-19294122D02*
X13103713Y-19303646D01*
X13103713Y-19303646D02*
X13065618Y-19303646D01*
X13065618Y-19303646D02*
X13046570Y-19313170D01*
X13046570Y-19313170D02*
X13037047Y-19322693D01*
X13037047Y-19322693D02*
X13027523Y-19341741D01*
X13027523Y-19341741D02*
X13027523Y-19379836D01*
X13027523Y-19379836D02*
X13037047Y-19398884D01*
X13037047Y-19398884D02*
X13046570Y-19408408D01*
X13046570Y-19408408D02*
X13065618Y-19417932D01*
X13065618Y-19417932D02*
X13103713Y-19417932D01*
X13103713Y-19417932D02*
X13122761Y-19408408D01*
X13122761Y-19408408D02*
X13132285Y-19398884D01*
X13132285Y-19398884D02*
X13141809Y-19379836D01*
X13141809Y-19379836D02*
X13141809Y-19341741D01*
X13141809Y-19341741D02*
X13132285Y-19322693D01*
X13132285Y-19322693D02*
X13122761Y-19313170D01*
X13122761Y-19313170D02*
X13103713Y-19303646D01*
X13313237Y-19217932D02*
X13275142Y-19217932D01*
X13275142Y-19217932D02*
X13256094Y-19227455D01*
X13256094Y-19227455D02*
X13246570Y-19236979D01*
X13246570Y-19236979D02*
X13227523Y-19265551D01*
X13227523Y-19265551D02*
X13217999Y-19303646D01*
X13217999Y-19303646D02*
X13217999Y-19379836D01*
X13217999Y-19379836D02*
X13227523Y-19398884D01*
X13227523Y-19398884D02*
X13237047Y-19408408D01*
X13237047Y-19408408D02*
X13256094Y-19417932D01*
X13256094Y-19417932D02*
X13294190Y-19417932D01*
X13294190Y-19417932D02*
X13313237Y-19408408D01*
X13313237Y-19408408D02*
X13322761Y-19398884D01*
X13322761Y-19398884D02*
X13332285Y-19379836D01*
X13332285Y-19379836D02*
X13332285Y-19332217D01*
X13332285Y-19332217D02*
X13322761Y-19313170D01*
X13322761Y-19313170D02*
X13313237Y-19303646D01*
X13313237Y-19303646D02*
X13294190Y-19294122D01*
X13294190Y-19294122D02*
X13256094Y-19294122D01*
X13256094Y-19294122D02*
X13237047Y-19303646D01*
X13237047Y-19303646D02*
X13227523Y-19313170D01*
X13227523Y-19313170D02*
X13217999Y-19332217D01*
X13503713Y-19217932D02*
X13465618Y-19217932D01*
X13465618Y-19217932D02*
X13446570Y-19227455D01*
X13446570Y-19227455D02*
X13437047Y-19236979D01*
X13437047Y-19236979D02*
X13417999Y-19265551D01*
X13417999Y-19265551D02*
X13408475Y-19303646D01*
X13408475Y-19303646D02*
X13408475Y-19379836D01*
X13408475Y-19379836D02*
X13417999Y-19398884D01*
X13417999Y-19398884D02*
X13427523Y-19408408D01*
X13427523Y-19408408D02*
X13446570Y-19417932D01*
X13446570Y-19417932D02*
X13484666Y-19417932D01*
X13484666Y-19417932D02*
X13503713Y-19408408D01*
X13503713Y-19408408D02*
X13513237Y-19398884D01*
X13513237Y-19398884D02*
X13522761Y-19379836D01*
X13522761Y-19379836D02*
X13522761Y-19332217D01*
X13522761Y-19332217D02*
X13513237Y-19313170D01*
X13513237Y-19313170D02*
X13503713Y-19303646D01*
X13503713Y-19303646D02*
X13484666Y-19294122D01*
X13484666Y-19294122D02*
X13446570Y-19294122D01*
X13446570Y-19294122D02*
X13427523Y-19303646D01*
X13427523Y-19303646D02*
X13417999Y-19313170D01*
X13417999Y-19313170D02*
X13408475Y-19332217D01*
X13598951Y-19217932D02*
X13598951Y-19256027D01*
X13675142Y-19217932D02*
X13675142Y-19256027D01*
X13970380Y-19494122D02*
X13960856Y-19484598D01*
X13960856Y-19484598D02*
X13941809Y-19456027D01*
X13941809Y-19456027D02*
X13932285Y-19436979D01*
X13932285Y-19436979D02*
X13922761Y-19408408D01*
X13922761Y-19408408D02*
X13913237Y-19360789D01*
X13913237Y-19360789D02*
X13913237Y-19322693D01*
X13913237Y-19322693D02*
X13922761Y-19275074D01*
X13922761Y-19275074D02*
X13932285Y-19246503D01*
X13932285Y-19246503D02*
X13941809Y-19227455D01*
X13941809Y-19227455D02*
X13960856Y-19198884D01*
X13960856Y-19198884D02*
X13970380Y-19189360D01*
X14132285Y-19284598D02*
X14132285Y-19417932D01*
X14084666Y-19208408D02*
X14037047Y-19351265D01*
X14037047Y-19351265D02*
X14160856Y-19351265D01*
X14389428Y-19417932D02*
X14389428Y-19217932D01*
X14475142Y-19417932D02*
X14475142Y-19313170D01*
X14475142Y-19313170D02*
X14465618Y-19294122D01*
X14465618Y-19294122D02*
X14446571Y-19284598D01*
X14446571Y-19284598D02*
X14417999Y-19284598D01*
X14417999Y-19284598D02*
X14398952Y-19294122D01*
X14398952Y-19294122D02*
X14389428Y-19303646D01*
X14598952Y-19417932D02*
X14579904Y-19408408D01*
X14579904Y-19408408D02*
X14570380Y-19398884D01*
X14570380Y-19398884D02*
X14560856Y-19379836D01*
X14560856Y-19379836D02*
X14560856Y-19322693D01*
X14560856Y-19322693D02*
X14570380Y-19303646D01*
X14570380Y-19303646D02*
X14579904Y-19294122D01*
X14579904Y-19294122D02*
X14598952Y-19284598D01*
X14598952Y-19284598D02*
X14627523Y-19284598D01*
X14627523Y-19284598D02*
X14646571Y-19294122D01*
X14646571Y-19294122D02*
X14656094Y-19303646D01*
X14656094Y-19303646D02*
X14665618Y-19322693D01*
X14665618Y-19322693D02*
X14665618Y-19379836D01*
X14665618Y-19379836D02*
X14656094Y-19398884D01*
X14656094Y-19398884D02*
X14646571Y-19408408D01*
X14646571Y-19408408D02*
X14627523Y-19417932D01*
X14627523Y-19417932D02*
X14598952Y-19417932D01*
X14779904Y-19417932D02*
X14760856Y-19408408D01*
X14760856Y-19408408D02*
X14751333Y-19389360D01*
X14751333Y-19389360D02*
X14751333Y-19217932D01*
X14932285Y-19408408D02*
X14913237Y-19417932D01*
X14913237Y-19417932D02*
X14875142Y-19417932D01*
X14875142Y-19417932D02*
X14856094Y-19408408D01*
X14856094Y-19408408D02*
X14846571Y-19389360D01*
X14846571Y-19389360D02*
X14846571Y-19313170D01*
X14846571Y-19313170D02*
X14856094Y-19294122D01*
X14856094Y-19294122D02*
X14875142Y-19284598D01*
X14875142Y-19284598D02*
X14913237Y-19284598D01*
X14913237Y-19284598D02*
X14932285Y-19294122D01*
X14932285Y-19294122D02*
X14941809Y-19313170D01*
X14941809Y-19313170D02*
X14941809Y-19332217D01*
X14941809Y-19332217D02*
X14846571Y-19351265D01*
X15017999Y-19408408D02*
X15037047Y-19417932D01*
X15037047Y-19417932D02*
X15075142Y-19417932D01*
X15075142Y-19417932D02*
X15094190Y-19408408D01*
X15094190Y-19408408D02*
X15103714Y-19389360D01*
X15103714Y-19389360D02*
X15103714Y-19379836D01*
X15103714Y-19379836D02*
X15094190Y-19360789D01*
X15094190Y-19360789D02*
X15075142Y-19351265D01*
X15075142Y-19351265D02*
X15046571Y-19351265D01*
X15046571Y-19351265D02*
X15027523Y-19341741D01*
X15027523Y-19341741D02*
X15017999Y-19322693D01*
X15017999Y-19322693D02*
X15017999Y-19313170D01*
X15017999Y-19313170D02*
X15027523Y-19294122D01*
X15027523Y-19294122D02*
X15046571Y-19284598D01*
X15046571Y-19284598D02*
X15075142Y-19284598D01*
X15075142Y-19284598D02*
X15094190Y-19294122D01*
X15170380Y-19494122D02*
X15179904Y-19484598D01*
X15179904Y-19484598D02*
X15198952Y-19456027D01*
X15198952Y-19456027D02*
X15208475Y-19436979D01*
X15208475Y-19436979D02*
X15217999Y-19408408D01*
X15217999Y-19408408D02*
X15227523Y-19360789D01*
X15227523Y-19360789D02*
X15227523Y-19322693D01*
X15227523Y-19322693D02*
X15217999Y-19275074D01*
X15217999Y-19275074D02*
X15208475Y-19246503D01*
X15208475Y-19246503D02*
X15198952Y-19227455D01*
X15198952Y-19227455D02*
X15179904Y-19198884D01*
X15179904Y-19198884D02*
X15170380Y-19189360D01*
M02*
