M48
; DRILL file {KiCad 7.0.5-0} date 2023 June 28, Wednesday 16:41:01
; FORMAT={-:-/ absolute / metric / decimal}
; #@! TF.CreationDate,2023-06-28T16:41:01-04:00
; #@! TF.GenerationSoftware,Kicad,Pcbnew,7.0.5-0
; #@! TF.FileFunction,Plated,1,2,PTH
FMAT,2
METRIC
; #@! TA.AperFunction,Plated,PTH,ViaDrill
T1C0.400
; #@! TA.AperFunction,Plated,PTH,ComponentDrill
T2C0.700
; #@! TA.AperFunction,Plated,PTH,ComponentDrill
T3C0.750
; #@! TA.AperFunction,Plated,PTH,ComponentDrill
T4C1.000
; #@! TA.AperFunction,Plated,PTH,ComponentDrill
T5C2.200
%
G90
G05
T1
X114.325Y-112.789
X117.078Y-95.721
X117.981Y-83.738
X124.109Y-121.139
X125.356Y-106.699
X129.04Y-87.71
X134.094Y-113.57
X134.85Y-104.098
X134.903Y-108.733
X138.587Y-90.409
X139.756Y-92.036
X142.489Y-80.58
X144.037Y-118.283
X146.39Y-107.969
X149.617Y-121.126
X153.433Y-85.437
X154.546Y-109.125
X154.627Y-89.157
X155.073Y-104.967
X160.24Y-93.481
X160.259Y-88.817
X161.769Y-91.77
X161.841Y-107.474
X163.132Y-119.327
X164.429Y-81.701
X165.04Y-130.357
X170.213Y-118.711
X170.468Y-85.868
X170.636Y-114.25
X176.149Y-102.568
X177.138Y-98.579
X178.721Y-128.832
X180.176Y-91.211
X181.074Y-138.641
X182.526Y-118.621
X183.276Y-153.157
X186.392Y-126.888
X186.554Y-101.555
X186.854Y-122.76
X190.324Y-97.245
X191.934Y-111.242
X192.337Y-106.663
X193.083Y-103.932
X194.875Y-137.372
X196.073Y-99.87
X197.776Y-153.638
X199.388Y-124.923
X202.389Y-166.871
X203.255Y-133.007
X203.454Y-147.105
X203.941Y-112.76
X204.254Y-146.505
X204.254Y-117.805
X205.104Y-145.905
X205.328Y-106.766
X214.876Y-139.338
X214.905Y-150.202
X216.171Y-151.017
X217.454Y-151.741
X218.721Y-152.741
X219.921Y-151.743
X221.221Y-151.019
X221.29Y-140.212
X221.854Y-121.141
X222.432Y-139.38
X222.521Y-150.319
X232.004Y-97.272
X232.777Y-157.295
X236.307Y-115.116
X237.866Y-113.23
X241.274Y-125.664
X241.456Y-136.094
X242.416Y-136.539
X242.473Y-107.03
X243.616Y-129.174
X245.647Y-164.138
X246.483Y-138.704
X248.081Y-88.813
X248.266Y-123.068
X251.19Y-101.303
X254.023Y-104.848
X256.669Y-131.285
X257.368Y-117.252
X259.748Y-91.484
X259.778Y-120.951
X261.928Y-155.073
X263.131Y-133.086
X263.952Y-79.791
X264.221Y-114.755
X268.293Y-96.249
X269.767Y-95.766
X272.53Y-108.328
X272.878Y-123.044
X275.606Y-111.518
X276.815Y-81.654
X279.343Y-122.077
X279.909Y-105.374
X285.618Y-77.918
X287.412Y-90.886
X288.583Y-113.71
X290.437Y-94.521
X293.782Y-106.925
X295.184Y-110.778
X296.403Y-115.882
X298.883Y-81.177
X300.012Y-104.761
X308.147Y-113.626
X310.37Y-80.136
X313.053Y-97.304
X313.904Y-116.308
X322.896Y-85.314
X325.716Y-102.272
X328.438Y-118.521
T2
X213.641Y-126.925
X216.816Y-121.21
T3
X208.836Y-140.192
X208.836Y-142.192
T4
X210.466Y-119.622
X210.466Y-122.162
X210.466Y-124.702
X210.466Y-127.242
X210.466Y-129.782
X210.466Y-132.322
X210.466Y-134.862
X225.706Y-119.622
X225.706Y-122.162
X225.706Y-124.702
X225.706Y-127.242
X225.706Y-129.782
X225.706Y-132.322
X225.706Y-134.862
T5
X195.909Y-144.669
X201.724Y-128.694
X234.449Y-128.694
X240.263Y-144.669
T0
M30
