0
SECTION
2
HEADER
9
$INSUNITS
70
4
0
ENDSEC
0
SECTION
2
TABLES
0
TABLE
2
LTYPE
0
LTYPE
72
65
70
64
2
CONTINUOUS
3
______
73
0
40
0
0
ENDTAB
0
TABLE
2
LAYER
0
ENDTAB
0
ENDSEC
0
SECTION
2
ENTITIES
0
LINE
8
0
10
47.5461448
20
-136.6134114
11
68.7814441
21
-139.9767524
0
LINE
8
0
10
68.7814441
20
-139.9767524
11
69.9972504
21
-132.3004536
0
LINE
8
0
10
47.5461448
20
-136.6134114
11
56.0718232
21
-82.7843969
0
LINE
8
0
10
56.0718232
20
-82.7843969
11
79.2641941
21
-86.4577076
0
LINE
8
0
10
69.9972504
20
-132.3004536
11
114.438235
21
-145.0437008
0
LINE
8
0
10
92.2744499
20
-81.9920183
11
81.4358881
21
-78.8841107
0
LINE
8
0
10
81.4358881
20
-78.8841107
11
79.2641941
21
-86.4577076
0
LINE
8
0
10
122.8431155
20
-90.1051385
11
123.9974334
21
-86.933676
0
LINE
8
0
10
94.3971159
20
-76.1600415
11
123.9974334
21
-86.933676
0
LINE
8
0
10
92.2744499
20
-81.9920183
11
94.3971159
21
-76.1600415
0
LINE
8
0
10
114.438235
20
-145.0437008
11
117.8285605
21
-146.2776784
0
LINE
8
0
10
138.9452847
20
-98.4932711
11
139.7575825
21
-96.2615011
0
LINE
8
0
10
122.8431155
20
-90.1051385
11
139.7575825
21
-96.2615011
0
LINE
8
0
10
149.6647231
20
-121.6703351
11
155.8597518
21
-104.6496337
0
LINE
8
0
10
117.8285605
20
-146.2776784
11
117.8224159
21
-146.2945606
0
LINE
8
0
10
138.9452847
20
-98.4932711
11
155.8597518
21
-104.6496337
0
LINE
8
0
10
255.3112085
20
-139.9767524
11
276.5465078
21
-136.6134114
0
LINE
8
0
10
268.0208294
20
-82.7843969
11
276.5465078
21
-136.6134114
0
LINE
8
0
10
254.0954022
20
-132.3004536
11
255.3112085
21
-139.9767524
0
LINE
8
0
10
244.8284585
20
-86.4577076
11
268.0208294
21
-82.7843969
0
LINE
8
0
10
209.6544176
20
-145.0437008
11
254.0954022
21
-132.3004536
0
LINE
8
0
10
244.8284585
20
-86.4577076
11
242.6567645
21
-78.8841107
0
LINE
8
0
10
242.6567645
20
-78.8841107
11
231.8182027
21
-81.9920183
0
LINE
8
0
10
200.0952192
20
-86.933676
11
229.6955367
21
-76.1600415
0
LINE
8
0
10
200.0952192
20
-86.933676
11
201.2495371
21
-90.1051385
0
LINE
8
0
10
229.6955367
20
-76.1600415
11
231.8182027
21
-81.9920183
0
LINE
8
0
10
206.2640921
20
-146.2776784
11
209.6544176
21
-145.0437008
0
LINE
8
0
10
184.3350701
20
-96.2615011
11
201.2495371
21
-90.1051385
0
LINE
8
0
10
184.3350701
20
-96.2615011
11
185.1473679
21
-98.4932711
0
LINE
8
0
10
206.2702367
20
-146.2945606
11
206.2640921
21
-146.2776784
0
LINE
8
0
10
168.2329008
20
-104.6496337
11
174.4279295
21
-121.6703351
0
LINE
8
0
10
168.2329008
20
-104.6496337
11
185.1473679
21
-98.4932711
0
LINE
8
0
10
109.1316915
20
-163.3510675
11
126.6609495
21
-172.2826705
0
LINE
8
0
10
117.8224159
20
-146.2945606
11
109.1316915
21
-163.3510675
0
LINE
8
0
10
126.6609495
20
-172.2826705
11
142.9710595
21
-183.2839786
0
LINE
8
0
10
197.4317031
20
-172.2826705
11
214.9609611
21
-163.3510675
0
LINE
8
0
10
214.9609611
20
-163.3510675
11
206.2702367
21
-146.2945606
0
LINE
8
0
10
181.1215931
20
-183.2839786
11
197.4317031
21
-172.2826705
0
LINE
8
0
10
149.6647231
20
-121.6703351
11
174.4279295
21
-121.6703351
0
LINE
8
0
10
181.1215931
20
-183.2839786
11
162.0463263
21
-179.0250198
0
LINE
8
0
10
162.0463263
20
-179.0250198
11
142.9710595
21
-183.2839786
0
LINE
8
0
10
49.8343904
20
-134.9509036
11
67.1189363
21
-137.6885068
0
LINE
8
0
10
67.1189363
20
-137.6885068
11
69.700105
21
-121.3916492
0
LINE
8
0
10
69.700105
20
-121.3916492
11
52.4155591
21
-118.654046
0
LINE
8
0
10
52.4155591
20
-118.654046
11
49.8343904
21
-134.9509036
0
LINE
8
0
10
52.4937764
20
-118.1602018
11
69.7783223
21
-120.897805
0
LINE
8
0
10
69.7783223
20
-120.897805
11
72.359491
21
-104.6009474
0
LINE
8
0
10
72.359491
20
-104.6009474
11
55.0749451
21
-101.8633442
0
LINE
8
0
10
55.0749451
20
-101.8633442
11
52.4937764
21
-118.1602018
0
LINE
8
0
10
55.1531623
20
-101.3695001
11
72.4377082
21
-104.1071033
0
LINE
8
0
10
72.4377082
20
-104.1071033
11
75.0188769
21
-87.8102457
0
LINE
8
0
10
75.0188769
20
-87.8102457
11
57.734331
21
-85.0726425
0
LINE
8
0
10
57.734331
20
-85.0726425
11
55.1531623
21
-101.3695001
0
LINE
8
0
10
68.8874503
20
-129.9016246
11
85.70953
21
-134.7252784
0
LINE
8
0
10
85.70953
20
-134.7252784
11
90.2575463
21
-118.8644604
0
LINE
8
0
10
90.2575463
20
-118.8644604
11
73.4354666
21
-114.0408066
0
LINE
8
0
10
73.4354666
20
-114.0408066
11
68.8874503
21
-129.9016246
0
LINE
8
0
10
73.5732853
20
-113.5601757
11
90.395365
21
-118.3838295
0
LINE
8
0
10
90.395365
20
-118.3838295
11
94.9433813
21
-102.5230115
0
LINE
8
0
10
94.9433813
20
-102.5230115
11
78.1213016
21
-97.6993577
0
LINE
8
0
10
78.1213016
20
-97.6993577
11
73.5732853
21
-113.5601757
0
LINE
8
0
10
78.2591204
20
-97.2187268
11
95.0812001
21
-102.0423806
0
LINE
8
0
10
95.0812001
20
-102.0423806
11
99.6292164
21
-86.1815626
0
LINE
8
0
10
99.6292164
20
-86.1815626
11
82.8071367
21
-81.3579088
0
LINE
8
0
10
82.8071367
20
-81.3579088
11
78.2591204
21
-97.2187268
0
LINE
8
0
10
87.7173698
20
-129.5981458
11
104.1619906
21
-135.5834983
0
LINE
8
0
10
104.1619906
20
-135.5834983
11
109.805323
21
-120.07857
0
LINE
8
0
10
109.805323
20
-120.07857
11
93.3607022
21
-114.0932175
0
LINE
8
0
10
93.3607022
20
-114.0932175
11
87.7173698
21
-129.5981458
0
LINE
8
0
10
93.5317122
20
-113.6233713
11
109.976333
21
-119.6087238
0
LINE
8
0
10
109.976333
20
-119.6087238
11
115.6196654
21
-104.1037955
0
LINE
8
0
10
115.6196654
20
-104.1037955
11
99.1750446
21
-98.118443
0
LINE
8
0
10
99.1750446
20
-98.118443
11
93.5317122
21
-113.6233713
0
LINE
8
0
10
99.3460547
20
-97.6485967
11
115.7906755
21
-103.6339492
0
LINE
8
0
10
115.7906755
20
-103.6339492
11
121.4340079
21
-88.1290209
0
LINE
8
0
10
121.4340079
20
-88.1290209
11
104.9893871
21
-82.1436684
0
LINE
8
0
10
104.9893871
20
-82.1436684
11
99.3460547
21
-97.6485967
0
LINE
8
0
10
103.4775189
20
-138.9259709
11
119.9221397
21
-144.9113234
0
LINE
8
0
10
119.9221397
20
-144.9113234
11
125.5654721
21
-129.4063951
0
LINE
8
0
10
125.5654721
20
-129.4063951
11
109.1208513
21
-123.4210426
0
LINE
8
0
10
109.1208513
20
-123.4210426
11
103.4775189
21
-138.9259709
0
LINE
8
0
10
109.2918614
20
-122.9511963
11
125.7364822
21
-128.9365488
0
LINE
8
0
10
125.7364822
20
-128.9365488
11
131.3798146
21
-113.4316205
0
LINE
8
0
10
131.3798146
20
-113.4316205
11
114.9351938
21
-107.446268
0
LINE
8
0
10
114.9351938
20
-107.446268
11
109.2918614
21
-122.9511963
0
LINE
8
0
10
115.1062038
20
-106.9764218
11
131.5508246
21
-112.9617743
0
LINE
8
0
10
131.5508246
20
-112.9617743
11
137.194157
21
-97.456846
0
LINE
8
0
10
137.194157
20
-97.456846
11
120.7495362
21
-91.4714935
0
LINE
8
0
10
120.7495362
20
-91.4714935
11
115.1062038
21
-106.9764218
0
LINE
8
0
10
119.5796882
20
-147.3141035
11
136.024309
21
-153.299456
0
LINE
8
0
10
136.024309
20
-153.299456
11
141.6676414
21
-137.7945277
0
LINE
8
0
10
141.6676414
20
-137.7945277
11
125.2230206
21
-131.8091752
0
LINE
8
0
10
125.2230206
20
-131.8091752
11
119.5796882
21
-147.3141035
0
LINE
8
0
10
125.3940307
20
-131.339329
11
141.8386515
21
-137.3246815
0
LINE
8
0
10
141.8386515
20
-137.3246815
11
147.4819839
21
-121.8197532
0
LINE
8
0
10
147.4819839
20
-121.8197532
11
131.0373631
21
-115.8344007
0
LINE
8
0
10
131.0373631
20
-115.8344007
11
125.3940307
21
-131.339329
0
LINE
8
0
10
131.2083731
20
-115.3645544
11
147.6529939
21
-121.3499069
0
LINE
8
0
10
147.6529939
20
-121.3499069
11
153.2963263
21
-105.8449786
0
LINE
8
0
10
153.2963263
20
-105.8449786
11
136.8517055
21
-99.8596261
0
LINE
8
0
10
136.8517055
20
-99.8596261
11
131.2083731
21
-115.3645544
0
LINE
8
0
10
256.9737163
20
-137.6885068
11
274.2582622
21
-134.9509036
0
LINE
8
0
10
274.2582622
20
-134.9509036
11
271.6770935
21
-118.654046
0
LINE
8
0
10
271.6770935
20
-118.654046
11
254.3925476
21
-121.3916492
0
LINE
8
0
10
254.3925476
20
-121.3916492
11
256.9737163
21
-137.6885068
0
LINE
8
0
10
254.3143303
20
-120.897805
11
271.5988762
21
-118.1602018
0
LINE
8
0
10
271.5988762
20
-118.1602018
11
269.0177075
21
-101.8633442
0
LINE
8
0
10
269.0177075
20
-101.8633442
11
251.7331616
21
-104.6009474
0
LINE
8
0
10
251.7331616
20
-104.6009474
11
254.3143303
21
-120.897805
0
LINE
8
0
10
251.6549444
20
-104.1071033
11
268.9394903
21
-101.3695001
0
LINE
8
0
10
268.9394903
20
-101.3695001
11
266.3583216
21
-85.0726425
0
LINE
8
0
10
266.3583216
20
-85.0726425
11
249.0737757
21
-87.8102457
0
LINE
8
0
10
249.0737757
20
-87.8102457
11
251.6549444
21
-104.1071033
0
LINE
8
0
10
238.3831226
20
-134.7252784
11
255.2052023
21
-129.9016246
0
LINE
8
0
10
255.2052023
20
-129.9016246
11
250.657186
21
-114.0408066
0
LINE
8
0
10
250.657186
20
-114.0408066
11
233.8351063
21
-118.8644604
0
LINE
8
0
10
233.8351063
20
-118.8644604
11
238.3831226
21
-134.7252784
0
LINE
8
0
10
233.6972876
20
-118.3838295
11
250.5193673
21
-113.5601757
0
LINE
8
0
10
250.5193673
20
-113.5601757
11
245.971351
21
-97.6993577
0
LINE
8
0
10
245.971351
20
-97.6993577
11
229.1492713
21
-102.5230115
0
LINE
8
0
10
229.1492713
20
-102.5230115
11
233.6972876
21
-118.3838295
0
LINE
8
0
10
229.0114525
20
-102.0423806
11
245.8335322
21
-97.2187268
0
LINE
8
0
10
245.8335322
20
-97.2187268
11
241.2855159
21
-81.3579088
0
LINE
8
0
10
241.2855159
20
-81.3579088
11
224.4634362
21
-86.1815626
0
LINE
8
0
10
224.4634362
20
-86.1815626
11
229.0114525
21
-102.0423806
0
LINE
8
0
10
219.930662
20
-135.5834983
11
236.3752828
21
-129.5981458
0
LINE
8
0
10
236.3752828
20
-129.5981458
11
230.7319504
21
-114.0932175
0
LINE
8
0
10
230.7319504
20
-114.0932175
11
214.2873296
21
-120.07857
0
LINE
8
0
10
214.2873296
20
-120.07857
11
219.930662
21
-135.5834983
0
LINE
8
0
10
214.1163196
20
-119.6087238
11
230.5609404
21
-113.6233713
0
LINE
8
0
10
230.5609404
20
-113.6233713
11
224.917608
21
-98.118443
0
LINE
8
0
10
224.917608
20
-98.118443
11
208.4729872
21
-104.1037955
0
LINE
8
0
10
208.4729872
20
-104.1037955
11
214.1163196
21
-119.6087238
0
LINE
8
0
10
208.3019771
20
-103.6339492
11
224.7465979
21
-97.6485967
0
LINE
8
0
10
224.7465979
20
-97.6485967
11
219.1032655
21
-82.1436684
0
LINE
8
0
10
219.1032655
20
-82.1436684
11
202.6586447
21
-88.1290209
0
LINE
8
0
10
202.6586447
20
-88.1290209
11
208.3019771
21
-103.6339492
0
LINE
8
0
10
204.1705129
20
-144.9113234
11
220.6151337
21
-138.9259709
0
LINE
8
0
10
220.6151337
20
-138.9259709
11
214.9718013
21
-123.4210426
0
LINE
8
0
10
214.9718013
20
-123.4210426
11
198.5271805
21
-129.4063951
0
LINE
8
0
10
198.5271805
20
-129.4063951
11
204.1705129
21
-144.9113234
0
LINE
8
0
10
198.3561704
20
-128.9365488
11
214.8007912
21
-122.9511963
0
LINE
8
0
10
214.8007912
20
-122.9511963
11
209.1574588
21
-107.446268
0
LINE
8
0
10
209.1574588
20
-107.446268
11
192.712838
21
-113.4316205
0
LINE
8
0
10
192.712838
20
-113.4316205
11
198.3561704
21
-128.9365488
0
LINE
8
0
10
192.541828
20
-112.9617743
11
208.9864488
21
-106.9764218
0
LINE
8
0
10
208.9864488
20
-106.9764218
11
203.3431164
21
-91.4714935
0
LINE
8
0
10
203.3431164
20
-91.4714935
11
186.8984956
21
-97.456846
0
LINE
8
0
10
186.8984956
20
-97.456846
11
192.541828
21
-112.9617743
0
LINE
8
0
10
188.0683436
20
-153.299456
11
204.5129644
21
-147.3141035
0
LINE
8
0
10
204.5129644
20
-147.3141035
11
198.869632
21
-131.8091752
0
LINE
8
0
10
198.869632
20
-131.8091752
11
182.4250112
21
-137.7945277
0
LINE
8
0
10
182.4250112
20
-137.7945277
11
188.0683436
21
-153.299456
0
LINE
8
0
10
182.2540011
20
-137.3246815
11
198.6986219
21
-131.339329
0
LINE
8
0
10
198.6986219
20
-131.339329
11
193.0552895
21
-115.8344007
0
LINE
8
0
10
193.0552895
20
-115.8344007
11
176.6106687
21
-121.8197532
0
LINE
8
0
10
176.6106687
20
-121.8197532
11
182.2540011
21
-137.3246815
0
LINE
8
0
10
176.4396587
20
-121.3499069
11
192.8842795
21
-115.3645544
0
LINE
8
0
10
192.8842795
20
-115.3645544
11
187.2409471
21
-99.8596261
0
LINE
8
0
10
187.2409471
20
-99.8596261
11
170.7963263
21
-105.8449786
0
LINE
8
0
10
170.7963263
20
-105.8449786
11
176.4396587
21
-121.3499069
0
LINE
8
0
10
111.8216856
20
-162.4770355
11
127.4142998
21
-170.4218692
0
LINE
8
0
10
127.4142998
20
-170.4218692
11
134.905143
21
-155.7202615
0
LINE
8
0
10
134.905143
20
-155.7202615
11
119.3125288
21
-147.7754278
0
LINE
8
0
10
119.3125288
20
-147.7754278
11
111.8216856
21
-162.4770355
0
LINE
8
0
10
127.9232127
20
-170.7216419
11
142.4313702
21
-180.5075177
0
LINE
8
0
10
142.4313702
20
-180.5075177
11
151.6580531
21
-166.8283977
0
LINE
8
0
10
151.6580531
20
-166.8283977
11
137.1498956
21
-157.0425219
0
LINE
8
0
10
137.1498956
20
-157.0425219
11
127.9232127
21
-170.7216419
0
LINE
8
0
10
196.6783528
20
-170.4218692
11
212.270967
21
-162.4770355
0
LINE
8
0
10
212.270967
20
-162.4770355
11
204.7801238
21
-147.7754278
0
LINE
8
0
10
204.7801238
20
-147.7754278
11
189.1875096
21
-155.7202615
0
LINE
8
0
10
189.1875096
20
-155.7202615
11
196.6783528
21
-170.4218692
0
LINE
8
0
10
181.6612824
20
-180.5075177
11
196.1694399
21
-170.7216419
0
LINE
8
0
10
196.1694399
20
-170.7216419
11
186.942757
21
-157.0425219
0
LINE
8
0
10
186.942757
20
-157.0425219
11
172.4345995
21
-166.8283977
0
LINE
8
0
10
172.4345995
20
-166.8283977
11
181.6612824
21
-180.5075177
0
CIRCLE
8
0
10
145.6837898
20
-135.531664
40
1
0
CIRCLE
8
0
10
178.4088628
20
-135.531664
40
1
0
CIRCLE
8
0
10
139.8694473
20
-151.5064385
40
1
0
CIRCLE
8
0
10
184.2232053
20
-151.5064385
40
1
0
CIRCLE
8
0
10
76.8925077
20
-97.0869318
40
1
0
CIRCLE
8
0
10
247.2001449
20
-97.0869318
40
1
0
CIRCLE
8
0
10
72.7834297
20
-113.5937631
40
1
0
CIRCLE
8
0
10
251.3092229
20
-113.5937631
40
1
0
CIRCLE
8
0
10
131.2303965
20
-113.1111924
40
1
0
CIRCLE
8
0
10
192.8622561
20
-113.1111924
40
1
0
CIRCLE
8
0
10
131.7292851
20
-163.6783455
40
1
0
CIRCLE
8
0
10
192.3633675
20
-163.6783455
40
1
0
LINE
8
0
10
136.4941554
20
-153.470466
11
147.9518302
21
-121.9907633
0
LINE
8
0
10
147.9518302
20
-121.9907633
11
162.0463263
21
-125.9907633
0
LINE
8
0
10
162.0463263
20
-125.9907633
11
176.1408224
21
-121.9907633
0
LINE
8
0
10
176.1408224
20
-121.9907633
11
187.5984972
21
-153.470466
0
LINE
8
0
10
187.5984972
20
-153.470466
11
162.0463263
21
-162.470466
0
LINE
8
0
10
162.0463263
20
-162.470466
11
136.4941554
21
-153.470466
0
ENDSEC
0
EOF