0
SECTION
2
HEADER
9
$INSUNITS
70
4
0
ENDSEC
0
SECTION
2
TABLES
0
TABLE
2
LTYPE
0
LTYPE
72
65
70
64
2
CONTINUOUS
3
______
73
0
40
0
0
ENDTAB
0
TABLE
2
LAYER
0
ENDTAB
0
ENDSEC
0
SECTION
2
ENTITIES
0
LINE
8
0
10
49.8343904
20
-134.9509036
11
67.1189363
21
-137.6885068
0
LINE
8
0
10
67.1189363
20
-137.6885068
11
69.700105
21
-121.3916492
0
LINE
8
0
10
69.700105
20
-121.3916492
11
52.4155591
21
-118.654046
0
LINE
8
0
10
52.4155591
20
-118.654046
11
49.8343904
21
-134.9509036
0
LINE
8
0
10
52.4937764
20
-118.1602018
11
69.7783223
21
-120.897805
0
LINE
8
0
10
69.7783223
20
-120.897805
11
72.359491
21
-104.6009474
0
LINE
8
0
10
72.359491
20
-104.6009474
11
55.0749451
21
-101.8633442
0
LINE
8
0
10
55.0749451
20
-101.8633442
11
52.4937764
21
-118.1602018
0
LINE
8
0
10
55.1531623
20
-101.3695001
11
72.4377082
21
-104.1071033
0
LINE
8
0
10
72.4377082
20
-104.1071033
11
75.0188769
21
-87.8102457
0
LINE
8
0
10
75.0188769
20
-87.8102457
11
57.734331
21
-85.0726425
0
LINE
8
0
10
57.734331
20
-85.0726425
11
55.1531623
21
-101.3695001
0
LINE
8
0
10
68.8874503
20
-129.9016246
11
85.70953
21
-134.7252784
0
LINE
8
0
10
85.70953
20
-134.7252784
11
90.2575463
21
-118.8644604
0
LINE
8
0
10
90.2575463
20
-118.8644604
11
73.4354666
21
-114.0408066
0
LINE
8
0
10
73.4354666
20
-114.0408066
11
68.8874503
21
-129.9016246
0
LINE
8
0
10
73.5732853
20
-113.5601757
11
90.395365
21
-118.3838295
0
LINE
8
0
10
90.395365
20
-118.3838295
11
94.9433813
21
-102.5230115
0
LINE
8
0
10
94.9433813
20
-102.5230115
11
78.1213016
21
-97.6993577
0
LINE
8
0
10
78.1213016
20
-97.6993577
11
73.5732853
21
-113.5601757
0
LINE
8
0
10
78.2591204
20
-97.2187268
11
95.0812001
21
-102.0423806
0
LINE
8
0
10
95.0812001
20
-102.0423806
11
99.6292164
21
-86.1815626
0
LINE
8
0
10
99.6292164
20
-86.1815626
11
82.8071367
21
-81.3579088
0
LINE
8
0
10
82.8071367
20
-81.3579088
11
78.2591204
21
-97.2187268
0
LINE
8
0
10
87.7173698
20
-129.5981458
11
104.1619906
21
-135.5834983
0
LINE
8
0
10
104.1619906
20
-135.5834983
11
109.805323
21
-120.07857
0
LINE
8
0
10
109.805323
20
-120.07857
11
93.3607022
21
-114.0932175
0
LINE
8
0
10
93.3607022
20
-114.0932175
11
87.7173698
21
-129.5981458
0
LINE
8
0
10
93.5317122
20
-113.6233713
11
109.976333
21
-119.6087238
0
LINE
8
0
10
109.976333
20
-119.6087238
11
115.6196654
21
-104.1037955
0
LINE
8
0
10
115.6196654
20
-104.1037955
11
99.1750446
21
-98.118443
0
LINE
8
0
10
99.1750446
20
-98.118443
11
93.5317122
21
-113.6233713
0
LINE
8
0
10
99.3460547
20
-97.6485967
11
115.7906755
21
-103.6339492
0
LINE
8
0
10
115.7906755
20
-103.6339492
11
121.4340079
21
-88.1290209
0
LINE
8
0
10
121.4340079
20
-88.1290209
11
104.9893871
21
-82.1436684
0
LINE
8
0
10
104.9893871
20
-82.1436684
11
99.3460547
21
-97.6485967
0
LINE
8
0
10
103.4775189
20
-138.9259709
11
119.9221397
21
-144.9113234
0
LINE
8
0
10
119.9221397
20
-144.9113234
11
125.5654721
21
-129.4063951
0
LINE
8
0
10
125.5654721
20
-129.4063951
11
109.1208513
21
-123.4210426
0
LINE
8
0
10
109.1208513
20
-123.4210426
11
103.4775189
21
-138.9259709
0
LINE
8
0
10
109.2918614
20
-122.9511963
11
125.7364822
21
-128.9365488
0
LINE
8
0
10
125.7364822
20
-128.9365488
11
131.3798146
21
-113.4316205
0
LINE
8
0
10
131.3798146
20
-113.4316205
11
114.9351938
21
-107.446268
0
LINE
8
0
10
114.9351938
20
-107.446268
11
109.2918614
21
-122.9511963
0
LINE
8
0
10
115.1062038
20
-106.9764218
11
131.5508246
21
-112.9617743
0
LINE
8
0
10
131.5508246
20
-112.9617743
11
137.194157
21
-97.456846
0
LINE
8
0
10
137.194157
20
-97.456846
11
120.7495362
21
-91.4714935
0
LINE
8
0
10
120.7495362
20
-91.4714935
11
115.1062038
21
-106.9764218
0
LINE
8
0
10
119.5796882
20
-147.3141035
11
136.024309
21
-153.299456
0
LINE
8
0
10
136.024309
20
-153.299456
11
141.6676414
21
-137.7945277
0
LINE
8
0
10
141.6676414
20
-137.7945277
11
125.2230206
21
-131.8091752
0
LINE
8
0
10
125.2230206
20
-131.8091752
11
119.5796882
21
-147.3141035
0
LINE
8
0
10
125.3940307
20
-131.339329
11
141.8386515
21
-137.3246815
0
LINE
8
0
10
141.8386515
20
-137.3246815
11
147.4819839
21
-121.8197532
0
LINE
8
0
10
147.4819839
20
-121.8197532
11
131.0373631
21
-115.8344007
0
LINE
8
0
10
131.0373631
20
-115.8344007
11
125.3940307
21
-131.339329
0
LINE
8
0
10
131.2083731
20
-115.3645544
11
147.6529939
21
-121.3499069
0
LINE
8
0
10
147.6529939
20
-121.3499069
11
153.2963263
21
-105.8449786
0
LINE
8
0
10
153.2963263
20
-105.8449786
11
136.8517055
21
-99.8596261
0
LINE
8
0
10
136.8517055
20
-99.8596261
11
131.2083731
21
-115.3645544
0
LINE
8
0
10
111.8216856
20
-162.4770356
11
127.4142998
21
-170.4218693
0
LINE
8
0
10
127.4142998
20
-170.4218693
11
134.905143
21
-155.7202616
0
LINE
8
0
10
134.905143
20
-155.7202616
11
119.3125288
21
-147.7754279
0
LINE
8
0
10
119.3125288
20
-147.7754279
11
111.8216856
21
-162.4770356
0
LINE
8
0
10
127.9232126
20
-170.7216418
11
142.4313701
21
-180.5075176
0
LINE
8
0
10
142.4313701
20
-180.5075176
11
151.658053
21
-166.8283976
0
LINE
8
0
10
151.658053
20
-166.8283976
11
137.1498955
21
-157.0425218
0
LINE
8
0
10
137.1498955
20
-157.0425218
11
127.9232126
21
-170.7216418
0
LINE
8
0
10
255.3857631
20
-137.6885068
11
272.670309
21
-134.9509036
0
LINE
8
0
10
272.670309
20
-134.9509036
11
270.0891403
21
-118.654046
0
LINE
8
0
10
270.0891403
20
-118.654046
11
252.8045944
21
-121.3916492
0
LINE
8
0
10
252.8045944
20
-121.3916492
11
255.3857631
21
-137.6885068
0
LINE
8
0
10
252.7263771
20
-120.897805
11
270.010923
21
-118.1602018
0
LINE
8
0
10
270.010923
20
-118.1602018
11
267.4297543
21
-101.8633442
0
LINE
8
0
10
267.4297543
20
-101.8633442
11
250.1452084
21
-104.6009474
0
LINE
8
0
10
250.1452084
20
-104.6009474
11
252.7263771
21
-120.897805
0
LINE
8
0
10
250.0669912
20
-104.1071033
11
267.3515371
21
-101.3695001
0
LINE
8
0
10
267.3515371
20
-101.3695001
11
264.7703684
21
-85.0726425
0
LINE
8
0
10
264.7703684
20
-85.0726425
11
247.4858225
21
-87.8102457
0
LINE
8
0
10
247.4858225
20
-87.8102457
11
250.0669912
21
-104.1071033
0
LINE
8
0
10
236.7951694
20
-134.7252784
11
253.6172491
21
-129.9016246
0
LINE
8
0
10
253.6172491
20
-129.9016246
11
249.0692328
21
-114.0408066
0
LINE
8
0
10
249.0692328
20
-114.0408066
11
232.2471531
21
-118.8644604
0
LINE
8
0
10
232.2471531
20
-118.8644604
11
236.7951694
21
-134.7252784
0
LINE
8
0
10
232.1093344
20
-118.3838295
11
248.9314141
21
-113.5601757
0
LINE
8
0
10
248.9314141
20
-113.5601757
11
244.3833978
21
-97.6993577
0
LINE
8
0
10
244.3833978
20
-97.6993577
11
227.5613181
21
-102.5230115
0
LINE
8
0
10
227.5613181
20
-102.5230115
11
232.1093344
21
-118.3838295
0
LINE
8
0
10
227.4234993
20
-102.0423806
11
244.245579
21
-97.2187268
0
LINE
8
0
10
244.245579
20
-97.2187268
11
239.6975627
21
-81.3579088
0
LINE
8
0
10
239.6975627
20
-81.3579088
11
222.875483
21
-86.1815626
0
LINE
8
0
10
222.875483
20
-86.1815626
11
227.4234993
21
-102.0423806
0
LINE
8
0
10
218.3427088
20
-135.5834983
11
234.7873296
21
-129.5981458
0
LINE
8
0
10
234.7873296
20
-129.5981458
11
229.1439972
21
-114.0932175
0
LINE
8
0
10
229.1439972
20
-114.0932175
11
212.6993764
21
-120.07857
0
LINE
8
0
10
212.6993764
20
-120.07857
11
218.3427088
21
-135.5834983
0
LINE
8
0
10
212.5283664
20
-119.6087238
11
228.9729872
21
-113.6233713
0
LINE
8
0
10
228.9729872
20
-113.6233713
11
223.3296548
21
-98.118443
0
LINE
8
0
10
223.3296548
20
-98.118443
11
206.885034
21
-104.1037955
0
LINE
8
0
10
206.885034
20
-104.1037955
11
212.5283664
21
-119.6087238
0
LINE
8
0
10
206.7140239
20
-103.6339492
11
223.1586447
21
-97.6485967
0
LINE
8
0
10
223.1586447
20
-97.6485967
11
217.5153123
21
-82.1436684
0
LINE
8
0
10
217.5153123
20
-82.1436684
11
201.0706915
21
-88.1290209
0
LINE
8
0
10
201.0706915
20
-88.1290209
11
206.7140239
21
-103.6339492
0
LINE
8
0
10
202.5825597
20
-144.9113234
11
219.0271805
21
-138.9259709
0
LINE
8
0
10
219.0271805
20
-138.9259709
11
213.3838481
21
-123.4210426
0
LINE
8
0
10
213.3838481
20
-123.4210426
11
196.9392273
21
-129.4063951
0
LINE
8
0
10
196.9392273
20
-129.4063951
11
202.5825597
21
-144.9113234
0
LINE
8
0
10
196.7682172
20
-128.9365488
11
213.212838
21
-122.9511963
0
LINE
8
0
10
213.212838
20
-122.9511963
11
207.5695056
21
-107.446268
0
LINE
8
0
10
207.5695056
20
-107.446268
11
191.1248848
21
-113.4316205
0
LINE
8
0
10
191.1248848
20
-113.4316205
11
196.7682172
21
-128.9365488
0
LINE
8
0
10
190.9538748
20
-112.9617743
11
207.3984956
21
-106.9764218
0
LINE
8
0
10
207.3984956
20
-106.9764218
11
201.7551632
21
-91.4714935
0
LINE
8
0
10
201.7551632
20
-91.4714935
11
185.3105424
21
-97.456846
0
LINE
8
0
10
185.3105424
20
-97.456846
11
190.9538748
21
-112.9617743
0
LINE
8
0
10
186.4803904
20
-153.299456
11
202.9250112
21
-147.3141035
0
LINE
8
0
10
202.9250112
20
-147.3141035
11
197.2816788
21
-131.8091752
0
LINE
8
0
10
197.2816788
20
-131.8091752
11
180.837058
21
-137.7945277
0
LINE
8
0
10
180.837058
20
-137.7945277
11
186.4803904
21
-153.299456
0
LINE
8
0
10
180.6660479
20
-137.3246815
11
197.1106687
21
-131.339329
0
LINE
8
0
10
197.1106687
20
-131.339329
11
191.4673363
21
-115.8344007
0
LINE
8
0
10
191.4673363
20
-115.8344007
11
175.0227155
21
-121.8197532
0
LINE
8
0
10
175.0227155
20
-121.8197532
11
180.6660479
21
-137.3246815
0
LINE
8
0
10
174.8517055
20
-121.3499069
11
191.2963263
21
-115.3645544
0
LINE
8
0
10
191.2963263
20
-115.3645544
11
185.6529939
21
-99.8596261
0
LINE
8
0
10
185.6529939
20
-99.8596261
11
169.2083731
21
-105.8449786
0
LINE
8
0
10
169.2083731
20
-105.8449786
11
174.8517055
21
-121.3499069
0
LINE
8
0
10
195.0903996
20
-170.4218693
11
210.6830138
21
-162.4770356
0
LINE
8
0
10
210.6830138
20
-162.4770356
11
203.1921706
21
-147.7754279
0
LINE
8
0
10
203.1921706
20
-147.7754279
11
187.5995564
21
-155.7202616
0
LINE
8
0
10
187.5995564
20
-155.7202616
11
195.0903996
21
-170.4218693
0
LINE
8
0
10
180.0733293
20
-180.5075176
11
194.5814868
21
-170.7216418
0
LINE
8
0
10
194.5814868
20
-170.7216418
11
185.3548039
21
-157.0425218
0
LINE
8
0
10
185.3548039
20
-157.0425218
11
170.8466464
21
-166.8283976
0
LINE
8
0
10
170.8466464
20
-166.8283976
11
180.0733293
21
-180.5075176
0
LINE
8
0
10
47.5461448
20
-136.6134114
11
68.7814441
21
-139.9767524
0
LINE
8
0
10
68.7814441
20
-139.9767524
11
69.9972504
21
-132.3004536
0
LINE
8
0
10
47.5461448
20
-136.6134114
11
56.0718232
21
-82.7843969
0
LINE
8
0
10
56.0718232
20
-82.7843969
11
79.2641941
21
-86.4577076
0
LINE
8
0
10
69.9972504
20
-132.3004536
11
114.438235
21
-145.0437008
0
LINE
8
0
10
101.9105399
20
-84.7551227
11
81.4358881
21
-78.8841107
0
LINE
8
0
10
81.4358881
20
-78.8841107
11
79.2641941
21
-86.4577076
0
LINE
8
0
10
122.8431155
20
-90.1051385
11
123.9974334
21
-86.933676
0
LINE
8
0
10
123.9974334
20
-86.933676
11
103.7940421
21
-79.5802429
0
LINE
8
0
10
103.7940421
20
-79.5802429
11
101.9105399
21
-84.7551227
0
LINE
8
0
10
114.438235
20
-145.0437008
11
117.8285605
21
-146.2776784
0
LINE
8
0
10
138.9452847
20
-98.4932711
11
139.7575825
21
-96.2615011
0
LINE
8
0
10
122.8431155
20
-90.1051385
11
139.7575825
21
-96.2615011
0
LINE
8
0
10
137.5661612
20
-154.9108607
11
137.5760518
21
-154.8836865
0
LINE
8
0
10
137.590538
20
-154.8438862
11
155.8597518
21
-104.6496337
0
LINE
8
0
10
117.8285605
20
-146.2776784
11
117.8224158
21
-146.2945609
0
LINE
8
0
10
138.9452847
20
-98.4932711
11
155.8597518
21
-104.6496337
0
LINE
8
0
10
109.1316915
20
-163.3510676
11
126.6609503
21
-172.282671
0
LINE
8
0
10
137.5760518
20
-154.8836865
11
137.5951371
21
-154.8462296
0
LINE
8
0
10
137.5951371
20
-154.8462296
11
137.590538
21
-154.8438862
0
LINE
8
0
10
117.8224158
20
-146.2945609
11
109.1316915
21
-163.3510676
0
LINE
8
0
10
126.6609503
20
-172.282671
11
142.9710594
21
-183.2839785
0
LINE
8
0
10
142.9710594
20
-183.2839785
11
154.434514
21
-166.2887083
0
LINE
8
0
10
154.434514
20
-166.2887083
11
137.5661612
21
-154.9108607
0
LINE
8
0
10
253.7232553
20
-139.9767524
11
274.9585546
21
-136.6134114
0
LINE
8
0
10
266.4328762
20
-82.7843969
11
274.9585546
21
-136.6134114
0
LINE
8
0
10
252.507449
20
-132.3004536
11
253.7232553
21
-139.9767524
0
LINE
8
0
10
243.2405053
20
-86.4577076
11
266.4328762
21
-82.7843969
0
LINE
8
0
10
208.0664644
20
-145.0437008
11
252.507449
21
-132.3004536
0
LINE
8
0
10
243.2405053
20
-86.4577076
11
241.0688113
21
-78.8841107
0
LINE
8
0
10
241.0688113
20
-78.8841107
11
220.5941595
21
-84.7551227
0
LINE
8
0
10
220.5941595
20
-84.7551227
11
218.7106573
21
-79.5802429
0
LINE
8
0
10
218.7106573
20
-79.5802429
11
198.507266
21
-86.933676
0
LINE
8
0
10
198.507266
20
-86.933676
11
199.6615839
21
-90.1051385
0
LINE
8
0
10
204.6761389
20
-146.2776784
11
208.0664644
21
-145.0437008
0
LINE
8
0
10
182.7471169
20
-96.2615011
11
199.6615839
21
-90.1051385
0
LINE
8
0
10
182.7471169
20
-96.2615011
11
183.5594147
21
-98.4932711
0
LINE
8
0
10
204.6822836
20
-146.2945609
11
204.6761389
21
-146.2776784
0
LINE
8
0
10
166.6449476
20
-104.6496337
11
184.9141614
21
-154.8438862
0
LINE
8
0
10
184.9286476
20
-154.8836865
11
184.9385382
21
-154.9108607
0
LINE
8
0
10
166.6449476
20
-104.6496337
11
183.5594147
21
-98.4932711
0
LINE
8
0
10
195.8437491
20
-172.282671
11
213.3730079
21
-163.3510676
0
LINE
8
0
10
213.3730079
20
-163.3510676
11
204.6822836
21
-146.2945609
0
LINE
8
0
10
184.9141614
20
-154.8438862
11
184.9095623
21
-154.8462296
0
LINE
8
0
10
184.9095623
20
-154.8462296
11
184.9286476
21
-154.8836865
0
LINE
8
0
10
179.53364
20
-183.2839785
11
195.8437491
21
-172.282671
0
LINE
8
0
10
184.9385382
20
-154.9108607
11
168.0701854
21
-166.2887083
0
LINE
8
0
10
168.0701854
20
-166.2887083
11
179.53364
21
-183.2839785
0
ENDSEC
0
EOF