0
SECTION
2
HEADER
9
$INSUNITS
70
4
0
ENDSEC
0
SECTION
2
TABLES
0
TABLE
2
LTYPE
0
LTYPE
72
65
70
64
2
CONTINUOUS
3
______
73
0
40
0
0
ENDTAB
0
TABLE
2
LAYER
0
ENDTAB
0
ENDSEC
0
SECTION
2
ENTITIES
0
LINE
8
0
10
47.5461448
20
-136.6134114
11
68.7814441
21
-139.9767524
0
LINE
8
0
10
68.7814441
20
-139.9767524
11
69.9972504
21
-132.3004536
0
LINE
8
0
10
47.5461448
20
-136.6134114
11
56.0718232
21
-82.7843969
0
LINE
8
0
10
56.0718232
20
-82.7843969
11
79.2641941
21
-86.4577076
0
LINE
8
0
10
69.9972504
20
-132.3004536
11
114.438235
21
-145.0437008
0
LINE
8
0
10
101.9105399
20
-84.7551227
11
81.4358881
21
-78.8841107
0
LINE
8
0
10
81.4358881
20
-78.8841107
11
79.2641941
21
-86.4577076
0
LINE
8
0
10
122.8431155
20
-90.1051385
11
123.9974334
21
-86.933676
0
LINE
8
0
10
123.9974334
20
-86.933676
11
103.7940421
21
-79.5802429
0
LINE
8
0
10
103.7940421
20
-79.5802429
11
101.9105399
21
-84.7551227
0
LINE
8
0
10
114.438235
20
-145.0437008
11
117.8285605
21
-146.2776784
0
LINE
8
0
10
138.9452847
20
-98.4932711
11
139.7575825
21
-96.2615011
0
LINE
8
0
10
122.8431155
20
-90.1051385
11
139.7575825
21
-96.2615011
0
LINE
8
0
10
137.5661612
20
-154.9108607
11
137.576052
21
-154.8836862
0
LINE
8
0
10
137.590538
20
-154.8438861
11
155.8597518
21
-104.6496337
0
LINE
8
0
10
117.8285605
20
-146.2776784
11
117.8224159
21
-146.2945606
0
LINE
8
0
10
138.9452847
20
-98.4932711
11
155.8597518
21
-104.6496337
0
LINE
8
0
10
253.7232553
20
-139.9767524
11
274.9585546
21
-136.6134114
0
LINE
8
0
10
266.4328762
20
-82.7843969
11
274.9585546
21
-136.6134114
0
LINE
8
0
10
252.507449
20
-132.3004536
11
253.7232553
21
-139.9767524
0
LINE
8
0
10
243.2405053
20
-86.4577076
11
266.4328762
21
-82.7843969
0
LINE
8
0
10
208.0664644
20
-145.0437008
11
252.507449
21
-132.3004536
0
LINE
8
0
10
243.2405053
20
-86.4577076
11
241.0688113
21
-78.8841107
0
LINE
8
0
10
241.0688113
20
-78.8841107
11
220.5941595
21
-84.7551227
0
LINE
8
0
10
220.5941595
20
-84.7551227
11
218.7106573
21
-79.5802429
0
LINE
8
0
10
218.7106573
20
-79.5802429
11
198.507266
21
-86.933676
0
LINE
8
0
10
198.507266
20
-86.933676
11
199.6615839
21
-90.1051385
0
LINE
8
0
10
204.6761389
20
-146.2776784
11
208.0664644
21
-145.0437008
0
LINE
8
0
10
182.7471169
20
-96.2615011
11
199.6615839
21
-90.1051385
0
LINE
8
0
10
182.7471169
20
-96.2615011
11
183.5594147
21
-98.4932711
0
LINE
8
0
10
204.6822835
20
-146.2945606
11
204.6761389
21
-146.2776784
0
LINE
8
0
10
166.6449476
20
-104.6496337
11
184.9141614
21
-154.8438861
0
LINE
8
0
10
184.9286474
20
-154.8836862
11
184.9385382
21
-154.9108607
0
LINE
8
0
10
166.6449476
20
-104.6496337
11
183.5594147
21
-98.4932711
0
LINE
8
0
10
109.1316915
20
-163.3510675
11
126.6609495
21
-172.2826705
0
LINE
8
0
10
137.576052
20
-154.8836862
11
137.5951371
21
-154.8462295
0
LINE
8
0
10
137.5951371
20
-154.8462295
11
137.590538
21
-154.8438861
0
LINE
8
0
10
117.8224159
20
-146.2945606
11
109.1316915
21
-163.3510675
0
LINE
8
0
10
126.6609495
20
-172.2826705
11
142.9710595
21
-183.2839786
0
LINE
8
0
10
142.9710595
20
-183.2839786
11
154.4345141
21
-166.2887084
0
LINE
8
0
10
154.4345141
20
-166.2887084
11
137.5661612
21
-154.9108607
0
LINE
8
0
10
195.8437499
20
-172.2826705
11
213.3730079
21
-163.3510675
0
LINE
8
0
10
213.3730079
20
-163.3510675
11
204.6822835
21
-146.2945606
0
LINE
8
0
10
184.9141614
20
-154.8438861
11
184.9095623
21
-154.8462295
0
LINE
8
0
10
184.9095623
20
-154.8462295
11
184.9286474
21
-154.8836862
0
LINE
8
0
10
179.5336399
20
-183.2839786
11
195.8437499
21
-172.2826705
0
LINE
8
0
10
184.9385382
20
-154.9108607
11
168.0701853
21
-166.2887084
0
LINE
8
0
10
168.0701853
20
-166.2887084
11
179.5336399
21
-183.2839786
0
ENDSEC
0
EOF