0
SECTION
2
HEADER
9
$INSUNITS
70
4
0
ENDSEC
0
SECTION
2
TABLES
0
TABLE
2
LTYPE
0
LTYPE
72
65
70
64
2
CONTINUOUS
3
______
73
0
40
0
0
ENDTAB
0
TABLE
2
LAYER
0
ENDTAB
0
ENDSEC
0
SECTION
2
ENTITIES
0
LINE
8
0
10
47.5461448
20
-136.6134114
11
68.7814441
21
-139.9767524
0
LINE
8
0
10
68.7814441
20
-139.9767524
11
69.9972504
21
-132.3004536
0
LINE
8
0
10
47.5461448
20
-136.6134114
11
56.0718232
21
-82.7843969
0
LINE
8
0
10
56.0718232
20
-82.7843969
11
79.2641941
21
-86.4577076
0
LINE
8
0
10
69.9972504
20
-132.3004536
11
114.438235
21
-145.0437008
0
LINE
8
0
10
92.2744499
20
-81.9920183
11
81.4358881
21
-78.8841107
0
LINE
8
0
10
81.4358881
20
-78.8841107
11
79.2641941
21
-86.4577076
0
LINE
8
0
10
122.8431155
20
-90.1051385
11
123.9974334
21
-86.933676
0
LINE
8
0
10
94.3971159
20
-76.1600415
11
123.9974334
21
-86.933676
0
LINE
8
0
10
92.2744499
20
-81.9920183
11
94.3971159
21
-76.1600415
0
LINE
8
0
10
114.438235
20
-145.0437008
11
117.8285605
21
-146.2776784
0
LINE
8
0
10
138.9452847
20
-98.4932711
11
139.7575825
21
-96.2615011
0
LINE
8
0
10
122.8431155
20
-90.1051385
11
139.7575825
21
-96.2615011
0
LINE
8
0
10
137.5661612
20
-154.9108607
11
137.576052
21
-154.8836862
0
LINE
8
0
10
137.590538
20
-154.8438861
11
155.8597518
21
-104.6496337
0
LINE
8
0
10
117.8285605
20
-146.2776784
11
117.8224159
21
-146.2945606
0
LINE
8
0
10
138.9452847
20
-98.4932711
11
155.8597518
21
-104.6496337
0
LINE
8
0
10
255.3112085
20
-139.9767524
11
276.5465078
21
-136.6134114
0
LINE
8
0
10
268.0208294
20
-82.7843969
11
276.5465078
21
-136.6134114
0
LINE
8
0
10
254.0954022
20
-132.3004536
11
255.3112085
21
-139.9767524
0
LINE
8
0
10
244.8284585
20
-86.4577076
11
268.0208294
21
-82.7843969
0
LINE
8
0
10
209.6544176
20
-145.0437008
11
254.0954022
21
-132.3004536
0
LINE
8
0
10
244.8284585
20
-86.4577076
11
242.6567645
21
-78.8841107
0
LINE
8
0
10
242.6567645
20
-78.8841107
11
231.8182027
21
-81.9920183
0
LINE
8
0
10
200.0952192
20
-86.933676
11
229.6955367
21
-76.1600415
0
LINE
8
0
10
200.0952192
20
-86.933676
11
201.2495371
21
-90.1051385
0
LINE
8
0
10
229.6955367
20
-76.1600415
11
231.8182027
21
-81.9920183
0
LINE
8
0
10
206.2640921
20
-146.2776784
11
209.6544176
21
-145.0437008
0
LINE
8
0
10
184.3350701
20
-96.2615011
11
201.2495371
21
-90.1051385
0
LINE
8
0
10
184.3350701
20
-96.2615011
11
185.1473679
21
-98.4932711
0
LINE
8
0
10
206.2702367
20
-146.2945606
11
206.2640921
21
-146.2776784
0
LINE
8
0
10
168.2329008
20
-104.6496337
11
186.5021146
21
-154.8438861
0
LINE
8
0
10
186.5166006
20
-154.8836862
11
186.5264914
21
-154.9108607
0
LINE
8
0
10
168.2329008
20
-104.6496337
11
185.1473679
21
-98.4932711
0
LINE
8
0
10
109.1316915
20
-163.3510675
11
126.6609495
21
-172.2826705
0
LINE
8
0
10
137.576052
20
-154.8836862
11
137.5951371
21
-154.8462295
0
LINE
8
0
10
137.5951371
20
-154.8462295
11
137.590538
21
-154.8438861
0
LINE
8
0
10
117.8224159
20
-146.2945606
11
109.1316915
21
-163.3510675
0
LINE
8
0
10
126.6609495
20
-172.2826705
11
142.9710595
21
-183.2839786
0
LINE
8
0
10
142.9710595
20
-183.2839786
11
154.4345141
21
-166.2887084
0
LINE
8
0
10
154.4345141
20
-166.2887084
11
137.5661612
21
-154.9108607
0
LINE
8
0
10
197.4317031
20
-172.2826705
11
214.9609611
21
-163.3510675
0
LINE
8
0
10
214.9609611
20
-163.3510675
11
206.2702367
21
-146.2945606
0
LINE
8
0
10
186.5021146
20
-154.8438861
11
186.4975155
21
-154.8462295
0
LINE
8
0
10
186.4975155
20
-154.8462295
11
186.5166006
21
-154.8836862
0
LINE
8
0
10
181.1215931
20
-183.2839786
11
197.4317031
21
-172.2826705
0
LINE
8
0
10
186.5264914
20
-154.9108607
11
169.6581385
21
-166.2887084
0
LINE
8
0
10
169.6581385
20
-166.2887084
11
181.1215931
21
-183.2839786
0
ENDSEC
0
EOF