0
SECTION
2
HEADER
9
$INSUNITS
70
4
0
ENDSEC
0
SECTION
2
TABLES
0
TABLE
2
LTYPE
0
LTYPE
72
65
70
64
2
CONTINUOUS
3
______
73
0
40
0
0
ENDTAB
0
TABLE
2
LAYER
0
ENDTAB
0
ENDSEC
0
SECTION
2
ENTITIES
0
LINE
8
0
10
51.8455702
20
-133.926712
11
65.5226833
21
-136.0929539
0
LINE
8
0
10
65.5226833
20
-136.0929539
11
67.6889252
21
-122.4158408
0
LINE
8
0
10
67.6889252
20
-122.4158408
11
54.0118121
21
-120.2495989
0
LINE
8
0
10
54.0118121
20
-120.2495989
11
51.8455702
21
-133.926712
0
LINE
8
0
10
54.5049562
20
-117.1360102
11
68.1820693
21
-119.3022521
0
LINE
8
0
10
68.1820693
20
-119.3022521
11
70.3483112
21
-105.625139
0
LINE
8
0
10
70.3483112
20
-105.625139
11
56.6711981
21
-103.4588971
0
LINE
8
0
10
56.6711981
20
-103.4588971
11
54.5049562
21
-117.1360102
0
LINE
8
0
10
57.1643421
20
-100.3453085
11
70.8414552
21
-102.5115504
0
LINE
8
0
10
70.8414552
20
-102.5115504
11
73.0076971
21
-88.8344373
0
LINE
8
0
10
73.0076971
20
-88.8344373
11
59.330584
21
-86.6681954
0
LINE
8
0
10
59.330584
20
-86.6681954
11
57.1643421
21
-100.3453085
0
LINE
8
0
10
71.0084566
20
-129.1301683
11
84.3196241
21
-132.9470842
0
LINE
8
0
10
84.3196241
20
-132.9470842
11
88.13654
21
-119.6359167
0
LINE
8
0
10
88.13654
20
-119.6359167
11
74.8253725
21
-115.8190008
0
LINE
8
0
10
74.8253725
20
-115.8190008
11
71.0084566
21
-129.1301683
0
LINE
8
0
10
75.6942916
20
-112.7887194
11
89.0054591
21
-116.6056353
0
LINE
8
0
10
89.0054591
20
-116.6056353
11
92.822375
21
-103.2944678
0
LINE
8
0
10
92.822375
20
-103.2944678
11
79.5112075
21
-99.4775519
0
LINE
8
0
10
79.5112075
20
-99.4775519
11
75.6942916
21
-112.7887194
0
LINE
8
0
10
80.3801267
20
-96.4472705
11
93.6912942
21
-100.2641864
0
LINE
8
0
10
93.6912942
20
-100.2641864
11
97.5082101
21
-86.9530189
0
LINE
8
0
10
97.5082101
20
-86.9530189
11
84.1970426
21
-83.136103
0
LINE
8
0
10
84.1970426
20
-83.136103
11
80.3801267
21
-96.4472705
0
LINE
8
0
10
89.8870236
20
-128.9765226
11
102.8995111
21
-133.7126807
0
LINE
8
0
10
102.8995111
20
-133.7126807
11
107.6356692
21
-120.7001932
0
LINE
8
0
10
107.6356692
20
-120.7001932
11
94.6231817
21
-115.9640351
0
LINE
8
0
10
94.6231817
20
-115.9640351
11
89.8870236
21
-128.9765226
0
LINE
8
0
10
95.701366
20
-113.0017481
11
108.7138535
21
-117.7379062
0
LINE
8
0
10
108.7138535
20
-117.7379062
11
113.4500116
21
-104.7254187
0
LINE
8
0
10
113.4500116
20
-104.7254187
11
100.4375241
21
-99.9892606
0
LINE
8
0
10
100.4375241
20
-99.9892606
11
95.701366
21
-113.0017481
0
LINE
8
0
10
101.5157085
20
-97.0269735
11
114.528196
21
-101.7631316
0
LINE
8
0
10
114.528196
20
-101.7631316
11
119.2643541
21
-88.7506441
0
LINE
8
0
10
119.2643541
20
-88.7506441
11
106.2518666
21
-84.014486
0
LINE
8
0
10
106.2518666
20
-84.014486
11
101.5157085
21
-97.0269735
0
LINE
8
0
10
105.6471727
20
-138.3043477
11
118.6596602
21
-143.0405058
0
LINE
8
0
10
118.6596602
20
-143.0405058
11
123.3958183
21
-130.0280183
0
LINE
8
0
10
123.3958183
20
-130.0280183
11
110.3833308
21
-125.2918602
0
LINE
8
0
10
110.3833308
20
-125.2918602
11
105.6471727
21
-138.3043477
0
LINE
8
0
10
111.4615152
20
-122.3295731
11
124.4740027
21
-127.0657312
0
LINE
8
0
10
124.4740027
20
-127.0657312
11
129.2101608
21
-114.0532437
0
LINE
8
0
10
129.2101608
20
-114.0532437
11
116.1976733
21
-109.3170856
0
LINE
8
0
10
116.1976733
20
-109.3170856
11
111.4615152
21
-122.3295731
0
LINE
8
0
10
117.2758576
20
-106.3547986
11
130.2883451
21
-111.0909567
0
LINE
8
0
10
130.2883451
20
-111.0909567
11
135.0245032
21
-98.0784692
0
LINE
8
0
10
135.0245032
20
-98.0784692
11
122.0120157
21
-93.3423111
0
LINE
8
0
10
122.0120157
20
-93.3423111
11
117.2758576
21
-106.3547986
0
LINE
8
0
10
121.749342
20
-146.6924803
11
134.7618295
21
-151.4286384
0
LINE
8
0
10
134.7618295
20
-151.4286384
11
139.4979876
21
-138.4161509
0
LINE
8
0
10
139.4979876
20
-138.4161509
11
126.4855001
21
-133.6799928
0
LINE
8
0
10
126.4855001
20
-133.6799928
11
121.749342
21
-146.6924803
0
LINE
8
0
10
127.5636845
20
-130.7177058
11
140.576172
21
-135.4538639
0
LINE
8
0
10
140.576172
20
-135.4538639
11
145.3123301
21
-122.4413764
0
LINE
8
0
10
145.3123301
20
-122.4413764
11
132.2998426
21
-117.7052183
0
LINE
8
0
10
132.2998426
20
-117.7052183
11
127.5636845
21
-130.7177058
0
LINE
8
0
10
133.3780269
20
-114.7429312
11
146.3905144
21
-119.4790893
0
LINE
8
0
10
146.3905144
20
-119.4790893
11
151.1266725
21
-106.4666018
0
LINE
8
0
10
151.1266725
20
-106.4666018
11
138.114185
21
-101.7304437
0
LINE
8
0
10
138.114185
20
-101.7304437
11
133.3780269
21
-114.7429312
0
LINE
8
0
10
256.9820161
20
-136.0929539
11
270.6591292
21
-133.926712
0
LINE
8
0
10
270.6591292
20
-133.926712
11
268.4928873
21
-120.2495989
0
LINE
8
0
10
268.4928873
20
-120.2495989
11
254.8157742
21
-122.4158408
0
LINE
8
0
10
254.8157742
20
-122.4158408
11
256.9820161
21
-136.0929539
0
LINE
8
0
10
254.3226301
20
-119.3022521
11
267.9997432
21
-117.1360102
0
LINE
8
0
10
267.9997432
20
-117.1360102
11
265.8335013
21
-103.4588971
0
LINE
8
0
10
265.8335013
20
-103.4588971
11
252.1563882
21
-105.625139
0
LINE
8
0
10
252.1563882
20
-105.625139
11
254.3226301
21
-119.3022521
0
LINE
8
0
10
251.6632442
20
-102.5115504
11
265.3403573
21
-100.3453085
0
LINE
8
0
10
265.3403573
20
-100.3453085
11
263.1741154
21
-86.6681954
0
LINE
8
0
10
263.1741154
20
-86.6681954
11
249.4970023
21
-88.8344373
0
LINE
8
0
10
249.4970023
20
-88.8344373
11
251.6632442
21
-102.5115504
0
LINE
8
0
10
238.1850753
20
-132.9470842
11
251.4962428
21
-129.1301683
0
LINE
8
0
10
251.4962428
20
-129.1301683
11
247.6793269
21
-115.8190008
0
LINE
8
0
10
247.6793269
20
-115.8190008
11
234.3681594
21
-119.6359167
0
LINE
8
0
10
234.3681594
20
-119.6359167
11
238.1850753
21
-132.9470842
0
LINE
8
0
10
233.4992403
20
-116.6056353
11
246.8104078
21
-112.7887194
0
LINE
8
0
10
246.8104078
20
-112.7887194
11
242.9934919
21
-99.4775519
0
LINE
8
0
10
242.9934919
20
-99.4775519
11
229.6823244
21
-103.2944678
0
LINE
8
0
10
229.6823244
20
-103.2944678
11
233.4992403
21
-116.6056353
0
LINE
8
0
10
228.8134052
20
-100.2641864
11
242.1245727
21
-96.4472705
0
LINE
8
0
10
242.1245727
20
-96.4472705
11
238.3076568
21
-83.136103
0
LINE
8
0
10
238.3076568
20
-83.136103
11
224.9964893
21
-86.9530189
0
LINE
8
0
10
224.9964893
20
-86.9530189
11
228.8134052
21
-100.2641864
0
LINE
8
0
10
219.6051883
20
-133.7126807
11
232.6176758
21
-128.9765226
0
LINE
8
0
10
232.6176758
20
-128.9765226
11
227.8815177
21
-115.9640351
0
LINE
8
0
10
227.8815177
20
-115.9640351
11
214.8690302
21
-120.7001932
0
LINE
8
0
10
214.8690302
20
-120.7001932
11
219.6051883
21
-133.7126807
0
LINE
8
0
10
213.7908459
20
-117.7379062
11
226.8033334
21
-113.0017481
0
LINE
8
0
10
226.8033334
20
-113.0017481
11
222.0671753
21
-99.9892606
0
LINE
8
0
10
222.0671753
20
-99.9892606
11
209.0546878
21
-104.7254187
0
LINE
8
0
10
209.0546878
20
-104.7254187
11
213.7908459
21
-117.7379062
0
LINE
8
0
10
207.9765034
20
-101.7631316
11
220.9889909
21
-97.0269735
0
LINE
8
0
10
220.9889909
20
-97.0269735
11
216.2528328
21
-84.014486
0
LINE
8
0
10
216.2528328
20
-84.014486
11
203.2403453
21
-88.7506441
0
LINE
8
0
10
203.2403453
20
-88.7506441
11
207.9765034
21
-101.7631316
0
LINE
8
0
10
203.8450392
20
-143.0405058
11
216.8575267
21
-138.3043477
0
LINE
8
0
10
216.8575267
20
-138.3043477
11
212.1213686
21
-125.2918602
0
LINE
8
0
10
212.1213686
20
-125.2918602
11
199.1088811
21
-130.0280183
0
LINE
8
0
10
199.1088811
20
-130.0280183
11
203.8450392
21
-143.0405058
0
LINE
8
0
10
198.0306967
20
-127.0657312
11
211.0431842
21
-122.3295731
0
LINE
8
0
10
211.0431842
20
-122.3295731
11
206.3070261
21
-109.3170856
0
LINE
8
0
10
206.3070261
20
-109.3170856
11
193.2945386
21
-114.0532437
0
LINE
8
0
10
193.2945386
20
-114.0532437
11
198.0306967
21
-127.0657312
0
LINE
8
0
10
192.2163543
20
-111.0909567
11
205.2288418
21
-106.3547986
0
LINE
8
0
10
205.2288418
20
-106.3547986
11
200.4926837
21
-93.3423111
0
LINE
8
0
10
200.4926837
20
-93.3423111
11
187.4801962
21
-98.0784692
0
LINE
8
0
10
187.4801962
20
-98.0784692
11
192.2163543
21
-111.0909567
0
LINE
8
0
10
187.7428699
20
-151.4286384
11
200.7553574
21
-146.6924803
0
LINE
8
0
10
200.7553574
20
-146.6924803
11
196.0191993
21
-133.6799928
0
LINE
8
0
10
196.0191993
20
-133.6799928
11
183.0067118
21
-138.4161509
0
LINE
8
0
10
183.0067118
20
-138.4161509
11
187.7428699
21
-151.4286384
0
LINE
8
0
10
181.9285274
20
-135.4538639
11
194.9410149
21
-130.7177058
0
LINE
8
0
10
194.9410149
20
-130.7177058
11
190.2048568
21
-117.7052183
0
LINE
8
0
10
190.2048568
20
-117.7052183
11
177.1923693
21
-122.4413764
0
LINE
8
0
10
177.1923693
20
-122.4413764
11
181.9285274
21
-135.4538639
0
LINE
8
0
10
176.114185
20
-119.4790893
11
189.1266725
21
-114.7429312
0
LINE
8
0
10
189.1266725
20
-114.7429312
11
184.3905144
21
-101.7304437
0
LINE
8
0
10
184.3905144
20
-101.7304437
11
171.3780269
21
-106.4666018
0
LINE
8
0
10
171.3780269
20
-106.4666018
11
176.114185
21
-119.4790893
0
LINE
8
0
10
114.0509239
20
-162.1244601
11
126.3892259
21
-168.4111389
0
LINE
8
0
10
126.3892259
20
-168.4111389
11
132.6759047
21
-156.0728369
0
LINE
8
0
10
132.6759047
20
-156.0728369
11
120.3376027
21
-149.7861581
0
LINE
8
0
10
120.3376027
20
-149.7861581
11
114.0509239
21
-162.1244601
0
LINE
8
0
10
130.1788027
20
-170.6433703
11
141.6589834
21
-178.38685
0
LINE
8
0
10
141.6589834
20
-178.38685
11
149.4024631
21
-166.9066693
0
LINE
8
0
10
149.4024631
20
-166.9066693
11
137.9222824
21
-159.1631896
0
LINE
8
0
10
137.9222824
20
-159.1631896
11
130.1788027
21
-170.6433703
0
LINE
8
0
10
196.1154735
20
-168.4111389
11
208.4537755
21
-162.1244601
0
LINE
8
0
10
208.4537755
20
-162.1244601
11
202.1670967
21
-149.7861581
0
LINE
8
0
10
202.1670967
20
-149.7861581
11
189.8287947
21
-156.0728369
0
LINE
8
0
10
189.8287947
20
-156.0728369
11
196.1154735
21
-168.4111389
0
LINE
8
0
10
180.845716
20
-178.38685
11
192.3258967
21
-170.6433703
0
LINE
8
0
10
192.3258967
20
-170.6433703
11
184.582417
21
-159.1631896
0
LINE
8
0
10
184.582417
20
-159.1631896
11
173.1022363
21
-166.9066693
0
LINE
8
0
10
173.1022363
20
-166.9066693
11
180.845716
21
-178.38685
0
ENDSEC
0
EOF