0
SECTION
2
HEADER
9
$INSUNITS
70
4
0
ENDSEC
0
SECTION
2
TABLES
0
TABLE
2
LTYPE
0
LTYPE
72
65
70
64
2
CONTINUOUS
3
______
73
0
40
0
0
ENDTAB
0
TABLE
2
LAYER
0
ENDTAB
0
ENDSEC
0
SECTION
2
ENTITIES
0
LINE
8
0
10
47.5461448
20
-136.6134114
11
68.7814441
21
-139.9767524
0
LINE
8
0
10
68.7814441
20
-139.9767524
11
69.9972504
21
-132.3004536
0
LINE
8
0
10
47.5461448
20
-136.6134114
11
56.0718232
21
-82.7843969
0
LINE
8
0
10
56.0718232
20
-82.7843969
11
79.2641941
21
-86.4577076
0
LINE
8
0
10
69.9972504
20
-132.3004536
11
114.438235
21
-145.0437008
0
LINE
8
0
10
101.9105399
20
-84.7551227
11
81.4358881
21
-78.8841107
0
LINE
8
0
10
81.4358881
20
-78.8841107
11
79.2641941
21
-86.4577076
0
LINE
8
0
10
122.8431155
20
-90.1051385
11
123.9974334
21
-86.933676
0
LINE
8
0
10
123.9974334
20
-86.933676
11
103.7940421
21
-79.5802429
0
LINE
8
0
10
103.7940421
20
-79.5802429
11
101.9105399
21
-84.7551227
0
LINE
8
0
10
114.438235
20
-145.0437008
11
117.8285605
21
-146.2776784
0
LINE
8
0
10
138.9452847
20
-98.4932711
11
139.7575825
21
-96.2615011
0
LINE
8
0
10
122.8431155
20
-90.1051385
11
139.7575825
21
-96.2615011
0
LINE
8
0
10
137.5661612
20
-154.9108607
11
137.576052
21
-154.8836862
0
LINE
8
0
10
137.590538
20
-154.8438861
11
155.8597518
21
-104.6496337
0
LINE
8
0
10
117.8285605
20
-146.2776784
11
117.8224159
21
-146.2945606
0
LINE
8
0
10
138.9452847
20
-98.4932711
11
155.8597518
21
-104.6496337
0
LINE
8
0
10
255.3112085
20
-139.9767524
11
276.5465078
21
-136.6134114
0
LINE
8
0
10
268.0208294
20
-82.7843969
11
276.5465078
21
-136.6134114
0
LINE
8
0
10
254.0954022
20
-132.3004536
11
255.3112085
21
-139.9767524
0
LINE
8
0
10
244.8284585
20
-86.4577076
11
268.0208294
21
-82.7843969
0
LINE
8
0
10
209.6544176
20
-145.0437008
11
254.0954022
21
-132.3004536
0
LINE
8
0
10
244.8284585
20
-86.4577076
11
242.6567645
21
-78.8841107
0
LINE
8
0
10
242.6567645
20
-78.8841107
11
222.1821127
21
-84.7551227
0
LINE
8
0
10
222.1821127
20
-84.7551227
11
220.2986105
21
-79.5802429
0
LINE
8
0
10
220.2986105
20
-79.5802429
11
200.0952192
21
-86.933676
0
LINE
8
0
10
200.0952192
20
-86.933676
11
201.2495371
21
-90.1051385
0
LINE
8
0
10
206.2640921
20
-146.2776784
11
209.6544176
21
-145.0437008
0
LINE
8
0
10
184.3350701
20
-96.2615011
11
201.2495371
21
-90.1051385
0
LINE
8
0
10
184.3350701
20
-96.2615011
11
185.1473679
21
-98.4932711
0
LINE
8
0
10
206.2702367
20
-146.2945606
11
206.2640921
21
-146.2776784
0
LINE
8
0
10
168.2329008
20
-104.6496337
11
186.5021146
21
-154.8438861
0
LINE
8
0
10
186.5166006
20
-154.8836862
11
186.5264914
21
-154.9108607
0
LINE
8
0
10
168.2329008
20
-104.6496337
11
185.1473679
21
-98.4932711
0
LINE
8
0
10
109.1316915
20
-163.3510675
11
126.6609495
21
-172.2826705
0
LINE
8
0
10
137.576052
20
-154.8836862
11
137.5951371
21
-154.8462295
0
LINE
8
0
10
137.5951371
20
-154.8462295
11
137.590538
21
-154.8438861
0
LINE
8
0
10
117.8224159
20
-146.2945606
11
109.1316915
21
-163.3510675
0
LINE
8
0
10
126.6609495
20
-172.2826705
11
142.9710595
21
-183.2839786
0
LINE
8
0
10
142.9710595
20
-183.2839786
11
154.4345141
21
-166.2887084
0
LINE
8
0
10
154.4345141
20
-166.2887084
11
137.5661612
21
-154.9108607
0
LINE
8
0
10
197.4317031
20
-172.2826705
11
214.9609611
21
-163.3510675
0
LINE
8
0
10
214.9609611
20
-163.3510675
11
206.2702367
21
-146.2945606
0
LINE
8
0
10
186.5021146
20
-154.8438861
11
186.4975155
21
-154.8462295
0
LINE
8
0
10
186.4975155
20
-154.8462295
11
186.5166006
21
-154.8836862
0
LINE
8
0
10
181.1215931
20
-183.2839786
11
197.4317031
21
-172.2826705
0
LINE
8
0
10
186.5264914
20
-154.9108607
11
169.6581385
21
-166.2887084
0
LINE
8
0
10
169.6581385
20
-166.2887084
11
181.1215931
21
-183.2839786
0
LINE
8
0
10
51.8455702
20
-133.926712
11
65.5226833
21
-136.0929539
0
LINE
8
0
10
65.5226833
20
-136.0929539
11
67.6889252
21
-122.4158408
0
LINE
8
0
10
67.6889252
20
-122.4158408
11
54.0118121
21
-120.2495989
0
LINE
8
0
10
54.0118121
20
-120.2495989
11
51.8455702
21
-133.926712
0
LINE
8
0
10
54.5049562
20
-117.1360102
11
68.1820693
21
-119.3022521
0
LINE
8
0
10
68.1820693
20
-119.3022521
11
70.3483112
21
-105.625139
0
LINE
8
0
10
70.3483112
20
-105.625139
11
56.6711981
21
-103.4588971
0
LINE
8
0
10
56.6711981
20
-103.4588971
11
54.5049562
21
-117.1360102
0
LINE
8
0
10
57.1643421
20
-100.3453085
11
70.8414552
21
-102.5115504
0
LINE
8
0
10
70.8414552
20
-102.5115504
11
73.0076971
21
-88.8344373
0
LINE
8
0
10
73.0076971
20
-88.8344373
11
59.330584
21
-86.6681954
0
LINE
8
0
10
59.330584
20
-86.6681954
11
57.1643421
21
-100.3453085
0
LINE
8
0
10
71.0084566
20
-129.1301683
11
84.3196241
21
-132.9470842
0
LINE
8
0
10
84.3196241
20
-132.9470842
11
88.13654
21
-119.6359167
0
LINE
8
0
10
88.13654
20
-119.6359167
11
74.8253725
21
-115.8190008
0
LINE
8
0
10
74.8253725
20
-115.8190008
11
71.0084566
21
-129.1301683
0
LINE
8
0
10
75.6942916
20
-112.7887194
11
89.0054591
21
-116.6056353
0
LINE
8
0
10
89.0054591
20
-116.6056353
11
92.822375
21
-103.2944678
0
LINE
8
0
10
92.822375
20
-103.2944678
11
79.5112075
21
-99.4775519
0
LINE
8
0
10
79.5112075
20
-99.4775519
11
75.6942916
21
-112.7887194
0
LINE
8
0
10
80.3801267
20
-96.4472705
11
93.6912942
21
-100.2641864
0
LINE
8
0
10
93.6912942
20
-100.2641864
11
97.5082101
21
-86.9530189
0
LINE
8
0
10
97.5082101
20
-86.9530189
11
84.1970426
21
-83.136103
0
LINE
8
0
10
84.1970426
20
-83.136103
11
80.3801267
21
-96.4472705
0
LINE
8
0
10
89.8870236
20
-128.9765226
11
102.8995111
21
-133.7126807
0
LINE
8
0
10
102.8995111
20
-133.7126807
11
107.6356692
21
-120.7001932
0
LINE
8
0
10
107.6356692
20
-120.7001932
11
94.6231817
21
-115.9640351
0
LINE
8
0
10
94.6231817
20
-115.9640351
11
89.8870236
21
-128.9765226
0
LINE
8
0
10
95.701366
20
-113.0017481
11
108.7138535
21
-117.7379062
0
LINE
8
0
10
108.7138535
20
-117.7379062
11
113.4500116
21
-104.7254187
0
LINE
8
0
10
113.4500116
20
-104.7254187
11
100.4375241
21
-99.9892606
0
LINE
8
0
10
100.4375241
20
-99.9892606
11
95.701366
21
-113.0017481
0
LINE
8
0
10
101.5157085
20
-97.0269735
11
114.528196
21
-101.7631316
0
LINE
8
0
10
114.528196
20
-101.7631316
11
119.2643541
21
-88.7506441
0
LINE
8
0
10
119.2643541
20
-88.7506441
11
106.2518666
21
-84.014486
0
LINE
8
0
10
106.2518666
20
-84.014486
11
101.5157085
21
-97.0269735
0
LINE
8
0
10
105.6471727
20
-138.3043477
11
118.6596602
21
-143.0405058
0
LINE
8
0
10
118.6596602
20
-143.0405058
11
123.3958183
21
-130.0280183
0
LINE
8
0
10
123.3958183
20
-130.0280183
11
110.3833308
21
-125.2918602
0
LINE
8
0
10
110.3833308
20
-125.2918602
11
105.6471727
21
-138.3043477
0
LINE
8
0
10
111.4615152
20
-122.3295731
11
124.4740027
21
-127.0657312
0
LINE
8
0
10
124.4740027
20
-127.0657312
11
129.2101608
21
-114.0532437
0
LINE
8
0
10
129.2101608
20
-114.0532437
11
116.1976733
21
-109.3170856
0
LINE
8
0
10
116.1976733
20
-109.3170856
11
111.4615152
21
-122.3295731
0
LINE
8
0
10
117.2758576
20
-106.3547986
11
130.2883451
21
-111.0909567
0
LINE
8
0
10
130.2883451
20
-111.0909567
11
135.0245032
21
-98.0784692
0
LINE
8
0
10
135.0245032
20
-98.0784692
11
122.0120157
21
-93.3423111
0
LINE
8
0
10
122.0120157
20
-93.3423111
11
117.2758576
21
-106.3547986
0
LINE
8
0
10
121.749342
20
-146.6924803
11
134.7618295
21
-151.4286384
0
LINE
8
0
10
134.7618295
20
-151.4286384
11
139.4979876
21
-138.4161509
0
LINE
8
0
10
139.4979876
20
-138.4161509
11
126.4855001
21
-133.6799928
0
LINE
8
0
10
126.4855001
20
-133.6799928
11
121.749342
21
-146.6924803
0
LINE
8
0
10
127.5636845
20
-130.7177058
11
140.576172
21
-135.4538639
0
LINE
8
0
10
140.576172
20
-135.4538639
11
145.3123301
21
-122.4413764
0
LINE
8
0
10
145.3123301
20
-122.4413764
11
132.2998426
21
-117.7052183
0
LINE
8
0
10
132.2998426
20
-117.7052183
11
127.5636845
21
-130.7177058
0
LINE
8
0
10
133.3780269
20
-114.7429312
11
146.3905144
21
-119.4790893
0
LINE
8
0
10
146.3905144
20
-119.4790893
11
151.1266725
21
-106.4666018
0
LINE
8
0
10
151.1266725
20
-106.4666018
11
138.114185
21
-101.7304437
0
LINE
8
0
10
138.114185
20
-101.7304437
11
133.3780269
21
-114.7429312
0
LINE
8
0
10
258.5699693
20
-136.0929539
11
272.2470824
21
-133.926712
0
LINE
8
0
10
272.2470824
20
-133.926712
11
270.0808405
21
-120.2495989
0
LINE
8
0
10
270.0808405
20
-120.2495989
11
256.4037274
21
-122.4158408
0
LINE
8
0
10
256.4037274
20
-122.4158408
11
258.5699693
21
-136.0929539
0
LINE
8
0
10
255.9105833
20
-119.3022521
11
269.5876964
21
-117.1360102
0
LINE
8
0
10
269.5876964
20
-117.1360102
11
267.4214545
21
-103.4588971
0
LINE
8
0
10
267.4214545
20
-103.4588971
11
253.7443414
21
-105.625139
0
LINE
8
0
10
253.7443414
20
-105.625139
11
255.9105833
21
-119.3022521
0
LINE
8
0
10
253.2511974
20
-102.5115504
11
266.9283105
21
-100.3453085
0
LINE
8
0
10
266.9283105
20
-100.3453085
11
264.7620686
21
-86.6681954
0
LINE
8
0
10
264.7620686
20
-86.6681954
11
251.0849555
21
-88.8344373
0
LINE
8
0
10
251.0849555
20
-88.8344373
11
253.2511974
21
-102.5115504
0
LINE
8
0
10
239.7730285
20
-132.9470842
11
253.084196
21
-129.1301683
0
LINE
8
0
10
253.084196
20
-129.1301683
11
249.2672801
21
-115.8190008
0
LINE
8
0
10
249.2672801
20
-115.8190008
11
235.9561126
21
-119.6359167
0
LINE
8
0
10
235.9561126
20
-119.6359167
11
239.7730285
21
-132.9470842
0
LINE
8
0
10
235.0871935
20
-116.6056353
11
248.398361
21
-112.7887194
0
LINE
8
0
10
248.398361
20
-112.7887194
11
244.5814451
21
-99.4775519
0
LINE
8
0
10
244.5814451
20
-99.4775519
11
231.2702776
21
-103.2944678
0
LINE
8
0
10
231.2702776
20
-103.2944678
11
235.0871935
21
-116.6056353
0
LINE
8
0
10
230.4013584
20
-100.2641864
11
243.7125259
21
-96.4472705
0
LINE
8
0
10
243.7125259
20
-96.4472705
11
239.89561
21
-83.136103
0
LINE
8
0
10
239.89561
20
-83.136103
11
226.5844425
21
-86.9530189
0
LINE
8
0
10
226.5844425
20
-86.9530189
11
230.4013584
21
-100.2641864
0
LINE
8
0
10
221.1931415
20
-133.7126807
11
234.205629
21
-128.9765226
0
LINE
8
0
10
234.205629
20
-128.9765226
11
229.4694709
21
-115.9640351
0
LINE
8
0
10
229.4694709
20
-115.9640351
11
216.4569834
21
-120.7001932
0
LINE
8
0
10
216.4569834
20
-120.7001932
11
221.1931415
21
-133.7126807
0
LINE
8
0
10
215.3787991
20
-117.7379062
11
228.3912866
21
-113.0017481
0
LINE
8
0
10
228.3912866
20
-113.0017481
11
223.6551285
21
-99.9892606
0
LINE
8
0
10
223.6551285
20
-99.9892606
11
210.642641
21
-104.7254187
0
LINE
8
0
10
210.642641
20
-104.7254187
11
215.3787991
21
-117.7379062
0
LINE
8
0
10
209.5644566
20
-101.7631316
11
222.5769441
21
-97.0269735
0
LINE
8
0
10
222.5769441
20
-97.0269735
11
217.840786
21
-84.014486
0
LINE
8
0
10
217.840786
20
-84.014486
11
204.8282985
21
-88.7506441
0
LINE
8
0
10
204.8282985
20
-88.7506441
11
209.5644566
21
-101.7631316
0
LINE
8
0
10
205.4329924
20
-143.0405058
11
218.4454799
21
-138.3043477
0
LINE
8
0
10
218.4454799
20
-138.3043477
11
213.7093218
21
-125.2918602
0
LINE
8
0
10
213.7093218
20
-125.2918602
11
200.6968343
21
-130.0280183
0
LINE
8
0
10
200.6968343
20
-130.0280183
11
205.4329924
21
-143.0405058
0
LINE
8
0
10
199.6186499
20
-127.0657312
11
212.6311374
21
-122.3295731
0
LINE
8
0
10
212.6311374
20
-122.3295731
11
207.8949793
21
-109.3170856
0
LINE
8
0
10
207.8949793
20
-109.3170856
11
194.8824918
21
-114.0532437
0
LINE
8
0
10
194.8824918
20
-114.0532437
11
199.6186499
21
-127.0657312
0
LINE
8
0
10
193.8043075
20
-111.0909567
11
206.816795
21
-106.3547986
0
LINE
8
0
10
206.816795
20
-106.3547986
11
202.0806369
21
-93.3423111
0
LINE
8
0
10
202.0806369
20
-93.3423111
11
189.0681494
21
-98.0784692
0
LINE
8
0
10
189.0681494
20
-98.0784692
11
193.8043075
21
-111.0909567
0
LINE
8
0
10
189.3308231
20
-151.4286384
11
202.3433106
21
-146.6924803
0
LINE
8
0
10
202.3433106
20
-146.6924803
11
197.6071525
21
-133.6799928
0
LINE
8
0
10
197.6071525
20
-133.6799928
11
184.594665
21
-138.4161509
0
LINE
8
0
10
184.594665
20
-138.4161509
11
189.3308231
21
-151.4286384
0
LINE
8
0
10
183.5164806
20
-135.4538639
11
196.5289681
21
-130.7177058
0
LINE
8
0
10
196.5289681
20
-130.7177058
11
191.79281
21
-117.7052183
0
LINE
8
0
10
191.79281
20
-117.7052183
11
178.7803225
21
-122.4413764
0
LINE
8
0
10
178.7803225
20
-122.4413764
11
183.5164806
21
-135.4538639
0
LINE
8
0
10
177.7021382
20
-119.4790893
11
190.7146257
21
-114.7429312
0
LINE
8
0
10
190.7146257
20
-114.7429312
11
185.9784676
21
-101.7304437
0
LINE
8
0
10
185.9784676
20
-101.7304437
11
172.9659801
21
-106.4666018
0
LINE
8
0
10
172.9659801
20
-106.4666018
11
177.7021382
21
-119.4790893
0
LINE
8
0
10
114.0509239
20
-162.1244601
11
126.3892259
21
-168.4111389
0
LINE
8
0
10
126.3892259
20
-168.4111389
11
132.6759047
21
-156.0728369
0
LINE
8
0
10
132.6759047
20
-156.0728369
11
120.3376027
21
-149.7861581
0
LINE
8
0
10
120.3376027
20
-149.7861581
11
114.0509239
21
-162.1244601
0
LINE
8
0
10
130.1788027
20
-170.6433703
11
141.6589834
21
-178.38685
0
LINE
8
0
10
141.6589834
20
-178.38685
11
149.4024631
21
-166.9066693
0
LINE
8
0
10
149.4024631
20
-166.9066693
11
137.9222824
21
-159.1631896
0
LINE
8
0
10
137.9222824
20
-159.1631896
11
130.1788027
21
-170.6433703
0
LINE
8
0
10
197.7034267
20
-168.4111389
11
210.0417287
21
-162.1244601
0
LINE
8
0
10
210.0417287
20
-162.1244601
11
203.7550499
21
-149.7861581
0
LINE
8
0
10
203.7550499
20
-149.7861581
11
191.4167479
21
-156.0728369
0
LINE
8
0
10
191.4167479
20
-156.0728369
11
197.7034267
21
-168.4111389
0
LINE
8
0
10
182.4336692
20
-178.38685
11
193.9138499
21
-170.6433703
0
LINE
8
0
10
193.9138499
20
-170.6433703
11
186.1703702
21
-159.1631896
0
LINE
8
0
10
186.1703702
20
-159.1631896
11
174.6901895
21
-166.9066693
0
LINE
8
0
10
174.6901895
20
-166.9066693
11
182.4336692
21
-178.38685
0
ENDSEC
0
EOF